<svg width="319" height="52" viewBox="0 0 319 52" fill="none" xmlns="http://www.w3.org/2000/svg">
<mask id="path-1-outside-1_3143_8143" maskUnits="userSpaceOnUse" x="-0.148438" y="-0.339844" width="319" height="52" fill="black">
<rect fill="white" x="-0.148438" y="-0.339844" width="319" height="52"/>
<path d="M7.02392 7.19186H23.6703C27.4947 7.19186 30.4142 8.02844 32.4288 9.70161C34.4776 11.3406 35.502 13.5602 35.502 16.3602C35.502 18.1016 35.0239 19.6723 34.0678 21.0723C33.1117 22.4382 31.8483 23.4284 30.2776 24.0431C32.3947 24.5553 34.0678 25.5797 35.2971 27.1163C36.5264 28.6528 37.141 30.5821 37.141 32.9041C37.141 36.1138 36.0654 38.7089 33.9142 40.6894C31.7971 42.6699 29.0312 43.6602 25.6166 43.6602H7.02392V7.19186ZM13.2727 12.365V22.4041H21.98C24.4386 22.4041 26.2483 22.0284 27.4093 21.2772C28.5703 20.4919 29.1508 19.1943 29.1508 17.3845C29.1508 15.3358 28.5361 13.987 27.3069 13.3382C26.1117 12.6894 24.4044 12.365 22.1849 12.365H13.2727ZM13.2727 27.0138V38.4358H22.8508C25.3093 38.4358 27.2386 38.026 28.6386 37.2065C30.0386 36.387 30.7386 34.9016 30.7386 32.7504C30.7386 31.5553 30.5166 30.565 30.0727 29.7797C29.663 28.9602 29.0483 28.3626 28.2288 27.987C27.4434 27.6114 26.6239 27.3553 25.7703 27.2187C24.9166 27.0821 23.9093 27.0138 22.7483 27.0138H13.2727ZM43.2413 7.19186V43.6602H37.4535V7.19186H43.2413ZM56.7229 16.4626C60.7521 16.4626 63.9619 17.726 66.3521 20.2528C68.7424 22.7797 69.9375 26.1772 69.9375 30.4455C69.9375 34.748 68.7424 38.1626 66.3521 40.6894C63.996 43.2163 60.7863 44.4797 56.7229 44.4797C52.5912 44.4797 49.3131 43.2163 46.8887 40.6894C44.4643 38.1626 43.2521 34.748 43.2521 30.4455C43.2521 26.1772 44.4643 22.7797 46.8887 20.2528C49.3473 17.726 52.6253 16.4626 56.7229 16.4626ZM62.0497 23.5821C60.7521 21.9089 58.9424 21.0723 56.6204 21.0723C54.2985 21.0723 52.4716 21.9089 51.1399 23.5821C49.8082 25.2553 49.1424 27.5431 49.1424 30.4455C49.1424 33.4163 49.8082 35.7382 51.1399 37.4114C52.4716 39.0845 54.3155 39.9211 56.6716 39.9211C58.9594 39.9211 60.7521 39.0845 62.0497 37.4114C63.3814 35.7041 64.0473 33.365 64.0473 30.3943C64.0473 27.4919 63.3814 25.2211 62.0497 23.5821ZM93.6917 33.6724C93.282 36.9163 91.9844 39.5114 89.7991 41.4577C87.6137 43.3699 84.8649 44.326 81.5527 44.326C77.5917 44.326 74.4332 43.0797 72.0771 40.587C69.721 38.0602 68.543 34.765 68.543 30.7016C68.543 26.3309 69.721 22.865 72.0771 20.3041C74.4674 17.7089 77.6771 16.4114 81.7064 16.4114C85.0869 16.4114 87.8015 17.265 89.8503 18.9723C91.9332 20.6797 93.1454 23.0528 93.4869 26.0919H87.6991C87.3576 24.4187 86.6747 23.1382 85.6503 22.2504C84.6259 21.3626 83.3283 20.9187 81.7576 20.9187C79.5039 20.9187 77.7283 21.7723 76.4308 23.4797C75.1332 25.1528 74.4844 27.4577 74.4844 30.3943C74.4844 33.3309 75.0991 35.6187 76.3283 37.2577C77.5917 38.8967 79.3332 39.7163 81.5527 39.7163C83.2942 39.7163 84.7113 39.2041 85.8039 38.1797C86.9308 37.1211 87.6478 35.6187 87.9552 33.6724H93.6917ZM116.518 17.2309L106.377 26.9114L117.44 43.6602H110.321L102.279 30.9065L98.7965 34.1845V43.6602H93.1111V7.19186H98.7965V27.7309L109.348 17.2309H116.518ZM139.419 33.6724C139.009 36.9163 137.712 39.5114 135.526 41.4577C133.341 43.3699 130.592 44.326 127.28 44.326C123.319 44.326 120.161 43.0797 117.805 40.587C115.448 38.0602 114.27 34.765 114.27 30.7016C114.27 26.3309 115.448 22.865 117.805 20.3041C120.195 17.7089 123.405 16.4114 127.434 16.4114C130.814 16.4114 133.529 17.265 135.578 18.9723C137.661 20.6797 138.873 23.0528 139.214 26.0919H133.426C133.085 24.4187 132.402 23.1382 131.378 22.2504C130.353 21.3626 129.056 20.9187 127.485 20.9187C125.231 20.9187 123.456 21.7723 122.158 23.4797C120.861 25.1528 120.212 27.4577 120.212 30.3943C120.212 33.3309 120.826 35.6187 122.056 37.2577C123.319 38.8967 125.061 39.7163 127.28 39.7163C129.022 39.7163 130.439 39.2041 131.531 38.1797C132.658 37.1211 133.375 35.6187 133.683 33.6724H139.419ZM144.626 7.19186V20.8675C146.573 17.9992 149.356 16.565 152.975 16.565C155.843 16.565 158.08 17.3504 159.685 18.9211C161.29 20.4577 162.092 22.7284 162.092 25.7333V43.6602H156.202V27.6284C156.202 25.6138 155.843 24.0772 155.126 23.0187C154.443 21.9602 153.095 21.4309 151.08 21.4309C148.826 21.4309 147.187 22.165 146.163 23.6333C145.139 25.1016 144.626 27.048 144.626 29.4723V43.6602H138.839V7.19186H144.626ZM162.82 25.3748C163.435 19.3992 167.294 16.4114 174.396 16.4114C177.708 16.4114 180.338 17.0602 182.284 18.3577C184.264 19.6553 185.255 21.6699 185.255 24.4016V37.8211C185.255 38.5724 185.34 39.0845 185.511 39.3577C185.716 39.6309 186.091 39.7675 186.638 39.7675C187.047 39.7675 187.491 39.7333 187.969 39.665V43.7626C186.467 44.1382 185.203 44.326 184.179 44.326C181.686 44.326 180.252 43.2675 179.877 41.1504C177.657 43.2675 174.567 44.326 170.606 44.326C167.874 44.326 165.706 43.626 164.101 42.226C162.496 40.7919 161.694 38.8626 161.694 36.4382C161.694 35.687 161.779 34.987 161.95 34.3382C162.12 33.6894 162.308 33.126 162.513 32.648C162.752 32.1699 163.111 31.726 163.589 31.3163C164.101 30.9065 164.511 30.565 164.818 30.2919C165.16 30.0187 165.689 29.7626 166.406 29.5236C167.157 29.2845 167.703 29.1138 168.045 29.0114C168.42 28.8748 169.052 28.7382 169.94 28.6016C170.828 28.465 171.408 28.3797 171.681 28.3455C171.989 28.2772 172.603 28.1919 173.525 28.0894C175.608 27.8163 177.025 27.5943 177.777 27.4236C178.528 27.2187 179.04 26.9284 179.313 26.5528C179.552 26.2797 179.672 25.648 179.672 24.6577C179.672 21.9943 177.862 20.6626 174.242 20.6626C172.33 20.6626 170.93 21.0211 170.042 21.7382C169.155 22.4553 168.591 23.6675 168.352 25.3748H162.82ZM179.62 30.3943C179.177 30.6333 178.664 30.8553 178.084 31.0602C177.503 31.2309 177.025 31.3504 176.65 31.4187C176.308 31.4528 175.745 31.5211 174.96 31.6236C174.208 31.726 173.713 31.7943 173.474 31.8284C172.757 31.9309 172.194 32.0333 171.784 32.1358C171.374 32.2041 170.862 32.3406 170.247 32.5455C169.667 32.7504 169.206 33.0065 168.864 33.3138C168.557 33.587 168.284 33.9797 168.045 34.4919C167.806 34.9699 167.686 35.5504 167.686 36.2333C167.686 37.4967 168.096 38.4699 168.916 39.1528C169.769 39.8358 170.947 40.1772 172.45 40.1772C175.045 40.1772 177.042 39.4772 178.442 38.0772C179.228 37.2919 179.62 35.7724 179.62 33.5187V30.3943ZM192.408 7.0382V12.7748H186.569V7.0382H192.408ZM192.408 17.2309V43.6602H186.569V17.2309H192.408ZM199.231 17.2309V21.1236C201.348 18.0504 204.268 16.5138 207.99 16.5138C210.995 16.5138 213.231 17.3333 214.699 18.9723C216.202 20.6114 216.953 22.9675 216.953 26.0406V43.6602H211.114V28.2943C211.114 27.2358 211.063 26.365 210.96 25.6821C210.858 24.965 210.636 24.248 210.295 23.5309C209.987 22.8138 209.475 22.2845 208.758 21.9431C208.041 21.5675 207.119 21.3797 205.992 21.3797C201.69 21.3797 199.538 24.0602 199.538 29.4211V43.6602H193.699V17.2309H199.231ZM241.601 30.2406V35.1577H237.042V43.6602H231.408L231.357 35.1577H216.145V29.3699L231.511 7.49918H237.042V30.2406H241.601ZM231.459 30.2406V14.7211L220.959 30.2406H231.459ZM271.445 7.19186V43.6602H265.042V27.2699H248.345V43.6602H241.942V7.19186H248.345V21.687H265.042V7.19186H271.445ZM296.782 35.4138C296.133 38.2821 294.716 40.5187 292.531 42.1236C290.379 43.7284 287.801 44.5309 284.797 44.5309C280.801 44.5309 277.626 43.2504 275.27 40.6894C272.948 38.0943 271.787 34.7821 271.787 30.7528C271.787 26.6211 272.982 23.2065 275.372 20.5089C277.797 17.8114 280.87 16.4626 284.592 16.4626C288.45 16.4626 291.506 17.7943 293.76 20.4577C296.014 23.087 297.14 26.6894 297.14 31.265V31.8797H277.626C277.694 34.5431 278.36 36.6089 279.623 38.0772C280.887 39.5114 282.645 40.2284 284.899 40.2284C286.504 40.2284 287.801 39.8528 288.792 39.1016C289.816 38.3163 290.619 37.087 291.199 35.4138H296.782ZM291.301 27.987C291.131 25.7675 290.431 24.026 289.201 22.7626C288.006 21.465 286.453 20.8163 284.54 20.8163C282.628 20.8163 281.075 21.4309 279.879 22.6602C278.719 23.8894 278.001 25.665 277.728 27.987H291.301ZM311.414 16.7187V22.3016C310.389 22.1992 309.706 22.148 309.365 22.148C304.277 22.148 301.733 25.4431 301.733 32.0333V43.6602H295.945V17.2309H301.426V22.5065C303.304 18.5797 306.257 16.6163 310.287 16.6163L311.414 16.7187Z"/>
</mask>
<path d="M7.02392 7.19186H23.6703C27.4947 7.19186 30.4142 8.02844 32.4288 9.70161C34.4776 11.3406 35.502 13.5602 35.502 16.3602C35.502 18.1016 35.0239 19.6723 34.0678 21.0723C33.1117 22.4382 31.8483 23.4284 30.2776 24.0431C32.3947 24.5553 34.0678 25.5797 35.2971 27.1163C36.5264 28.6528 37.141 30.5821 37.141 32.9041C37.141 36.1138 36.0654 38.7089 33.9142 40.6894C31.7971 42.6699 29.0312 43.6602 25.6166 43.6602H7.02392V7.19186ZM13.2727 12.365V22.4041H21.98C24.4386 22.4041 26.2483 22.0284 27.4093 21.2772C28.5703 20.4919 29.1508 19.1943 29.1508 17.3845C29.1508 15.3358 28.5361 13.987 27.3069 13.3382C26.1117 12.6894 24.4044 12.365 22.1849 12.365H13.2727ZM13.2727 27.0138V38.4358H22.8508C25.3093 38.4358 27.2386 38.026 28.6386 37.2065C30.0386 36.387 30.7386 34.9016 30.7386 32.7504C30.7386 31.5553 30.5166 30.565 30.0727 29.7797C29.663 28.9602 29.0483 28.3626 28.2288 27.987C27.4434 27.6114 26.6239 27.3553 25.7703 27.2187C24.9166 27.0821 23.9093 27.0138 22.7483 27.0138H13.2727ZM43.2413 7.19186V43.6602H37.4535V7.19186H43.2413ZM56.7229 16.4626C60.7521 16.4626 63.9619 17.726 66.3521 20.2528C68.7424 22.7797 69.9375 26.1772 69.9375 30.4455C69.9375 34.748 68.7424 38.1626 66.3521 40.6894C63.996 43.2163 60.7863 44.4797 56.7229 44.4797C52.5912 44.4797 49.3131 43.2163 46.8887 40.6894C44.4643 38.1626 43.2521 34.748 43.2521 30.4455C43.2521 26.1772 44.4643 22.7797 46.8887 20.2528C49.3473 17.726 52.6253 16.4626 56.7229 16.4626ZM62.0497 23.5821C60.7521 21.9089 58.9424 21.0723 56.6204 21.0723C54.2985 21.0723 52.4716 21.9089 51.1399 23.5821C49.8082 25.2553 49.1424 27.5431 49.1424 30.4455C49.1424 33.4163 49.8082 35.7382 51.1399 37.4114C52.4716 39.0845 54.3155 39.9211 56.6716 39.9211C58.9594 39.9211 60.7521 39.0845 62.0497 37.4114C63.3814 35.7041 64.0473 33.365 64.0473 30.3943C64.0473 27.4919 63.3814 25.2211 62.0497 23.5821ZM93.6917 33.6724C93.282 36.9163 91.9844 39.5114 89.7991 41.4577C87.6137 43.3699 84.8649 44.326 81.5527 44.326C77.5917 44.326 74.4332 43.0797 72.0771 40.587C69.721 38.0602 68.543 34.765 68.543 30.7016C68.543 26.3309 69.721 22.865 72.0771 20.3041C74.4674 17.7089 77.6771 16.4114 81.7064 16.4114C85.0869 16.4114 87.8015 17.265 89.8503 18.9723C91.9332 20.6797 93.1454 23.0528 93.4869 26.0919H87.6991C87.3576 24.4187 86.6747 23.1382 85.6503 22.2504C84.6259 21.3626 83.3283 20.9187 81.7576 20.9187C79.5039 20.9187 77.7283 21.7723 76.4308 23.4797C75.1332 25.1528 74.4844 27.4577 74.4844 30.3943C74.4844 33.3309 75.0991 35.6187 76.3283 37.2577C77.5917 38.8967 79.3332 39.7163 81.5527 39.7163C83.2942 39.7163 84.7113 39.2041 85.8039 38.1797C86.9308 37.1211 87.6478 35.6187 87.9552 33.6724H93.6917ZM116.518 17.2309L106.377 26.9114L117.44 43.6602H110.321L102.279 30.9065L98.7965 34.1845V43.6602H93.1111V7.19186H98.7965V27.7309L109.348 17.2309H116.518ZM139.419 33.6724C139.009 36.9163 137.712 39.5114 135.526 41.4577C133.341 43.3699 130.592 44.326 127.28 44.326C123.319 44.326 120.161 43.0797 117.805 40.587C115.448 38.0602 114.27 34.765 114.27 30.7016C114.27 26.3309 115.448 22.865 117.805 20.3041C120.195 17.7089 123.405 16.4114 127.434 16.4114C130.814 16.4114 133.529 17.265 135.578 18.9723C137.661 20.6797 138.873 23.0528 139.214 26.0919H133.426C133.085 24.4187 132.402 23.1382 131.378 22.2504C130.353 21.3626 129.056 20.9187 127.485 20.9187C125.231 20.9187 123.456 21.7723 122.158 23.4797C120.861 25.1528 120.212 27.4577 120.212 30.3943C120.212 33.3309 120.826 35.6187 122.056 37.2577C123.319 38.8967 125.061 39.7163 127.28 39.7163C129.022 39.7163 130.439 39.2041 131.531 38.1797C132.658 37.1211 133.375 35.6187 133.683 33.6724H139.419ZM144.626 7.19186V20.8675C146.573 17.9992 149.356 16.565 152.975 16.565C155.843 16.565 158.08 17.3504 159.685 18.9211C161.29 20.4577 162.092 22.7284 162.092 25.7333V43.6602H156.202V27.6284C156.202 25.6138 155.843 24.0772 155.126 23.0187C154.443 21.9602 153.095 21.4309 151.08 21.4309C148.826 21.4309 147.187 22.165 146.163 23.6333C145.139 25.1016 144.626 27.048 144.626 29.4723V43.6602H138.839V7.19186H144.626ZM162.82 25.3748C163.435 19.3992 167.294 16.4114 174.396 16.4114C177.708 16.4114 180.338 17.0602 182.284 18.3577C184.264 19.6553 185.255 21.6699 185.255 24.4016V37.8211C185.255 38.5724 185.34 39.0845 185.511 39.3577C185.716 39.6309 186.091 39.7675 186.638 39.7675C187.047 39.7675 187.491 39.7333 187.969 39.665V43.7626C186.467 44.1382 185.203 44.326 184.179 44.326C181.686 44.326 180.252 43.2675 179.877 41.1504C177.657 43.2675 174.567 44.326 170.606 44.326C167.874 44.326 165.706 43.626 164.101 42.226C162.496 40.7919 161.694 38.8626 161.694 36.4382C161.694 35.687 161.779 34.987 161.95 34.3382C162.12 33.6894 162.308 33.126 162.513 32.648C162.752 32.1699 163.111 31.726 163.589 31.3163C164.101 30.9065 164.511 30.565 164.818 30.2919C165.16 30.0187 165.689 29.7626 166.406 29.5236C167.157 29.2845 167.703 29.1138 168.045 29.0114C168.42 28.8748 169.052 28.7382 169.94 28.6016C170.828 28.465 171.408 28.3797 171.681 28.3455C171.989 28.2772 172.603 28.1919 173.525 28.0894C175.608 27.8163 177.025 27.5943 177.777 27.4236C178.528 27.2187 179.04 26.9284 179.313 26.5528C179.552 26.2797 179.672 25.648 179.672 24.6577C179.672 21.9943 177.862 20.6626 174.242 20.6626C172.33 20.6626 170.93 21.0211 170.042 21.7382C169.155 22.4553 168.591 23.6675 168.352 25.3748H162.82ZM179.62 30.3943C179.177 30.6333 178.664 30.8553 178.084 31.0602C177.503 31.2309 177.025 31.3504 176.65 31.4187C176.308 31.4528 175.745 31.5211 174.96 31.6236C174.208 31.726 173.713 31.7943 173.474 31.8284C172.757 31.9309 172.194 32.0333 171.784 32.1358C171.374 32.2041 170.862 32.3406 170.247 32.5455C169.667 32.7504 169.206 33.0065 168.864 33.3138C168.557 33.587 168.284 33.9797 168.045 34.4919C167.806 34.9699 167.686 35.5504 167.686 36.2333C167.686 37.4967 168.096 38.4699 168.916 39.1528C169.769 39.8358 170.947 40.1772 172.45 40.1772C175.045 40.1772 177.042 39.4772 178.442 38.0772C179.228 37.2919 179.62 35.7724 179.62 33.5187V30.3943ZM192.408 7.0382V12.7748H186.569V7.0382H192.408ZM192.408 17.2309V43.6602H186.569V17.2309H192.408ZM199.231 17.2309V21.1236C201.348 18.0504 204.268 16.5138 207.99 16.5138C210.995 16.5138 213.231 17.3333 214.699 18.9723C216.202 20.6114 216.953 22.9675 216.953 26.0406V43.6602H211.114V28.2943C211.114 27.2358 211.063 26.365 210.96 25.6821C210.858 24.965 210.636 24.248 210.295 23.5309C209.987 22.8138 209.475 22.2845 208.758 21.9431C208.041 21.5675 207.119 21.3797 205.992 21.3797C201.69 21.3797 199.538 24.0602 199.538 29.4211V43.6602H193.699V17.2309H199.231ZM241.601 30.2406V35.1577H237.042V43.6602H231.408L231.357 35.1577H216.145V29.3699L231.511 7.49918H237.042V30.2406H241.601ZM231.459 30.2406V14.7211L220.959 30.2406H231.459ZM271.445 7.19186V43.6602H265.042V27.2699H248.345V43.6602H241.942V7.19186H248.345V21.687H265.042V7.19186H271.445ZM296.782 35.4138C296.133 38.2821 294.716 40.5187 292.531 42.1236C290.379 43.7284 287.801 44.5309 284.797 44.5309C280.801 44.5309 277.626 43.2504 275.27 40.6894C272.948 38.0943 271.787 34.7821 271.787 30.7528C271.787 26.6211 272.982 23.2065 275.372 20.5089C277.797 17.8114 280.87 16.4626 284.592 16.4626C288.45 16.4626 291.506 17.7943 293.76 20.4577C296.014 23.087 297.14 26.6894 297.14 31.265V31.8797H277.626C277.694 34.5431 278.36 36.6089 279.623 38.0772C280.887 39.5114 282.645 40.2284 284.899 40.2284C286.504 40.2284 287.801 39.8528 288.792 39.1016C289.816 38.3163 290.619 37.087 291.199 35.4138H296.782ZM291.301 27.987C291.131 25.7675 290.431 24.026 289.201 22.7626C288.006 21.465 286.453 20.8163 284.54 20.8163C282.628 20.8163 281.075 21.4309 279.879 22.6602C278.719 23.8894 278.001 25.665 277.728 27.987H291.301ZM311.414 16.7187V22.3016C310.389 22.1992 309.706 22.148 309.365 22.148C304.277 22.148 301.733 25.4431 301.733 32.0333V43.6602H295.945V17.2309H301.426V22.5065C303.304 18.5797 306.257 16.6163 310.287 16.6163L311.414 16.7187Z" fill="#8F8F8F"/>
<path d="M7.02392 7.19186V0.362591C3.25222 0.362591 0.194654 3.42016 0.194654 7.19186H7.02392ZM32.4288 9.70161L28.0656 14.9553C28.0977 14.982 28.13 15.0083 28.1626 15.0344L32.4288 9.70161ZM34.0678 21.0723L39.6626 24.9887C39.6777 24.9671 39.6926 24.9455 39.7074 24.9238L34.0678 21.0723ZM30.2776 24.0431L27.789 17.6834C25.0128 18.7697 23.262 21.5314 23.464 24.5058C23.666 27.4802 25.774 29.9798 28.6717 30.6808L30.2776 24.0431ZM35.2971 27.1163L29.9643 31.3825V31.3825L35.2971 27.1163ZM33.9142 40.6894L29.2886 35.6651C29.2753 35.6774 29.262 35.6898 29.2487 35.7022L33.9142 40.6894ZM7.02392 43.6602H0.194654C0.194654 47.4319 3.25222 50.4894 7.02392 50.4894V43.6602ZM13.2727 12.365V5.53576C9.501 5.53576 6.44344 8.59333 6.44344 12.365H13.2727ZM13.2727 22.4041H6.44344C6.44344 26.1758 9.501 29.2333 13.2727 29.2333V22.4041ZM27.4093 21.2772L31.1193 27.0109C31.1584 26.9856 31.1972 26.9599 31.2358 26.9338L27.4093 21.2772ZM27.3069 13.3382L24.0487 19.3401C24.0721 19.3529 24.0956 19.3654 24.1192 19.3779L27.3069 13.3382ZM13.2727 27.0138V20.1845C9.501 20.1845 6.44344 23.2421 6.44344 27.0138H13.2727ZM13.2727 38.4358H6.44344C6.44344 42.2075 9.501 45.265 13.2727 45.265V38.4358ZM28.6386 37.2065L32.0886 43.1003H32.0886L28.6386 37.2065ZM30.0727 29.7797L23.9644 32.8338C24.0161 32.9373 24.0705 33.0394 24.1274 33.14L30.0727 29.7797ZM28.2288 27.987L25.2823 34.1479C25.3158 34.164 25.3495 34.1797 25.3834 34.1952L28.2288 27.987ZM7.02392 7.19186V14.0211H23.6703V7.19186V0.362591H7.02392V7.19186ZM23.6703 7.19186V14.0211C26.6146 14.0211 27.7321 14.6783 28.0656 14.9553L32.4288 9.70161L36.792 4.44793C33.0962 1.37855 28.3747 0.362591 23.6703 0.362591V7.19186ZM32.4288 9.70161L28.1626 15.0344C28.4212 15.2412 28.4972 15.3799 28.533 15.4574C28.5749 15.5482 28.6727 15.8049 28.6727 16.3602H35.502H42.3312C42.3312 11.6459 40.485 7.40086 36.695 4.36885L32.4288 9.70161ZM35.502 16.3602H28.6727C28.6727 16.7671 28.5871 16.9882 28.4282 17.2209L34.0678 21.0723L39.7074 24.9238C41.4607 22.3565 42.3312 19.4361 42.3312 16.3602H35.502ZM34.0678 21.0723L28.4731 17.156C28.2985 17.4054 28.1217 17.5532 27.789 17.6834L30.2776 24.0431L32.7662 30.4028C35.5749 29.3037 37.925 27.471 39.6626 24.9887L34.0678 21.0723ZM30.2776 24.0431L28.6717 30.6808C29.4843 30.8775 29.7819 31.1544 29.9643 31.3825L35.2971 27.1163L40.6299 22.85C38.3538 20.0049 35.305 18.2331 31.8835 17.4053L30.2776 24.0431ZM35.2971 27.1163L29.9643 31.3825C30.0576 31.499 30.3117 31.842 30.3117 32.9041H37.141H43.9703C43.9703 29.3222 42.9952 25.8067 40.6299 22.85L35.2971 27.1163ZM37.141 32.9041H30.3117C30.3117 34.4125 29.8894 35.1121 29.2886 35.6651L33.9142 40.6894L38.5397 45.7137C42.2414 42.3058 43.9703 37.8152 43.9703 32.9041H37.141ZM33.9142 40.6894L29.2487 35.7022C28.6178 36.2924 27.6271 36.8309 25.6166 36.8309V43.6602V50.4894C30.4354 50.4894 34.9764 49.0474 38.5796 45.6766L33.9142 40.6894ZM25.6166 43.6602V36.8309H7.02392V43.6602V50.4894H25.6166V43.6602ZM7.02392 43.6602H13.8532V7.19186H7.02392H0.194654V43.6602H7.02392ZM13.2727 12.365H6.44344V22.4041H13.2727H20.102V12.365H13.2727ZM13.2727 22.4041V29.2333H21.98V22.4041V15.5748H13.2727V22.4041ZM21.98 22.4041V29.2333C24.8631 29.2333 28.288 28.8429 31.1193 27.0109L27.4093 21.2772L23.6993 15.5436C24.0217 15.335 24.1338 15.3649 23.7934 15.4356C23.4662 15.5035 22.8856 15.5748 21.98 15.5748V22.4041ZM27.4093 21.2772L31.2358 26.9338C34.8128 24.5141 35.98 20.7235 35.98 17.3845H29.1508H22.3215C22.3215 17.5814 22.2876 17.3596 22.4815 16.9262C22.7031 16.4308 23.0937 15.9515 23.5828 15.6207L27.4093 21.2772ZM29.1508 17.3845H35.98C35.98 14.1396 34.9397 9.64461 30.4945 7.2985L27.3069 13.3382L24.1192 19.3779C23.7566 19.1865 23.4027 18.9211 23.0954 18.5882C22.7916 18.2591 22.5952 17.9314 22.4753 17.6683C22.2538 17.182 22.3215 16.9868 22.3215 17.3845H29.1508ZM27.3069 13.3382L30.565 7.33628C27.9275 5.90445 24.902 5.53576 22.1849 5.53576V12.365V19.1943C22.9781 19.1943 23.5185 19.2536 23.8553 19.3176C24.1981 19.3827 24.2165 19.4312 24.0487 19.3401L27.3069 13.3382ZM22.1849 12.365V5.53576H13.2727V12.365V19.1943H22.1849V12.365ZM13.2727 27.0138H6.44344V38.4358H13.2727H20.102V27.0138H13.2727ZM13.2727 38.4358V45.265H22.8508V38.4358V31.6065H13.2727V38.4358ZM22.8508 38.4358V45.265C25.9449 45.265 29.2365 44.7698 32.0886 43.1003L28.6386 37.2065L25.1886 31.3127C25.2383 31.2836 25.1215 31.3635 24.7228 31.4482C24.3221 31.5333 23.7145 31.6065 22.8508 31.6065V38.4358ZM28.6386 37.2065L32.0886 43.1003C36.2566 40.6604 37.5678 36.427 37.5678 32.7504H30.7386H23.9093C23.9093 33.1184 23.8454 32.9709 24.0359 32.5665C24.1357 32.3549 24.2892 32.1089 24.5091 31.8676C24.7295 31.6257 24.9678 31.4419 25.1886 31.3127L28.6386 37.2065ZM30.7386 32.7504H37.5678C37.5678 30.7476 37.1996 28.5098 36.018 26.4193L30.0727 29.7797L24.1274 33.14C23.9812 32.8814 23.9258 32.6836 23.9082 32.605C23.8919 32.5324 23.9093 32.5692 23.9093 32.7504H30.7386ZM30.0727 29.7797L36.181 26.7255C35.0873 24.5382 33.3341 22.8145 31.0743 21.7787L28.2288 27.987L25.3834 34.1952C25.1215 34.0752 24.8238 33.8855 24.5439 33.6134C24.265 33.3423 24.0786 33.0621 23.9644 32.8338L30.0727 29.7797ZM28.2288 27.987L31.1753 21.8261C29.8028 21.1696 28.3547 20.7161 26.8492 20.4752L25.7703 27.2187L24.6913 33.9622C24.8931 33.9945 25.0841 34.0531 25.2823 34.1479L28.2288 27.987ZM25.7703 27.2187L26.8492 20.4752C25.5415 20.266 24.1566 20.1845 22.7483 20.1845V27.0138V33.8431C23.662 33.8431 24.2917 33.8983 24.6913 33.9622L25.7703 27.2187ZM22.7483 27.0138V20.1845H13.2727V27.0138V33.8431H22.7483V27.0138ZM43.2413 7.19186H50.0706C50.0706 3.42016 47.013 0.362591 43.2413 0.362591V7.19186ZM43.2413 43.6602V50.4894C47.013 50.4894 50.0706 47.4319 50.0706 43.6602H43.2413ZM37.4535 43.6602H30.6242C30.6242 47.4319 33.6818 50.4894 37.4535 50.4894V43.6602ZM37.4535 7.19186V0.362591C33.6818 0.362591 30.6242 3.42016 30.6242 7.19186H37.4535ZM43.2413 7.19186H36.4121V43.6602H43.2413H50.0706V7.19186H43.2413ZM43.2413 43.6602V36.8309H37.4535V43.6602V50.4894H43.2413V43.6602ZM37.4535 43.6602H44.2828V7.19186H37.4535H30.6242V43.6602H37.4535ZM37.4535 7.19186V14.0211H43.2413V7.19186V0.362591H37.4535V7.19186ZM66.3521 20.2528L61.3909 24.9459V24.9459L66.3521 20.2528ZM66.3521 40.6894L61.3909 35.9964C61.3797 36.0082 61.3685 36.0201 61.3573 36.0321L66.3521 40.6894ZM46.8887 40.6894L51.8166 35.9613L46.8887 40.6894ZM46.8887 20.2528L41.994 15.4904C41.9829 15.5018 41.9719 15.5133 41.9608 15.5247L46.8887 20.2528ZM62.0497 23.5821L56.6531 27.7672C56.6847 27.8081 56.7168 27.8485 56.7494 27.8886L62.0497 23.5821ZM51.1399 37.4114L56.4833 33.1585L51.1399 37.4114ZM62.0497 37.4114L56.6648 33.2112C56.6609 33.2162 56.657 33.2212 56.6531 33.2262L62.0497 37.4114ZM56.7229 16.4626V23.2919C59.1997 23.2919 60.4978 24.0018 61.3909 24.9459L66.3521 20.2528L71.3134 15.5598C67.4259 11.4502 62.3045 9.63332 56.7229 9.63332V16.4626ZM66.3521 20.2528L61.3909 24.9459C62.3223 25.9305 63.1082 27.505 63.1082 30.4455H69.9375H76.7668C76.7668 24.8494 75.1625 19.6288 71.3134 15.5598L66.3521 20.2528ZM69.9375 30.4455H63.1082C63.1082 33.4371 62.3129 35.0217 61.3909 35.9964L66.3521 40.6894L71.3134 45.3825C75.1719 41.3035 76.7668 36.0588 76.7668 30.4455H69.9375ZM66.3521 40.6894L61.3573 36.0321C60.5215 36.9285 59.2556 37.6504 56.7229 37.6504V44.4797V51.3089C62.317 51.3089 67.4706 49.504 71.3469 45.3468L66.3521 40.6894ZM56.7229 44.4797V37.6504C54.089 37.6504 52.722 36.905 51.8166 35.9613L46.8887 40.6894L41.9608 45.4175C45.9042 49.5275 51.0933 51.3089 56.7229 51.3089V44.4797ZM46.8887 40.6894L51.8166 35.9613C50.878 34.9831 50.0814 33.4109 50.0814 30.4455H43.2521H36.4229C36.4229 36.085 38.0506 41.3421 41.9608 45.4175L46.8887 40.6894ZM43.2521 30.4455H50.0814C50.0814 27.5313 50.8684 25.9692 51.8166 24.9809L46.8887 20.2528L41.9608 15.5247C38.0603 19.5901 36.4229 24.8231 36.4229 30.4455H43.2521ZM46.8887 20.2528L51.7834 25.0153C52.7462 24.0258 54.1442 23.2919 56.7229 23.2919V16.4626V9.63332C51.1064 9.63332 45.9483 11.4262 41.994 15.4904L46.8887 20.2528ZM62.0497 23.5821L67.4463 19.397C64.7181 15.879 60.819 14.2431 56.6204 14.2431V21.0723V27.9016C56.7912 27.9016 56.8826 27.917 56.9106 27.9226C56.9357 27.9277 56.9104 27.925 56.8536 27.8988C56.8267 27.8863 56.7974 27.8707 56.7676 27.8522C56.7377 27.8336 56.7114 27.8146 56.6894 27.7969C56.643 27.7594 56.633 27.7413 56.6531 27.7672L62.0497 23.5821ZM56.6204 21.0723V14.2431C52.4225 14.2431 48.5462 15.8745 45.7966 19.3292L51.1399 23.5821L56.4833 27.835C56.5132 27.7974 56.5141 27.804 56.4801 27.8309C56.4642 27.8435 56.4441 27.8579 56.4205 27.8724C56.3968 27.8869 56.3736 27.8992 56.3523 27.909C56.3068 27.9298 56.2907 27.93 56.3217 27.9237C56.3554 27.9169 56.4499 27.9016 56.6204 27.9016V21.0723ZM51.1399 23.5821L45.7966 19.3292C43.2092 22.58 42.3131 26.5468 42.3131 30.4455H49.1424H55.9716C55.9716 28.5393 56.4073 27.9306 56.4833 27.835L51.1399 23.5821ZM49.1424 30.4455H42.3131C42.3131 34.3685 43.1892 38.3884 45.7966 41.6643L51.1399 37.4114L56.4833 33.1585C56.4272 33.088 55.9716 32.464 55.9716 30.4455H49.1424ZM51.1399 37.4114L45.7966 41.6643C48.5673 45.1455 52.4766 46.7504 56.6716 46.7504V39.9211V33.0919C56.4864 33.0919 56.3791 33.0754 56.3347 33.0666C56.2929 33.0582 56.3019 33.0558 56.3433 33.0746C56.3862 33.094 56.4317 33.1217 56.4693 33.1514C56.5056 33.1802 56.5086 33.1902 56.4833 33.1585L51.1399 37.4114ZM56.6716 39.9211V46.7504C60.8744 46.7504 64.7397 45.0867 67.4463 41.5965L62.0497 37.4114L56.6531 33.2262C56.6283 33.2582 56.6345 33.2438 56.6783 33.2082C56.6991 33.1913 56.7249 33.1725 56.7549 33.1537C56.7849 33.1349 56.8152 33.1186 56.844 33.1051C56.9048 33.0768 56.9373 33.0712 56.923 33.0742C56.906 33.0777 56.8275 33.0919 56.6716 33.0919V39.9211ZM62.0497 37.4114L67.4346 41.6116C69.9962 38.3274 70.8765 34.3278 70.8765 30.3943H64.0473H57.218C57.218 32.4023 56.7666 33.0807 56.6648 33.2112L62.0497 37.4114ZM64.0473 30.3943H70.8765C70.8765 26.506 69.9845 22.5181 67.35 19.2756L62.0497 23.5821L56.7494 27.8886C56.7783 27.9242 57.218 28.4777 57.218 30.3943H64.0473ZM93.6917 33.6723L100.467 34.5282C100.713 32.5833 100.111 30.6265 98.8144 29.156C97.518 27.6855 95.6521 26.8431 93.6917 26.8431V33.6723ZM89.7991 41.4577L94.2962 46.5973C94.3112 46.5841 94.3262 46.5709 94.3411 46.5576L89.7991 41.4577ZM72.0771 40.587L67.0823 45.2443C67.0928 45.2556 67.1034 45.2669 67.114 45.2781L72.0771 40.587ZM72.0771 20.3041L67.0539 15.6774L67.0512 15.6803L72.0771 20.3041ZM89.8503 18.9723L85.4783 24.2187C85.4925 24.2306 85.5067 24.2423 85.521 24.254L89.8503 18.9723ZM93.4869 26.0919V32.9211C95.4309 32.9211 97.2828 32.0926 98.5784 30.6433C99.874 29.194 100.491 27.2612 100.273 25.3293L93.4869 26.0919ZM87.6991 26.0919L81.0077 27.4574C81.6567 30.6372 84.4537 32.9211 87.6991 32.9211V26.0919ZM85.6503 22.2504L81.1776 27.4112V27.4112L85.6503 22.2504ZM76.4308 23.4797L81.8274 27.6648C81.841 27.6472 81.8545 27.6296 81.868 27.6119L76.4308 23.4797ZM76.3283 37.2577L70.8649 41.3553C70.8829 41.3793 70.9011 41.4032 70.9195 41.427L76.3283 37.2577ZM85.8039 38.1797L90.4748 43.1619L90.4798 43.1572L85.8039 38.1797ZM87.9552 33.6723V26.8431C84.5947 26.8431 81.7336 29.2879 81.2095 32.6072L87.9552 33.6723ZM93.6917 33.6723L86.9163 32.8165C86.6875 34.6282 86.0627 35.6403 85.257 36.3579L89.7991 41.4577L94.3411 46.5576C97.9062 43.3825 99.8765 39.2043 100.467 34.5282L93.6917 33.6723ZM89.7991 41.4577L85.302 36.3182C84.5362 36.9882 83.4586 37.4967 81.5527 37.4967V44.326V51.1553C86.2712 51.1553 90.6912 49.7516 94.2962 46.5973L89.7991 41.4577ZM81.5527 44.326V37.4967C79.152 37.4967 77.9032 36.8088 77.0402 35.8959L72.0771 40.587L67.114 45.2781C70.9633 49.3505 76.0315 51.1553 81.5527 51.1553V44.326ZM72.0771 40.587L77.0719 35.9297C76.0988 34.886 75.3722 33.3608 75.3722 30.7016H68.543H61.7137C61.7137 36.1692 63.3432 41.2343 67.0823 45.2443L72.0771 40.587ZM68.543 30.7016H75.3722C75.3722 27.5871 76.1826 25.9283 77.103 24.9279L72.0771 20.3041L67.0512 15.6803C63.2594 19.8018 61.7137 25.0746 61.7137 30.7016H68.543ZM72.0771 20.3041L77.1003 24.9307C78.0083 23.945 79.2872 23.2406 81.7064 23.2406V16.4114V9.5821C76.067 9.5821 70.9264 11.4729 67.0539 15.6774L72.0771 20.3041ZM81.7064 16.4114V23.2406C83.927 23.2406 84.9556 23.7832 85.4783 24.2187L89.8503 18.9723L94.2223 13.726C90.6474 10.7469 86.2468 9.5821 81.7064 9.5821V16.4114ZM89.8503 18.9723L85.521 24.254C86.0373 24.6773 86.5284 25.3246 86.7003 26.8544L93.4869 26.0919L100.273 25.3293C99.7624 20.7811 97.8291 16.6821 94.1796 13.6906L89.8503 18.9723ZM93.4869 26.0919V19.2626H87.6991V26.0919V32.9211H93.4869V26.0919ZM87.6991 26.0919L94.3904 24.7263C93.8273 21.9671 92.5525 19.1952 90.123 17.0896L85.6503 22.2504L81.1776 27.4112C81.1013 27.3451 81.0381 27.2771 80.989 27.2147C80.9404 27.153 80.9143 27.1079 80.9049 27.0904C80.8877 27.058 80.946 27.1551 81.0077 27.4574L87.6991 26.0919ZM85.6503 22.2504L90.123 17.0896C87.663 14.9576 84.6951 14.0894 81.7576 14.0894V20.9187V27.748C81.8984 27.748 81.8561 27.7672 81.6983 27.7132C81.5263 27.6544 81.3367 27.5491 81.1776 27.4112L85.6503 22.2504ZM81.7576 20.9187V14.0894C77.4964 14.0894 73.6573 15.8424 70.9936 19.3474L76.4308 23.4797L81.868 27.6119C81.9028 27.5661 81.9047 27.573 81.8656 27.6056C81.8246 27.6398 81.7651 27.68 81.6947 27.7138C81.6252 27.7473 81.5784 27.7585 81.5724 27.7597C81.5694 27.7604 81.6257 27.748 81.7576 27.748V20.9187ZM76.4308 23.4797L71.0341 19.2945C68.5076 22.5524 67.6552 26.5188 67.6552 30.3943H74.4844H81.3137C81.3137 28.3967 81.7588 27.7533 81.8274 27.6648L76.4308 23.4797ZM74.4844 30.3943H67.6552C67.6552 34.1892 68.4382 38.1196 70.8649 41.3553L76.3283 37.2577L81.7917 33.1602C81.76 33.1178 81.3137 32.4726 81.3137 30.3943H74.4844ZM76.3283 37.2577L70.9195 41.427C73.5806 44.8793 77.393 46.5455 81.5527 46.5455V39.7163V32.887C81.4181 32.887 81.3597 32.8746 81.3614 32.875C81.3659 32.8759 81.4149 32.8871 81.4899 32.9224C81.566 32.9582 81.6357 33.0033 81.6901 33.0478C81.7428 33.0909 81.7562 33.113 81.7372 33.0884L76.3283 37.2577ZM81.5527 39.7163V46.5455C84.7271 46.5455 87.9119 45.5646 90.4748 43.1619L85.8039 38.1797L81.1331 33.1975C81.1926 33.1417 81.2684 33.0823 81.3577 33.0276C81.4469 32.973 81.5309 32.9345 81.6002 32.9095C81.7421 32.8582 81.7531 32.887 81.5527 32.887V39.7163ZM85.8039 38.1797L90.4798 43.1572C92.9841 40.8047 94.2228 37.7651 94.7009 34.7375L87.9552 33.6723L81.2095 32.6072C81.1402 33.0459 81.0521 33.2575 81.0236 33.3174C81.002 33.3627 81.0276 33.2966 81.1281 33.2022L85.8039 38.1797ZM87.9552 33.6723V40.5016H93.6917V33.6723V26.8431H87.9552V33.6723ZM116.518 17.2309L121.234 22.1709C123.253 20.2437 123.896 17.2819 122.858 14.691C121.82 12.1001 119.31 10.4016 116.518 10.4016V17.2309ZM106.377 26.9114L101.662 21.9714C99.2714 24.2529 98.8575 27.9183 100.679 30.6754L106.377 26.9114ZM117.44 43.6602V50.4894C119.954 50.4894 122.264 49.1089 123.455 46.8954C124.645 44.6819 124.524 41.9933 123.139 39.8961L117.44 43.6602ZM110.321 43.6602L104.544 47.3026C105.795 49.2862 107.976 50.4894 110.321 50.4894V43.6602ZM102.279 30.9065L108.056 27.2641C106.968 25.5383 105.165 24.3894 103.141 24.1319C101.118 23.8743 99.0845 24.5351 97.5989 25.9334L102.279 30.9065ZM98.7965 34.1845L94.116 29.2115C92.7447 30.502 91.9672 32.3015 91.9672 34.1845H98.7965ZM98.7965 43.6602V50.4894C102.568 50.4894 105.626 47.4319 105.626 43.6602H98.7965ZM93.1111 43.6602H86.2819C86.2819 47.4319 89.3394 50.4894 93.1111 50.4894V43.6602ZM93.1111 7.19186V0.362591C89.3394 0.362591 86.2819 3.42016 86.2819 7.19186H93.1111ZM98.7965 7.19186H105.626C105.626 3.42016 102.568 0.362591 98.7965 0.362591V7.19186ZM98.7965 27.7309H91.9672C91.9672 30.49 93.6275 32.9781 96.1754 34.0371C98.7232 35.0961 101.658 34.5179 103.614 32.5716L98.7965 27.7309ZM109.348 17.2309V10.4016C107.542 10.4016 105.81 11.1166 104.53 12.3901L109.348 17.2309ZM116.518 17.2309L111.803 12.2909L101.662 21.9714L106.377 26.9114L111.092 31.8514L121.234 22.1709L116.518 17.2309ZM106.377 26.9114L100.679 30.6754L111.742 47.4242L117.44 43.6602L123.139 39.8961L112.075 23.1473L106.377 26.9114ZM117.44 43.6602V36.8309H110.321V43.6602V50.4894H117.44V43.6602ZM110.321 43.6602L116.098 40.0177L108.056 27.2641L102.279 30.9065L96.5026 34.5489L104.544 47.3026L110.321 43.6602ZM102.279 30.9065L97.5989 25.9334L94.116 29.2115L98.7965 34.1845L103.477 39.1576L106.96 35.8796L102.279 30.9065ZM98.7965 34.1845H91.9672V43.6602H98.7965H105.626V34.1845H98.7965ZM98.7965 43.6602V36.8309H93.1111V43.6602V50.4894H98.7965V43.6602ZM93.1111 43.6602H99.9404V7.19186H93.1111H86.2819V43.6602H93.1111ZM93.1111 7.19186V14.0211H98.7965V7.19186V0.362591H93.1111V7.19186ZM98.7965 7.19186H91.9672V27.7309H98.7965H105.626V7.19186H98.7965ZM98.7965 27.7309L103.614 32.5716L114.165 22.0716L109.348 17.2309L104.53 12.3901L93.9792 22.8901L98.7965 27.7309ZM109.348 17.2309V24.0602H116.518V17.2309V10.4016H109.348V17.2309ZM139.419 33.6723L146.195 34.5282C146.44 32.5833 145.838 30.6265 144.542 29.156C143.245 27.6855 141.38 26.8431 139.419 26.8431V33.6723ZM135.526 41.4577L140.024 46.5973C140.039 46.5841 140.054 46.5709 140.069 46.5576L135.526 41.4577ZM117.805 40.587L112.81 45.2443C112.82 45.2556 112.831 45.2669 112.841 45.2781L117.805 40.587ZM117.805 20.3041L112.781 15.6774L112.779 15.6803L117.805 20.3041ZM135.578 18.9723L131.206 24.2187C131.22 24.2306 131.234 24.2423 131.248 24.254L135.578 18.9723ZM139.214 26.0919V32.9211C141.158 32.9211 143.01 32.0926 144.306 30.6433C145.601 29.194 146.218 27.2612 146.001 25.3293L139.214 26.0919ZM133.426 26.0919L126.735 27.4574C127.384 30.6372 130.181 32.9211 133.426 32.9211V26.0919ZM131.378 22.2504L126.905 27.4112V27.4112L131.378 22.2504ZM122.158 23.4797L127.555 27.6648C127.568 27.6472 127.582 27.6296 127.595 27.6119L122.158 23.4797ZM122.056 37.2577L116.592 41.3553C116.61 41.3793 116.629 41.4032 116.647 41.427L122.056 37.2577ZM131.531 38.1797L136.202 43.1619L136.207 43.1572L131.531 38.1797ZM133.683 33.6723V26.8431C130.322 26.8431 127.461 29.2879 126.937 32.6072L133.683 33.6723ZM139.419 33.6723L132.644 32.8165C132.415 34.6282 131.79 35.6403 130.984 36.3579L135.526 41.4577L140.069 46.5576C143.634 43.3825 145.604 39.2043 146.195 34.5282L139.419 33.6723ZM135.526 41.4577L131.029 36.3182C130.264 36.9882 129.186 37.4967 127.28 37.4967V44.326V51.1553C131.999 51.1553 136.419 49.7516 140.024 46.5973L135.526 41.4577ZM127.28 44.326V37.4967C124.879 37.4967 123.631 36.8088 122.768 35.8959L117.805 40.587L112.841 45.2781C116.691 49.3505 121.759 51.1553 127.28 51.1553V44.326ZM117.805 40.587L122.799 35.9297C121.826 34.886 121.1 33.3608 121.1 30.7016H114.27H107.441C107.441 36.1692 109.071 41.2343 112.81 45.2443L117.805 40.587ZM114.27 30.7016H121.1C121.1 27.5871 121.91 25.9283 122.83 24.9279L117.805 20.3041L112.779 15.6803C108.987 19.8018 107.441 25.0746 107.441 30.7016H114.27ZM117.805 20.3041L122.828 24.9307C123.736 23.945 125.015 23.2406 127.434 23.2406V16.4114V9.5821C121.794 9.5821 116.654 11.4729 112.781 15.6774L117.805 20.3041ZM127.434 16.4114V23.2406C129.654 23.2406 130.683 23.7832 131.206 24.2187L135.578 18.9723L139.95 13.726C136.375 10.7469 131.974 9.5821 127.434 9.5821V16.4114ZM135.578 18.9723L131.248 24.254C131.765 24.6773 132.256 25.3246 132.428 26.8544L139.214 26.0919L146.001 25.3293C145.49 20.7811 143.557 16.6821 139.907 13.6906L135.578 18.9723ZM139.214 26.0919V19.2626H133.426V26.0919V32.9211H139.214V26.0919ZM133.426 26.0919L140.118 24.7263C139.555 21.9671 138.28 19.1952 135.85 17.0896L131.378 22.2504L126.905 27.4112C126.829 27.3451 126.766 27.2771 126.716 27.2147C126.668 27.153 126.642 27.1079 126.632 27.0904C126.615 27.058 126.673 27.1551 126.735 27.4574L133.426 26.0919ZM131.378 22.2504L135.85 17.0896C133.39 14.9576 130.423 14.0894 127.485 14.0894V20.9187V27.748C127.626 27.748 127.584 27.7672 127.426 27.7132C127.254 27.6544 127.064 27.5491 126.905 27.4112L131.378 22.2504ZM127.485 20.9187V14.0894C123.224 14.0894 119.385 15.8424 116.721 19.3474L122.158 23.4797L127.595 27.6119C127.63 27.5661 127.632 27.573 127.593 27.6056C127.552 27.6398 127.493 27.68 127.422 27.7138C127.353 27.7473 127.306 27.7585 127.3 27.7597C127.297 27.7604 127.353 27.748 127.485 27.748V20.9187ZM122.158 23.4797L116.762 19.2945C114.235 22.5524 113.383 26.5188 113.383 30.3943H120.212H127.041C127.041 28.3967 127.486 27.7533 127.555 27.6648L122.158 23.4797ZM120.212 30.3943H113.383C113.383 34.1892 114.166 38.1196 116.592 41.3553L122.056 37.2577L127.519 33.1602C127.487 33.1178 127.041 32.4726 127.041 30.3943H120.212ZM122.056 37.2577L116.647 41.427C119.308 44.8793 123.12 46.5455 127.28 46.5455V39.7163V32.887C127.146 32.887 127.087 32.8746 127.089 32.875C127.093 32.8759 127.142 32.8871 127.217 32.9224C127.293 32.9582 127.363 33.0033 127.417 33.0478C127.47 33.0909 127.484 33.113 127.465 33.0884L122.056 37.2577ZM127.28 39.7163V46.5455C130.455 46.5455 133.639 45.5646 136.202 43.1619L131.531 38.1797L126.861 33.1975C126.92 33.1417 126.996 33.0823 127.085 33.0276C127.174 32.973 127.258 32.9345 127.328 32.9095C127.47 32.8582 127.481 32.887 127.28 32.887V39.7163ZM131.531 38.1797L136.207 43.1572C138.711 40.8047 139.95 37.7651 140.428 34.7375L133.683 33.6723L126.937 32.6072C126.868 33.0459 126.78 33.2575 126.751 33.3174C126.729 33.3627 126.755 33.2966 126.856 33.2022L131.531 38.1797ZM133.683 33.6723V40.5016H139.419V33.6723V26.8431H133.683V33.6723ZM144.626 7.19186H151.456C151.456 3.42016 148.398 0.362591 144.626 0.362591V7.19186ZM144.626 20.8675H137.797C137.797 23.8666 139.754 26.5147 142.621 27.3955C145.487 28.2764 148.593 27.1838 150.277 24.7021L144.626 20.8675ZM159.685 18.9211L154.908 23.8018C154.926 23.8193 154.944 23.8367 154.962 23.854L159.685 18.9211ZM162.092 43.6602V50.4894C165.864 50.4894 168.921 47.4319 168.921 43.6602H162.092ZM156.202 43.6602H149.373C149.373 47.4319 152.43 50.4894 156.202 50.4894V43.6602ZM155.126 23.0187L149.388 26.721C149.415 26.764 149.444 26.8066 149.472 26.8489L155.126 23.0187ZM146.163 23.6333L140.562 19.7257V19.7257L146.163 23.6333ZM144.626 43.6602V50.4894C148.398 50.4894 151.456 47.4319 151.456 43.6602H144.626ZM138.839 43.6602H132.009C132.009 47.4319 135.067 50.4894 138.839 50.4894V43.6602ZM138.839 7.19186V0.362591C135.067 0.362591 132.009 3.42016 132.009 7.19186H138.839ZM144.626 7.19186H137.797V20.8675H144.626H151.456V7.19186H144.626ZM144.626 20.8675L150.277 24.7021C150.887 23.8035 151.5 23.3943 152.975 23.3943V16.565V9.73576C147.211 9.73576 142.258 12.1949 138.975 17.0328L144.626 20.8675ZM152.975 16.565V23.3943C154.575 23.3943 154.907 23.8006 154.908 23.8018L159.685 18.9211L164.462 14.0405C161.253 10.9002 157.112 9.73576 152.975 9.73576V16.565ZM159.685 18.9211L154.962 23.854C154.929 23.8222 154.976 23.8383 155.051 24.0521C155.139 24.3011 155.263 24.8218 155.263 25.7333H162.092H168.921C168.921 21.5451 167.781 17.2175 164.408 13.9883L159.685 18.9211ZM162.092 25.7333H155.263V43.6602H162.092H168.921V25.7333H162.092ZM162.092 43.6602V36.8309H156.202V43.6602V50.4894H162.092V43.6602ZM156.202 43.6602H163.031V27.6284H156.202H149.373V43.6602H156.202ZM156.202 27.6284H163.031C163.031 24.9727 162.588 21.8569 160.78 19.1885L155.126 23.0187L149.472 26.8489C149.267 26.5451 149.25 26.3785 149.282 26.5168C149.316 26.6591 149.373 27.0075 149.373 27.6284H156.202ZM155.126 23.0187L160.865 19.3164C158.304 15.3471 153.973 14.6016 151.08 14.6016V21.4309V28.2602C151.543 28.2602 151.473 28.3284 151.108 28.1852C150.657 28.0082 149.935 27.5697 149.388 26.721L155.126 23.0187ZM151.08 21.4309V14.6016C147.242 14.6016 143.194 15.953 140.562 19.7257L146.163 23.6333L151.764 27.5409C151.68 27.6616 151.558 27.8007 151.399 27.9327C151.239 28.0646 151.082 28.1561 150.952 28.2141C150.7 28.3271 150.678 28.2602 151.08 28.2602V21.4309ZM146.163 23.6333L140.562 19.7257C138.499 22.6822 137.797 26.1352 137.797 29.4723H144.626H151.456C151.456 28.7314 151.535 28.2365 151.615 27.9323C151.654 27.7834 151.692 27.6851 151.718 27.6267C151.744 27.5693 151.761 27.5444 151.764 27.5409L146.163 23.6333ZM144.626 29.4723H137.797V43.6602H144.626H151.456V29.4723H144.626ZM144.626 43.6602V36.8309H138.839V43.6602V50.4894H144.626V43.6602ZM138.839 43.6602H145.668V7.19186H138.839H132.009V43.6602H138.839ZM138.839 7.19186V14.0211H144.626V7.19186V0.362591H138.839V7.19186ZM162.82 25.3748L156.027 24.676C155.829 26.5987 156.456 28.5152 157.75 29.9501C159.045 31.385 160.888 32.2041 162.82 32.2041V25.3748ZM182.284 18.3577L178.496 24.04C178.511 24.0501 178.526 24.0602 178.541 24.0701L182.284 18.3577ZM185.511 39.3577L179.72 42.9772C179.822 43.1411 179.931 43.3006 180.047 43.4553L185.511 39.3577ZM187.969 39.665H194.799C194.799 37.6853 193.939 35.803 192.444 34.5058C190.948 33.2087 188.963 32.6244 187.003 32.9044L187.969 39.665ZM187.969 43.7626L189.626 50.388C192.666 49.6279 194.799 46.8963 194.799 43.7626H187.969ZM179.877 41.1504L186.601 39.9574C186.161 37.4797 184.395 35.4445 182.004 34.6608C179.612 33.8771 176.984 34.4719 175.163 36.2087L179.877 41.1504ZM164.101 42.226L159.55 47.3183C159.571 47.3364 159.591 47.3544 159.612 47.3723L164.101 42.226ZM161.95 34.3382L155.345 32.6002L161.95 34.3382ZM162.513 32.648L156.405 29.5938C156.345 29.7135 156.289 29.8348 156.236 29.9578L162.513 32.648ZM163.589 31.3163L159.323 25.9835C159.262 26.0317 159.203 26.0809 159.144 26.1311L163.589 31.3163ZM164.818 30.2919L160.552 24.9591C160.46 25.0329 160.369 25.1091 160.281 25.1876L164.818 30.2919ZM166.406 29.5236L164.335 23.0158C164.305 23.0252 164.276 23.0349 164.246 23.0448L166.406 29.5236ZM168.045 29.0114L170.007 35.5526C170.132 35.5151 170.256 35.4741 170.379 35.4295L168.045 29.0114ZM169.94 28.6016L170.978 35.3515V35.3515L169.94 28.6016ZM171.681 28.3455L172.529 35.122C172.742 35.0954 172.953 35.0587 173.163 35.0122L171.681 28.3455ZM173.525 28.0894L174.28 34.8769C174.324 34.872 174.369 34.8666 174.413 34.8607L173.525 28.0894ZM177.777 27.4236L179.29 34.083C179.385 34.0614 179.48 34.0378 179.573 34.0122L177.777 27.4236ZM179.313 26.5528L174.174 22.0557C174.039 22.21 173.911 22.3703 173.79 22.5361L179.313 26.5528ZM170.042 21.7382L165.751 16.4254V16.4254L170.042 21.7382ZM168.352 25.3748V32.2041C171.758 32.2041 174.643 29.6946 175.116 26.3217L168.352 25.3748ZM179.62 30.3943H186.45C186.45 27.9906 185.186 25.7639 183.122 24.5313C181.059 23.2987 178.499 23.2417 176.383 24.3813L179.62 30.3943ZM178.084 31.0602L180.011 37.6119C180.127 37.5777 180.243 37.5404 180.357 37.5001L178.084 31.0602ZM176.65 31.4187L177.329 38.2141C177.511 38.1959 177.692 38.1705 177.871 38.1378L176.65 31.4187ZM174.96 31.6236L174.076 24.8517C174.063 24.8534 174.05 24.8551 174.037 24.8569L174.96 31.6236ZM173.474 31.8284L174.44 38.5891L173.474 31.8284ZM171.784 32.1358L172.907 38.8721C173.086 38.8422 173.264 38.8052 173.44 38.7611L171.784 32.1358ZM170.247 32.5455L168.088 26.0667C168.05 26.0793 168.012 26.0923 167.974 26.1056L170.247 32.5455ZM168.864 33.3138L173.402 38.4181C173.412 38.4087 173.422 38.3994 173.433 38.39L168.864 33.3138ZM168.045 34.4919L174.153 37.546C174.181 37.491 174.207 37.4356 174.233 37.3799L168.045 34.4919ZM168.916 39.1528L164.544 44.3992C164.579 44.4284 164.614 44.4572 164.649 44.4856L168.916 39.1528ZM178.442 38.0772L173.613 33.2482V33.2482L178.442 38.0772ZM162.82 25.3748L169.614 26.0735C169.777 24.4849 170.233 24.1473 170.357 24.0519C170.652 23.823 171.693 23.2406 174.396 23.2406V16.4114V9.5821C169.997 9.5821 165.557 10.4936 161.994 13.2525C158.259 16.1449 156.478 20.289 156.027 24.676L162.82 25.3748ZM174.396 16.4114V23.2406C176.898 23.2406 178.048 23.7414 178.496 24.04L182.284 18.3577L186.072 12.6754C182.627 10.3789 178.519 9.5821 174.396 9.5821V16.4114ZM182.284 18.3577L178.541 24.0701C178.573 24.0909 178.548 24.0792 178.5 24.0252C178.45 23.9694 178.409 23.9067 178.383 23.8544C178.328 23.7429 178.425 23.8573 178.425 24.4016H185.255H192.084C192.084 19.7803 190.255 15.4156 186.027 12.6453L182.284 18.3577ZM185.255 24.4016H178.425V37.8211H185.255H192.084V24.4016H185.255ZM185.255 37.8211H178.425C178.425 38.4223 178.457 39.1405 178.582 39.8914C178.693 40.5567 178.955 41.7544 179.72 42.9772L185.511 39.3577L191.302 35.7382C191.622 36.2507 191.797 36.7016 191.891 36.9908C191.988 37.2877 192.034 37.5184 192.055 37.646C192.095 37.8847 192.084 37.9712 192.084 37.8211H185.255ZM185.511 39.3577L180.047 43.4553C182.162 46.2743 185.243 46.5967 186.638 46.5967V39.7675V32.9382C186.94 32.9382 189.27 32.9875 190.974 35.2602L185.511 39.3577ZM186.638 39.7675V46.5967C187.421 46.5967 188.192 46.5318 188.935 46.4257L187.969 39.665L187.003 32.9044C186.791 32.9348 186.673 32.9382 186.638 32.9382V39.7675ZM187.969 39.665H181.14V43.7626H187.969H194.799V39.665H187.969ZM187.969 43.7626L186.313 37.1372C185.106 37.4389 184.438 37.4967 184.179 37.4967V44.326V51.1553C185.968 51.1553 187.827 50.8375 189.626 50.388L187.969 43.7626ZM184.179 44.326V37.4967C183.826 37.4967 184.446 37.4149 185.289 38.0375C185.717 38.3531 186.057 38.7491 186.29 39.1583C186.512 39.5482 186.582 39.8501 186.601 39.9574L179.877 41.1504L173.152 42.3434C173.579 44.7481 174.773 47.2515 177.178 49.0268C179.456 50.7079 182.04 51.1553 184.179 51.1553V44.326ZM179.877 41.1504L175.163 36.2087C174.552 36.7918 173.342 37.4967 170.606 37.4967V44.326V51.1553C175.792 51.1553 180.762 49.7432 184.59 46.0921L179.877 41.1504ZM170.606 44.326V37.4967C169.046 37.4967 168.633 37.1165 168.59 37.0797L164.101 42.226L159.612 47.3723C162.779 50.1355 166.702 51.1553 170.606 51.1553V44.326ZM164.101 42.226L168.652 37.1337C168.609 37.0961 168.598 37.0787 168.601 37.0828C168.605 37.0875 168.605 37.0903 168.601 37.0808C168.596 37.0696 168.523 36.8928 168.523 36.4382H161.694H154.864C154.864 40.5338 156.304 44.417 159.55 47.3183L164.101 42.226ZM161.694 36.4382H168.523C168.523 36.2046 168.549 36.0946 168.554 36.0762L161.95 34.3382L155.345 32.6002C155.009 33.8793 154.864 35.1694 154.864 36.4382H161.694ZM161.95 34.3382L168.554 36.0762C168.662 35.6646 168.749 35.4337 168.79 35.3381L162.513 32.648L156.236 29.9578C155.867 30.8183 155.578 31.7143 155.345 32.6002L161.95 34.3382ZM162.513 32.648L168.621 35.7021C168.388 36.1697 168.125 36.4227 168.033 36.5014L163.589 31.3163L159.144 26.1311C158.096 27.0294 157.117 28.1701 156.405 29.5938L162.513 32.648ZM163.589 31.3163L167.855 36.649C168.412 36.2032 168.924 35.7797 169.355 35.3961L164.818 30.2919L160.281 25.1876C160.098 25.3504 159.79 25.6098 159.323 25.9835L163.589 31.3163ZM164.818 30.2919L169.084 35.6246C168.907 35.7661 168.758 35.8642 168.657 35.9259C168.554 35.9883 168.48 36.0257 168.446 36.0423C168.384 36.0722 168.411 36.0538 168.565 36.0024L166.406 29.5236L164.246 23.0448C163.238 23.3809 161.82 23.9445 160.552 24.9591L164.818 30.2919ZM166.406 29.5236L168.477 36.0314C169.224 35.7935 169.724 35.6376 170.007 35.5526L168.045 29.0114L166.083 22.4701C165.683 22.5901 165.09 22.7756 164.335 23.0158L166.406 29.5236ZM168.045 29.0114L170.379 35.4295C170.248 35.4768 170.168 35.4984 170.162 35.5001C170.151 35.5031 170.175 35.4963 170.244 35.4815C170.385 35.4509 170.622 35.4063 170.978 35.3515L169.94 28.6016L168.902 21.8518C167.979 21.9937 166.769 22.2086 165.711 22.5933L168.045 29.0114ZM169.94 28.6016L170.978 35.3515C171.888 35.2115 172.369 35.142 172.529 35.122L171.681 28.3455L170.834 21.569C170.447 21.6174 169.768 21.7185 168.902 21.8518L169.94 28.6016ZM171.681 28.3455L173.163 35.0122C173.079 35.0308 173.046 35.0352 173.092 35.0274C173.131 35.0211 173.202 35.01 173.312 34.9946C173.536 34.9636 173.853 34.9243 174.28 34.8769L173.525 28.0894L172.771 21.3019C171.906 21.3981 170.926 21.5175 170.2 21.6789L171.681 28.3455ZM173.525 28.0894L174.413 34.8607C176.466 34.5915 178.185 34.3342 179.29 34.083L177.777 27.4236L176.263 20.7641C175.866 20.8544 174.75 21.041 172.637 21.3181L173.525 28.0894ZM177.777 27.4236L179.573 34.0122C180.895 33.6517 183.211 32.8047 184.836 30.5696L179.313 26.5528L173.79 22.5361C174.358 21.7547 174.985 21.3217 175.357 21.1106C175.725 20.9023 175.972 20.8371 175.98 20.8349L177.777 27.4236ZM179.313 26.5528L184.453 31.0499C185.779 29.5346 186.157 27.8579 186.292 27.1437C186.462 26.2492 186.501 25.3771 186.501 24.6577H179.672H172.842C172.842 24.9286 172.822 24.8675 172.872 24.6047C172.899 24.4635 172.965 24.1594 173.121 23.7651C173.272 23.3848 173.578 22.7359 174.174 22.0557L179.313 26.5528ZM179.672 24.6577H186.501C186.501 21.6103 185.353 18.3619 182.362 16.1608C179.762 14.2476 176.689 13.8333 174.242 13.8333V20.6626V27.4919C174.488 27.4919 174.672 27.5033 174.801 27.5169C174.865 27.5236 174.912 27.5305 174.944 27.5359C174.976 27.5414 174.991 27.5451 174.991 27.5449C174.99 27.5448 174.972 27.5404 174.939 27.5293C174.906 27.5182 174.856 27.4999 174.793 27.4719C174.665 27.4154 174.48 27.3185 174.267 27.1619C173.801 26.8194 173.38 26.321 173.112 25.7278C172.86 25.173 172.842 24.7595 172.842 24.6577H179.672ZM174.242 20.6626V13.8333C171.735 13.8333 168.438 14.2557 165.751 16.4254L170.042 21.7382L174.334 27.051C173.841 27.449 173.457 27.5461 173.453 27.5473C173.444 27.5494 173.501 27.5344 173.639 27.5194C173.777 27.5046 173.975 27.4919 174.242 27.4919V20.6626ZM170.042 21.7382L165.751 16.4254C162.967 18.674 161.948 21.8595 161.589 24.4279L168.352 25.3748L175.116 26.3217C175.167 25.9537 175.218 25.9101 175.147 26.0636C175.064 26.2422 174.829 26.6506 174.334 27.051L170.042 21.7382ZM168.352 25.3748V18.5455H162.82V25.3748V32.2041H168.352V25.3748ZM179.62 30.3943L176.383 24.3813C176.308 24.4216 176.129 24.508 175.811 24.6202L178.084 31.0602L180.357 37.5001C181.2 37.2026 182.045 36.845 182.858 36.4073L179.62 30.3943ZM178.084 31.0602L176.157 24.5084C175.937 24.573 175.764 24.6198 175.634 24.6525C175.569 24.6686 175.519 24.6801 175.483 24.6881C175.465 24.692 175.452 24.6949 175.442 24.6968C175.438 24.6977 175.434 24.6984 175.432 24.6989C175.429 24.6994 175.428 24.6996 175.428 24.6996L176.65 31.4187L177.871 38.1378C178.581 38.0089 179.316 37.8164 180.011 37.6119L178.084 31.0602ZM176.65 31.4187L175.97 24.6233C175.518 24.6686 174.865 24.7488 174.076 24.8517L174.96 31.6236L175.843 38.3955C176.625 38.2935 177.099 38.2371 177.329 38.2141L176.65 31.4187ZM174.96 31.6236L174.037 24.8569C173.29 24.9588 172.773 25.03 172.508 25.0678L173.474 31.8284L174.44 38.5891C174.654 38.5586 175.127 38.4932 175.882 38.3902L174.96 31.6236ZM173.474 31.8284L172.508 25.0678C171.698 25.1836 170.869 25.325 170.128 25.5104L171.784 32.1358L173.44 38.7611C173.518 38.7417 173.816 38.6781 174.44 38.5891L173.474 31.8284ZM171.784 32.1358L170.661 25.3994C169.762 25.5493 168.876 25.804 168.088 26.0667L170.247 32.5455L172.407 39.0243C172.61 38.9567 172.756 38.9137 172.852 38.8881C172.952 38.8614 172.965 38.8624 172.907 38.8721L171.784 32.1358ZM170.247 32.5455L167.974 26.1056C166.818 26.5136 165.491 27.1624 164.296 28.2377L168.864 33.3138L173.433 38.39C173.17 38.6266 172.937 38.7753 172.783 38.8611C172.629 38.9464 172.532 38.9812 172.52 38.9855L170.247 32.5455ZM168.864 33.3138L164.327 28.2096C163.116 29.2866 162.351 30.5443 161.856 31.6039L168.045 34.4919L174.233 37.3799C174.217 37.4151 173.999 37.8874 173.402 38.4181L168.864 33.3138ZM168.045 34.4919L161.937 31.4377C161.11 33.0902 160.857 34.7758 160.857 36.2333H167.686H174.516C174.516 36.325 174.501 36.8497 174.153 37.546L168.045 34.4919ZM167.686 36.2333H160.857C160.857 39.1096 161.875 42.1753 164.544 44.3992L168.916 39.1528L173.288 33.9064C173.708 34.2568 174.064 34.7298 174.288 35.2606C174.498 35.7607 174.516 36.1301 174.516 36.2333H167.686ZM168.916 39.1528L164.649 44.4856C167.097 46.4439 169.971 47.0065 172.45 47.0065V40.1772V33.348C172.203 33.348 172.191 33.3186 172.341 33.3618C172.508 33.4104 172.828 33.537 173.182 33.8201L168.916 39.1528ZM172.45 40.1772V47.0065C176.271 47.0065 180.229 45.9485 183.271 42.9062L178.442 38.0772L173.613 33.2482C173.688 33.1741 173.736 33.1723 173.636 33.2072C173.506 33.2528 173.146 33.348 172.45 33.348V40.1772ZM178.442 38.0772L183.271 42.9062C186.145 40.0331 186.45 35.978 186.45 33.5187H179.62H172.791C172.791 33.8884 172.775 34.1663 172.754 34.3644C172.733 34.5652 172.712 34.6484 172.714 34.6398C172.716 34.6337 172.754 34.4822 172.877 34.2425C173.002 33.9976 173.23 33.632 173.613 33.2482L178.442 38.0772ZM179.62 33.5187H186.45V30.3943H179.62H172.791V33.5187H179.62ZM192.408 7.0382H199.237C199.237 3.2665 196.18 0.208931 192.408 0.208931V7.0382ZM192.408 12.7748V19.6041C196.18 19.6041 199.237 16.5465 199.237 12.7748H192.408ZM186.569 12.7748H179.74C179.74 16.5465 182.797 19.6041 186.569 19.6041V12.7748ZM186.569 7.0382V0.208931C182.797 0.208931 179.74 3.2665 179.74 7.0382H186.569ZM192.408 17.2309H199.237C199.237 13.4592 196.18 10.4016 192.408 10.4016V17.2309ZM192.408 43.6602V50.4894C196.18 50.4894 199.237 47.4319 199.237 43.6602H192.408ZM186.569 43.6602H179.74C179.74 47.4319 182.797 50.4894 186.569 50.4894V43.6602ZM186.569 17.2309V10.4016C182.797 10.4016 179.74 13.4592 179.74 17.2309H186.569ZM192.408 7.0382H185.579V12.7748H192.408H199.237V7.0382H192.408ZM192.408 12.7748V5.94552H186.569V12.7748V19.6041H192.408V12.7748ZM186.569 12.7748H193.398V7.0382H186.569H179.74V12.7748H186.569ZM186.569 7.0382V13.8675H192.408V7.0382V0.208931H186.569V7.0382ZM192.408 17.2309H185.579V43.6602H192.408H199.237V17.2309H192.408ZM192.408 43.6602V36.8309H186.569V43.6602V50.4894H192.408V43.6602ZM186.569 43.6602H193.398V17.2309H186.569H179.74V43.6602H186.569ZM186.569 17.2309V24.0602H192.408V17.2309V10.4016H186.569V17.2309ZM199.231 17.2309H206.06C206.06 13.4592 203.003 10.4016 199.231 10.4016V17.2309ZM199.231 21.1236H192.402C192.402 24.1138 194.347 26.7563 197.202 27.6445C200.058 28.5328 203.159 27.4603 204.855 24.9978L199.231 21.1236ZM214.699 18.9723L209.613 23.5292C209.63 23.5486 209.648 23.5679 209.665 23.5871L214.699 18.9723ZM216.953 43.6602V50.4894C220.725 50.4894 223.782 47.4319 223.782 43.6602H216.953ZM211.114 43.6602H204.285C204.285 47.4319 207.342 50.4894 211.114 50.4894V43.6602ZM210.96 25.6821L204.2 26.6479C204.202 26.6637 204.204 26.6794 204.207 26.6952L210.96 25.6821ZM210.295 23.5309L204.017 26.2211C204.053 26.3038 204.09 26.3858 204.129 26.467L210.295 23.5309ZM208.758 21.9431L205.589 27.9927C205.666 28.0329 205.744 28.0717 205.822 28.109L208.758 21.9431ZM199.538 43.6602V50.4894C203.31 50.4894 206.368 47.4319 206.368 43.6602H199.538ZM193.699 43.6602H186.87C186.87 47.4319 189.928 50.4894 193.699 50.4894V43.6602ZM193.699 17.2309V10.4016C189.928 10.4016 186.87 13.4592 186.87 17.2309H193.699ZM199.231 17.2309H192.402V21.1236H199.231H206.06V17.2309H199.231ZM199.231 21.1236L204.855 24.9978C205.702 23.7689 206.521 23.3431 207.99 23.3431V16.5138V9.68454C202.014 9.68454 196.995 12.3319 193.607 17.2493L199.231 21.1236ZM207.99 16.5138V23.3431C208.891 23.3431 209.373 23.4683 209.571 23.5408C209.728 23.5982 209.686 23.6108 209.613 23.5292L214.699 18.9723L219.786 14.4155C216.599 10.8583 212.196 9.68454 207.99 9.68454V16.5138ZM214.699 18.9723L209.665 23.5871C209.676 23.5984 209.774 23.702 209.883 24.0432C210 24.4108 210.124 25.0446 210.124 26.0406H216.953H223.782C223.782 21.9161 222.769 17.6688 219.734 14.3576L214.699 18.9723ZM216.953 26.0406H210.124V43.6602H216.953H223.782V26.0406H216.953ZM216.953 43.6602V36.8309H211.114V43.6602V50.4894H216.953V43.6602ZM211.114 43.6602H217.943V28.2943H211.114H204.285V43.6602H211.114ZM211.114 28.2943H217.943C217.943 27.055 217.886 25.8141 217.714 24.6691L210.96 25.6821L204.207 26.6952C204.24 26.916 204.285 27.4165 204.285 28.2943H211.114ZM210.96 25.6821L217.721 24.7163C217.512 23.2537 217.07 21.8751 216.46 20.5948L210.295 23.5309L204.129 26.467C204.202 26.6208 204.204 26.6764 204.2 26.6479L210.96 25.6821ZM210.295 23.5309L216.572 20.8407C215.597 18.5674 213.881 16.8184 211.694 15.7772L208.758 21.9431L205.822 28.109C205.502 27.9566 205.127 27.7113 204.772 27.3453C204.417 26.978 204.172 26.5808 204.017 26.2211L210.295 23.5309ZM208.758 21.9431L211.927 15.8935C209.925 14.8448 207.814 14.5504 205.992 14.5504V21.3797V28.2089C206.184 28.2089 206.231 28.2257 206.166 28.2124C206.097 28.1984 205.883 28.1464 205.589 27.9927L208.758 21.9431ZM205.992 21.3797V14.5504C202.341 14.5504 198.517 15.7619 195.826 19.1156C193.365 22.1822 192.709 26.0072 192.709 29.4211H199.538H206.368C206.368 28.5153 206.461 27.9598 206.539 27.6679C206.614 27.3892 206.645 27.4566 206.478 27.6645C206.395 27.7677 206.284 27.8787 206.149 27.9802C206.013 28.0813 205.886 28.1484 205.788 28.1892C205.597 28.2687 205.614 28.2089 205.992 28.2089V21.3797ZM199.538 29.4211H192.709V43.6602H199.538H206.368V29.4211H199.538ZM199.538 43.6602V36.8309H193.699V43.6602V50.4894H199.538V43.6602ZM193.699 43.6602H200.529V17.2309H193.699H186.87V43.6602H193.699ZM193.699 17.2309V24.0602H199.231V17.2309V10.4016H193.699V17.2309ZM241.601 30.2406H248.43C248.43 26.4689 245.373 23.4114 241.601 23.4114V30.2406ZM241.601 35.1577V41.987C245.373 41.987 248.43 38.9294 248.43 35.1577H241.601ZM237.042 35.1577V28.3284C233.271 28.3284 230.213 31.386 230.213 35.1577H237.042ZM237.042 43.6602V50.4894C240.814 50.4894 243.872 47.4319 243.872 43.6602H237.042ZM231.408 43.6602L224.579 43.7013C224.602 47.4569 227.653 50.4894 231.408 50.4894V43.6602ZM231.357 35.1577L238.186 35.1166C238.164 31.361 235.113 28.3284 231.357 28.3284V35.1577ZM216.145 35.1577H209.316C209.316 38.9294 212.373 41.987 216.145 41.987V35.1577ZM216.145 29.3699L210.557 25.4439C209.749 26.5937 209.316 27.9647 209.316 29.3699H216.145ZM231.511 7.49918V0.669907C229.286 0.669907 227.201 1.75316 225.923 3.57319L231.511 7.49918ZM237.042 7.49918H243.872C243.872 3.72748 240.814 0.669907 237.042 0.669907V7.49918ZM237.042 30.2406H230.213C230.213 34.0123 233.271 37.0699 237.042 37.0699V30.2406ZM231.459 30.2406V37.0699C235.231 37.0699 238.289 34.0123 238.289 30.2406H231.459ZM231.459 14.7211H238.289C238.289 11.7203 236.33 9.07106 233.461 8.19168C230.592 7.3123 227.485 8.40883 225.803 10.8942L231.459 14.7211ZM220.959 30.2406L215.303 26.4138C213.887 28.5067 213.743 31.2105 214.927 33.4425C216.112 35.6745 218.432 37.0699 220.959 37.0699V30.2406ZM241.601 30.2406H234.772V35.1577H241.601H248.43V30.2406H241.601ZM241.601 35.1577V28.3284H237.042V35.1577V41.987H241.601V35.1577ZM237.042 35.1577H230.213V43.6602H237.042H243.872V35.1577H237.042ZM237.042 43.6602V36.8309H231.408V43.6602V50.4894H237.042V43.6602ZM231.408 43.6602L238.237 43.619L238.186 35.1166L231.357 35.1577L224.528 35.1989L224.579 43.7013L231.408 43.6602ZM231.357 35.1577V28.3284H216.145V35.1577V41.987H231.357V35.1577ZM216.145 35.1577H222.974V29.3699H216.145H209.316V35.1577H216.145ZM216.145 29.3699L221.733 33.2959L237.099 11.4252L231.511 7.49918L225.923 3.57319L210.557 25.4439L216.145 29.3699ZM231.511 7.49918V14.3284H237.042V7.49918V0.669907H231.511V7.49918ZM237.042 7.49918H230.213V30.2406H237.042H243.872V7.49918H237.042ZM237.042 30.2406V37.0699H241.601V30.2406V23.4114H237.042V30.2406ZM231.459 30.2406H238.289V14.7211H231.459H224.63V30.2406H231.459ZM231.459 14.7211L225.803 10.8942L215.303 26.4138L220.959 30.2406L226.616 34.0675L237.116 18.548L231.459 14.7211ZM220.959 30.2406V37.0699H231.459V30.2406V23.4114H220.959V30.2406ZM271.445 7.19186H278.274C278.274 3.42016 275.216 0.362591 271.445 0.362591V7.19186ZM271.445 43.6602V50.4894C275.216 50.4894 278.274 47.4319 278.274 43.6602H271.445ZM265.042 43.6602H258.213C258.213 47.4319 261.271 50.4894 265.042 50.4894V43.6602ZM265.042 27.2699H271.872C271.872 23.4982 268.814 20.4406 265.042 20.4406V27.2699ZM248.345 27.2699V20.4406C244.573 20.4406 241.515 23.4982 241.515 27.2699H248.345ZM248.345 43.6602V50.4894C252.116 50.4894 255.174 47.4319 255.174 43.6602H248.345ZM241.942 43.6602H235.113C235.113 47.4319 238.171 50.4894 241.942 50.4894V43.6602ZM241.942 7.19186V0.362591C238.171 0.362591 235.113 3.42016 235.113 7.19186H241.942ZM248.345 7.19186H255.174C255.174 3.42016 252.116 0.362591 248.345 0.362591V7.19186ZM248.345 21.687H241.515C241.515 25.4587 244.573 28.5163 248.345 28.5163V21.687ZM265.042 21.687V28.5163C268.814 28.5163 271.872 25.4587 271.872 21.687H265.042ZM265.042 7.19186V0.362591C261.271 0.362591 258.213 3.42016 258.213 7.19186H265.042ZM271.445 7.19186H264.615V43.6602H271.445H278.274V7.19186H271.445ZM271.445 43.6602V36.8309H265.042V43.6602V50.4894H271.445V43.6602ZM265.042 43.6602H271.872V27.2699H265.042H258.213V43.6602H265.042ZM265.042 27.2699V20.4406H248.345V27.2699V34.0992H265.042V27.2699ZM248.345 27.2699H241.515V43.6602H248.345H255.174V27.2699H248.345ZM248.345 43.6602V36.8309H241.942V43.6602V50.4894H248.345V43.6602ZM241.942 43.6602H248.772V7.19186H241.942H235.113V43.6602H241.942ZM241.942 7.19186V14.0211H248.345V7.19186V0.362591H241.942V7.19186ZM248.345 7.19186H241.515V21.687H248.345H255.174V7.19186H248.345ZM248.345 21.687V28.5163H265.042V21.687V14.8577H248.345V21.687ZM265.042 21.687H271.872V7.19186H265.042H258.213V21.687H265.042ZM265.042 7.19186V14.0211H271.445V7.19186V0.362591H265.042V7.19186ZM296.782 35.4138L303.443 36.9205C303.901 34.8956 303.413 32.7724 302.117 31.1506C300.821 29.5288 298.858 28.5845 296.782 28.5845V35.4138ZM292.531 42.1236L288.488 36.6192C288.475 36.6293 288.461 36.6395 288.447 36.6497L292.531 42.1236ZM275.27 40.6894L270.18 45.2431C270.201 45.2667 270.223 45.29 270.244 45.3132L275.27 40.6894ZM275.372 20.5089L270.293 15.9439C270.282 15.9559 270.271 15.9678 270.261 15.9799L275.372 20.5089ZM293.76 20.4577L288.547 24.869C288.556 24.8801 288.565 24.8911 288.575 24.9021L293.76 20.4577ZM297.14 31.8797V38.7089C300.912 38.7089 303.97 35.6514 303.97 31.8797H297.14ZM277.626 31.8797V25.0504C275.784 25.0504 274.021 25.7942 272.735 27.1129C271.45 28.4317 270.752 30.2137 270.799 32.0547L277.626 31.8797ZM279.623 38.0772L274.447 42.5316C274.464 42.5517 274.481 42.5717 274.499 42.5916L279.623 38.0772ZM288.792 39.1016L292.919 44.5424C292.928 44.5354 292.938 44.5284 292.947 44.5214L288.792 39.1016ZM291.199 35.4138V28.5845C288.29 28.5845 285.7 30.4272 284.747 33.1754L291.199 35.4138ZM291.301 27.987V34.8163C293.204 34.8163 295.02 34.0229 296.312 32.6271C297.605 31.2314 298.257 29.3598 298.111 27.4632L291.301 27.987ZM289.201 22.7626L284.178 27.3893C284.22 27.4351 284.263 27.4804 284.307 27.525L289.201 22.7626ZM279.879 22.6602L274.983 17.8996C274.96 17.9233 274.937 17.9471 274.915 17.971L279.879 22.6602ZM277.728 27.987L270.946 27.189C270.718 29.1259 271.329 31.0678 272.625 32.5251C273.921 33.9825 275.778 34.8163 277.728 34.8163V27.987ZM296.782 35.4138L290.121 33.9072C289.802 35.3176 289.232 36.0734 288.488 36.6192L292.531 42.1236L296.573 47.628C300.201 44.964 302.464 41.2466 303.443 36.9205L296.782 35.4138ZM292.531 42.1236L288.447 36.6497C287.615 37.2702 286.514 37.7016 284.797 37.7016V44.5309V51.3602C289.088 51.3602 293.144 50.1867 296.614 47.5974L292.531 42.1236ZM284.797 44.5309V37.7016C282.4 37.7016 281.162 37.0074 280.296 36.0656L275.27 40.6894L270.244 45.3132C274.09 49.4934 279.202 51.3602 284.797 51.3602V44.5309ZM275.27 40.6894L280.359 36.1357C279.332 34.9875 278.616 33.3828 278.616 30.7528H271.787H264.958C264.958 36.1814 266.564 41.2011 270.18 45.2431L275.27 40.6894ZM271.787 30.7528H278.616C278.616 28.0296 279.361 26.3045 280.484 25.038L275.372 20.5089L270.261 15.9799C266.602 20.1085 264.958 25.2126 264.958 30.7528H271.787ZM275.372 20.5089L280.452 25.0739C281.543 23.86 282.75 23.2919 284.592 23.2919V16.4626V9.63332C278.99 9.63332 274.051 11.7628 270.293 15.9439L275.372 20.5089ZM284.592 16.4626V23.2919C286.681 23.2919 287.738 23.9133 288.547 24.869L293.76 20.4577L298.973 16.0464C295.275 11.6753 290.219 9.63332 284.592 9.63332V16.4626ZM293.76 20.4577L288.575 24.9021C289.467 25.9428 290.311 27.7888 290.311 31.265H297.14H303.97C303.97 25.59 302.56 20.2312 298.945 16.0133L293.76 20.4577ZM297.14 31.265H290.311V31.8797H297.14H303.97V31.265H297.14ZM297.14 31.8797V25.0504H277.626V31.8797V38.7089H297.14V31.8797ZM277.626 31.8797L270.799 32.0547C270.892 35.7056 271.83 39.4901 274.447 42.5316L279.623 38.0772L284.8 33.6229C284.89 33.7278 284.496 33.3806 284.453 31.7046L277.626 31.8797ZM279.623 38.0772L274.499 42.5916C277.294 45.7642 281.07 47.0577 284.899 47.0577V40.2284V33.3992C284.494 33.3992 284.391 33.3355 284.468 33.3669C284.506 33.382 284.562 33.4105 284.624 33.4548C284.686 33.499 284.728 33.5402 284.748 33.5629L279.623 38.0772ZM284.899 40.2284V47.0577C287.558 47.0577 290.435 46.4267 292.919 44.5424L288.792 39.1016L284.664 33.6608C284.773 33.5784 284.879 33.5149 284.974 33.4681C285.068 33.4219 285.139 33.3977 285.177 33.3868C285.248 33.3661 285.176 33.3992 284.899 33.3992V40.2284ZM288.792 39.1016L292.947 44.5214C295.358 42.6726 296.79 40.1326 297.651 37.6523L291.199 35.4138L284.747 33.1754C284.603 33.5899 284.485 33.7935 284.443 33.8576C284.407 33.9132 284.458 33.8187 284.637 33.6819L288.792 39.1016ZM291.199 35.4138V42.2431H296.782V35.4138V28.5845H291.199V35.4138ZM291.301 27.987L298.111 27.4632C297.85 24.0797 296.707 20.6837 294.096 18.0002L289.201 22.7626L284.307 27.525C284.262 27.4787 284.272 27.4638 284.312 27.5633C284.359 27.6805 284.451 27.9702 284.492 28.5108L291.301 27.987ZM289.201 22.7626L294.225 18.1359C291.62 15.3079 288.182 13.987 284.54 13.987V20.8163V27.6455C284.715 27.6455 284.671 27.6726 284.508 27.6047C284.433 27.5732 284.358 27.5317 284.291 27.4846C284.226 27.4381 284.189 27.4007 284.178 27.3893L289.201 22.7626ZM284.54 20.8163V13.987C281.018 13.987 277.618 15.189 274.983 17.8996L279.879 22.6602L284.776 27.4207C284.755 27.4419 284.713 27.4812 284.647 27.5249C284.582 27.5688 284.514 27.6035 284.453 27.6276C284.323 27.679 284.321 27.6455 284.54 27.6455V20.8163ZM279.879 22.6602L274.915 17.971C272.423 20.6089 271.326 23.9551 270.946 27.189L277.728 27.987L284.511 28.7849C284.677 27.375 285.014 27.1699 284.844 27.3493L279.879 22.6602ZM277.728 27.987V34.8163H291.301V27.987V21.1577H277.728V27.987ZM311.414 16.7187H318.243C318.243 13.1866 315.549 10.2372 312.032 9.91747L311.414 16.7187ZM311.414 22.3016L310.734 29.097C312.654 29.289 314.565 28.6599 315.996 27.3652C317.427 26.0705 318.243 24.2311 318.243 22.3016H311.414ZM301.733 43.6602V50.4894C305.505 50.4894 308.562 47.4319 308.562 43.6602H301.733ZM295.945 43.6602H289.116C289.116 47.4319 292.174 50.4894 295.945 50.4894V43.6602ZM295.945 17.2309V10.4016C292.174 10.4016 289.116 13.4592 289.116 17.2309H295.945ZM301.426 17.2309H308.255C308.255 13.4592 305.197 10.4016 301.426 10.4016V17.2309ZM301.426 22.5065H294.596C294.596 25.6962 296.804 28.461 299.915 29.1666C303.026 29.8722 306.21 28.3305 307.587 25.453L301.426 22.5065ZM310.287 16.6163L310.905 9.81503C310.699 9.79634 310.493 9.78698 310.287 9.78698V16.6163ZM311.414 16.7187H304.584V22.3016H311.414H318.243V16.7187H311.414ZM311.414 22.3016L312.093 15.5062C311.127 15.4096 310.104 15.3187 309.365 15.3187V22.148V28.9772C309.295 28.9772 309.279 28.9751 309.344 28.9783C309.4 28.9811 309.491 28.9866 309.622 28.9965C309.887 29.0164 310.253 29.0489 310.734 29.097L311.414 22.3016ZM309.365 22.148V15.3187C305.227 15.3187 301.089 16.7491 298.235 20.446C295.64 23.8077 294.904 28.0498 294.904 32.0333H301.733H308.562C308.562 30.8028 308.683 29.9562 308.824 29.4105C308.962 28.8745 309.089 28.7373 309.047 28.7926C308.977 28.8836 308.843 28.9879 308.733 29.0356C308.663 29.0657 308.821 28.9772 309.365 28.9772V22.148ZM301.733 32.0333H294.904V43.6602H301.733H308.562V32.0333H301.733ZM301.733 43.6602V36.8309H295.945V43.6602V50.4894H301.733V43.6602ZM295.945 43.6602H302.775V17.2309H295.945H289.116V43.6602H295.945ZM295.945 17.2309V24.0602H301.426V17.2309V10.4016H295.945V17.2309ZM301.426 17.2309H294.596V22.5065H301.426H308.255V17.2309H301.426ZM301.426 22.5065L307.587 25.453C308.114 24.3494 308.589 23.9362 308.83 23.7762C309.039 23.6372 309.428 23.4455 310.287 23.4455V16.6163V9.78698C307.116 9.78698 304.013 10.577 301.269 12.4015C298.556 14.2049 296.615 16.7368 295.265 19.56L301.426 22.5065ZM310.287 16.6163L309.668 23.4175L310.795 23.5199L311.414 16.7187L312.032 9.91747L310.905 9.81503L310.287 16.6163Z" fill="#CFF665" mask="url(#path-1-outside-1_3143_8143)"/>
</svg>
