<svg width="58" height="58" viewBox="0 0 58 58" fill="none" xmlns="http://www.w3.org/2000/svg">
<path d="M28.6855 54.2754C32.2436 54.2754 35.2699 51.7554 35.9678 48.2988L36.0771 47.8027C36.1372 47.5482 36.205 47.2965 36.2773 47.0469C36.6524 47.2534 37.0223 47.4745 37.3828 47.7139L37.6611 47.8896C40.5642 49.6395 44.3205 49.2274 46.7578 46.79L46.9873 46.5508C49.2198 44.1118 49.5509 40.5029 47.8574 37.6934L47.6816 37.415C47.4422 37.0545 47.2201 36.6857 47.0137 36.3105C47.4252 36.1912 47.8431 36.0866 48.2676 36.001L48.5889 35.9287C51.8791 35.1135 54.2441 32.1657 54.2441 28.7188C54.2441 25.2718 51.8791 22.3241 48.5889 21.5088L48.2676 21.4365C47.8434 21.3509 47.4259 21.2462 47.0146 21.127C47.2212 20.7517 47.4431 20.3822 47.6826 20.0215L47.8584 19.7432C49.5517 16.934 49.2205 13.3257 46.9883 10.8867L46.7588 10.6465C44.3214 8.20917 40.5652 7.79693 37.6621 9.54688L37.3838 9.72266C37.0231 9.96218 36.6536 10.1841 36.2783 10.3906C36.2058 10.1404 36.1384 9.88794 36.0781 9.63281L35.9697 9.13672C35.2938 5.78821 32.4325 3.31912 29.0195 3.16797L28.6875 3.16016C25.2407 3.16016 22.2929 5.52512 21.4775 8.81543L21.4053 9.13672C21.3196 9.56099 21.214 9.97834 21.0947 10.3896C20.8668 10.2642 20.6407 10.1337 20.418 9.99609L19.9902 9.72168C17.1444 7.83215 13.3756 8.10968 10.8555 10.416L10.6152 10.6455C8.09934 13.1614 7.74087 17.083 9.69141 20.0205L9.96582 20.4482C10.1035 20.6711 10.2329 20.8979 10.3584 21.126C10.1085 21.1984 9.85637 21.266 9.60156 21.3262L9.10547 21.4346C5.64903 22.1324 3.12901 25.1587 3.12891 28.7168C3.12891 32.2748 5.64887 35.3011 9.10547 35.999L9.60156 36.1074C9.85623 36.1676 10.1076 36.2371 10.3574 36.3096C10.151 36.6845 9.92967 37.0538 9.69043 37.4141V37.415C7.74036 40.3525 8.09858 44.2734 10.6143 46.7891L10.8535 47.0186C13.3737 49.3253 17.1434 49.6026 19.9893 47.7129L20.417 47.4385C20.6396 47.3009 20.8659 47.1713 21.0938 47.0459C21.213 47.4571 21.3177 47.8747 21.4033 48.2988L21.4756 48.6201C22.2909 51.9103 25.2386 54.2753 28.6855 54.2754Z" stroke="#CFF665" stroke-width="5.67944" stroke-linejoin="round"/>
</svg>
