<svg width="49" height="31" viewBox="0 0 49 31" fill="none" xmlns="http://www.w3.org/2000/svg">
<path d="M19.1919 0C21.6194 0 23.6043 1.98487 23.6043 4.41243V26.4746C23.6043 28.9021 21.6194 30.887 19.1919 30.887H4.71892V26.4746H18.8805V4.41243H4.71892V26.4746H0V4.41243C0 1.98973 1.98485 0 4.4562 0H19.1919Z" fill="black"/>
<path d="M33.4109 17.3442C30.8958 17.3442 28.8672 15.3156 28.8672 12.8005V8.21289H33.4109V17.3442ZM28.8672 30.888V26.1691C28.8672 23.654 30.8958 21.6253 33.4109 21.6253V30.8929H28.8672V30.888ZM33.4109 17.3442V21.5377H44.0455V17.3442H33.4109ZM44.0455 17.3442C46.5606 17.3442 48.5893 15.3156 48.5893 12.8005V8.21289H44.0455V17.3442ZM48.5893 30.888V26.0815C48.5893 23.5664 46.5606 21.5377 44.0455 21.5377V30.8929H48.5893V30.888Z" fill="black"/>
</svg>
