<svg width="31" height="31" viewBox="0 0 31 31" fill="none" xmlns="http://www.w3.org/2000/svg">
<path d="M0 17.194V13.806C0 13.1957 0.463781 12.688 1.06914 12.6343C7.21543 12.1217 12.1169 7.22032 12.6343 1.06914C12.6832 0.463781 13.1957 0 13.806 0H17.194C17.8042 0 18.312 0.463781 18.3657 1.06914C18.8783 7.21543 23.7797 12.1169 29.9309 12.6343C30.5362 12.6832 31 13.1957 31 13.806V17.194C31 17.8043 30.5362 18.312 29.9309 18.3657C23.7846 18.8783 18.8831 23.7797 18.3657 29.9309C18.3168 30.5362 17.8042 31 17.194 31H13.806C13.1957 31 12.688 30.5362 12.6343 29.9309C12.1217 23.7846 7.22032 18.8831 1.06914 18.3657C0.463781 18.3168 0 17.8043 0 17.194Z" fill="black"/>
</svg>
