<svg width="199" height="46" viewBox="0 0 199 46" fill="none" xmlns="http://www.w3.org/2000/svg">
<mask id="path-1-outside-1_3189_1753" maskUnits="userSpaceOnUse" x="0" y="0" width="199" height="46" fill="black">
<rect fill="white" width="199" height="46"/>
<path d="M27.7013 34.1255V39H5.67579V6.86436H11.3627V34.1255H27.7013ZM40.9807 6.09707C45.5242 6.09707 49.2102 7.66173 52.0386 10.791C54.8971 13.8903 56.3264 17.9373 56.3264 22.9322C56.3264 27.927 54.8971 31.9891 52.0386 35.1184C49.1801 38.2177 45.464 39.7673 40.8904 39.7673C36.2867 39.7673 32.5556 38.2177 29.6971 35.1184C26.8687 32.0192 25.4545 27.9571 25.4545 22.9322C25.4545 18.0577 26.8386 14.0407 29.6069 10.8813C32.4052 7.69182 36.1965 6.09707 40.9807 6.09707ZM40.8904 10.8362C37.9417 10.8362 35.5796 11.9344 33.8043 14.131C32.0291 16.2974 31.1414 19.2011 31.1414 22.8419C31.1414 26.573 32.014 29.5368 33.7592 31.7334C35.5345 33.9299 37.9417 35.0282 40.9807 35.0282C43.8994 35.0282 46.2313 33.9299 47.9765 31.7334C49.7518 29.5067 50.6395 26.558 50.6395 22.887C50.6395 19.2161 49.7518 16.2974 47.9765 14.131C46.2313 11.9344 43.8693 10.8362 40.8904 10.8362ZM84.4345 26.7686C84.1336 30.7103 82.7194 33.8697 80.1919 36.2468C77.6944 38.5938 74.4448 39.7673 70.4428 39.7673C65.8993 39.7673 62.2585 38.2327 59.5203 35.1636C56.7822 32.0944 55.4131 28.0173 55.4131 22.9322C55.4131 19.863 55.9999 17.0798 57.1734 14.5823C58.3468 12.0548 60.1071 10.0238 62.4541 8.48919C64.8011 6.92454 67.5542 6.14221 70.7137 6.14221C74.1138 6.14221 77.0776 7.09003 79.6051 8.98567C82.1326 10.8512 83.6522 13.5593 84.1637 17.1099H78.567C78.1759 15.1841 77.2732 13.6796 75.859 12.5964C74.4448 11.4831 72.6996 10.9264 70.6234 10.9264C68.487 10.9264 66.6666 11.5282 65.1621 12.7318C63.6877 13.9354 62.6346 15.4248 62.0027 17.2001C61.4009 18.9453 61.1 20.856 61.1 22.9322C61.1 24.4968 61.2806 25.9712 61.6417 27.3553C62.0027 28.7395 62.5443 30.0183 63.2665 31.1918C63.9886 32.3352 64.9665 33.2529 66.2002 33.945C67.464 34.637 68.9233 34.983 70.5782 34.983C75.3625 34.983 78.1006 32.2449 78.7927 26.7686H84.4345ZM99.6303 6.81922L112.042 39H105.994L102.925 30.4696H90.1972L87.0378 39H81.2155L93.6274 6.81922H99.6303ZM101.436 26.227L96.6514 12.6867L91.6415 26.227H101.436ZM129.473 6.86436V11.7389H119.227V39H113.586V11.7389H103.34V6.86436H129.473ZM134.382 6.86436V39H128.695V6.86436H134.382ZM150.555 6.09707C155.098 6.09707 158.784 7.66173 161.613 10.791C164.471 13.8903 165.901 17.9373 165.901 22.9322C165.901 27.927 164.471 31.9891 161.613 35.1184C158.754 38.2177 155.038 39.7673 150.465 39.7673C145.861 39.7673 142.13 38.2177 139.271 35.1184C136.443 32.0192 135.029 27.9571 135.029 22.9322C135.029 18.0577 136.413 14.0407 139.181 10.8813C141.979 7.69182 145.771 6.09707 150.555 6.09707ZM150.465 10.8362C147.516 10.8362 145.154 11.9344 143.379 14.131C141.603 16.2974 140.716 19.2011 140.716 22.8419C140.716 26.573 141.588 29.5368 143.333 31.7334C145.109 33.9299 147.516 35.0282 150.555 35.0282C153.474 35.0282 155.805 33.9299 157.551 31.7334C159.326 29.5067 160.214 26.558 160.214 22.887C160.214 19.2161 159.326 16.2974 157.551 14.131C155.805 11.9344 153.443 10.8362 150.465 10.8362ZM192.519 6.86436V39H186.697L171.712 15.3496V39H166.386V6.86436H172.299L187.103 30.5599V6.86436H192.519Z"/>
</mask>
<path d="M27.7013 34.1255V39H5.67579V6.86436H11.3627V34.1255H27.7013ZM40.9807 6.09707C45.5242 6.09707 49.2102 7.66173 52.0386 10.791C54.8971 13.8903 56.3264 17.9373 56.3264 22.9322C56.3264 27.927 54.8971 31.9891 52.0386 35.1184C49.1801 38.2177 45.464 39.7673 40.8904 39.7673C36.2867 39.7673 32.5556 38.2177 29.6971 35.1184C26.8687 32.0192 25.4545 27.9571 25.4545 22.9322C25.4545 18.0577 26.8386 14.0407 29.6069 10.8813C32.4052 7.69182 36.1965 6.09707 40.9807 6.09707ZM40.8904 10.8362C37.9417 10.8362 35.5796 11.9344 33.8043 14.131C32.0291 16.2974 31.1414 19.2011 31.1414 22.8419C31.1414 26.573 32.014 29.5368 33.7592 31.7334C35.5345 33.9299 37.9417 35.0282 40.9807 35.0282C43.8994 35.0282 46.2313 33.9299 47.9765 31.7334C49.7518 29.5067 50.6395 26.558 50.6395 22.887C50.6395 19.2161 49.7518 16.2974 47.9765 14.131C46.2313 11.9344 43.8693 10.8362 40.8904 10.8362ZM84.4345 26.7686C84.1336 30.7103 82.7194 33.8697 80.1919 36.2468C77.6944 38.5938 74.4448 39.7673 70.4428 39.7673C65.8993 39.7673 62.2585 38.2327 59.5203 35.1636C56.7822 32.0944 55.4131 28.0173 55.4131 22.9322C55.4131 19.863 55.9999 17.0798 57.1734 14.5823C58.3468 12.0548 60.1071 10.0238 62.4541 8.48919C64.8011 6.92454 67.5542 6.14221 70.7137 6.14221C74.1138 6.14221 77.0776 7.09003 79.6051 8.98567C82.1326 10.8512 83.6522 13.5593 84.1637 17.1099H78.567C78.1759 15.1841 77.2732 13.6796 75.859 12.5964C74.4448 11.4831 72.6996 10.9264 70.6234 10.9264C68.487 10.9264 66.6666 11.5282 65.1621 12.7318C63.6877 13.9354 62.6346 15.4248 62.0027 17.2001C61.4009 18.9453 61.1 20.856 61.1 22.9322C61.1 24.4968 61.2806 25.9712 61.6417 27.3553C62.0027 28.7395 62.5443 30.0183 63.2665 31.1918C63.9886 32.3352 64.9665 33.2529 66.2002 33.945C67.464 34.637 68.9233 34.983 70.5782 34.983C75.3625 34.983 78.1006 32.2449 78.7927 26.7686H84.4345ZM99.6303 6.81922L112.042 39H105.994L102.925 30.4696H90.1972L87.0378 39H81.2155L93.6274 6.81922H99.6303ZM101.436 26.227L96.6514 12.6867L91.6415 26.227H101.436ZM129.473 6.86436V11.7389H119.227V39H113.586V11.7389H103.34V6.86436H129.473ZM134.382 6.86436V39H128.695V6.86436H134.382ZM150.555 6.09707C155.098 6.09707 158.784 7.66173 161.613 10.791C164.471 13.8903 165.901 17.9373 165.901 22.9322C165.901 27.927 164.471 31.9891 161.613 35.1184C158.754 38.2177 155.038 39.7673 150.465 39.7673C145.861 39.7673 142.13 38.2177 139.271 35.1184C136.443 32.0192 135.029 27.9571 135.029 22.9322C135.029 18.0577 136.413 14.0407 139.181 10.8813C141.979 7.69182 145.771 6.09707 150.555 6.09707ZM150.465 10.8362C147.516 10.8362 145.154 11.9344 143.379 14.131C141.603 16.2974 140.716 19.2011 140.716 22.8419C140.716 26.573 141.588 29.5368 143.333 31.7334C145.109 33.9299 147.516 35.0282 150.555 35.0282C153.474 35.0282 155.805 33.9299 157.551 31.7334C159.326 29.5067 160.214 26.558 160.214 22.887C160.214 19.2161 159.326 16.2974 157.551 14.131C155.805 11.9344 153.443 10.8362 150.465 10.8362ZM192.519 6.86436V39H186.697L171.712 15.3496V39H166.386V6.86436H172.299L187.103 30.5599V6.86436H192.519Z" fill="#CFF665"/>
<path d="M27.7013 34.1255H33.3431C33.3431 31.0096 30.8172 28.4837 27.7013 28.4837V34.1255ZM27.7013 39V44.6418C30.8172 44.6418 33.3431 42.1159 33.3431 39H27.7013ZM5.67579 39H0.0339953C0.0339953 42.1159 2.55991 44.6418 5.67579 44.6418V39ZM5.67579 6.86436V1.22257C2.55991 1.22257 0.0339953 3.74848 0.0339953 6.86436H5.67579ZM11.3627 6.86436H17.0045C17.0045 3.74848 14.4786 1.22257 11.3627 1.22257V6.86436ZM11.3627 34.1255H5.72092C5.72092 37.2414 8.24684 39.7673 11.3627 39.7673V34.1255ZM27.7013 34.1255H22.0595V39H27.7013H33.3431V34.1255H27.7013ZM27.7013 39V33.3582H5.67579V39V44.6418H27.7013V39ZM5.67579 39H11.3176V6.86436H5.67579H0.0339953V39H5.67579ZM5.67579 6.86436V12.5061H11.3627V6.86436V1.22257H5.67579V6.86436ZM11.3627 6.86436H5.72092V34.1255H11.3627H17.0045V6.86436H11.3627ZM11.3627 34.1255V39.7673H27.7013V34.1255V28.4837H11.3627V34.1255ZM52.0386 10.791L47.8531 14.5741C47.8658 14.5882 47.8786 14.6022 47.8915 14.6161L52.0386 10.791ZM52.0386 35.1184L56.1858 38.9435C56.1919 38.9368 56.198 38.9302 56.2041 38.9235L52.0386 35.1184ZM29.6971 35.1184L25.5299 38.9216C25.5365 38.9289 25.5433 38.9362 25.55 38.9435L29.6971 35.1184ZM29.6069 10.8813L25.3659 7.16051L25.3635 7.16331L29.6069 10.8813ZM33.8043 14.131L38.1681 17.7069C38.1762 17.6971 38.1842 17.6872 38.1922 17.6773L33.8043 14.131ZM33.7592 31.7334L29.3419 35.243C29.3517 35.2553 29.3615 35.2675 29.3714 35.2797L33.7592 31.7334ZM47.9765 31.7334L43.5652 28.2162L43.5592 28.2238L47.9765 31.7334ZM47.9765 14.131L43.5592 17.6406C43.5769 17.6628 43.5947 17.6849 43.6127 17.7069L47.9765 14.131ZM40.9807 6.09707V11.7389C44.0673 11.7389 46.1837 12.727 47.8531 14.5741L52.0386 10.791L56.2241 7.008C52.2367 2.59642 46.9812 0.455283 40.9807 0.455283V6.09707ZM52.0386 10.791L47.8915 14.6161C49.6158 16.4856 50.6846 19.0769 50.6846 22.9322H56.3264H61.9682C61.9682 16.7977 60.1785 11.2949 56.1858 6.966L52.0386 10.791ZM56.3264 22.9322H50.6846C50.6846 26.7858 49.6161 29.4053 47.8731 31.3134L52.0386 35.1184L56.2041 38.9235C60.1782 34.573 61.9682 29.0683 61.9682 22.9322H56.3264ZM52.0386 35.1184L47.8915 31.2934C46.1982 33.1293 44.0379 34.1255 40.8904 34.1255V39.7673V45.4091C46.8902 45.4091 52.162 43.3061 56.1858 38.9435L52.0386 35.1184ZM40.8904 39.7673V34.1255C37.7006 34.1255 35.5299 33.121 33.8443 31.2934L29.6971 35.1184L25.55 38.9435C29.5814 43.3144 34.8728 45.4091 40.8904 45.4091V39.7673ZM29.6971 35.1184L33.8644 31.3153C32.1656 29.4538 31.0963 26.8436 31.0963 22.9322H25.4545H19.8127C19.8127 29.0706 21.5719 34.5846 25.5299 38.9216L29.6971 35.1184ZM25.4545 22.9322H31.0963C31.0963 19.1928 32.1258 16.5674 33.8502 14.5993L29.6069 10.8813L25.3635 7.16331C21.5514 11.514 19.8127 16.9225 19.8127 22.9322H25.4545ZM29.6069 10.8813L33.8478 14.6021C35.4315 12.797 37.5898 11.7389 40.9807 11.7389V6.09707V0.455283C34.8031 0.455283 29.3789 2.58661 25.3659 7.16051L29.6069 10.8813ZM40.8904 10.8362V5.19439C36.3244 5.19439 32.3163 6.99676 29.4165 10.5846L33.8043 14.131L38.1922 17.6773C38.843 16.8721 39.5589 16.478 40.8904 16.478V10.8362ZM33.8043 14.131L29.4405 10.5551C26.6185 13.9989 25.4996 18.2933 25.4996 22.8419H31.1414H36.7832C36.7832 20.1088 37.4396 18.596 38.1681 17.7069L33.8043 14.131ZM31.1414 22.8419H25.4996C25.4996 27.4266 26.5766 31.7624 29.3419 35.243L33.7592 31.7334L38.1765 28.2238C37.4515 27.3112 36.7832 25.7194 36.7832 22.8419H31.1414ZM33.7592 31.7334L29.3714 35.2797C32.3077 38.9129 36.3861 40.67 40.9807 40.67V35.0282V29.3864C39.4972 29.3864 38.7613 28.947 38.1471 28.187L33.7592 31.7334ZM40.9807 35.0282V40.67C45.5394 40.67 49.5292 38.8485 52.3938 35.243L47.9765 31.7334L43.5592 28.2238C42.9335 29.0114 42.2594 29.3864 40.9807 29.3864V35.0282ZM47.9765 31.7334L52.3878 35.2505C55.1652 31.767 56.2812 27.4619 56.2812 22.887H50.6395H44.9977C44.9977 25.654 44.3384 27.2465 43.5652 28.2162L47.9765 31.7334ZM50.6395 22.887H56.2812C56.2812 18.3214 55.1687 14.0066 52.3403 10.5551L47.9765 14.131L43.6127 17.7069C44.335 18.5883 44.9977 20.1108 44.9977 22.887H50.6395ZM47.9765 14.131L52.3938 10.6214C49.5043 6.98452 45.4671 5.19439 40.8904 5.19439V10.8362V16.478C42.2715 16.478 42.9584 16.8844 43.5592 17.6406L47.9765 14.131ZM84.4345 26.7686L90.0599 27.198C90.1795 25.6317 89.6406 24.0864 88.5729 22.9341C87.5052 21.7818 86.0054 21.1268 84.4345 21.1268V26.7686ZM80.1919 36.2468L84.0555 40.3581L84.057 40.3566L80.1919 36.2468ZM59.5203 35.1636L55.3104 38.9195L59.5203 35.1636ZM57.1734 14.5823L62.2795 16.9816C62.2832 16.9738 62.2869 16.966 62.2905 16.9582L57.1734 14.5823ZM62.4541 8.48919L65.5415 13.2112C65.5556 13.202 65.5696 13.1928 65.5836 13.1834L62.4541 8.48919ZM79.6051 8.98567L76.22 13.4991C76.2316 13.5078 76.2431 13.5164 76.2547 13.5249L79.6051 8.98567ZM84.1637 17.1099V22.7516C85.8004 22.7516 87.3564 22.0409 88.428 20.8038C89.4996 19.5668 89.9812 17.9253 89.7478 16.3054L84.1637 17.1099ZM78.567 17.1099L73.0381 18.2329C73.5722 20.8622 75.8841 22.7516 78.567 22.7516V17.1099ZM75.859 12.5964L72.3692 17.0294C72.3888 17.0448 72.4085 17.0601 72.4283 17.0753L75.859 12.5964ZM65.1621 12.7318L61.6377 8.32632C61.6232 8.33792 61.6088 8.3496 61.5944 8.36134L65.1621 12.7318ZM62.0027 17.2001L56.6876 15.3083C56.6813 15.3258 56.6752 15.3434 56.6691 15.3609L62.0027 17.2001ZM61.6417 27.3553L67.1007 25.9312L61.6417 27.3553ZM63.2665 31.1918L58.4616 34.1486C58.4731 34.1673 58.4847 34.1859 58.4964 34.2044L63.2665 31.1918ZM66.2002 33.945L63.44 38.8654C63.4567 38.8748 63.4735 38.8841 63.4904 38.8933L66.2002 33.945ZM78.7927 26.7686V21.1268C75.9503 21.1268 73.5518 23.2413 73.1954 26.0612L78.7927 26.7686ZM84.4345 26.7686L78.8091 26.3392C78.5993 29.0872 77.6853 30.8592 76.3267 32.137L80.1919 36.2468L84.057 40.3566C87.7534 36.8802 89.6679 32.3334 90.0599 27.198L84.4345 26.7686ZM80.1919 36.2468L76.3283 32.1355C75.0507 33.3362 73.2665 34.1255 70.4428 34.1255V39.7673V45.4091C75.623 45.4091 80.3382 43.8514 84.0555 40.3581L80.1919 36.2468ZM70.4428 39.7673V34.1255C67.3191 34.1255 65.2788 33.1434 63.7302 31.4077L59.5203 35.1636L55.3104 38.9195C59.2382 43.322 64.4795 45.4091 70.4428 45.4091V39.7673ZM59.5203 35.1636L63.7302 31.4077C62.1187 29.6013 61.0549 26.9732 61.0549 22.9322H55.4131H49.7713C49.7713 29.0614 51.4457 34.5876 55.3104 38.9195L59.5203 35.1636ZM55.4131 22.9322H61.0549C61.0549 20.5986 61.4966 18.6478 62.2795 16.9816L57.1734 14.5823L52.0672 12.183C50.5031 15.5117 49.7713 19.1275 49.7713 22.9322H55.4131ZM57.1734 14.5823L62.2905 16.9582C63.017 15.3933 64.0712 14.1726 65.5415 13.2112L62.4541 8.48919L59.3666 3.76719C56.143 5.87495 53.6767 8.71628 52.0562 12.2065L57.1734 14.5823ZM62.4541 8.48919L65.5836 13.1834C66.8948 12.3093 68.5295 11.784 70.7137 11.784V6.14221V0.500417C66.579 0.500417 62.7073 1.53981 59.3246 3.79494L62.4541 8.48919ZM70.7137 6.14221V11.784C72.9918 11.784 74.7453 12.393 76.22 13.4991L79.6051 8.98567L82.9902 4.47224C79.4099 1.78704 75.2357 0.500417 70.7137 0.500417V6.14221ZM79.6051 8.98567L76.2547 13.5249C77.3926 14.3648 78.2499 15.6265 78.5795 17.9143L84.1637 17.1099L89.7478 16.3054C89.0544 11.492 86.8727 7.33768 82.9555 4.44643L79.6051 8.98567ZM84.1637 17.1099V11.4681H78.567V17.1099V22.7516H84.1637V17.1099ZM78.567 17.1099L84.0959 15.9868C83.4636 12.8738 81.8997 10.1168 79.2896 8.11752L75.859 12.5964L72.4283 17.0753C72.6466 17.2425 72.8881 17.4944 73.0381 18.2329L78.567 17.1099ZM75.859 12.5964L79.3487 8.16345C76.7909 6.14984 73.762 5.28466 70.6234 5.28466V10.9264V16.5682C71.6372 16.5682 72.0986 16.8164 72.3692 17.0294L75.859 12.5964ZM70.6234 10.9264V5.28466C67.354 5.28466 64.2523 6.23464 61.6377 8.32632L65.1621 12.7318L68.6865 17.1373C69.0809 16.8218 69.6201 16.5682 70.6234 16.5682V10.9264ZM65.1621 12.7318L61.5944 8.36134C59.3307 10.2093 57.6684 12.5526 56.6876 15.3083L62.0027 17.2001L67.3179 19.0919C67.6008 18.2971 68.0448 17.6615 68.7299 17.1023L65.1621 12.7318ZM62.0027 17.2001L56.6691 15.3609C55.8396 17.7667 55.4582 20.3073 55.4582 22.9322H61.1H66.7418C66.7418 21.4047 66.9623 20.124 67.3363 19.0393L62.0027 17.2001ZM61.1 22.9322H55.4582C55.4582 24.9328 55.6894 26.8891 56.1826 28.7795L61.6417 27.3553L67.1007 25.9312C66.8717 25.0533 66.7418 24.0609 66.7418 22.9322H61.1ZM61.6417 27.3553L56.1826 28.7795C56.6792 30.6833 57.4357 32.4815 58.4616 34.1486L63.2665 31.1918L68.0714 28.2349C67.653 27.5551 67.3262 26.7956 67.1007 25.9312L61.6417 27.3553ZM63.2665 31.1918L58.4964 34.2044C59.7428 36.1779 61.4271 37.7363 63.44 38.8654L66.2002 33.945L68.9605 29.0245C68.506 28.7695 68.2345 28.4924 68.0366 28.1791L63.2665 31.1918ZM66.2002 33.945L63.4904 38.8933C65.7012 40.104 68.1183 40.6248 70.5782 40.6248V34.983V29.3413C69.7284 29.3413 69.2267 29.17 68.91 28.9966L66.2002 33.945ZM70.5782 34.983V40.6248C74.093 40.6248 77.5445 39.5837 80.2094 36.9188C82.7712 34.3569 83.952 30.9419 84.39 27.4759L78.7927 26.7686L73.1954 26.0612C72.9414 28.0716 72.407 28.7638 72.2307 28.9401C72.1574 29.0133 71.8477 29.3413 70.5782 29.3413V34.983ZM78.7927 26.7686V32.4104H84.4345V26.7686V21.1268H78.7927V26.7686ZM99.6303 6.81922L104.894 4.78899C104.055 2.61277 101.963 1.17743 99.6303 1.17743V6.81922ZM112.042 39V44.6418C113.902 44.6418 115.642 43.7253 116.694 42.1918C117.746 40.6584 117.975 38.7049 117.306 36.9698L112.042 39ZM105.994 39L100.686 40.91C101.491 43.1489 103.615 44.6418 105.994 44.6418V39ZM102.925 30.4696L108.234 28.5596C107.428 26.3207 105.305 24.8278 102.925 24.8278V30.4696ZM90.1972 30.4696V24.8278C87.8371 24.8278 85.7264 26.2969 84.9066 28.5101L90.1972 30.4696ZM87.0378 39V44.6418C89.398 44.6418 91.5087 43.1727 92.3284 40.9595L87.0378 39ZM81.2155 39L75.9517 36.9698C75.2824 38.7049 75.5113 40.6584 76.5634 42.1918C77.6155 43.7253 79.3558 44.6418 81.2155 44.6418V39ZM93.6274 6.81922V1.17743C91.295 1.17743 89.203 2.61277 88.3636 4.78899L93.6274 6.81922ZM101.436 26.227V31.8688C103.267 31.8688 104.984 30.9799 106.042 29.4847C107.099 27.9896 107.365 26.0741 106.755 24.3474L101.436 26.227ZM96.6514 12.6867L101.971 10.8071C101.179 8.56681 99.069 7.06256 96.693 7.04505C94.317 7.02754 92.1847 8.50053 91.3602 10.7289L96.6514 12.6867ZM91.6415 26.227L86.3503 24.2692C85.7097 26.0005 85.9566 27.9357 87.0115 29.4507C88.0663 30.9657 89.7955 31.8688 91.6415 31.8688V26.227ZM99.6303 6.81922L94.3665 8.84945L106.778 41.0302L112.042 39L117.306 36.9698L104.894 4.78899L99.6303 6.81922ZM112.042 39V33.3582H105.994V39V44.6418H112.042V39ZM105.994 39L111.303 37.09L108.234 28.5596L102.925 30.4696L97.6165 32.3796L100.686 40.91L105.994 39ZM102.925 30.4696V24.8278H90.1972V30.4696V36.1114H102.925V30.4696ZM90.1972 30.4696L84.9066 28.5101L81.7472 37.0405L87.0378 39L92.3284 40.9595L95.4878 32.4291L90.1972 30.4696ZM87.0378 39V33.3582H81.2155V39V44.6418H87.0378V39ZM81.2155 39L86.4793 41.0302L98.8913 8.84945L93.6274 6.81922L88.3636 4.78899L75.9517 36.9698L81.2155 39ZM93.6274 6.81922V12.461H99.6303V6.81922V1.17743H93.6274V6.81922ZM101.436 26.227L106.755 24.3474L101.971 10.8071L96.6514 12.6867L91.3319 14.5662L96.1162 28.1065L101.436 26.227ZM96.6514 12.6867L91.3602 10.7289L86.3503 24.2692L91.6415 26.227L96.9327 28.1847L101.943 14.6444L96.6514 12.6867ZM91.6415 26.227V31.8688H101.436V26.227V20.5852H91.6415V26.227ZM129.473 6.86436H135.115C135.115 3.74848 132.589 1.22257 129.473 1.22257V6.86436ZM129.473 11.7389V17.3807C132.589 17.3807 135.115 14.8547 135.115 11.7389H129.473ZM119.227 11.7389V6.09707C116.112 6.09707 113.586 8.62299 113.586 11.7389H119.227ZM119.227 39V44.6418C122.343 44.6418 124.869 42.1159 124.869 39H119.227ZM113.586 39H107.944C107.944 42.1159 110.47 44.6418 113.586 44.6418V39ZM113.586 11.7389H119.227C119.227 8.62299 116.701 6.09707 113.586 6.09707V11.7389ZM103.34 11.7389H97.6983C97.6983 14.8547 100.224 17.3807 103.34 17.3807V11.7389ZM103.34 6.86436V1.22257C100.224 1.22257 97.6983 3.74848 97.6983 6.86436H103.34ZM129.473 6.86436H123.831V11.7389H129.473H135.115V6.86436H129.473ZM129.473 11.7389V6.09707H119.227V11.7389V17.3807H129.473V11.7389ZM119.227 11.7389H113.586V39H119.227H124.869V11.7389H119.227ZM119.227 39V33.3582H113.586V39V44.6418H119.227V39ZM113.586 39H119.227V11.7389H113.586H107.944V39H113.586ZM113.586 11.7389V6.09707H103.34V11.7389V17.3807H113.586V11.7389ZM103.34 11.7389H108.982V6.86436H103.34H97.6983V11.7389H103.34ZM103.34 6.86436V12.5061H129.473V6.86436V1.22257H103.34V6.86436ZM134.382 6.86436H140.024C140.024 3.74848 137.498 1.22257 134.382 1.22257V6.86436ZM134.382 39V44.6418C137.498 44.6418 140.024 42.1159 140.024 39H134.382ZM128.695 39H123.054C123.054 42.1159 125.58 44.6418 128.695 44.6418V39ZM128.695 6.86436V1.22257C125.58 1.22257 123.054 3.74848 123.054 6.86436H128.695ZM134.382 6.86436H128.741V39H134.382H140.024V6.86436H134.382ZM134.382 39V33.3582H128.695V39V44.6418H134.382V39ZM128.695 39H134.337V6.86436H128.695H123.054V39H128.695ZM128.695 6.86436V12.5061H134.382V6.86436V1.22257H128.695V6.86436ZM161.613 10.791L157.427 14.5741C157.44 14.5882 157.453 14.6022 157.466 14.6161L161.613 10.791ZM161.613 35.1184L165.76 38.9435C165.766 38.9368 165.772 38.9302 165.778 38.9235L161.613 35.1184ZM139.271 35.1184L135.104 38.9216C135.111 38.9289 135.117 38.9362 135.124 38.9435L139.271 35.1184ZM139.181 10.8813L134.94 7.16051L134.938 7.16331L139.181 10.8813ZM143.379 14.131L147.742 17.7069C147.75 17.6971 147.758 17.6872 147.766 17.6773L143.379 14.131ZM143.333 31.7334L138.916 35.243C138.926 35.2553 138.936 35.2675 138.946 35.2797L143.333 31.7334ZM157.551 31.7334L153.139 28.2162L153.133 28.2238L157.551 31.7334ZM157.551 14.131L153.133 17.6406C153.151 17.6628 153.169 17.6849 153.187 17.7069L157.551 14.131ZM150.555 6.09707V11.7389C153.641 11.7389 155.758 12.727 157.427 14.5741L161.613 10.791L165.798 7.008C161.811 2.59642 156.555 0.455283 150.555 0.455283V6.09707ZM161.613 10.791L157.466 14.6161C159.19 16.4856 160.259 19.0769 160.259 22.9322H165.901H171.542C171.542 16.7977 169.753 11.2949 165.76 6.966L161.613 10.791ZM165.901 22.9322H160.259C160.259 26.7858 159.19 29.4053 157.447 31.3134L161.613 35.1184L165.778 38.9235C169.752 34.573 171.542 29.0683 171.542 22.9322H165.901ZM161.613 35.1184L157.466 31.2934C155.772 33.1293 153.612 34.1255 150.465 34.1255V39.7673V45.4091C156.464 45.4091 161.736 43.3061 165.76 38.9435L161.613 35.1184ZM150.465 39.7673V34.1255C147.275 34.1255 145.104 33.121 143.418 31.2934L139.271 35.1184L135.124 38.9435C139.156 43.3144 144.447 45.4091 150.465 45.4091V39.7673ZM139.271 35.1184L143.439 31.3153C141.74 29.4538 140.67 26.8436 140.67 22.9322H135.029H129.387C129.387 29.0706 131.146 34.5846 135.104 38.9216L139.271 35.1184ZM135.029 22.9322H140.67C140.67 19.1928 141.7 16.5674 143.424 14.5993L139.181 10.8813L134.938 7.16331C131.126 11.514 129.387 16.9225 129.387 22.9322H135.029ZM139.181 10.8813L143.422 14.6021C145.006 12.797 147.164 11.7389 150.555 11.7389V6.09707V0.455283C144.377 0.455283 138.953 2.58661 134.94 7.16051L139.181 10.8813ZM150.465 10.8362V5.19439C145.899 5.19439 141.89 6.99676 138.991 10.5846L143.379 14.131L147.766 17.6773C148.417 16.8721 149.133 16.478 150.465 16.478V10.8362ZM143.379 14.131L139.015 10.5551C136.193 13.9989 135.074 18.2933 135.074 22.8419H140.716H146.357C146.357 20.1088 147.014 18.596 147.742 17.7069L143.379 14.131ZM140.716 22.8419H135.074C135.074 27.4266 136.151 31.7624 138.916 35.243L143.333 31.7334L147.751 28.2238C147.026 27.3112 146.357 25.7194 146.357 22.8419H140.716ZM143.333 31.7334L138.946 35.2797C141.882 38.9129 145.96 40.67 150.555 40.67V35.0282V29.3864C149.071 29.3864 148.335 28.947 147.721 28.187L143.333 31.7334ZM150.555 35.0282V40.67C155.114 40.67 159.103 38.8485 161.968 35.243L157.551 31.7334L153.133 28.2238C152.508 29.0114 151.834 29.3864 150.555 29.3864V35.0282ZM157.551 31.7334L161.962 35.2505C164.739 31.767 165.855 27.4619 165.855 22.887H160.214H154.572C154.572 25.654 153.913 27.2465 153.139 28.2162L157.551 31.7334ZM160.214 22.887H165.855C165.855 18.3214 164.743 14.0066 161.914 10.5551L157.551 14.131L153.187 17.7069C153.909 18.5883 154.572 20.1108 154.572 22.887H160.214ZM157.551 14.131L161.968 10.6214C159.078 6.98452 155.041 5.19439 150.465 5.19439V10.8362V16.478C151.846 16.478 152.533 16.8844 153.133 17.6406L157.551 14.131ZM192.519 6.86436H198.161C198.161 3.74848 195.635 1.22257 192.519 1.22257V6.86436ZM192.519 39V44.6418C195.635 44.6418 198.161 42.1159 198.161 39H192.519ZM186.697 39L181.931 42.0195C182.966 43.6523 184.764 44.6418 186.697 44.6418V39ZM171.712 15.3496L176.478 12.3301C175.134 10.2095 172.551 9.23176 170.14 9.93126C167.729 10.6308 166.07 12.8392 166.07 15.3496H171.712ZM171.712 39V44.6418C174.828 44.6418 177.354 42.1159 177.354 39H171.712ZM166.386 39H160.745C160.745 42.1159 163.271 44.6418 166.386 44.6418V39ZM166.386 6.86436V1.22257C163.271 1.22257 160.745 3.74848 160.745 6.86436H166.386ZM172.299 6.86436L177.084 3.87503C176.053 2.22501 174.245 1.22257 172.299 1.22257V6.86436ZM187.103 30.5599L182.318 33.5492C183.652 35.6839 186.238 36.6769 188.658 35.9832C191.078 35.2895 192.745 33.0769 192.745 30.5599H187.103ZM187.103 6.86436V1.22257C183.987 1.22257 181.461 3.74848 181.461 6.86436H187.103ZM192.519 6.86436H186.877V39H192.519H198.161V6.86436H192.519ZM192.519 39V33.3582H186.697V39V44.6418H192.519V39ZM186.697 39L191.463 35.9805L176.478 12.3301L171.712 15.3496L166.947 18.3691L181.931 42.0195L186.697 39ZM171.712 15.3496H166.07V39H171.712H177.354V15.3496H171.712ZM171.712 39V33.3582H166.386V39V44.6418H171.712V39ZM166.386 39H172.028V6.86436H166.386H160.745V39H166.386ZM166.386 6.86436V12.5061H172.299V6.86436V1.22257H166.386V6.86436ZM172.299 6.86436L167.514 9.85368L182.318 33.5492L187.103 30.5599L191.888 27.5706L177.084 3.87503L172.299 6.86436ZM187.103 30.5599H192.745V6.86436H187.103H181.461V30.5599H187.103ZM187.103 6.86436V12.5061H192.519V6.86436V1.22257H187.103V6.86436Z" fill="#8F8F8F" mask="url(#path-1-outside-1_3189_1753)"/>
</svg>
