<svg width="135" height="44" viewBox="0 0 135 44" fill="none" xmlns="http://www.w3.org/2000/svg">
<mask id="path-1-outside-1_3144_1907" maskUnits="userSpaceOnUse" x="0" y="0" width="135" height="44" fill="black">
<rect fill="white" width="135" height="44"/>
<path d="M33.4012 5.86436L20.5379 18.6825L34.2136 38H27.2178L16.6564 22.6092L12.0527 27.2129V38H6.45601V5.86436H12.0527V20.4427L26.27 5.86436H33.4012ZM47.554 5.81922L59.9659 38H53.9179L50.8488 29.4696H38.1209L34.9615 38H29.1392L41.5511 5.81922H47.554ZM49.3594 25.227L44.5751 11.6867L39.5652 25.227H49.3594ZM58.5664 5.86436H72.5129C75.9732 5.86436 78.6963 6.69182 80.6822 8.34675C82.6982 9.97158 83.7062 12.4088 83.7062 15.6585C83.7062 18.7276 82.7735 21.1649 80.9079 22.9703C79.0423 24.7456 76.4998 25.6332 73.2802 25.6332H64.2082V38H58.5664V5.86436ZM64.2082 10.5583V21.0746H72.0616C76.1538 21.0746 78.1998 19.3144 78.1998 15.7939C78.1998 12.3035 75.9883 10.5583 71.5651 10.5583H64.2082ZM107.131 5.86436V10.7389H96.8851V38H91.2433V10.7389H80.9978V5.86436H107.131ZM116.833 5.81922L129.245 38H123.197L120.128 29.4696H107.4L104.241 38H98.4186L110.831 5.81922H116.833ZM118.639 25.227L113.855 11.6867L108.845 25.227H118.639Z"/>
</mask>
<path d="M33.4012 5.86436L20.5379 18.6825L34.2136 38H27.2178L16.6564 22.6092L12.0527 27.2129V38H6.45601V5.86436H12.0527V20.4427L26.27 5.86436H33.4012ZM47.554 5.81922L59.9659 38H53.9179L50.8488 29.4696H38.1209L34.9615 38H29.1392L41.5511 5.81922H47.554ZM49.3594 25.227L44.5751 11.6867L39.5652 25.227H49.3594ZM58.5664 5.86436H72.5129C75.9732 5.86436 78.6963 6.69182 80.6822 8.34675C82.6982 9.97158 83.7062 12.4088 83.7062 15.6585C83.7062 18.7276 82.7735 21.1649 80.9079 22.9703C79.0423 24.7456 76.4998 25.6332 73.2802 25.6332H64.2082V38H58.5664V5.86436ZM64.2082 10.5583V21.0746H72.0616C76.1538 21.0746 78.1998 19.3144 78.1998 15.7939C78.1998 12.3035 75.9883 10.5583 71.5651 10.5583H64.2082ZM107.131 5.86436V10.7389H96.8851V38H91.2433V10.7389H80.9978V5.86436H107.131ZM116.833 5.81922L129.245 38H123.197L120.128 29.4696H107.4L104.241 38H98.4186L110.831 5.81922H116.833ZM118.639 25.227L113.855 11.6867L108.845 25.227H118.639Z" fill="#CFF665"/>
<path d="M33.4012 5.86436L37.3835 9.86071C39.0012 8.24874 39.4875 5.82055 38.6154 3.70992C37.7434 1.59929 35.6849 0.222568 33.4012 0.222568V5.86436ZM20.5379 18.6825L16.5556 14.6862C14.6057 16.6292 14.3427 19.6957 15.9332 21.9424L20.5379 18.6825ZM34.2136 38V43.6418C36.3227 43.6418 38.2556 42.4654 39.2247 40.5921C40.1937 38.7189 40.0369 36.4615 38.8183 34.7401L34.2136 38ZM27.2178 38L22.5659 41.1922C23.6181 42.7255 25.3582 43.6418 27.2178 43.6418V38ZM16.6564 22.6092L21.3082 19.417C20.3594 18.0343 18.8445 17.1453 17.1746 16.9913C15.5047 16.8372 13.8528 17.434 12.667 18.6198L16.6564 22.6092ZM12.0527 27.2129L8.06331 23.2235C7.00527 24.2816 6.41087 25.7166 6.41087 27.2129H12.0527ZM12.0527 38V43.6418C15.1685 43.6418 17.6945 41.1159 17.6945 38H12.0527ZM6.45601 38H0.814215C0.814215 41.1159 3.34013 43.6418 6.45601 43.6418V38ZM6.45601 5.86436V0.222568C3.34013 0.222568 0.814215 2.74848 0.814215 5.86436H6.45601ZM12.0527 5.86436H17.6945C17.6945 2.74848 15.1685 0.222568 12.0527 0.222568V5.86436ZM12.0527 20.4427H6.41087C6.41087 22.7375 7.80081 24.8036 9.92636 25.6685C12.0519 26.5334 14.4895 26.0246 16.0917 24.3818L12.0527 20.4427ZM26.27 5.86436V0.222568C24.7492 0.222568 23.2927 0.836559 22.2309 1.92534L26.27 5.86436ZM33.4012 5.86436L29.4189 1.86801L16.5556 14.6862L20.5379 18.6825L24.5202 22.6789L37.3835 9.86071L33.4012 5.86436ZM20.5379 18.6825L15.9332 21.9424L29.6089 41.2599L34.2136 38L38.8183 34.7401L25.1426 15.4226L20.5379 18.6825ZM34.2136 38V32.3582H27.2178V38V43.6418H34.2136V38ZM27.2178 38L31.8697 34.8078L21.3082 19.417L16.6564 22.6092L12.0045 25.8014L22.5659 41.1922L27.2178 38ZM16.6564 22.6092L12.667 18.6198L8.06331 23.2235L12.0527 27.2129L16.042 31.2022L20.6457 26.5985L16.6564 22.6092ZM12.0527 27.2129H6.41087V38H12.0527H17.6945V27.2129H12.0527ZM12.0527 38V32.3582H6.45601V38V43.6418H12.0527V38ZM6.45601 38H12.0978V5.86436H6.45601H0.814215V38H6.45601ZM6.45601 5.86436V11.5061H12.0527V5.86436V0.222568H6.45601V5.86436ZM12.0527 5.86436H6.41087V20.4427H12.0527H17.6945V5.86436H12.0527ZM12.0527 20.4427L16.0917 24.3818L30.309 9.80337L26.27 5.86436L22.2309 1.92534L8.01361 16.5037L12.0527 20.4427ZM26.27 5.86436V11.5061H33.4012V5.86436V0.222568H26.27V5.86436ZM47.554 5.81922L52.8178 3.78899C51.9785 1.61277 49.8865 0.177431 47.554 0.177431V5.81922ZM59.9659 38V43.6418C61.8256 43.6418 63.5659 42.7253 64.618 41.1918C65.6702 39.6584 65.899 37.7049 65.2298 35.9698L59.9659 38ZM53.9179 38L48.6093 39.91C49.4148 42.1489 51.5385 43.6418 53.9179 43.6418V38ZM50.8488 29.4696L56.1574 27.5596C55.3519 25.3207 53.2282 23.8278 50.8488 23.8278V29.4696ZM38.1209 29.4696V23.8278C35.7608 23.8278 33.65 25.2969 32.8303 27.5101L38.1209 29.4696ZM34.9615 38V43.6418C37.3217 43.6418 39.4324 42.1727 40.2521 39.9595L34.9615 38ZM29.1392 38L23.8753 35.9698C23.2061 37.7049 23.435 39.6584 24.4871 41.1918C25.5392 42.7253 27.2795 43.6418 29.1392 43.6418V38ZM41.5511 5.81922V0.177431C39.2186 0.177431 37.1266 1.61277 36.2873 3.78899L41.5511 5.81922ZM49.3594 25.227V30.8688C51.1907 30.8688 52.9081 29.9799 53.9655 28.4847C55.023 26.9896 55.289 25.0741 54.6789 23.3474L49.3594 25.227ZM44.5751 11.6867L49.8946 9.80713C49.103 7.56681 46.9927 6.06256 44.6167 6.04505C42.2407 6.02754 40.1084 7.50053 39.2839 9.72894L44.5751 11.6867ZM39.5652 25.227L34.274 23.2692C33.6334 25.0005 33.8803 26.9357 34.9351 28.4507C35.99 29.9657 37.7192 30.8688 39.5652 30.8688V25.227ZM47.554 5.81922L42.2901 7.84945L54.7021 40.0302L59.9659 38L65.2298 35.9698L52.8178 3.78899L47.554 5.81922ZM59.9659 38V32.3582H53.9179V38V43.6418H59.9659V38ZM53.9179 38L59.2266 36.09L56.1574 27.5596L50.8488 29.4696L45.5401 31.3796L48.6093 39.91L53.9179 38ZM50.8488 29.4696V23.8278H38.1209V29.4696V35.1114H50.8488V29.4696ZM38.1209 29.4696L32.8303 27.5101L29.6709 36.0405L34.9615 38L40.2521 39.9595L43.4115 31.4291L38.1209 29.4696ZM34.9615 38V32.3582H29.1392V38V43.6418H34.9615V38ZM29.1392 38L34.403 40.0302L46.815 7.84945L41.5511 5.81922L36.2873 3.78899L23.8753 35.9698L29.1392 38ZM41.5511 5.81922V11.461H47.554V5.81922V0.177431H41.5511V5.81922ZM49.3594 25.227L54.6789 23.3474L49.8946 9.80713L44.5751 11.6867L39.2556 13.5662L44.0399 27.1065L49.3594 25.227ZM44.5751 11.6867L39.2839 9.72894L34.274 23.2692L39.5652 25.227L44.8564 27.1847L49.8663 13.6444L44.5751 11.6867ZM39.5652 25.227V30.8688H49.3594V25.227V19.5852H39.5652V25.227ZM58.5664 5.86436V0.222568C55.4505 0.222568 52.9246 2.74848 52.9246 5.86436H58.5664ZM80.6822 8.34675L77.0704 12.6809C77.0941 12.7006 77.1179 12.7201 77.1419 12.7394L80.6822 8.34675ZM80.9079 22.9703L84.7971 27.0573C84.8086 27.0464 84.82 27.0355 84.8313 27.0245L80.9079 22.9703ZM64.2082 25.6332V19.9914C61.0923 19.9914 58.5664 22.5173 58.5664 25.6332H64.2082ZM64.2082 38V43.6418C67.3241 43.6418 69.85 41.1159 69.85 38H64.2082ZM58.5664 38H52.9246C52.9246 41.1159 55.4505 43.6418 58.5664 43.6418V38ZM64.2082 10.5583V4.91654C61.0923 4.91654 58.5664 7.44245 58.5664 10.5583H64.2082ZM64.2082 21.0746H58.5664C58.5664 24.1905 61.0923 26.7164 64.2082 26.7164V21.0746ZM58.5664 5.86436V11.5061H72.5129V5.86436V0.222568H58.5664V5.86436ZM72.5129 5.86436V11.5061C75.1025 11.5061 76.3969 12.1196 77.0704 12.6809L80.6822 8.34675L84.294 4.0126C80.9958 1.26405 76.844 0.222568 72.5129 0.222568V5.86436ZM80.6822 8.34675L77.1419 12.7394C77.4981 13.0265 78.0644 13.6395 78.0644 15.6585H83.7062H89.348C89.348 11.1781 87.8984 6.91665 84.2226 3.95407L80.6822 8.34675ZM83.7062 15.6585H78.0644C78.0644 17.5003 77.5527 18.3661 76.9845 18.9161L80.9079 22.9703L84.8313 27.0245C87.9942 23.9637 89.348 19.955 89.348 15.6585H83.7062ZM80.9079 22.9703L77.0187 18.8833C76.4481 19.4262 75.4316 19.9914 73.2802 19.9914V25.6332V31.275C77.5679 31.275 81.6366 30.0649 84.7971 27.0573L80.9079 22.9703ZM73.2802 25.6332V19.9914H64.2082V25.6332V31.275H73.2802V25.6332ZM64.2082 25.6332H58.5664V38H64.2082H69.85V25.6332H64.2082ZM64.2082 38V32.3582H58.5664V38V43.6418H64.2082V38ZM58.5664 38H64.2082V5.86436H58.5664H52.9246V38H58.5664ZM64.2082 10.5583H58.5664V21.0746H64.2082H69.85V10.5583H64.2082ZM64.2082 21.0746V26.7164H72.0616V21.0746V15.4328H64.2082V21.0746ZM72.0616 21.0746V26.7164C74.7868 26.7164 77.8838 26.1484 80.3447 24.0313C82.968 21.7745 83.8416 18.6639 83.8416 15.7939H78.1998H72.5581C72.5581 16.1404 72.5064 16.1927 72.5555 16.0659C72.5814 15.999 72.6293 15.899 72.7091 15.7845C72.7898 15.6689 72.8851 15.5643 72.9859 15.4775C73.1941 15.2984 73.3182 15.2851 73.1919 15.3214C73.0491 15.3623 72.6985 15.4328 72.0616 15.4328V21.0746ZM78.1998 15.7939H83.8416C83.8416 12.7765 82.8186 9.63406 80.0361 7.43831C77.5081 5.44347 74.3661 4.91654 71.5651 4.91654V10.5583V16.2001C72.3183 16.2001 72.784 16.2764 73.0326 16.3417C73.2714 16.4046 73.2193 16.4327 73.0462 16.2961C72.9597 16.2279 72.8644 16.1347 72.7758 16.0182C72.6873 15.9019 72.6265 15.7897 72.588 15.6987C72.5122 15.5193 72.5581 15.5081 72.5581 15.7939H78.1998ZM71.5651 10.5583V4.91654H64.2082V10.5583V16.2001H71.5651V10.5583ZM107.131 5.86436H112.772C112.772 2.74848 110.246 0.222568 107.131 0.222568V5.86436ZM107.131 10.7389V16.3807C110.246 16.3807 112.772 13.8547 112.772 10.7389H107.131ZM96.8851 10.7389V5.09707C93.7692 5.09707 91.2433 7.62299 91.2433 10.7389H96.8851ZM96.8851 38V43.6418C100.001 43.6418 102.527 41.1159 102.527 38H96.8851ZM91.2433 38H85.6015C85.6015 41.1159 88.1274 43.6418 91.2433 43.6418V38ZM91.2433 10.7389H96.8851C96.8851 7.62299 94.3592 5.09707 91.2433 5.09707V10.7389ZM80.9978 10.7389H75.356C75.356 13.8547 77.8819 16.3807 80.9978 16.3807V10.7389ZM80.9978 5.86436V0.222568C77.8819 0.222568 75.356 2.74848 75.356 5.86436H80.9978ZM107.131 5.86436H101.489V10.7389H107.131H112.772V5.86436H107.131ZM107.131 10.7389V5.09707H96.8851V10.7389V16.3807H107.131V10.7389ZM96.8851 10.7389H91.2433V38H96.8851H102.527V10.7389H96.8851ZM96.8851 38V32.3582H91.2433V38V43.6418H96.8851V38ZM91.2433 38H96.8851V10.7389H91.2433H85.6015V38H91.2433ZM91.2433 10.7389V5.09707H80.9978V10.7389V16.3807H91.2433V10.7389ZM80.9978 10.7389H86.6396V5.86436H80.9978H75.356V10.7389H80.9978ZM80.9978 5.86436V11.5061H107.131V5.86436V0.222568H80.9978V5.86436ZM116.833 5.81922L122.097 3.78899C121.258 1.61277 119.166 0.177431 116.833 0.177431V5.81922ZM129.245 38V43.6418C131.105 43.6418 132.845 42.7253 133.897 41.1918C134.95 39.6584 135.178 37.7049 134.509 35.9698L129.245 38ZM123.197 38L117.889 39.91C118.694 42.1489 120.818 43.6418 123.197 43.6418V38ZM120.128 29.4696L125.437 27.5596C124.631 25.3207 122.508 23.8278 120.128 23.8278V29.4696ZM107.4 29.4696V23.8278C105.04 23.8278 102.929 25.2969 102.11 27.5101L107.4 29.4696ZM104.241 38V43.6418C106.601 43.6418 108.712 42.1727 109.532 39.9595L104.241 38ZM98.4186 38L93.1548 35.9698C92.4855 37.7049 92.7144 39.6584 93.7665 41.1918C94.8186 42.7253 96.5589 43.6418 98.4186 43.6418V38ZM110.831 5.81922V0.177431C108.498 0.177431 106.406 1.61277 105.567 3.78899L110.831 5.81922ZM118.639 25.227V30.8688C120.47 30.8688 122.188 29.9799 123.245 28.4847C124.302 26.9896 124.568 25.0741 123.958 23.3474L118.639 25.227ZM113.855 11.6867L119.174 9.80713C118.382 7.56681 116.272 6.06256 113.896 6.04505C111.52 6.02754 109.388 7.50053 108.563 9.72894L113.855 11.6867ZM108.845 25.227L103.553 23.2692C102.913 25.0005 103.16 26.9357 104.215 28.4507C105.269 29.9657 106.999 30.8688 108.845 30.8688V25.227ZM116.833 5.81922L111.57 7.84945L123.982 40.0302L129.245 38L134.509 35.9698L122.097 3.78899L116.833 5.81922ZM129.245 38V32.3582H123.197V38V43.6418H129.245V38ZM123.197 38L128.506 36.09L125.437 27.5596L120.128 29.4696L114.82 31.3796L117.889 39.91L123.197 38ZM120.128 29.4696V23.8278H107.4V29.4696V35.1114H120.128V29.4696ZM107.4 29.4696L102.11 27.5101L98.9504 36.0405L104.241 38L109.532 39.9595L112.691 31.4291L107.4 29.4696ZM104.241 38V32.3582H98.4186V38V43.6418H104.241V38ZM98.4186 38L103.682 40.0302L116.094 7.84945L110.831 5.81922L105.567 3.78899L93.1548 35.9698L98.4186 38ZM110.831 5.81922V11.461H116.833V5.81922V0.177431H110.831V5.81922ZM118.639 25.227L123.958 23.3474L119.174 9.80713L113.855 11.6867L108.535 13.5662L113.319 27.1065L118.639 25.227ZM113.855 11.6867L108.563 9.72894L103.553 23.2692L108.845 25.227L114.136 27.1847L119.146 13.6444L113.855 11.6867ZM108.845 25.227V30.8688H118.639V25.227V19.5852H108.845V25.227Z" fill="#8F8F8F" mask="url(#path-1-outside-1_3144_1907)"/>
</svg>
