<svg width="477" height="179" viewBox="0 0 477 179" fill="none" xmlns="http://www.w3.org/2000/svg">
<g clip-path="url(#clip0_3144_1946)">
<path d="M48.4372 75.0534C54.745 76.0389 58.6777 83.3064 60.7802 86.7724C60.8205 86.8364 60.8607 86.9002 60.9008 86.9639C61.4019 87.8029 61.9813 88.4623 62.6502 89.1964C63.5707 90.2026 64.6571 91.3716 65.8629 93.1874C66.7205 94.4897 67.7012 96.1952 69.0545 98.5606C70.5033 99.4353 71.9629 100.291 73.4404 101.143C80.3579 105.13 88.1088 108.646 96.7695 111.261C98.5113 111.815 100.143 112.206 99.4289 112.431C98.9798 112.584 97.97 112.558 94.3763 113.243C92.6102 113.601 89.9691 114.258 87.0119 115.475C84.1476 116.607 81.0866 118.529 82.201 117.971C83.6909 117.236 82.3953 118.009 80.6821 119.37C78.9675 120.725 77.5589 122.171 76.8713 123.025C75.4765 124.783 75.8521 124.839 76.3312 124.499C78.9552 122.652 83.2374 117.103 86.942 111.273C87.048 110.966 87.1565 110.649 87.2671 110.324C87.9065 108.438 88.5751 106.353 89.2778 104.214C90.8684 99.3619 93.0095 93.2654 95.6152 89.1967C100.38 81.6986 104.369 76.4021 107.783 72.1904C113.846 60.924 120.718 49.4625 128.581 38.5243C139.212 23.8236 150.507 11.0715 163.191 -1.36357C170.268 -8.16029 177.348 -14.7629 187.35 -21.5662C189.066 -22.712 190.978 -23.9092 193.044 -25.0628C197.735 -27.6519 203.41 -30.2854 210.972 -31.6742C218.424 -33.1351 227.776 -32.4039 234.839 -29.9299C245.347 -27.1087 251.205 -23.5535 255.387 -21.9126C257.041 -21.2079 258.4 -20.6943 259.531 -20.3368C262.361 -19.4496 265.114 -18.5168 267.428 -17.3728C275.153 -13.5631 284.362 -6.16284 291.483 0.145381C291.57 0.222054 291.657 0.298523 291.743 0.374789C292.814 1.31952 293.817 2.22013 294.749 3.05526C301.211 6.85756 307.531 10.8862 313.699 15.1492C313.852 15.7467 313.996 16.3578 314.137 16.9818C315.414 22.656 318.792 26.7945 323.903 31.9032C325.81 33.8124 327.922 35.8346 330.188 38.0672C333.823 41.6401 337.856 45.7942 341.947 50.5612C344.574 53.6183 344.545 56.3198 344.559 58.5543C344.559 59.2078 344.564 59.8209 344.628 60.3745C344.672 60.7472 344.784 61.0534 344.954 61.305C345.65 62.3383 347.316 62.4601 349.136 62.4889C352.09 62.5462 355.35 62.2885 355.862 65.3277C356.583 69.2787 357.461 70.542 357.967 70.5444C358.671 70.5271 359.856 68.1137 360.572 65.9986C360.954 64.96 361.297 64.0053 361.737 63.44C362.771 62.0626 365.045 62.3216 368.112 62.9745C369.062 63.1898 370.011 63.4687 370.924 63.7846C373.938 64.85 378.603 61.4591 381.735 57.7597C382.924 56.3714 384.955 55.523 387.429 54.4258C388.096 54.1302 388.788 53.8201 389.508 53.4749C391.544 52.4993 393.826 51.2301 396.099 49.3763C403.907 43.0011 408.834 39.3858 412.924 36.565C414.1 35.7541 415.228 35.0004 416.386 34.2349C417.532 33.4768 418.812 32.6897 420.224 31.8812C423.333 30.1029 427.081 28.2328 431.137 26.4869C438.22 23.4024 445.999 20.9603 451.428 19.0404C455.271 18.7479 458.928 18.6361 462.416 18.6308C472.367 18.6386 481.058 19.3925 489.572 20.202C495.463 20.7818 501.005 24.855 505.09 31.6526C509.172 38.4573 511.505 47.3798 511.645 56.6582C511.783 65.9374 509.687 74.9215 505.877 81.8489C502.065 88.7719 496.885 93.0267 491.577 93.9101C483.944 95.1738 476.451 96.5437 470.109 98.1035C467.587 98.7244 465.272 99.3762 463.201 100.056C458.202 101.706 454.749 103.386 449.619 105.869C445.573 107.837 440.74 110.254 435.506 112.711C430.523 115.044 425.209 117.517 419.196 120.043C415.118 121.752 410.861 123.409 406.378 124.957C405.235 125.352 404.079 125.736 402.909 126.114C397.541 129.589 391.575 132.825 386.05 135.207C382.738 136.649 379.193 137.891 375.756 138.738C368.201 140.613 360.856 139.726 354.522 138.217C350.118 137.178 346.1 135.898 341.838 134.926C340.817 134.692 339.62 134.407 338.267 134.044C336.616 133.602 334.778 133.054 332.842 132.383C326.169 130.119 318.683 126.229 312.746 121.874C306.742 117.511 302.013 112.839 298.585 108.319C298.061 107.626 297.563 106.929 297.093 106.232C294.164 101.893 291.867 96.6412 289.884 91.8957C287.064 85.1027 284.669 79.2296 282.019 77.7671C281.694 77.5871 281.375 77.3974 281.062 77.198C276.925 74.5635 273.613 70.2435 270.481 66.4592C267.283 62.5792 264.298 59.2786 261.409 59.0733C258.355 58.8604 256.797 57.253 254.786 54.8093C254.524 54.4931 254.253 54.1622 253.968 53.8175C252.238 51.7254 250.002 49.1423 246.179 46.2883C241.752 42.9884 238.879 39.6832 236.423 36.8063C233.048 32.8614 230.485 29.8519 224.547 27.8612C224.339 27.7902 224.129 27.722 223.917 27.6569C220.438 26.5777 217.615 25.661 216.122 25.3885C214.586 25.0689 214.634 25.4987 215.82 25.4819C216.795 25.4677 218.756 25.8322 220.16 25.7383C222.063 25.6195 222.201 25.3648 220.839 25.1902C220.831 25.189 220.822 25.1877 220.814 25.1865C219.637 25.0299 217.419 24.3352 215.356 23.8738C214.715 23.7264 214.068 23.6186 213.473 23.5498C212.18 24.5722 210.865 25.7064 209.544 26.939C209.517 27.3493 209.499 27.7942 209.479 28.2577C209.393 30.5683 209.347 33.3972 208.311 35.8659C206.676 39.7756 203.579 41.6617 200.264 43.8626C197.695 45.5682 195.01 47.4615 193.046 50.5106C191.705 52.5906 190.625 55.2807 189.637 57.946C188.16 61.9097 186.919 65.7903 184.922 67.7473C184.173 68.4799 182.753 68.646 181.34 68.8248C181.332 68.8246 181.324 68.8244 181.316 68.8243C181.22 68.8364 181.126 68.8497 181.03 68.8621C180.984 68.9714 180.937 69.0806 180.891 69.1897C178.288 75.31 176.134 81.6668 174.283 88.2725C174.305 88.9391 174.328 89.6024 174.346 90.2696C174.446 93.5075 174.606 96.6772 175.686 99.1194C176.848 101.769 176.144 106.936 175.431 112.731C174.961 116.513 174.459 120.584 174.398 124.23C174.366 126.351 172.608 127.84 170.766 129.414C169.397 130.578 167.972 131.822 167.166 133.438C166.96 133.853 166.795 134.287 166.681 134.746C166.398 135.89 166.388 137.251 166.36 138.719C166.338 140.007 166.299 141.384 166.051 142.751C165.816 144.027 164.145 146.385 161.878 149.41C160.477 151.282 158.849 153.403 157.174 155.694C154.692 162.046 151.848 168.496 147.409 175.729C146.971 176.436 146.522 177.141 146.008 177.912C145.518 180.247 145.1 182.854 144.882 185.638C144.719 187.642 144.684 189.794 144.356 192.179C143.939 195.379 142.805 199.25 139.832 203.369C137.427 206.635 135.006 208.55 134.603 208.169C134.544 208.144 134.492 208.104 134.443 208.053C134.245 207.861 133.688 207.755 133.058 207.718C132.131 207.674 131.054 207.774 129.777 208.438C128.852 208.919 127.94 209.754 126.657 210.778C124.667 212.382 121.6 214.532 117.161 215.698C108.948 217.793 103.294 217.869 98.9606 217.826C94.6132 217.732 91.3683 217.321 88.5289 216.895C84.7898 216.321 81.8324 215.682 79.1994 215.178C77.4404 214.838 75.7205 214.533 74.1865 214.339C69.9249 213.805 64.1998 211.154 58.7297 208.185C54.9083 206.123 51.1845 203.92 47.9068 202.31C44.696 200.737 40.9959 200.012 37.3798 199.172C33.0527 198.175 28.8403 196.996 26.1852 194.285C25.6538 193.739 25.524 192.068 25.3966 189.981C25.3159 188.507 25.2355 186.822 25.0125 185.173C21.1982 182.975 17.4928 180.563 13.9247 177.961C13.6873 178.029 13.4436 178.097 13.1967 178.167C13.192 178.17 13.1872 178.172 13.1825 178.174C8.02182 179.712 0.565638 181.328 -3.07369 175.176C-3.29621 174.791 -3.50097 174.376 -3.68568 173.93C-4.46921 172.036 -4.17476 169.999 -3.8802 168.189C-3.59029 166.411 -3.31828 164.824 -4.02041 163.786C-4.82365 162.603 -6.65279 162.16 -8.62986 161.652C-11.4092 160.937 -14.506 160.072 -15.3121 157.078C-15.3671 156.874 -15.4244 156.653 -15.4866 156.425C-16.0651 154.286 -16.8698 151.121 -16.3437 146.99C-21.1099 140.37 -25.1957 133.733 -28.897 127.117C-35.0467 116.1 -40.1299 105.15 -44.8981 94.4108C-47.2097 89.1728 -46.5784 82.3759 -43.0082 75.3673C-39.4295 68.3523 -33.2662 61.7038 -25.6633 56.6946C-18.0605 51.6857 -9.51349 48.6713 -1.68169 48.1068C6.14415 47.5474 12.5451 49.4854 16.3136 53.3008C22.4449 59.5359 28.5281 65.5107 34.4523 71.0605C34.8515 71.2846 35.2471 71.5131 35.6328 71.7462C38.4955 73.4704 42.2385 74.1576 45.9188 74.6944C46.7651 74.8188 47.6057 74.9302 48.4372 75.0534Z" fill="#CFF665" fill-opacity="0.3"/>
</g>
<defs>
<clipPath id="clip0_3144_1946">
<rect x="0.566406" width="475.604" height="178.633" rx="28.1756" fill="white"/>
</clipPath>
</defs>
</svg>
