<svg width="933" height="78" viewBox="0 0 933 78" fill="none" xmlns="http://www.w3.org/2000/svg">
<path d="M48.8112 0.864189V29.5733H17.643V0.864189H0.933594V77.1309H17.643V44.2456H48.8112V77.1309H65.5207V0.864189H48.8112Z" fill="#8F8F8F"/>
<path d="M119.079 58.0642C115.436 62.7787 110.436 65.1311 104.082 65.1311C97.5824 65.0632 92.4798 62.706 88.7644 58.0642C85.0539 53.4224 83.1963 46.9957 83.1963 38.7841C83.1963 30.8587 85.0685 24.5387 88.8178 19.8242C92.5671 15.1096 97.5823 12.7524 103.868 12.7524C110.222 12.7524 115.257 15.0951 118.972 19.7708C122.683 24.4465 124.541 30.7859 124.541 38.7841C124.541 46.923 122.722 53.3497 119.079 58.0642ZM131.132 10.1283C127.029 5.73392 122.178 2.64426 116.571 0.864189H91.2478C85.5729 2.62971 80.6935 5.68542 76.6095 10.0216C69.7172 17.3456 66.2734 27.0366 66.2734 39.1042C66.2734 51.0312 69.7366 60.6543 76.6629 67.9734C80.7662 72.3096 85.6408 75.3653 91.2769 77.1309H116.596C122.203 75.3653 127.048 72.3096 131.132 67.9734C138.02 60.6543 141.468 51.0312 141.468 39.1042C141.468 27.1821 138.02 17.5202 131.132 10.1283Z" fill="#8F8F8F"/>
<path d="M151.963 0.864189L150.678 47.2431C150.464 54.3876 149.64 59.1555 148.214 61.5467C146.783 63.9379 144.75 65.1311 142.107 65.1311C139.895 65.1311 137.931 64.7043 136.219 63.8506V77.1309H153.549C161.862 73.5804 166.291 63.6906 166.853 47.4614L167.921 15.1096H188.379V77.1309H205.094V0.864189H151.963Z" fill="#8F8F8F"/>
<path d="M241.079 63.419H225.228V41.4615H240.972C249.683 41.4615 254.044 45.1041 254.044 52.3893C254.044 59.7424 249.722 63.419 241.079 63.419ZM269.569 45.5988C268.493 40.9716 266.242 37.2514 262.823 34.4431C257.827 30.3397 251.293 28.288 243.222 28.288H225.228V0.864189H208.625V77.1309H242.364C250.934 77.1309 257.735 75.0792 262.769 70.9709C266.218 68.1626 268.483 64.4036 269.569 59.6988C270.069 57.5307 270.321 55.1685 270.321 52.6027C270.321 50.0757 270.069 47.7378 269.569 45.5988Z" fill="#8F8F8F"/>
<path d="M315.309 0.864189L286.605 53.6698H286.28V0.864189H269.57V77.1309H288.424L317.133 24.2137H317.453V77.1309H334.162V0.864189H315.309Z" fill="#8F8F8F"/>
<path d="M376.152 30.9654L406.035 0.864189H384.936L354.941 32.5708V0.864189H338.445V77.1309H354.941V52.496L364.69 42.8535L387.827 77.1309H408.824L376.152 30.9654Z" fill="#8F8F8F"/>
<path d="M456.381 47.6748C454.95 59.1022 449.129 64.811 438.92 64.811C432.774 64.811 427.885 62.4731 424.242 57.7974C420.599 53.1217 418.78 46.8551 418.78 38.9975C418.78 34.4964 419.426 30.3591 420.711 26.571C421.997 22.7877 424.228 19.5913 427.405 16.9867C430.582 14.3772 434.491 13.0773 439.132 13.0773C443.634 13.0773 447.364 14.2366 450.328 16.555C453.291 18.8783 455.202 22.1475 456.056 26.3576H472.445C471.805 18.4321 468.41 11.8987 462.269 6.75735C459.107 4.10906 455.556 2.14468 451.618 0.864189H426.91C421.192 2.67822 416.283 5.86003 412.194 10.3999C405.375 17.9665 401.965 27.4683 401.965 38.8908C401.965 50.9585 405.336 60.6543 412.087 67.9734C416.084 72.3096 420.847 75.3653 426.362 77.1309H451.608C456.002 75.7291 459.771 73.5174 462.914 70.4908C468.769 64.8498 472.125 57.2445 472.979 47.6748H456.381Z" fill="#8F8F8F"/>
<path d="M511.437 30.9654L541.32 0.864189H520.221L490.226 32.5708V0.864189H473.73V77.1309H490.226V52.496L499.976 42.8535L523.112 77.1309H544.104L511.437 30.9654Z" fill="#8F8F8F"/>
<path d="M589.631 58.0642C585.988 62.7787 580.987 65.1311 574.634 65.1311C568.134 65.0632 563.027 62.706 559.316 58.0642C555.601 53.4224 553.743 46.9957 553.743 38.7841C553.743 30.8587 555.62 24.5387 559.37 19.8242C563.119 15.1096 568.134 12.7524 574.42 12.7524C580.774 12.7524 585.809 15.0951 589.519 19.7708C593.235 24.4465 595.092 30.7859 595.092 38.7841C595.092 46.923 593.269 53.3497 589.631 58.0642ZM601.679 10.1283C597.58 5.73392 592.725 2.64426 587.123 0.864189H561.8C556.125 2.62971 551.24 5.68542 547.156 10.0216C540.264 17.3456 536.82 27.0366 536.82 39.1042C536.82 51.0312 540.283 60.6543 547.21 67.9734C551.313 72.3096 556.188 75.3653 561.824 77.1309H587.147C592.75 75.3653 597.595 72.3096 601.679 67.9734C608.571 60.6543 612.015 51.0312 612.015 39.1042C612.015 27.1821 608.571 17.5202 601.679 10.1283Z" fill="#8F8F8F"/>
<path d="M660.643 0.864189V29.5733H629.475V0.864189H612.766V77.1309H629.475V44.2456H660.643V77.1309H677.353V0.864189H660.643Z" fill="#8F8F8F"/>
<path d="M729.304 0.864189V29.5733H698.136V0.864189H681.422V77.1309H698.136V44.2456H729.304V77.1309H746.014V0.864189H729.304Z" fill="#8F8F8F"/>
<path d="M766.689 63.0988V44.3523H803.963V31.1788H766.689V14.5761H807.286V0.864197H750.086V77.1309H808.038V63.0988H766.689Z" fill="#8F8F8F"/>
<path d="M846.703 30.9654L869.407 8.09604L876.586 0.864189H855.487L825.493 32.5708V0.864189H808.996V77.1309H825.493V52.496L835.241 42.8535L858.377 77.1309H879.37L846.703 30.9654Z" fill="#8F8F8F"/>
<path d="M869.406 0.864189V15.1096H892.329V77.1309H909.145V15.1096H932.068V0.864189H869.406Z" fill="#8F8F8F"/>
</svg>
