<svg width="298" height="49" viewBox="0 0 298 49" fill="none" xmlns="http://www.w3.org/2000/svg">
<mask id="path-1-outside-1_3407_2738" maskUnits="userSpaceOnUse" x="-0.148438" y="0.375" width="299" height="49" fill="black">
<rect fill="white" x="-0.148438" y="0.375" width="299" height="49"/>
<path d="M31.3203 31.6683L7.19368 41.0483V36.0083L25.3003 29.335L7.19368 22.6617V17.715L31.3203 27.0017V31.6683ZM51.9288 36.6617V41.375H29.6221C29.6532 39.9128 29.8554 38.575 30.2288 37.3617C30.6021 36.1483 31.0221 35.1217 31.4888 34.2817C31.9866 33.4106 32.7021 32.5394 33.6354 31.6683C34.5999 30.7661 35.4554 30.035 36.2021 29.475C36.9799 28.8839 38.0377 28.1372 39.3755 27.235C39.4688 27.1728 39.9199 26.8772 40.7288 26.3483C41.5688 25.7883 42.0821 25.4461 42.2688 25.3217C42.4555 25.1661 42.8755 24.8394 43.5288 24.3417C44.1821 23.8128 44.6021 23.3928 44.7888 23.0817C45.0066 22.7706 45.2866 22.3506 45.6288 21.8217C46.0021 21.2928 46.251 20.7639 46.3755 20.235C46.4999 19.675 46.5621 19.0839 46.5621 18.4617C46.5621 16.7506 46.0799 15.4128 45.1155 14.4483C44.1821 13.4528 42.9066 12.955 41.2888 12.955C40.3555 12.955 39.5466 13.1106 38.8621 13.4217C38.1777 13.7017 37.6332 14.075 37.2288 14.5417C36.8555 15.0083 36.5443 15.615 36.2955 16.3617C36.0466 17.0772 35.8755 17.7617 35.7821 18.415C35.7199 19.0683 35.6732 19.8306 35.6421 20.7017H30.4621V19.8617C30.4621 16.3461 31.4421 13.5617 33.4021 11.5083C35.3932 9.42388 38.0688 8.38166 41.4288 8.38166C44.6021 8.38166 47.1532 9.28388 49.0821 11.0883C51.011 12.8617 51.9755 15.2261 51.9755 18.1817C51.9755 19.3639 51.7888 20.4839 51.4155 21.5417C51.0421 22.5994 50.6377 23.455 50.2021 24.1083C49.7977 24.7617 49.0821 25.5239 48.0555 26.395C47.0288 27.2661 46.2666 27.8728 45.7688 28.215C45.271 28.5572 44.3532 29.1794 43.0155 30.0817C39.1266 32.6017 36.7932 34.795 36.0155 36.6617H51.9288ZM59.4731 35.075V41.375H53.1264V35.075H59.4731ZM80.3947 8.89499V13.515H67.3747L65.8814 21.915C67.3436 20.3594 69.397 19.5817 72.0414 19.5817C75.0592 19.5817 77.5014 20.5617 79.3681 22.5217C81.2347 24.4817 82.1681 27.0639 82.1681 30.2683C82.1681 33.7217 81.0792 36.5372 78.9014 38.715C76.7236 40.8928 73.9236 41.9817 70.5014 41.9817C67.2658 41.9817 64.637 41.095 62.6147 39.3217C60.6236 37.5172 59.5658 35.1061 59.4414 32.0883H64.7147C64.8392 33.7683 65.4458 35.1061 66.5347 36.1017C67.6236 37.0972 68.9925 37.595 70.6414 37.595C72.5703 37.595 74.0636 36.9883 75.1214 35.775C76.1792 34.5306 76.7081 32.7883 76.7081 30.5483C76.7081 28.3706 76.1636 26.6906 75.0747 25.5083C73.9858 24.295 72.477 23.6883 70.5481 23.6883C68.2147 23.6883 66.3947 24.6683 65.0881 26.6283L60.4214 26.4883L63.5481 8.89499H80.3947ZM117.432 8.14833V41.375H111.879V15.755L102.639 41.375H97.8791L88.4057 15.755V41.375H82.899V8.14833H91.0657L100.352 34.1417L109.312 8.14833H117.432ZM136.44 8.14833H150.86C154.438 8.14833 157.254 9.00388 159.307 10.715C161.391 12.395 162.434 14.915 162.434 18.275C162.434 21.4483 161.469 23.9683 159.54 25.835C157.611 27.6706 154.983 28.5883 151.654 28.5883H142.274V41.375H136.44V8.14833ZM142.274 13.0017V23.875H150.394C154.625 23.875 156.74 22.055 156.74 18.415C156.74 14.8061 154.454 13.0017 149.88 13.0017H142.274ZM186.7 8.14833V13.0483H168.547V21.8683H185.393V26.5817H168.547V36.3817H186.98V41.375H162.76V8.14833H186.7ZM201.861 7.35499C206.559 7.35499 210.37 8.97277 213.294 12.2083C216.25 15.4128 217.728 19.5972 217.728 24.7617C217.728 29.9261 216.25 34.1261 213.294 37.3617C210.339 40.5661 206.497 42.1683 201.768 42.1683C197.008 42.1683 193.15 40.5661 190.194 37.3617C187.27 34.1572 185.808 29.9572 185.808 24.7617C185.808 19.7217 187.239 15.5683 190.101 12.3017C192.994 9.00388 196.914 7.35499 201.861 7.35499ZM201.768 12.255C198.719 12.255 196.277 13.3906 194.441 15.6617C192.606 17.9017 191.688 20.9039 191.688 24.6683C191.688 28.5261 192.59 31.5906 194.394 33.8617C196.23 36.1328 198.719 37.2683 201.861 37.2683C204.879 37.2683 207.29 36.1328 209.094 33.8617C210.93 31.5594 211.848 28.5106 211.848 24.715C211.848 20.9194 210.93 17.9017 209.094 15.6617C207.29 13.3906 204.848 12.255 201.768 12.255ZM218.417 8.14833H232.837C236.415 8.14833 239.23 9.00388 241.284 10.715C243.368 12.395 244.41 14.915 244.41 18.275C244.41 21.4483 243.446 23.9683 241.517 25.835C239.588 27.6706 236.959 28.5883 233.63 28.5883H224.25V41.375H218.417V8.14833ZM224.25 13.0017V23.875H232.37C236.601 23.875 238.717 22.055 238.717 18.415C238.717 14.8061 236.43 13.0017 231.857 13.0017H224.25ZM267.51 36.335V41.375H244.737V8.14833H250.617V36.335H267.51ZM290.807 8.14833V13.0483H272.653V21.8683H289.5V26.5817H272.653V36.3817H291.087V41.375H266.867V8.14833H290.807Z"/>
</mask>
<path d="M31.3203 31.6683L7.19368 41.0483V36.0083L25.3003 29.335L7.19368 22.6617V17.715L31.3203 27.0017V31.6683ZM51.9288 36.6617V41.375H29.6221C29.6532 39.9128 29.8554 38.575 30.2288 37.3617C30.6021 36.1483 31.0221 35.1217 31.4888 34.2817C31.9866 33.4106 32.7021 32.5394 33.6354 31.6683C34.5999 30.7661 35.4554 30.035 36.2021 29.475C36.9799 28.8839 38.0377 28.1372 39.3755 27.235C39.4688 27.1728 39.9199 26.8772 40.7288 26.3483C41.5688 25.7883 42.0821 25.4461 42.2688 25.3217C42.4555 25.1661 42.8755 24.8394 43.5288 24.3417C44.1821 23.8128 44.6021 23.3928 44.7888 23.0817C45.0066 22.7706 45.2866 22.3506 45.6288 21.8217C46.0021 21.2928 46.251 20.7639 46.3755 20.235C46.4999 19.675 46.5621 19.0839 46.5621 18.4617C46.5621 16.7506 46.0799 15.4128 45.1155 14.4483C44.1821 13.4528 42.9066 12.955 41.2888 12.955C40.3555 12.955 39.5466 13.1106 38.8621 13.4217C38.1777 13.7017 37.6332 14.075 37.2288 14.5417C36.8555 15.0083 36.5443 15.615 36.2955 16.3617C36.0466 17.0772 35.8755 17.7617 35.7821 18.415C35.7199 19.0683 35.6732 19.8306 35.6421 20.7017H30.4621V19.8617C30.4621 16.3461 31.4421 13.5617 33.4021 11.5083C35.3932 9.42388 38.0688 8.38166 41.4288 8.38166C44.6021 8.38166 47.1532 9.28388 49.0821 11.0883C51.011 12.8617 51.9755 15.2261 51.9755 18.1817C51.9755 19.3639 51.7888 20.4839 51.4155 21.5417C51.0421 22.5994 50.6377 23.455 50.2021 24.1083C49.7977 24.7617 49.0821 25.5239 48.0555 26.395C47.0288 27.2661 46.2666 27.8728 45.7688 28.215C45.271 28.5572 44.3532 29.1794 43.0155 30.0817C39.1266 32.6017 36.7932 34.795 36.0155 36.6617H51.9288ZM59.4731 35.075V41.375H53.1264V35.075H59.4731ZM80.3947 8.89499V13.515H67.3747L65.8814 21.915C67.3436 20.3594 69.397 19.5817 72.0414 19.5817C75.0592 19.5817 77.5014 20.5617 79.3681 22.5217C81.2347 24.4817 82.1681 27.0639 82.1681 30.2683C82.1681 33.7217 81.0792 36.5372 78.9014 38.715C76.7236 40.8928 73.9236 41.9817 70.5014 41.9817C67.2658 41.9817 64.637 41.095 62.6147 39.3217C60.6236 37.5172 59.5658 35.1061 59.4414 32.0883H64.7147C64.8392 33.7683 65.4458 35.1061 66.5347 36.1017C67.6236 37.0972 68.9925 37.595 70.6414 37.595C72.5703 37.595 74.0636 36.9883 75.1214 35.775C76.1792 34.5306 76.7081 32.7883 76.7081 30.5483C76.7081 28.3706 76.1636 26.6906 75.0747 25.5083C73.9858 24.295 72.477 23.6883 70.5481 23.6883C68.2147 23.6883 66.3947 24.6683 65.0881 26.6283L60.4214 26.4883L63.5481 8.89499H80.3947ZM117.432 8.14833V41.375H111.879V15.755L102.639 41.375H97.8791L88.4057 15.755V41.375H82.899V8.14833H91.0657L100.352 34.1417L109.312 8.14833H117.432ZM136.44 8.14833H150.86C154.438 8.14833 157.254 9.00388 159.307 10.715C161.391 12.395 162.434 14.915 162.434 18.275C162.434 21.4483 161.469 23.9683 159.54 25.835C157.611 27.6706 154.983 28.5883 151.654 28.5883H142.274V41.375H136.44V8.14833ZM142.274 13.0017V23.875H150.394C154.625 23.875 156.74 22.055 156.74 18.415C156.74 14.8061 154.454 13.0017 149.88 13.0017H142.274ZM186.7 8.14833V13.0483H168.547V21.8683H185.393V26.5817H168.547V36.3817H186.98V41.375H162.76V8.14833H186.7ZM201.861 7.35499C206.559 7.35499 210.37 8.97277 213.294 12.2083C216.25 15.4128 217.728 19.5972 217.728 24.7617C217.728 29.9261 216.25 34.1261 213.294 37.3617C210.339 40.5661 206.497 42.1683 201.768 42.1683C197.008 42.1683 193.15 40.5661 190.194 37.3617C187.27 34.1572 185.808 29.9572 185.808 24.7617C185.808 19.7217 187.239 15.5683 190.101 12.3017C192.994 9.00388 196.914 7.35499 201.861 7.35499ZM201.768 12.255C198.719 12.255 196.277 13.3906 194.441 15.6617C192.606 17.9017 191.688 20.9039 191.688 24.6683C191.688 28.5261 192.59 31.5906 194.394 33.8617C196.23 36.1328 198.719 37.2683 201.861 37.2683C204.879 37.2683 207.29 36.1328 209.094 33.8617C210.93 31.5594 211.848 28.5106 211.848 24.715C211.848 20.9194 210.93 17.9017 209.094 15.6617C207.29 13.3906 204.848 12.255 201.768 12.255ZM218.417 8.14833H232.837C236.415 8.14833 239.23 9.00388 241.284 10.715C243.368 12.395 244.41 14.915 244.41 18.275C244.41 21.4483 243.446 23.9683 241.517 25.835C239.588 27.6706 236.959 28.5883 233.63 28.5883H224.25V41.375H218.417V8.14833ZM224.25 13.0017V23.875H232.37C236.601 23.875 238.717 22.055 238.717 18.415C238.717 14.8061 236.43 13.0017 231.857 13.0017H224.25ZM267.51 36.335V41.375H244.737V8.14833H250.617V36.335H267.51ZM290.807 8.14833V13.0483H272.653V21.8683H289.5V26.5817H272.653V36.3817H291.087V41.375H266.867V8.14833H290.807Z" fill="#8F8F8F"/>
<path d="M31.3203 31.6683L33.795 38.0335C36.4203 37.0128 38.1496 34.485 38.1496 31.6683H31.3203ZM7.19368 41.0483H0.36441C0.36441 43.3027 1.47696 45.4119 3.33759 46.6848C5.19821 47.9577 7.56716 48.2304 9.66833 47.4135L7.19368 41.0483ZM7.19368 36.0083L4.832 29.6004C2.14761 30.5898 0.36441 33.1474 0.36441 36.0083H7.19368ZM25.3003 29.335L27.662 35.7429C30.3464 34.7536 32.1296 32.1959 32.1296 29.335C32.1296 26.4741 30.3464 23.9164 27.662 22.9271L25.3003 29.335ZM7.19368 22.6617H0.36441C0.36441 25.5226 2.14761 28.0802 4.832 29.0696L7.19368 22.6617ZM7.19368 17.715L9.64689 11.3416C7.54678 10.5332 5.18324 10.8113 3.32811 12.0851C1.47298 13.3588 0.36441 15.4647 0.36441 17.715H7.19368ZM31.3203 27.0017H38.1496C38.1496 24.1766 36.4101 21.6431 33.7736 20.6282L31.3203 27.0017ZM31.3203 31.6683L28.8457 25.3032L4.71903 34.6832L7.19368 41.0483L9.66833 47.4135L33.795 38.0335L31.3203 31.6683ZM7.19368 41.0483H14.0229V36.0083H7.19368H0.36441V41.0483H7.19368ZM7.19368 36.0083L9.55536 42.4162L27.662 35.7429L25.3003 29.335L22.9387 22.9271L4.832 29.6004L7.19368 36.0083ZM25.3003 29.335L27.662 22.9271L9.55536 16.2537L7.19368 22.6617L4.832 29.0696L22.9387 35.7429L25.3003 29.335ZM7.19368 22.6617H14.0229V17.715H7.19368H0.36441V22.6617H7.19368ZM7.19368 17.715L4.74046 24.0884L28.8671 33.3751L31.3203 27.0017L33.7736 20.6282L9.64689 11.3416L7.19368 17.715ZM31.3203 27.0017H24.4911V31.6683H31.3203H38.1496V27.0017H31.3203ZM51.9288 36.6617H58.7581C58.7581 32.89 55.7005 29.8324 51.9288 29.8324V36.6617ZM51.9288 41.375V48.2043C55.7005 48.2043 58.7581 45.1467 58.7581 41.375H51.9288ZM29.6221 41.375L22.7944 41.2297C22.7553 43.0657 23.4573 44.8401 24.742 46.1524C26.0267 47.4647 27.7857 48.2043 29.6221 48.2043V41.375ZM30.2288 37.3617L36.7561 39.3701L36.7561 39.3701L30.2288 37.3617ZM31.4888 34.2817L25.5593 30.8934C25.5457 30.9172 25.5322 30.9411 25.5189 30.9651L31.4888 34.2817ZM33.6354 31.6683L38.2952 36.6609L38.3009 36.6556L33.6354 31.6683ZM36.2021 29.475L40.2997 34.9384C40.3113 34.9297 40.3228 34.921 40.3344 34.9122L36.2021 29.475ZM39.3755 27.235L35.5873 21.5527C35.5771 21.5595 35.567 21.5662 35.5569 21.573L39.3755 27.235ZM40.7288 26.3483L44.4661 32.0642C44.4831 32.0531 44.5001 32.0419 44.517 32.0306L40.7288 26.3483ZM42.2688 25.3217L46.057 31.004C46.2592 30.8691 46.4541 30.7236 46.6408 30.5681L42.2688 25.3217ZM43.5288 24.3417L47.6676 29.7739C47.7209 29.7333 47.7737 29.6919 47.8258 29.6497L43.5288 24.3417ZM44.7888 23.0817L39.194 19.1653C39.1022 19.2965 39.0151 19.4308 38.9327 19.568L44.7888 23.0817ZM45.6288 21.8217L40.0495 17.8833C39.9965 17.9584 39.945 18.0345 39.8951 18.1117L45.6288 21.8217ZM46.3755 20.235L53.0232 21.7992C53.0297 21.7716 53.036 21.7441 53.0421 21.7165L46.3755 20.235ZM45.1155 14.4483L40.1332 19.1191C40.1835 19.1727 40.2345 19.2254 40.2864 19.2773L45.1155 14.4483ZM38.8621 13.4217L41.4479 19.7425C41.5286 19.7095 41.6087 19.6749 41.6881 19.6388L38.8621 13.4217ZM37.2288 14.5417L32.068 10.069C32.0093 10.1367 31.952 10.2055 31.896 10.2755L37.2288 14.5417ZM36.2955 16.3617L42.7457 18.6052C42.7554 18.5773 42.7649 18.5493 42.7743 18.5213L36.2955 16.3617ZM35.7821 18.415L29.0215 17.4492C29.0064 17.555 28.9937 17.6611 28.9836 17.7675L35.7821 18.415ZM35.6421 20.7017V27.5309C39.319 27.5309 42.3358 24.6199 42.467 20.9454L35.6421 20.7017ZM30.4621 20.7017H23.6328C23.6328 24.4734 26.6904 27.5309 30.4621 27.5309V20.7017ZM33.4021 11.5083L28.4638 6.79113L28.4621 6.79289L33.4021 11.5083ZM49.0821 11.0883L44.4167 16.0755C44.4311 16.089 44.4455 16.1025 44.4601 16.1158L49.0821 11.0883ZM51.4155 21.5417L44.9755 19.2687L44.9755 19.2687L51.4155 21.5417ZM50.2021 24.1083L44.5198 20.3201C44.4773 20.384 44.4358 20.4485 44.3954 20.5137L50.2021 24.1083ZM48.0555 26.395L43.6371 21.1876L43.6371 21.1876L48.0555 26.395ZM45.7688 28.215L49.6378 33.8426L49.6378 33.8426L45.7688 28.215ZM43.0155 30.0817L46.7293 35.8129C46.7644 35.7901 46.7993 35.767 46.834 35.7436L43.0155 30.0817ZM36.0155 36.6617L29.7115 34.035C28.8333 36.1428 29.0666 38.55 30.3332 40.4499C31.5998 42.3498 33.7321 43.4909 36.0155 43.4909V36.6617ZM51.9288 36.6617H45.0995V41.375H51.9288H58.7581V36.6617H51.9288ZM51.9288 41.375V34.5457H29.6221V41.375V48.2043H51.9288V41.375ZM29.6221 41.375L36.4498 41.5203C36.4695 40.5962 36.5943 39.8957 36.7561 39.3701L30.2288 37.3617L23.7015 35.3533C23.1166 37.2543 22.837 39.2294 22.7944 41.2297L29.6221 41.375ZM30.2288 37.3617L36.7561 39.3701C37.0313 38.4755 37.2827 37.9149 37.4586 37.5983L31.4888 34.2817L25.5189 30.9651C24.7615 32.3284 24.1729 33.8211 23.7015 35.3533L30.2288 37.3617ZM31.4888 34.2817L37.4182 37.6699C37.4977 37.5308 37.7336 37.185 38.2952 36.6609L33.6354 31.6683L28.9757 26.6758C27.6706 27.8939 26.4754 29.2903 25.5593 30.8934L31.4888 34.2817ZM33.6354 31.6683L38.3009 36.6556C39.1523 35.8591 39.8131 35.3034 40.2997 34.9384L36.2021 29.475L32.1046 24.0116C31.0978 24.7666 30.0474 25.6732 28.97 26.6811L33.6354 31.6683ZM36.2021 29.475L40.3344 34.9122C40.9655 34.4325 41.904 33.767 43.194 32.897L39.3755 27.235L35.5569 21.573C34.1714 22.5075 32.9943 23.3352 32.0698 24.0378L36.2021 29.475ZM39.3755 27.235L43.1636 32.9173C43.1609 32.9191 43.1669 32.9151 43.1874 32.9016C43.2059 32.8894 43.2308 32.873 43.263 32.8518C43.3273 32.8096 43.4148 32.7522 43.5264 32.6791C43.7493 32.533 44.0623 32.3283 44.4661 32.0642L40.7288 26.3483L36.9915 20.6324C36.2032 21.1479 35.7137 21.4684 35.5873 21.5527L39.3755 27.235ZM40.7288 26.3483L44.517 32.0306C45.357 31.4706 45.8703 31.1284 46.057 31.004L42.2688 25.3217L38.4806 19.6394C38.2939 19.7638 37.7806 20.106 36.9406 20.666L40.7288 26.3483ZM42.2688 25.3217L46.6408 30.5681C46.6394 30.5692 46.7135 30.5086 46.9165 30.3507C47.1018 30.2066 47.3505 30.0155 47.6676 29.7739L43.5288 24.3417L39.39 18.9094C38.7669 19.3842 38.2203 19.8057 37.8968 20.0753L42.2688 25.3217ZM43.5288 24.3417L47.8258 29.6497C48.4969 29.1064 49.7804 28.036 50.6448 26.5953L44.7888 23.0817L38.9327 19.568C39.1092 19.2739 39.2675 19.0733 39.3495 18.9744C39.4369 18.8691 39.4956 18.8102 39.5048 18.801C39.5168 18.7889 39.4423 18.8632 39.2318 19.0337L43.5288 24.3417ZM44.7888 23.0817L50.3835 26.998C50.6695 26.5895 51.0003 26.0914 51.3624 25.5317L45.6288 21.8217L39.8951 18.1117C39.5729 18.6097 39.3436 18.9516 39.194 19.1653L44.7888 23.0817ZM45.6288 21.8217L51.2081 25.76C51.9918 24.6497 52.6637 23.3271 53.0232 21.7992L46.3755 20.235L39.7277 18.6708C39.8384 18.2006 40.0124 17.9358 40.0495 17.8833L45.6288 21.8217ZM46.3755 20.235L53.0421 21.7165C53.2833 20.631 53.3914 19.5405 53.3914 18.4617H46.5621H39.7328C39.7328 18.6273 39.7165 18.719 39.7088 18.7535L46.3755 20.235ZM46.5621 18.4617H53.3914C53.3914 15.4257 52.4969 12.1717 49.9445 9.61931L45.1155 14.4483L40.2864 19.2773C40.028 19.019 39.8604 18.7255 39.7758 18.4908C39.701 18.2833 39.7328 18.2398 39.7328 18.4617H46.5621ZM45.1155 14.4483L50.0977 9.77751C47.6344 7.15009 44.4141 6.12573 41.2888 6.12573V12.955V19.7843C41.3994 19.7843 41.2591 19.8008 40.9761 19.6903C40.6683 19.5702 40.3656 19.367 40.1332 19.1191L45.1155 14.4483ZM41.2888 12.955V6.12573C39.6096 6.12573 37.7953 6.40493 36.0361 7.20452L38.8621 13.4217L41.6881 19.6388C41.2979 19.8162 41.1013 19.7843 41.2888 19.7843V12.955ZM38.8621 13.4217L36.2763 7.10085C34.7946 7.70703 33.2995 8.64801 32.068 10.069L37.2288 14.5417L42.3896 19.0144C41.967 19.502 41.5608 19.6963 41.4479 19.7425L38.8621 13.4217ZM37.2288 14.5417L31.896 10.2755C30.8881 11.5354 30.2441 12.9198 29.8166 14.2021L36.2955 16.3617L42.7743 18.5213C42.8055 18.4276 42.8167 18.4153 42.7923 18.463C42.7676 18.5111 42.6975 18.638 42.5616 18.8079L37.2288 14.5417ZM36.2955 16.3617L29.8452 14.1181C29.4727 15.1891 29.1853 16.3027 29.0215 17.4492L35.7821 18.415L42.5427 19.3808C42.5656 19.2206 42.6204 18.9654 42.7457 18.6052L36.2955 16.3617ZM35.7821 18.415L28.9836 17.7675C28.9052 18.5904 28.8517 19.4927 28.8172 20.4579L35.6421 20.7017L42.467 20.9454C42.4948 20.1684 42.5345 19.5463 42.5806 19.0625L35.7821 18.415ZM35.6421 20.7017V13.8724H30.4621V20.7017V27.5309H35.6421V20.7017ZM30.4621 20.7017H37.2914V19.8617H30.4621H23.6328V20.7017H30.4621ZM30.4621 19.8617H37.2914C37.2914 17.6618 37.8682 16.7202 38.3421 16.2238L33.4021 11.5083L28.4621 6.79289C25.016 10.4031 23.6328 15.0304 23.6328 19.8617H30.4621ZM33.4021 11.5083L38.3404 16.2255C38.8279 15.7152 39.5981 15.2109 41.4288 15.2109V8.38166V1.55239C36.5394 1.55239 31.9585 3.13259 28.4638 6.79113L33.4021 11.5083ZM41.4288 8.38166V15.2109C43.2392 15.2109 43.9993 15.6851 44.4167 16.0755L49.0821 11.0883L53.7476 6.10111C50.3072 2.88269 45.9651 1.55239 41.4288 1.55239V8.38166ZM49.0821 11.0883L44.4601 16.1158C44.7948 16.4236 45.1462 16.8665 45.1462 18.1817H51.9755H58.8047C58.8047 13.5857 57.2272 9.29975 53.7042 6.06084L49.0821 11.0883ZM51.9755 18.1817H45.1462C45.1462 18.6317 45.0775 18.9797 44.9755 19.2687L51.4155 21.5417L57.8554 23.8146C58.5 21.988 58.8047 20.096 58.8047 18.1817H51.9755ZM51.4155 21.5417L44.9755 19.2687C44.8526 19.6169 44.7444 19.8751 44.658 20.058C44.5704 20.2432 44.5197 20.3203 44.5198 20.3201L50.2021 24.1083L55.8844 27.8965C56.7368 26.618 57.3667 25.1993 57.8554 23.8146L51.4155 21.5417ZM50.2021 24.1083L44.3954 20.5137C44.5005 20.344 44.5328 20.3363 44.3831 20.4958C44.2437 20.6442 44.0064 20.8743 43.6371 21.1876L48.0555 26.395L52.4738 31.6024C53.7006 30.5615 55.0483 29.2546 56.0088 27.7029L50.2021 24.1083ZM48.0555 26.395L43.6371 21.1876C42.6267 22.0449 42.0901 22.4566 41.8998 22.5874L45.7688 28.215L49.6378 33.8426C50.443 33.289 51.4309 32.4873 52.4738 31.6024L48.0555 26.395ZM45.7688 28.215L41.8998 22.5874C41.4306 22.91 40.5367 23.5161 39.1969 24.4197L43.0155 30.0817L46.834 35.7436C48.1698 34.8427 49.1114 34.2045 49.6378 33.8426L45.7688 28.215ZM43.0155 30.0817L39.3016 24.3505C37.1517 25.7437 35.2355 27.1704 33.6713 28.6407C32.1674 30.0544 30.6242 31.8446 29.7115 34.035L36.0155 36.6617L42.3194 39.2883C42.1845 39.6121 42.1969 39.3723 43.0262 38.5927C43.7954 37.8696 44.9903 36.9397 46.7293 35.8129L43.0155 30.0817ZM36.0155 36.6617V43.4909H51.9288V36.6617V29.8324H36.0155V36.6617ZM59.4731 35.075H66.3024C66.3024 31.3033 63.2448 28.2457 59.4731 28.2457V35.075ZM59.4731 41.375V48.2043C63.2448 48.2043 66.3024 45.1467 66.3024 41.375H59.4731ZM53.1264 41.375H46.2972C46.2972 45.1467 49.3547 48.2043 53.1264 48.2043V41.375ZM53.1264 35.075V28.2457C49.3547 28.2457 46.2972 31.3033 46.2972 35.075H53.1264ZM59.4731 35.075H52.6438V41.375H59.4731H66.3024V35.075H59.4731ZM59.4731 41.375V34.5457H53.1264V41.375V48.2043H59.4731V41.375ZM53.1264 41.375H59.9557V35.075H53.1264H46.2972V41.375H53.1264ZM53.1264 35.075V41.9043H59.4731V35.075V28.2457H53.1264V35.075ZM80.3947 8.89499H87.224C87.224 5.12329 84.1664 2.06573 80.3947 2.06573V8.89499ZM80.3947 13.515V20.3443C84.1664 20.3443 87.224 17.2867 87.224 13.515H80.3947ZM67.3747 13.515V6.68573C64.0642 6.68573 61.2303 9.06018 60.6509 12.3196L67.3747 13.515ZM65.8814 21.915L59.1576 20.7196C58.6287 23.6944 60.1174 26.6631 62.8177 28.0185C65.518 29.3739 68.788 28.7939 70.8574 26.5924L65.8814 21.915ZM79.3681 22.5217L74.4227 27.2315L74.4227 27.2315L79.3681 22.5217ZM78.9014 38.715L74.0724 33.886L74.0724 33.886L78.9014 38.715ZM62.6147 39.3217L58.0287 44.3821C58.0563 44.407 58.0841 44.4318 58.112 44.4563L62.6147 39.3217ZM59.4414 32.0883V25.2591C57.5813 25.2591 55.8018 26.0178 54.5139 27.3598C53.226 28.7019 52.5413 30.5112 52.6179 32.3697L59.4414 32.0883ZM64.7147 32.0883L71.5253 31.5838C71.2612 28.0176 68.2907 25.2591 64.7147 25.2591V32.0883ZM75.1214 35.775L80.2691 40.2628C80.2878 40.2413 80.3064 40.2197 80.3249 40.198L75.1214 35.775ZM75.0747 25.5083L69.9921 30.0697C70.0118 30.0916 70.0316 30.1133 70.0515 30.135L75.0747 25.5083ZM65.0881 26.6283L64.8833 33.4545C67.2383 33.5252 69.4634 32.3769 70.7704 30.4165L65.0881 26.6283ZM60.4214 26.4883L53.6975 25.2934C53.3502 27.2473 53.8701 29.2556 55.1217 30.7956C56.3734 32.3356 58.233 33.255 60.2166 33.3145L60.4214 26.4883ZM63.5481 8.89499V2.06573C60.2373 2.06573 57.4035 4.44038 56.8242 7.70003L63.5481 8.89499ZM80.3947 8.89499H73.5655V13.515H80.3947H87.224V8.89499H80.3947ZM80.3947 13.515V6.68573H67.3747V13.515V20.3443H80.3947V13.515ZM67.3747 13.515L60.6509 12.3196L59.1576 20.7196L65.8814 21.915L72.6052 23.1103L74.0986 14.7103L67.3747 13.515ZM65.8814 21.915L70.8574 26.5924C70.8608 26.5888 70.8632 26.5865 70.8645 26.5852C70.8658 26.584 70.8665 26.5834 70.8665 26.5834C70.8665 26.5834 70.8662 26.5836 70.8658 26.5839C70.8654 26.5842 70.8652 26.5843 70.8655 26.5842C70.8656 26.5841 70.8696 26.5814 70.8795 26.5764C70.8894 26.5713 70.9079 26.5625 70.9372 26.5515C71.0508 26.5084 71.3813 26.4109 72.0414 26.4109V19.5817V12.7524C67.9937 12.7524 63.9546 13.9937 60.9054 17.2376L65.8814 21.915ZM72.0414 19.5817V26.4109C73.4271 26.4109 73.9998 26.7874 74.4227 27.2315L79.3681 22.5217L84.3134 17.8118C81.003 14.3359 76.6912 12.7524 72.0414 12.7524V19.5817ZM79.3681 22.5217L74.4227 27.2315C74.8619 27.6926 75.3388 28.4734 75.3388 30.2683H82.1681H88.9973C88.9973 25.6543 87.6076 21.2707 84.3134 17.8118L79.3681 22.5217ZM82.1681 30.2683H75.3388C75.3388 32.1504 74.8092 33.1492 74.0724 33.886L78.9014 38.715L83.7304 43.544C87.3492 39.9252 88.9973 35.2929 88.9973 30.2683H82.1681ZM78.9014 38.715L74.0724 33.886C73.3233 34.635 72.333 35.1524 70.5014 35.1524V41.9817V48.8109C75.5143 48.8109 80.1239 47.1505 83.7304 43.544L78.9014 38.715ZM70.5014 41.9817V35.1524C68.5699 35.1524 67.6522 34.6559 67.1174 34.187L62.6147 39.3217L58.112 44.4563C61.6217 47.5341 65.9618 48.8109 70.5014 48.8109V41.9817ZM62.6147 39.3217L67.2007 34.2613C66.7392 33.8431 66.3241 33.2445 66.2649 31.807L59.4414 32.0883L52.6179 32.3697C52.8075 36.9677 54.508 41.1914 58.0287 44.3821L62.6147 39.3217ZM59.4414 32.0883V38.9176H64.7147V32.0883V25.2591H59.4414V32.0883ZM64.7147 32.0883L57.9041 32.5928C58.1376 35.745 59.368 38.8026 61.9265 41.1419L66.5347 36.1017L71.1429 31.0615C71.2021 31.1156 71.2687 31.1876 71.3331 31.2762C71.3976 31.365 71.4472 31.4529 71.4827 31.5311C71.5558 31.6924 71.5368 31.739 71.5253 31.5838L64.7147 32.0883ZM66.5347 36.1017L61.9265 41.1419C64.4253 43.4264 67.5033 44.4243 70.6414 44.4243V37.595V30.7657C70.5089 30.7657 70.5565 30.747 70.7119 30.8036C70.7865 30.8307 70.8683 30.8689 70.9501 30.9186C71.0316 30.9681 71.0964 31.0189 71.1429 31.0615L66.5347 36.1017ZM70.6414 37.595V44.4243C74.1153 44.4243 77.657 43.259 80.2691 40.2628L75.1214 35.775L69.9737 31.2872C70.0502 31.1994 70.153 31.1025 70.2802 31.0118C70.4073 30.921 70.5316 30.856 70.6377 30.8129C70.851 30.7263 70.8942 30.7657 70.6414 30.7657V37.595ZM75.1214 35.775L80.3249 40.198C82.7651 37.3271 83.5373 33.8075 83.5373 30.5483H76.7081H69.8788C69.8788 31.1445 69.8069 31.4513 69.7766 31.5512C69.7528 31.6297 69.7745 31.5208 69.9179 31.352L75.1214 35.775ZM76.7081 30.5483H83.5373C83.5373 27.2737 82.7079 23.7153 80.098 20.8817L75.0747 25.5083L70.0515 30.135C69.9665 30.0427 69.9023 29.9509 69.8579 29.8731C69.8144 29.797 69.8009 29.7535 69.8031 29.7604C69.8105 29.7832 69.8788 30.0143 69.8788 30.5483H76.7081ZM75.0747 25.5083L80.1574 20.947C77.5345 18.0243 74.0277 16.8591 70.5481 16.8591V23.6883V30.5176C70.7988 30.5176 70.7699 30.5565 70.5788 30.4796C70.4845 30.4417 70.3739 30.3845 70.2607 30.3053C70.1476 30.226 70.0576 30.1426 69.9921 30.0697L75.0747 25.5083ZM70.5481 23.6883V16.8591C65.9051 16.8591 61.9644 19.0022 59.4058 22.8401L65.0881 26.6283L70.7704 30.4165C70.8364 30.3175 70.8653 30.2959 70.8425 30.3173C70.817 30.3414 70.7587 30.389 70.6708 30.4363C70.5827 30.4838 70.5065 30.5085 70.4626 30.5188C70.4225 30.5283 70.4441 30.5176 70.5481 30.5176V23.6883ZM65.0881 26.6283L65.2928 19.8021L60.6262 19.6621L60.4214 26.4883L60.2166 33.3145L64.8833 33.4545L65.0881 26.6283ZM60.4214 26.4883L67.1453 27.6833L70.272 10.09L63.5481 8.89499L56.8242 7.70003L53.6975 25.2934L60.4214 26.4883ZM63.5481 8.89499V15.7243H80.3947V8.89499V2.06573H63.5481V8.89499ZM117.432 8.14833H124.262C124.262 4.37663 121.204 1.31906 117.432 1.31906V8.14833ZM117.432 41.375V48.2043C121.204 48.2043 124.262 45.1467 124.262 41.375H117.432ZM111.879 41.375H105.05C105.05 45.1467 108.107 48.2043 111.879 48.2043V41.375ZM111.879 15.755H118.708C118.708 12.437 116.324 9.59912 113.055 9.02775C109.787 8.45638 106.58 10.3169 105.455 13.4381L111.879 15.755ZM102.639 41.375V48.2043C105.517 48.2043 108.087 46.3996 109.063 43.6919L102.639 41.375ZM97.8791 41.375L91.4736 43.7435C92.4649 46.4243 95.0208 48.2043 97.8791 48.2043V41.375ZM88.4057 15.755L94.8111 13.3865C93.664 10.2842 90.4586 8.44985 87.2027 9.03253C83.9468 9.61521 81.5764 12.4474 81.5764 15.755H88.4057ZM88.4057 41.375V48.2043C92.1774 48.2043 95.235 45.1467 95.235 41.375H88.4057ZM82.899 41.375H76.0698C76.0698 45.1467 79.1273 48.2043 82.899 48.2043V41.375ZM82.899 8.14833V1.31906C79.1273 1.31906 76.0698 4.37663 76.0698 8.14833H82.899ZM91.0657 8.14833L97.4969 5.85067C96.5259 3.13304 93.9516 1.31906 91.0657 1.31906V8.14833ZM100.352 34.1417L93.9212 36.4393C94.8969 39.1702 97.4908 40.9871 100.391 40.9708C103.29 40.9546 105.864 39.1088 106.809 36.3672L100.352 34.1417ZM109.312 8.14833V1.31906C106.398 1.31906 103.806 3.16793 102.856 5.92277L109.312 8.14833ZM117.432 8.14833H110.603V41.375H117.432H124.262V8.14833H117.432ZM117.432 41.375V34.5457H111.879V41.375V48.2043H117.432V41.375ZM111.879 41.375H118.708V15.755H111.879H105.05V41.375H111.879ZM111.879 15.755L105.455 13.4381L96.2148 39.0581L102.639 41.375L109.063 43.6919L118.303 18.0719L111.879 15.755ZM102.639 41.375V34.5457H97.8791V41.375V48.2043H102.639V41.375ZM97.8791 41.375L104.284 39.0065L94.8111 13.3865L88.4057 15.755L82.0003 18.1235L91.4736 43.7435L97.8791 41.375ZM88.4057 15.755H81.5764V41.375H88.4057H95.235V15.755H88.4057ZM88.4057 41.375V34.5457H82.899V41.375V48.2043H88.4057V41.375ZM82.899 41.375H89.7283V8.14833H82.899H76.0698V41.375H82.899ZM82.899 8.14833V14.9776H91.0657V8.14833V1.31906H82.899V8.14833ZM91.0657 8.14833L84.6346 10.446L93.9212 36.4393L100.352 34.1417L106.784 31.844L97.4969 5.85067L91.0657 8.14833ZM100.352 34.1417L106.809 36.3672L115.769 10.3739L109.312 8.14833L102.856 5.92277L93.8959 31.9161L100.352 34.1417ZM109.312 8.14833V14.9776H117.432V8.14833V1.31906H109.312V8.14833ZM136.44 8.14833V1.31906C132.669 1.31906 129.611 4.37663 129.611 8.14833H136.44ZM159.307 10.715L154.935 15.9614C154.964 15.9852 154.992 16.0089 155.021 16.0322L159.307 10.715ZM159.54 25.835L164.248 30.7822C164.262 30.7691 164.276 30.7558 164.29 30.7425L159.54 25.835ZM142.274 28.5883V21.7591C138.502 21.7591 135.444 24.8166 135.444 28.5883H142.274ZM142.274 41.375V48.2043C146.045 48.2043 149.103 45.1467 149.103 41.375H142.274ZM136.44 41.375H129.611C129.611 45.1467 132.669 48.2043 136.44 48.2043V41.375ZM142.274 13.0017V6.17239C138.502 6.17239 135.444 9.22996 135.444 13.0017H142.274ZM142.274 23.875H135.444C135.444 27.6467 138.502 30.7043 142.274 30.7043V23.875ZM136.44 8.14833V14.9776H150.86V8.14833V1.31906H136.44V8.14833ZM150.86 8.14833V14.9776C153.384 14.9776 154.47 15.5741 154.935 15.9614L159.307 10.715L163.679 5.46861C160.037 2.43369 155.492 1.31906 150.86 1.31906V8.14833ZM159.307 10.715L155.021 16.0322C155.097 16.0929 155.604 16.4047 155.604 18.275H162.434H169.263C169.263 13.4252 167.686 8.69707 163.593 5.39775L159.307 10.715ZM162.434 18.275H155.604C155.604 19.9627 155.15 20.5805 154.791 20.9275L159.54 25.835L164.29 30.7425C167.789 27.3562 169.263 22.934 169.263 18.275H162.434ZM159.54 25.835L154.832 20.8878C154.471 21.2316 153.69 21.7591 151.654 21.7591V28.5883V35.4176C156.276 35.4176 160.752 34.1095 164.248 30.7822L159.54 25.835ZM151.654 28.5883V21.7591H142.274V28.5883V35.4176H151.654V28.5883ZM142.274 28.5883H135.444V41.375H142.274H149.103V28.5883H142.274ZM142.274 41.375V34.5457H136.44V41.375V48.2043H142.274V41.375ZM136.44 41.375H143.27V8.14833H136.44H129.611V41.375H136.44ZM142.274 13.0017H135.444V23.875H142.274H149.103V13.0017H142.274ZM142.274 23.875V30.7043H150.394V23.875V17.0457H142.274V23.875ZM150.394 23.875V30.7043C153.331 30.7043 156.809 30.0944 159.607 27.6871C162.602 25.1106 163.57 21.5783 163.57 18.415H156.74H149.911C149.911 18.6791 149.871 18.6064 149.976 18.3364C150.096 18.0252 150.335 17.6464 150.7 17.3329C151.042 17.0384 151.305 16.9641 151.288 16.9691C151.25 16.9798 150.984 17.0457 150.394 17.0457V23.875ZM156.74 18.415H163.57C163.57 15.0706 162.429 11.4978 159.256 8.99389C156.391 6.73322 152.88 6.17239 149.88 6.17239V13.0017V19.8309C150.597 19.8309 150.99 19.904 151.144 19.9446C151.287 19.9821 151.102 19.9584 150.795 19.7161C150.454 19.4476 150.179 19.0782 150.021 18.7041C149.88 18.3714 149.911 18.2231 149.911 18.415H156.74ZM149.88 13.0017V6.17239H142.274V13.0017V19.8309H149.88V13.0017ZM186.7 8.14833H193.529C193.529 4.37663 190.472 1.31906 186.7 1.31906V8.14833ZM186.7 13.0483V19.8776C190.472 19.8776 193.529 16.82 193.529 13.0483H186.7ZM168.547 13.0483V6.21906C164.775 6.21906 161.717 9.27663 161.717 13.0483H168.547ZM168.547 21.8683H161.717C161.717 25.64 164.775 28.6976 168.547 28.6976V21.8683ZM185.393 21.8683H192.223C192.223 18.0966 189.165 15.0391 185.393 15.0391V21.8683ZM185.393 26.5817V33.4109C189.165 33.4109 192.223 30.3534 192.223 26.5817H185.393ZM168.547 26.5817V19.7524C164.775 19.7524 161.717 22.81 161.717 26.5817H168.547ZM168.547 36.3817H161.717C161.717 40.1534 164.775 43.2109 168.547 43.2109V36.3817ZM186.98 36.3817H193.809C193.809 32.61 190.752 29.5524 186.98 29.5524V36.3817ZM186.98 41.375V48.2043C190.752 48.2043 193.809 45.1467 193.809 41.375H186.98ZM162.76 41.375H155.931C155.931 45.1467 158.988 48.2043 162.76 48.2043V41.375ZM162.76 8.14833V1.31906C158.988 1.31906 155.931 4.37663 155.931 8.14833H162.76ZM186.7 8.14833H179.871V13.0483H186.7H193.529V8.14833H186.7ZM186.7 13.0483V6.21906H168.547V13.0483V19.8776H186.7V13.0483ZM168.547 13.0483H161.717V21.8683H168.547H175.376V13.0483H168.547ZM168.547 21.8683V28.6976H185.393V21.8683V15.0391H168.547V21.8683ZM185.393 21.8683H178.564V26.5817H185.393H192.223V21.8683H185.393ZM185.393 26.5817V19.7524H168.547V26.5817V33.4109H185.393V26.5817ZM168.547 26.5817H161.717V36.3817H168.547H175.376V26.5817H168.547ZM168.547 36.3817V43.2109H186.98V36.3817V29.5524H168.547V36.3817ZM186.98 36.3817H180.151V41.375H186.98H193.809V36.3817H186.98ZM186.98 41.375V34.5457H162.76V41.375V48.2043H186.98V41.375ZM162.76 41.375H169.589V8.14833H162.76H155.931V41.375H162.76ZM162.76 8.14833V14.9776H186.7V8.14833V1.31906H162.76V8.14833ZM213.294 12.2083L208.228 16.7876C208.243 16.8046 208.259 16.8216 208.274 16.8385L213.294 12.2083ZM213.294 37.3617L218.315 41.9918C218.322 41.9837 218.329 41.9757 218.337 41.9676L213.294 37.3617ZM190.194 37.3617L185.15 41.9653C185.158 41.9741 185.166 41.983 185.174 41.9918L190.194 37.3617ZM190.101 12.3017L184.968 7.7977L184.965 7.8011L190.101 12.3017ZM194.441 15.6617L199.723 19.9902C199.733 19.9783 199.743 19.9664 199.753 19.9544L194.441 15.6617ZM194.394 33.8617L189.047 38.11C189.059 38.1249 189.071 38.1397 189.083 38.1544L194.394 33.8617ZM209.094 33.8617L203.755 29.6043L203.747 29.6133L209.094 33.8617ZM209.094 15.6617L203.747 19.91C203.769 19.9369 203.79 19.9636 203.812 19.9902L209.094 15.6617ZM201.861 7.35499V14.1843C204.795 14.1843 206.707 15.1042 208.228 16.7876L213.294 12.2083L218.361 7.62904C214.034 2.84132 208.323 0.525726 201.861 0.525726V7.35499ZM213.294 12.2083L208.274 16.8385C209.857 18.5544 210.899 20.9767 210.899 24.7617H217.728H224.557C224.557 18.2178 222.643 12.2712 218.315 7.5782L213.294 12.2083ZM217.728 24.7617H210.899C210.899 28.5446 209.857 30.9984 208.252 32.7557L213.294 37.3617L218.337 41.9676C222.643 37.2538 224.557 31.3076 224.557 24.7617H217.728ZM213.294 37.3617L208.274 32.7315C206.729 34.4067 204.77 35.3391 201.768 35.3391V42.1683V48.9976C208.223 48.9976 213.948 46.7255 218.315 41.9918L213.294 37.3617ZM201.768 42.1683V35.3391C198.719 35.3391 196.75 34.3967 195.215 32.7315L190.194 37.3617L185.174 41.9918C189.55 46.7356 195.296 48.9976 201.768 48.9976V42.1683ZM190.194 37.3617L195.239 32.7581C193.682 31.0519 192.637 28.6093 192.637 24.7617H185.808H178.979C178.979 31.3051 180.858 37.2626 185.15 41.9653L190.194 37.3617ZM185.808 24.7617H192.637C192.637 21.0958 193.639 18.6268 195.238 16.8022L190.101 12.3017L184.965 7.8011C180.839 12.5098 178.979 18.3476 178.979 24.7617H185.808ZM190.101 12.3017L195.235 16.8056C196.658 15.1836 198.601 14.1843 201.861 14.1843V7.35499V0.525726C195.228 0.525726 189.331 2.82413 184.968 7.7977L190.101 12.3017ZM201.768 12.255V5.42573C196.761 5.42573 192.327 7.41359 189.13 11.3689L194.441 15.6617L199.753 19.9544C200.227 19.3675 200.677 19.0843 201.768 19.0843V12.255ZM194.441 15.6617L189.159 11.3331C186.056 15.1193 184.859 19.8051 184.859 24.6683H191.688H198.517C198.517 22.0027 199.155 20.684 199.723 19.9902L194.441 15.6617ZM191.688 24.6683H184.859C184.859 29.5594 186.008 34.2846 189.047 38.11L194.394 33.8617L199.742 29.6133C199.172 28.8965 198.517 27.4928 198.517 24.6683H191.688ZM194.394 33.8617L189.083 38.1544C192.324 42.1645 196.836 44.0976 201.861 44.0976V37.2683V30.4391C200.602 30.4391 200.136 30.101 199.706 29.5689L194.394 33.8617ZM201.861 37.2683V44.0976C206.864 44.0976 211.282 42.0866 214.442 38.11L209.094 33.8617L203.747 29.6133C203.298 30.179 202.894 30.4391 201.861 30.4391V37.2683ZM209.094 33.8617L214.434 38.1191C217.483 34.2954 218.677 29.6048 218.677 24.715H211.848H205.019C205.019 27.4164 204.377 28.8234 203.755 29.6043L209.094 33.8617ZM211.848 24.715H218.677C218.677 19.8364 217.487 15.1287 214.377 11.3331L209.094 15.6617L203.812 19.9902C204.373 20.6747 205.019 22.0025 205.019 24.715H211.848ZM209.094 15.6617L214.442 11.4133C211.252 7.39877 206.782 5.42573 201.768 5.42573V12.255V19.0843C202.914 19.0843 203.328 19.3823 203.747 19.91L209.094 15.6617ZM218.417 8.14833V1.31906C214.645 1.31906 211.588 4.37663 211.588 8.14833H218.417ZM241.284 10.715L236.912 15.9614C236.94 15.9852 236.969 16.0089 236.998 16.0322L241.284 10.715ZM241.517 25.835L246.225 30.7822C246.239 30.7691 246.252 30.7558 246.266 30.7425L241.517 25.835ZM224.25 28.5883V21.7591C220.479 21.7591 217.421 24.8166 217.421 28.5883H224.25ZM224.25 41.375V48.2043C228.022 48.2043 231.079 45.1467 231.079 41.375H224.25ZM218.417 41.375H211.588C211.588 45.1467 214.645 48.2043 218.417 48.2043V41.375ZM224.25 13.0017V6.17239C220.479 6.17239 217.421 9.22996 217.421 13.0017H224.25ZM224.25 23.875H217.421C217.421 27.6467 220.479 30.7043 224.25 30.7043V23.875ZM218.417 8.14833V14.9776H232.837V8.14833V1.31906H218.417V8.14833ZM232.837 8.14833V14.9776C235.361 14.9776 236.447 15.5741 236.912 15.9614L241.284 10.715L245.656 5.46861C242.014 2.43369 237.469 1.31906 232.837 1.31906V8.14833ZM241.284 10.715L236.998 16.0322C237.073 16.0929 237.581 16.4047 237.581 18.275H244.41H251.239C251.239 13.4252 249.663 8.69707 245.569 5.39775L241.284 10.715ZM244.41 18.275H237.581C237.581 19.9627 237.126 20.5805 236.768 20.9275L241.517 25.835L246.266 30.7425C249.765 27.3562 251.239 22.934 251.239 18.275H244.41ZM241.517 25.835L236.809 20.8878C236.448 21.2316 235.666 21.7591 233.63 21.7591V28.5883V35.4176C238.252 35.4176 242.728 34.1095 246.225 30.7822L241.517 25.835ZM233.63 28.5883V21.7591H224.25V28.5883V35.4176H233.63V28.5883ZM224.25 28.5883H217.421V41.375H224.25H231.079V28.5883H224.25ZM224.25 41.375V34.5457H218.417V41.375V48.2043H224.25V41.375ZM218.417 41.375H225.246V8.14833H218.417H211.588V41.375H218.417ZM224.25 13.0017H217.421V23.875H224.25H231.079V13.0017H224.25ZM224.25 23.875V30.7043H232.37V23.875V17.0457H224.25V23.875ZM232.37 23.875V30.7043C235.308 30.7043 238.786 30.0944 241.584 27.6871C244.579 25.1106 245.546 21.5783 245.546 18.415H238.717H231.888C231.888 18.6791 231.848 18.6064 231.952 18.3364C232.073 18.0252 232.312 17.6464 232.676 17.3329C233.019 17.0384 233.282 16.9641 233.264 16.9691C233.227 16.9798 232.961 17.0457 232.37 17.0457V23.875ZM238.717 18.415H245.546C245.546 15.0706 244.405 11.4978 241.232 8.99389C238.368 6.73322 234.857 6.17239 231.857 6.17239V13.0017V19.8309C232.573 19.8309 232.966 19.904 233.121 19.9446C233.264 19.9821 233.078 19.9584 232.771 19.7161C232.431 19.4476 232.155 19.0782 231.997 18.7041C231.857 18.3714 231.888 18.2231 231.888 18.415H238.717ZM231.857 13.0017V6.17239H224.25V13.0017V19.8309H231.857V13.0017ZM267.51 36.335H274.339C274.339 32.5633 271.282 29.5057 267.51 29.5057V36.335ZM267.51 41.375V48.2043C271.282 48.2043 274.339 45.1467 274.339 41.375H267.51ZM244.737 41.375H237.907C237.907 45.1467 240.965 48.2043 244.737 48.2043V41.375ZM244.737 8.14833V1.31906C240.965 1.31906 237.907 4.37663 237.907 8.14833H244.737ZM250.617 8.14833H257.446C257.446 4.37663 254.388 1.31906 250.617 1.31906V8.14833ZM250.617 36.335H243.787C243.787 40.1067 246.845 43.1643 250.617 43.1643V36.335ZM267.51 36.335H260.681V41.375H267.51H274.339V36.335H267.51ZM267.51 41.375V34.5457H244.737V41.375V48.2043H267.51V41.375ZM244.737 41.375H251.566V8.14833H244.737H237.907V41.375H244.737ZM244.737 8.14833V14.9776H250.617V8.14833V1.31906H244.737V8.14833ZM250.617 8.14833H243.787V36.335H250.617H257.446V8.14833H250.617ZM250.617 36.335V43.1643H267.51V36.335V29.5057H250.617V36.335ZM290.807 8.14833H297.636C297.636 4.37663 294.578 1.31906 290.807 1.31906V8.14833ZM290.807 13.0483V19.8776C294.578 19.8776 297.636 16.82 297.636 13.0483H290.807ZM272.653 13.0483V6.21906C268.882 6.21906 265.824 9.27663 265.824 13.0483H272.653ZM272.653 21.8683H265.824C265.824 25.64 268.882 28.6976 272.653 28.6976V21.8683ZM289.5 21.8683H296.329C296.329 18.0966 293.272 15.0391 289.5 15.0391V21.8683ZM289.5 26.5817V33.4109C293.272 33.4109 296.329 30.3534 296.329 26.5817H289.5ZM272.653 26.5817V19.7524C268.882 19.7524 265.824 22.81 265.824 26.5817H272.653ZM272.653 36.3817H265.824C265.824 40.1534 268.882 43.2109 272.653 43.2109V36.3817ZM291.087 36.3817H297.916C297.916 32.61 294.858 29.5524 291.087 29.5524V36.3817ZM291.087 41.375V48.2043C294.858 48.2043 297.916 45.1467 297.916 41.375H291.087ZM266.867 41.375H260.037C260.037 45.1467 263.095 48.2043 266.867 48.2043V41.375ZM266.867 8.14833V1.31906C263.095 1.31906 260.037 4.37663 260.037 8.14833H266.867ZM290.807 8.14833H283.977V13.0483H290.807H297.636V8.14833H290.807ZM290.807 13.0483V6.21906H272.653V13.0483V19.8776H290.807V13.0483ZM272.653 13.0483H265.824V21.8683H272.653H279.483V13.0483H272.653ZM272.653 21.8683V28.6976H289.5V21.8683V15.0391H272.653V21.8683ZM289.5 21.8683H282.671V26.5817H289.5H296.329V21.8683H289.5ZM289.5 26.5817V19.7524H272.653V26.5817V33.4109H289.5V26.5817ZM272.653 26.5817H265.824V36.3817H272.653H279.483V26.5817H272.653ZM272.653 36.3817V43.2109H291.087V36.3817V29.5524H272.653V36.3817ZM291.087 36.3817H284.257V41.375H291.087H297.916V36.3817H291.087ZM291.087 41.375V34.5457H266.867V41.375V48.2043H291.087V41.375ZM266.867 41.375H273.696V8.14833H266.867H260.037V41.375H266.867ZM266.867 8.14833V14.9776H290.807V8.14833V1.31906H266.867V8.14833Z" fill="#CFF665" mask="url(#path-1-outside-1_3407_2738)"/>
</svg>
