<svg width="393" height="56" viewBox="0 0 393 56" fill="none" xmlns="http://www.w3.org/2000/svg">
<mask id="path-1-outside-1_3143_8141" maskUnits="userSpaceOnUse" x="-0.148438" y="0.375" width="394" height="56" fill="black">
<rect fill="white" x="-0.148438" y="0.375" width="394" height="56"/>
<path d="M31.3203 31.6683L7.19368 41.0483V36.0083L25.3003 29.335L7.19368 22.6617V17.715L31.3203 27.0017V31.6683ZM51.9288 36.6617V41.375H29.6221C29.6532 39.9128 29.8554 38.575 30.2288 37.3617C30.6021 36.1483 31.0221 35.1217 31.4888 34.2817C31.9866 33.4106 32.7021 32.5394 33.6354 31.6683C34.5999 30.7661 35.4554 30.035 36.2021 29.475C36.9799 28.8839 38.0377 28.1372 39.3755 27.235C39.4688 27.1728 39.9199 26.8772 40.7288 26.3483C41.5688 25.7883 42.0821 25.4461 42.2688 25.3217C42.4555 25.1661 42.8755 24.8394 43.5288 24.3417C44.1821 23.8128 44.6021 23.3928 44.7888 23.0817C45.0066 22.7706 45.2866 22.3506 45.6288 21.8217C46.0021 21.2928 46.251 20.7639 46.3755 20.235C46.4999 19.675 46.5621 19.0839 46.5621 18.4617C46.5621 16.7506 46.0799 15.4128 45.1155 14.4483C44.1821 13.4528 42.9066 12.955 41.2888 12.955C40.3555 12.955 39.5466 13.1106 38.8621 13.4217C38.1777 13.7017 37.6332 14.075 37.2288 14.5417C36.8555 15.0083 36.5443 15.615 36.2955 16.3617C36.0466 17.0772 35.8755 17.7617 35.7821 18.415C35.7199 19.0683 35.6732 19.8306 35.6421 20.7017H30.4621V19.8617C30.4621 16.3461 31.4421 13.5617 33.4021 11.5083C35.3932 9.42388 38.0688 8.38166 41.4288 8.38166C44.6021 8.38166 47.1532 9.28388 49.0821 11.0883C51.011 12.8617 51.9755 15.2261 51.9755 18.1817C51.9755 19.3639 51.7888 20.4839 51.4155 21.5417C51.0421 22.5994 50.6377 23.455 50.2021 24.1083C49.7977 24.7617 49.0821 25.5239 48.0555 26.395C47.0288 27.2661 46.2666 27.8728 45.7688 28.215C45.271 28.5572 44.3532 29.1794 43.0155 30.0817C39.1266 32.6017 36.7932 34.795 36.0155 36.6617H51.9288ZM59.4731 35.075V39.835C59.4731 42.2617 59.0064 44.2061 58.0731 45.6683C57.1398 47.1617 55.4909 48.1728 53.1264 48.7017V45.9017C55.0553 45.3106 56.0664 43.8017 56.1598 41.375H53.1264V35.075H59.4731ZM80.3947 8.89499V13.515H67.3747L65.8814 21.915C67.3436 20.3594 69.397 19.5817 72.0414 19.5817C75.0592 19.5817 77.5014 20.5617 79.3681 22.5217C81.2347 24.4817 82.1681 27.0639 82.1681 30.2683C82.1681 33.7217 81.0792 36.5372 78.9014 38.715C76.7236 40.8928 73.9236 41.9817 70.5014 41.9817C67.2658 41.9817 64.637 41.095 62.6147 39.3217C60.6236 37.5172 59.5658 35.1061 59.4414 32.0883H64.7147C64.8392 33.7683 65.4458 35.1061 66.5347 36.1017C67.6236 37.0972 68.9925 37.595 70.6414 37.595C72.5703 37.595 74.0636 36.9883 75.1214 35.775C76.1792 34.5306 76.7081 32.7883 76.7081 30.5483C76.7081 28.3706 76.1636 26.6906 75.0747 25.5083C73.9858 24.295 72.477 23.6883 70.5481 23.6883C68.2147 23.6883 66.3947 24.6683 65.0881 26.6283L60.4214 26.4883L63.5481 8.89499H80.3947ZM125.754 8.14833V41.375H120.201V15.755L110.961 41.375H106.201L96.7273 15.755V41.375H91.2207V8.14833H99.3873L108.674 34.1417L117.634 8.14833H125.754ZM154.019 41.375H148.185V13.1883H137.919L137.312 29.0083C137.125 33.4261 136.223 36.6928 134.605 38.8083C133.019 40.9239 130.95 41.9817 128.399 41.9817C127.279 41.9817 126.112 41.7794 124.899 41.375V36.895C125.521 37.1439 126.283 37.2683 127.185 37.2683C128.088 37.2683 128.819 37.0506 129.379 36.615C129.939 36.1794 130.436 35.215 130.872 33.7217C131.308 32.1972 131.572 30.0972 131.665 27.4217L132.319 8.14833H154.019V41.375ZM183.003 8.14833V41.375H177.17V26.4417H161.957V41.375H156.123V8.14833H161.957V21.355H177.17V8.14833H183.003ZM212.777 26.815C209.199 27.4372 206.29 27.7483 204.05 27.7483C202.121 27.7483 200.41 27.515 198.917 27.0483C197.455 26.5506 196.319 25.9594 195.51 25.275C194.732 24.5594 194.095 23.7194 193.597 22.755C193.099 21.7906 192.772 20.9194 192.617 20.1417C192.461 19.3328 192.383 18.4928 192.383 17.6217V8.14833H198.217V15.8483C198.217 16.595 198.232 17.1861 198.263 17.6217C198.295 18.0572 198.435 18.6328 198.683 19.3483C198.932 20.0639 199.275 20.6239 199.71 21.0283C200.146 21.4328 200.815 21.7906 201.717 22.1017C202.619 22.4128 203.708 22.5683 204.983 22.5683C207.535 22.5683 210.132 22.3039 212.777 21.775V8.14833H218.61V41.375H212.777V26.815ZM244.723 8.14833V13.0483H226.57V21.8683H243.417V26.5817H226.57V36.3817H245.003V41.375H220.783V8.14833H244.723ZM271.551 41.375H265.718V13.1883H255.451L254.845 29.0083C254.658 33.4261 253.756 36.6928 252.138 38.8083C250.551 40.9239 248.482 41.9817 245.931 41.9817C244.811 41.9817 243.645 41.7794 242.431 41.375V36.895C243.053 37.1439 243.816 37.2683 244.718 37.2683C245.62 37.2683 246.351 37.0506 246.911 36.615C247.471 36.1794 247.969 35.215 248.405 33.7217C248.84 32.1972 249.105 30.0972 249.198 27.4217L249.851 8.14833H271.551V41.375ZM288.076 7.35499C292.774 7.35499 296.585 8.97277 299.509 12.2083C302.465 15.4128 303.943 19.5972 303.943 24.7617C303.943 29.9261 302.465 34.1261 299.509 37.3617C296.554 40.5661 292.712 42.1683 287.983 42.1683C283.223 42.1683 279.365 40.5661 276.409 37.3617C273.485 34.1572 272.023 29.9572 272.023 24.7617C272.023 19.7217 273.454 15.5683 276.316 12.3017C279.209 9.00388 283.129 7.35499 288.076 7.35499ZM287.983 12.255C284.934 12.255 282.492 13.3906 280.656 15.6617C278.82 17.9017 277.903 20.9039 277.903 24.6683C277.903 28.5261 278.805 31.5906 280.609 33.8617C282.445 36.1328 284.934 37.2683 288.076 37.2683C291.094 37.2683 293.505 36.1328 295.309 33.8617C297.145 31.5594 298.063 28.5106 298.063 24.715C298.063 20.9194 297.145 17.9017 295.309 15.6617C293.505 13.3906 291.063 12.255 287.983 12.255ZM304.492 8.14833H319.658C323.143 8.14833 325.803 8.91055 327.638 10.435C329.505 11.9283 330.438 13.9506 330.438 16.5017C330.438 18.0883 330.003 19.5194 329.132 20.795C328.261 22.0394 327.11 22.9417 325.678 23.5017C327.607 23.9683 329.132 24.9017 330.252 26.3017C331.372 27.7017 331.932 29.4594 331.932 31.575C331.932 34.4994 330.952 36.8639 328.992 38.6683C327.063 40.4728 324.543 41.375 321.432 41.375H304.492V8.14833ZM310.185 12.8617V22.0083H318.118C320.358 22.0083 322.007 21.6661 323.065 20.9817C324.123 20.2661 324.652 19.0839 324.652 17.435C324.652 15.5683 324.092 14.3394 322.972 13.7483C321.883 13.1572 320.327 12.8617 318.305 12.8617H310.185ZM310.185 26.2083V36.615H318.912C321.152 36.615 322.91 36.2417 324.185 35.495C325.461 34.7483 326.098 33.395 326.098 31.435C326.098 30.3461 325.896 29.4439 325.492 28.7283C325.118 27.9817 324.558 27.4372 323.812 27.095C323.096 26.7528 322.35 26.5194 321.572 26.395C320.794 26.2706 319.876 26.2083 318.818 26.2083H310.185ZM356.623 8.14833V13.0483H338.47V21.8683H355.316V26.5817H338.47V36.3817H356.903V41.375H332.683V8.14833H356.623ZM385.271 8.14833L371.971 21.4017L386.111 41.375H378.878L367.958 25.4617L363.198 30.2217V41.375H357.411V8.14833H363.198V23.2217L377.898 8.14833H385.271Z"/>
</mask>
<path d="M31.3203 31.6683L7.19368 41.0483V36.0083L25.3003 29.335L7.19368 22.6617V17.715L31.3203 27.0017V31.6683ZM51.9288 36.6617V41.375H29.6221C29.6532 39.9128 29.8554 38.575 30.2288 37.3617C30.6021 36.1483 31.0221 35.1217 31.4888 34.2817C31.9866 33.4106 32.7021 32.5394 33.6354 31.6683C34.5999 30.7661 35.4554 30.035 36.2021 29.475C36.9799 28.8839 38.0377 28.1372 39.3755 27.235C39.4688 27.1728 39.9199 26.8772 40.7288 26.3483C41.5688 25.7883 42.0821 25.4461 42.2688 25.3217C42.4555 25.1661 42.8755 24.8394 43.5288 24.3417C44.1821 23.8128 44.6021 23.3928 44.7888 23.0817C45.0066 22.7706 45.2866 22.3506 45.6288 21.8217C46.0021 21.2928 46.251 20.7639 46.3755 20.235C46.4999 19.675 46.5621 19.0839 46.5621 18.4617C46.5621 16.7506 46.0799 15.4128 45.1155 14.4483C44.1821 13.4528 42.9066 12.955 41.2888 12.955C40.3555 12.955 39.5466 13.1106 38.8621 13.4217C38.1777 13.7017 37.6332 14.075 37.2288 14.5417C36.8555 15.0083 36.5443 15.615 36.2955 16.3617C36.0466 17.0772 35.8755 17.7617 35.7821 18.415C35.7199 19.0683 35.6732 19.8306 35.6421 20.7017H30.4621V19.8617C30.4621 16.3461 31.4421 13.5617 33.4021 11.5083C35.3932 9.42388 38.0688 8.38166 41.4288 8.38166C44.6021 8.38166 47.1532 9.28388 49.0821 11.0883C51.011 12.8617 51.9755 15.2261 51.9755 18.1817C51.9755 19.3639 51.7888 20.4839 51.4155 21.5417C51.0421 22.5994 50.6377 23.455 50.2021 24.1083C49.7977 24.7617 49.0821 25.5239 48.0555 26.395C47.0288 27.2661 46.2666 27.8728 45.7688 28.215C45.271 28.5572 44.3532 29.1794 43.0155 30.0817C39.1266 32.6017 36.7932 34.795 36.0155 36.6617H51.9288ZM59.4731 35.075V39.835C59.4731 42.2617 59.0064 44.2061 58.0731 45.6683C57.1398 47.1617 55.4909 48.1728 53.1264 48.7017V45.9017C55.0553 45.3106 56.0664 43.8017 56.1598 41.375H53.1264V35.075H59.4731ZM80.3947 8.89499V13.515H67.3747L65.8814 21.915C67.3436 20.3594 69.397 19.5817 72.0414 19.5817C75.0592 19.5817 77.5014 20.5617 79.3681 22.5217C81.2347 24.4817 82.1681 27.0639 82.1681 30.2683C82.1681 33.7217 81.0792 36.5372 78.9014 38.715C76.7236 40.8928 73.9236 41.9817 70.5014 41.9817C67.2658 41.9817 64.637 41.095 62.6147 39.3217C60.6236 37.5172 59.5658 35.1061 59.4414 32.0883H64.7147C64.8392 33.7683 65.4458 35.1061 66.5347 36.1017C67.6236 37.0972 68.9925 37.595 70.6414 37.595C72.5703 37.595 74.0636 36.9883 75.1214 35.775C76.1792 34.5306 76.7081 32.7883 76.7081 30.5483C76.7081 28.3706 76.1636 26.6906 75.0747 25.5083C73.9858 24.295 72.477 23.6883 70.5481 23.6883C68.2147 23.6883 66.3947 24.6683 65.0881 26.6283L60.4214 26.4883L63.5481 8.89499H80.3947ZM125.754 8.14833V41.375H120.201V15.755L110.961 41.375H106.201L96.7273 15.755V41.375H91.2207V8.14833H99.3873L108.674 34.1417L117.634 8.14833H125.754ZM154.019 41.375H148.185V13.1883H137.919L137.312 29.0083C137.125 33.4261 136.223 36.6928 134.605 38.8083C133.019 40.9239 130.95 41.9817 128.399 41.9817C127.279 41.9817 126.112 41.7794 124.899 41.375V36.895C125.521 37.1439 126.283 37.2683 127.185 37.2683C128.088 37.2683 128.819 37.0506 129.379 36.615C129.939 36.1794 130.436 35.215 130.872 33.7217C131.308 32.1972 131.572 30.0972 131.665 27.4217L132.319 8.14833H154.019V41.375ZM183.003 8.14833V41.375H177.17V26.4417H161.957V41.375H156.123V8.14833H161.957V21.355H177.17V8.14833H183.003ZM212.777 26.815C209.199 27.4372 206.29 27.7483 204.05 27.7483C202.121 27.7483 200.41 27.515 198.917 27.0483C197.455 26.5506 196.319 25.9594 195.51 25.275C194.732 24.5594 194.095 23.7194 193.597 22.755C193.099 21.7906 192.772 20.9194 192.617 20.1417C192.461 19.3328 192.383 18.4928 192.383 17.6217V8.14833H198.217V15.8483C198.217 16.595 198.232 17.1861 198.263 17.6217C198.295 18.0572 198.435 18.6328 198.683 19.3483C198.932 20.0639 199.275 20.6239 199.71 21.0283C200.146 21.4328 200.815 21.7906 201.717 22.1017C202.619 22.4128 203.708 22.5683 204.983 22.5683C207.535 22.5683 210.132 22.3039 212.777 21.775V8.14833H218.61V41.375H212.777V26.815ZM244.723 8.14833V13.0483H226.57V21.8683H243.417V26.5817H226.57V36.3817H245.003V41.375H220.783V8.14833H244.723ZM271.551 41.375H265.718V13.1883H255.451L254.845 29.0083C254.658 33.4261 253.756 36.6928 252.138 38.8083C250.551 40.9239 248.482 41.9817 245.931 41.9817C244.811 41.9817 243.645 41.7794 242.431 41.375V36.895C243.053 37.1439 243.816 37.2683 244.718 37.2683C245.62 37.2683 246.351 37.0506 246.911 36.615C247.471 36.1794 247.969 35.215 248.405 33.7217C248.84 32.1972 249.105 30.0972 249.198 27.4217L249.851 8.14833H271.551V41.375ZM288.076 7.35499C292.774 7.35499 296.585 8.97277 299.509 12.2083C302.465 15.4128 303.943 19.5972 303.943 24.7617C303.943 29.9261 302.465 34.1261 299.509 37.3617C296.554 40.5661 292.712 42.1683 287.983 42.1683C283.223 42.1683 279.365 40.5661 276.409 37.3617C273.485 34.1572 272.023 29.9572 272.023 24.7617C272.023 19.7217 273.454 15.5683 276.316 12.3017C279.209 9.00388 283.129 7.35499 288.076 7.35499ZM287.983 12.255C284.934 12.255 282.492 13.3906 280.656 15.6617C278.82 17.9017 277.903 20.9039 277.903 24.6683C277.903 28.5261 278.805 31.5906 280.609 33.8617C282.445 36.1328 284.934 37.2683 288.076 37.2683C291.094 37.2683 293.505 36.1328 295.309 33.8617C297.145 31.5594 298.063 28.5106 298.063 24.715C298.063 20.9194 297.145 17.9017 295.309 15.6617C293.505 13.3906 291.063 12.255 287.983 12.255ZM304.492 8.14833H319.658C323.143 8.14833 325.803 8.91055 327.638 10.435C329.505 11.9283 330.438 13.9506 330.438 16.5017C330.438 18.0883 330.003 19.5194 329.132 20.795C328.261 22.0394 327.11 22.9417 325.678 23.5017C327.607 23.9683 329.132 24.9017 330.252 26.3017C331.372 27.7017 331.932 29.4594 331.932 31.575C331.932 34.4994 330.952 36.8639 328.992 38.6683C327.063 40.4728 324.543 41.375 321.432 41.375H304.492V8.14833ZM310.185 12.8617V22.0083H318.118C320.358 22.0083 322.007 21.6661 323.065 20.9817C324.123 20.2661 324.652 19.0839 324.652 17.435C324.652 15.5683 324.092 14.3394 322.972 13.7483C321.883 13.1572 320.327 12.8617 318.305 12.8617H310.185ZM310.185 26.2083V36.615H318.912C321.152 36.615 322.91 36.2417 324.185 35.495C325.461 34.7483 326.098 33.395 326.098 31.435C326.098 30.3461 325.896 29.4439 325.492 28.7283C325.118 27.9817 324.558 27.4372 323.812 27.095C323.096 26.7528 322.35 26.5194 321.572 26.395C320.794 26.2706 319.876 26.2083 318.818 26.2083H310.185ZM356.623 8.14833V13.0483H338.47V21.8683H355.316V26.5817H338.47V36.3817H356.903V41.375H332.683V8.14833H356.623ZM385.271 8.14833L371.971 21.4017L386.111 41.375H378.878L367.958 25.4617L363.198 30.2217V41.375H357.411V8.14833H363.198V23.2217L377.898 8.14833H385.271Z" fill="#8F8F8F"/>
<path d="M31.3203 31.6683L33.795 38.0335C36.4203 37.0128 38.1496 34.485 38.1496 31.6683H31.3203ZM7.19368 41.0483H0.36441C0.36441 43.3027 1.47696 45.4119 3.33759 46.6848C5.19821 47.9577 7.56715 48.2304 9.66833 47.4135L7.19368 41.0483ZM7.19368 36.0083L4.832 29.6004C2.14761 30.5898 0.36441 33.1474 0.36441 36.0083H7.19368ZM25.3003 29.335L27.662 35.7429C30.3464 34.7536 32.1296 32.1959 32.1296 29.335C32.1296 26.4741 30.3464 23.9164 27.662 22.9271L25.3003 29.335ZM7.19368 22.6617H0.36441C0.36441 25.5226 2.14761 28.0802 4.832 29.0696L7.19368 22.6617ZM7.19368 17.715L9.64689 11.3416C7.54678 10.5332 5.18324 10.8113 3.32811 12.0851C1.47298 13.3588 0.36441 15.4647 0.36441 17.715H7.19368ZM31.3203 27.0017H38.1496C38.1496 24.1766 36.4101 21.6431 33.7736 20.6282L31.3203 27.0017ZM31.3203 31.6683L28.8457 25.3032L4.71903 34.6832L7.19368 41.0483L9.66833 47.4135L33.795 38.0335L31.3203 31.6683ZM7.19368 41.0483H14.0229V36.0083H7.19368H0.36441V41.0483H7.19368ZM7.19368 36.0083L9.55536 42.4162L27.662 35.7429L25.3003 29.335L22.9387 22.9271L4.832 29.6004L7.19368 36.0083ZM25.3003 29.335L27.662 22.9271L9.55536 16.2537L7.19368 22.6617L4.832 29.0696L22.9387 35.7429L25.3003 29.335ZM7.19368 22.6617H14.0229V17.715H7.19368H0.36441V22.6617H7.19368ZM7.19368 17.715L4.74046 24.0884L28.8671 33.3751L31.3203 27.0017L33.7736 20.6282L9.64689 11.3416L7.19368 17.715ZM31.3203 27.0017H24.4911V31.6683H31.3203H38.1496V27.0017H31.3203ZM51.9288 36.6617H58.7581C58.7581 32.89 55.7005 29.8324 51.9288 29.8324V36.6617ZM51.9288 41.375V48.2043C55.7005 48.2043 58.7581 45.1467 58.7581 41.375H51.9288ZM29.6221 41.375L22.7944 41.2297C22.7553 43.0657 23.4573 44.8401 24.742 46.1524C26.0267 47.4647 27.7857 48.2043 29.6221 48.2043V41.375ZM30.2288 37.3617L36.7561 39.3701L30.2288 37.3617ZM31.4888 34.2817L25.5593 30.8934C25.5457 30.9172 25.5322 30.9411 25.5189 30.9651L31.4888 34.2817ZM33.6354 31.6683L38.2952 36.6609L38.3009 36.6556L33.6354 31.6683ZM36.2021 29.475L40.2997 34.9384C40.3113 34.9297 40.3228 34.921 40.3344 34.9122L36.2021 29.475ZM39.3755 27.235L35.5873 21.5527C35.5771 21.5595 35.567 21.5662 35.5569 21.573L39.3755 27.235ZM40.7288 26.3483L44.4661 32.0642C44.4831 32.0531 44.5001 32.0419 44.517 32.0306L40.7288 26.3483ZM42.2688 25.3217L46.057 31.004C46.2592 30.8691 46.4541 30.7236 46.6408 30.5681L42.2688 25.3217ZM43.5288 24.3417L47.6676 29.7739C47.7209 29.7333 47.7737 29.6919 47.8258 29.6497L43.5288 24.3417ZM44.7888 23.0817L39.194 19.1653C39.1022 19.2965 39.0151 19.4308 38.9327 19.568L44.7888 23.0817ZM45.6288 21.8217L40.0495 17.8833C39.9965 17.9584 39.945 18.0345 39.8951 18.1117L45.6288 21.8217ZM46.3755 20.235L53.0232 21.7992C53.0297 21.7716 53.036 21.7441 53.0421 21.7165L46.3755 20.235ZM45.1155 14.4483L40.1332 19.1191C40.1835 19.1727 40.2345 19.2254 40.2864 19.2773L45.1155 14.4483ZM38.8621 13.4217L41.4479 19.7425C41.5286 19.7094 41.6087 19.6749 41.6881 19.6388L38.8621 13.4217ZM37.2288 14.5417L32.068 10.069C32.0093 10.1367 31.952 10.2055 31.896 10.2755L37.2288 14.5417ZM36.2955 16.3617L42.7457 18.6052C42.7554 18.5773 42.7649 18.5493 42.7743 18.5213L36.2955 16.3617ZM35.7821 18.415L29.0215 17.4492C29.0064 17.555 28.9937 17.6611 28.9836 17.7675L35.7821 18.415ZM35.6421 20.7017V27.5309C39.319 27.5309 42.3358 24.6199 42.467 20.9454L35.6421 20.7017ZM30.4621 20.7017H23.6328C23.6328 24.4734 26.6904 27.5309 30.4621 27.5309V20.7017ZM33.4021 11.5083L28.4638 6.79113L28.4621 6.79289L33.4021 11.5083ZM49.0821 11.0883L44.4167 16.0755C44.4311 16.089 44.4455 16.1025 44.4601 16.1158L49.0821 11.0883ZM51.4155 21.5417L44.9755 19.2687V19.2687L51.4155 21.5417ZM50.2021 24.1083L44.5198 20.3201C44.4773 20.384 44.4358 20.4485 44.3954 20.5137L50.2021 24.1083ZM48.0555 26.395L43.6371 21.1876V21.1876L48.0555 26.395ZM45.7688 28.215L49.6378 33.8426L49.6378 33.8426L45.7688 28.215ZM43.0154 30.0817L46.7293 35.8129C46.7644 35.7901 46.7993 35.767 46.834 35.7436L43.0154 30.0817ZM36.0154 36.6617L29.7115 34.035C28.8333 36.1428 29.0666 38.55 30.3332 40.4499C31.5998 42.3498 33.7321 43.4909 36.0154 43.4909V36.6617ZM51.9288 36.6617H45.0995V41.375H51.9288H58.7581V36.6617H51.9288ZM51.9288 41.375V34.5457H29.6221V41.375V48.2043H51.9288V41.375ZM29.6221 41.375L36.4498 41.5203C36.4695 40.5962 36.5943 39.8957 36.7561 39.3701L30.2288 37.3617L23.7015 35.3533C23.1166 37.2543 22.837 39.2294 22.7944 41.2297L29.6221 41.375ZM30.2288 37.3617L36.7561 39.3701C37.0313 38.4755 37.2827 37.9149 37.4586 37.5983L31.4888 34.2817L25.5189 30.9651C24.7615 32.3284 24.1729 33.8211 23.7015 35.3533L30.2288 37.3617ZM31.4888 34.2817L37.4182 37.6699C37.4977 37.5308 37.7336 37.185 38.2952 36.6609L33.6354 31.6683L28.9757 26.6758C27.6706 27.8939 26.4754 29.2903 25.5593 30.8934L31.4888 34.2817ZM33.6354 31.6683L38.3009 36.6556C39.1523 35.8591 39.8131 35.3034 40.2997 34.9384L36.2021 29.475L32.1046 24.0116C31.0978 24.7666 30.0474 25.6732 28.97 26.6811L33.6354 31.6683ZM36.2021 29.475L40.3344 34.9122C40.9655 34.4325 41.904 33.767 43.194 32.897L39.3755 27.235L35.5569 21.573C34.1714 22.5075 32.9943 23.3352 32.0698 24.0378L36.2021 29.475ZM39.3755 27.235L43.1636 32.9173C43.1609 32.9191 43.1669 32.9151 43.1874 32.9016C43.2059 32.8894 43.2308 32.873 43.263 32.8518C43.3273 32.8096 43.4148 32.7522 43.5264 32.6791C43.7493 32.533 44.0623 32.3283 44.4661 32.0642L40.7288 26.3483L36.9915 20.6324C36.2032 21.1479 35.7137 21.4684 35.5873 21.5527L39.3755 27.235ZM40.7288 26.3483L44.517 32.0306C45.357 31.4706 45.8703 31.1284 46.057 31.004L42.2688 25.3217L38.4806 19.6394C38.2939 19.7638 37.7806 20.106 36.9406 20.666L40.7288 26.3483ZM42.2688 25.3217L46.6408 30.5681C46.6394 30.5692 46.7135 30.5086 46.9165 30.3507C47.1018 30.2066 47.3505 30.0155 47.6676 29.7739L43.5288 24.3417L39.39 18.9094C38.7669 19.3842 38.2203 19.8057 37.8968 20.0753L42.2688 25.3217ZM43.5288 24.3417L47.8258 29.6497C48.4969 29.1064 49.7804 28.036 50.6448 26.5953L44.7888 23.0817L38.9327 19.568C39.1092 19.2739 39.2675 19.0733 39.3495 18.9744C39.4369 18.8691 39.4956 18.8102 39.5048 18.801C39.5168 18.7889 39.4423 18.8632 39.2318 19.0337L43.5288 24.3417ZM44.7888 23.0817L50.3835 26.998C50.6695 26.5895 51.0003 26.0914 51.3624 25.5317L45.6288 21.8217L39.8951 18.1117C39.5729 18.6097 39.3436 18.9516 39.194 19.1653L44.7888 23.0817ZM45.6288 21.8217L51.2081 25.76C51.9918 24.6497 52.6637 23.3271 53.0232 21.7992L46.3755 20.235L39.7277 18.6708C39.8384 18.2006 40.0124 17.9358 40.0495 17.8833L45.6288 21.8217ZM46.3755 20.235L53.0421 21.7165C53.2833 20.631 53.3914 19.5405 53.3914 18.4617H46.5621H39.7328C39.7328 18.6273 39.7165 18.719 39.7088 18.7535L46.3755 20.235ZM46.5621 18.4617H53.3914C53.3914 15.4257 52.4968 12.1717 49.9445 9.61931L45.1155 14.4483L40.2864 19.2773C40.028 19.019 39.8604 18.7255 39.7758 18.4908C39.701 18.2833 39.7328 18.2398 39.7328 18.4617H46.5621ZM45.1155 14.4483L50.0977 9.77751C47.6344 7.15009 44.4141 6.12573 41.2888 6.12573V12.955V19.7843C41.3994 19.7843 41.2591 19.8008 40.9761 19.6903C40.6683 19.5702 40.3656 19.367 40.1332 19.1191L45.1155 14.4483ZM41.2888 12.955V6.12573C39.6096 6.12573 37.7953 6.40493 36.0361 7.20452L38.8621 13.4217L41.6881 19.6388C41.2979 19.8162 41.1013 19.7843 41.2888 19.7843V12.955ZM38.8621 13.4217L36.2763 7.10085C34.7946 7.70703 33.2995 8.64801 32.068 10.069L37.2288 14.5417L42.3896 19.0144C41.967 19.502 41.5608 19.6963 41.4479 19.7425L38.8621 13.4217ZM37.2288 14.5417L31.896 10.2755C30.8881 11.5354 30.2441 12.9198 29.8166 14.2021L36.2955 16.3617L42.7743 18.5213C42.8055 18.4276 42.8167 18.4153 42.7923 18.463C42.7676 18.5111 42.6975 18.638 42.5616 18.8079L37.2288 14.5417ZM36.2955 16.3617L29.8452 14.1181C29.4727 15.1891 29.1853 16.3027 29.0215 17.4492L35.7821 18.415L42.5427 19.3808C42.5656 19.2206 42.6204 18.9654 42.7457 18.6052L36.2955 16.3617ZM35.7821 18.415L28.9836 17.7675C28.9052 18.5904 28.8517 19.4927 28.8172 20.4579L35.6421 20.7017L42.467 20.9454C42.4948 20.1684 42.5345 19.5463 42.5806 19.0625L35.7821 18.415ZM35.6421 20.7017V13.8724H30.4621V20.7017V27.5309H35.6421V20.7017ZM30.4621 20.7017H37.2914V19.8617H30.4621H23.6328V20.7017H30.4621ZM30.4621 19.8617H37.2914C37.2914 17.6618 37.8682 16.7202 38.3421 16.2238L33.4021 11.5083L28.4621 6.79289C25.016 10.4031 23.6328 15.0304 23.6328 19.8617H30.4621ZM33.4021 11.5083L38.3404 16.2255C38.8279 15.7152 39.5981 15.2109 41.4288 15.2109V8.38166V1.55239C36.5394 1.55239 31.9585 3.13259 28.4638 6.79113L33.4021 11.5083ZM41.4288 8.38166V15.2109C43.2392 15.2109 43.9993 15.6851 44.4167 16.0755L49.0821 11.0883L53.7476 6.10111C50.3072 2.88269 45.9651 1.55239 41.4288 1.55239V8.38166ZM49.0821 11.0883L44.4601 16.1158C44.7948 16.4236 45.1462 16.8665 45.1462 18.1817H51.9755H58.8047C58.8047 13.5857 57.2272 9.29975 53.7042 6.06084L49.0821 11.0883ZM51.9755 18.1817H45.1462C45.1462 18.6317 45.0775 18.9797 44.9755 19.2687L51.4155 21.5417L57.8554 23.8146C58.5 21.988 58.8047 20.096 58.8047 18.1817H51.9755ZM51.4155 21.5417L44.9755 19.2687C44.8526 19.6169 44.7444 19.8751 44.658 20.058C44.5704 20.2432 44.5197 20.3203 44.5198 20.3201L50.2021 24.1083L55.8844 27.8965C56.7368 26.618 57.3667 25.1993 57.8554 23.8146L51.4155 21.5417ZM50.2021 24.1083L44.3954 20.5137C44.5005 20.344 44.5328 20.3363 44.3831 20.4958C44.2437 20.6442 44.0064 20.8743 43.6371 21.1876L48.0555 26.395L52.4738 31.6024C53.7006 30.5615 55.0483 29.2546 56.0088 27.7029L50.2021 24.1083ZM48.0555 26.395L43.6371 21.1876C42.6267 22.0449 42.0901 22.4566 41.8998 22.5874L45.7688 28.215L49.6378 33.8426C50.443 33.289 51.4309 32.4873 52.4738 31.6024L48.0555 26.395ZM45.7688 28.215L41.8998 22.5874C41.4306 22.91 40.5367 23.5161 39.1969 24.4197L43.0154 30.0817L46.834 35.7436C48.1698 34.8427 49.1114 34.2045 49.6378 33.8426L45.7688 28.215ZM43.0154 30.0817L39.3016 24.3505C37.1517 25.7437 35.2355 27.1704 33.6713 28.6407C32.1674 30.0544 30.6242 31.8446 29.7115 34.035L36.0154 36.6617L42.3194 39.2883C42.1845 39.6121 42.1969 39.3723 43.0262 38.5927C43.7954 37.8696 44.9903 36.9397 46.7293 35.8129L43.0154 30.0817ZM36.0154 36.6617V43.4909H51.9288V36.6617V29.8324H36.0154V36.6617ZM59.4731 35.075H66.3024C66.3024 31.3033 63.2448 28.2457 59.4731 28.2457V35.075ZM58.0731 45.6683L52.3166 41.9939C52.3049 42.0122 52.2934 42.0305 52.2819 42.0488L58.0731 45.6683ZM53.1264 48.7017H46.2972C46.2972 50.7748 47.2389 52.7357 48.8569 54.0318C50.4749 55.3278 52.5941 55.8188 54.6172 55.3662L53.1264 48.7017ZM53.1264 45.9017L51.1255 39.3721C48.2562 40.2514 46.2972 42.9007 46.2972 45.9017H53.1264ZM56.1598 41.375L62.984 41.6375C63.0554 39.7821 62.3682 37.9776 61.0807 36.6397C59.7933 35.3018 58.0165 34.5457 56.1598 34.5457V41.375ZM53.1264 41.375H46.2972C46.2972 45.1467 49.3547 48.2043 53.1264 48.2043V41.375ZM53.1264 35.075V28.2457C49.3547 28.2457 46.2972 31.3033 46.2972 35.075H53.1264ZM59.4731 35.075H52.6438V39.835H59.4731H66.3024V35.075H59.4731ZM59.4731 39.835H52.6438C52.6438 41.4578 52.3225 41.9847 52.3166 41.9939L58.0731 45.6683L63.8297 49.3427C65.6904 46.4275 66.3024 43.0655 66.3024 39.835H59.4731ZM58.0731 45.6683L52.2819 42.0488C52.3472 41.9443 52.4195 41.8585 52.4843 41.7956C52.5474 41.7345 52.5831 41.7146 52.5664 41.7248C52.5226 41.7517 52.2607 41.8973 51.6357 42.0371L53.1264 48.7017L54.6172 55.3662C58.0788 54.5919 61.6446 52.8394 63.8643 49.2878L58.0731 45.6683ZM53.1264 48.7017H59.9557V45.9017H53.1264H46.2972V48.7017H53.1264ZM53.1264 45.9017L55.1274 52.4312C57.4164 51.7297 59.5274 50.3329 61.0047 48.1283C62.4137 46.0258 62.9046 43.7007 62.984 41.6375L56.1598 41.375L49.3356 41.1125C49.3216 41.476 49.2603 41.1186 49.6582 40.525C49.8605 40.2231 50.1264 39.9471 50.4316 39.729C50.7291 39.5166 50.9848 39.4152 51.1255 39.3721L53.1264 45.9017ZM56.1598 41.375V34.5457H53.1264V41.375V48.2043H56.1598V41.375ZM53.1264 41.375H59.9557V35.075H53.1264H46.2972V41.375H53.1264ZM53.1264 35.075V41.9043H59.4731V35.075V28.2457H53.1264V35.075ZM80.3947 8.89499H87.224C87.224 5.12329 84.1664 2.06573 80.3947 2.06573V8.89499ZM80.3947 13.515V20.3443C84.1664 20.3443 87.224 17.2867 87.224 13.515H80.3947ZM67.3747 13.515V6.68573C64.0642 6.68573 61.2303 9.06018 60.6509 12.3196L67.3747 13.515ZM65.8814 21.915L59.1576 20.7196C58.6287 23.6944 60.1174 26.6631 62.8177 28.0185C65.518 29.3739 68.788 28.7939 70.8574 26.5924L65.8814 21.915ZM79.3681 22.5217L74.4227 27.2315V27.2315L79.3681 22.5217ZM78.9014 38.715L74.0724 33.886V33.886L78.9014 38.715ZM62.6147 39.3217L58.0287 44.3821C58.0563 44.407 58.0841 44.4318 58.112 44.4563L62.6147 39.3217ZM59.4414 32.0883V25.2591C57.5813 25.2591 55.8018 26.0178 54.5139 27.3598C53.226 28.7019 52.5413 30.5112 52.6179 32.3697L59.4414 32.0883ZM64.7147 32.0883L71.5253 31.5838C71.2612 28.0176 68.2907 25.2591 64.7147 25.2591V32.0883ZM75.1214 35.775L80.2691 40.2628C80.2878 40.2413 80.3064 40.2197 80.3249 40.198L75.1214 35.775ZM75.0747 25.5083L69.9921 30.0697C70.0118 30.0916 70.0316 30.1133 70.0515 30.135L75.0747 25.5083ZM65.0881 26.6283L64.8833 33.4545C67.2383 33.5252 69.4634 32.3769 70.7704 30.4165L65.0881 26.6283ZM60.4214 26.4883L53.6975 25.2934C53.3502 27.2473 53.8701 29.2556 55.1217 30.7956C56.3734 32.3356 58.233 33.255 60.2166 33.3145L60.4214 26.4883ZM63.5481 8.89499V2.06573C60.2373 2.06573 57.4035 4.44038 56.8242 7.70003L63.5481 8.89499ZM80.3947 8.89499H73.5655V13.515H80.3947H87.224V8.89499H80.3947ZM80.3947 13.515V6.68573H67.3747V13.515V20.3443H80.3947V13.515ZM67.3747 13.515L60.6509 12.3196L59.1576 20.7196L65.8814 21.915L72.6052 23.1103L74.0986 14.7103L67.3747 13.515ZM65.8814 21.915L70.8574 26.5924C70.8608 26.5888 70.8632 26.5865 70.8645 26.5852C70.8658 26.584 70.8665 26.5834 70.8665 26.5834C70.8665 26.5834 70.8662 26.5836 70.8658 26.5839C70.8654 26.5842 70.8652 26.5843 70.8655 26.5842C70.8656 26.5841 70.8696 26.5814 70.8795 26.5764C70.8894 26.5713 70.9079 26.5625 70.9372 26.5515C71.0508 26.5084 71.3813 26.4109 72.0414 26.4109V19.5817V12.7524C67.9937 12.7524 63.9546 13.9937 60.9054 17.2376L65.8814 21.915ZM72.0414 19.5817V26.4109C73.4271 26.4109 73.9998 26.7874 74.4227 27.2315L79.3681 22.5217L84.3134 17.8118C81.003 14.3359 76.6912 12.7524 72.0414 12.7524V19.5817ZM79.3681 22.5217L74.4227 27.2315C74.8619 27.6926 75.3388 28.4734 75.3388 30.2683H82.1681H88.9973C88.9973 25.6543 87.6076 21.2707 84.3134 17.8118L79.3681 22.5217ZM82.1681 30.2683H75.3388C75.3388 32.1504 74.8092 33.1492 74.0724 33.886L78.9014 38.715L83.7304 43.544C87.3492 39.9252 88.9973 35.2929 88.9973 30.2683H82.1681ZM78.9014 38.715L74.0724 33.886C73.3233 34.635 72.333 35.1524 70.5014 35.1524V41.9817V48.8109C75.5143 48.8109 80.1239 47.1505 83.7304 43.544L78.9014 38.715ZM70.5014 41.9817V35.1524C68.5699 35.1524 67.6522 34.6559 67.1174 34.187L62.6147 39.3217L58.112 44.4563C61.6217 47.5341 65.9618 48.8109 70.5014 48.8109V41.9817ZM62.6147 39.3217L67.2007 34.2613C66.7392 33.8431 66.3241 33.2445 66.2649 31.807L59.4414 32.0883L52.6179 32.3697C52.8075 36.9677 54.508 41.1914 58.0287 44.3821L62.6147 39.3217ZM59.4414 32.0883V38.9176H64.7147V32.0883V25.2591H59.4414V32.0883ZM64.7147 32.0883L57.9041 32.5928C58.1376 35.745 59.368 38.8026 61.9266 41.1419L66.5347 36.1017L71.1429 31.0615C71.2021 31.1156 71.2687 31.1876 71.3331 31.2762C71.3976 31.365 71.4472 31.4529 71.4827 31.5311C71.5558 31.6924 71.5368 31.739 71.5253 31.5838L64.7147 32.0883ZM66.5347 36.1017L61.9266 41.1419C64.4253 43.4264 67.5033 44.4243 70.6414 44.4243V37.595V30.7657C70.5089 30.7657 70.5565 30.747 70.7119 30.8036C70.7865 30.8307 70.8683 30.8689 70.9501 30.9186C71.0316 30.9681 71.0964 31.0189 71.1429 31.0615L66.5347 36.1017ZM70.6414 37.595V44.4243C74.1153 44.4243 77.657 43.259 80.2691 40.2628L75.1214 35.775L69.9737 31.2872C70.0502 31.1994 70.153 31.1025 70.2802 31.0118C70.4073 30.921 70.5316 30.856 70.6377 30.8129C70.851 30.7263 70.8942 30.7657 70.6414 30.7657V37.595ZM75.1214 35.775L80.3249 40.198C82.7651 37.3271 83.5373 33.8075 83.5373 30.5483H76.7081H69.8788C69.8788 31.1445 69.8069 31.4513 69.7766 31.5512C69.7528 31.6297 69.7745 31.5208 69.9179 31.352L75.1214 35.775ZM76.7081 30.5483H83.5373C83.5373 27.2737 82.7079 23.7153 80.098 20.8817L75.0747 25.5083L70.0515 30.135C69.9665 30.0427 69.9023 29.9509 69.8579 29.8731C69.8144 29.797 69.8009 29.7535 69.8031 29.7604C69.8105 29.7832 69.8788 30.0143 69.8788 30.5483H76.7081ZM75.0747 25.5083L80.1574 20.947C77.5345 18.0243 74.0277 16.8591 70.5481 16.8591V23.6883V30.5176C70.7989 30.5176 70.7699 30.5565 70.5788 30.4796C70.4845 30.4417 70.3739 30.3845 70.2607 30.3053C70.1476 30.226 70.0576 30.1426 69.9921 30.0697L75.0747 25.5083ZM70.5481 23.6883V16.8591C65.9051 16.8591 61.9644 19.0022 59.4058 22.8401L65.0881 26.6283L70.7704 30.4165C70.8364 30.3175 70.8653 30.2959 70.8425 30.3173C70.817 30.3414 70.7587 30.389 70.6708 30.4363C70.5827 30.4838 70.5065 30.5085 70.4626 30.5188C70.4225 30.5283 70.4441 30.5176 70.5481 30.5176V23.6883ZM65.0881 26.6283L65.2928 19.8021L60.6262 19.6621L60.4214 26.4883L60.2166 33.3145L64.8833 33.4545L65.0881 26.6283ZM60.4214 26.4883L67.1453 27.6833L70.272 10.09L63.5481 8.89499L56.8242 7.70003L53.6975 25.2934L60.4214 26.4883ZM63.5481 8.89499V15.7243H80.3947V8.89499V2.06573H63.5481V8.89499ZM125.754 8.14833H132.583C132.583 4.37663 129.526 1.31906 125.754 1.31906V8.14833ZM125.754 41.375V48.2043C129.526 48.2043 132.583 45.1467 132.583 41.375H125.754ZM120.201 41.375H113.371C113.371 45.1467 116.429 48.2043 120.201 48.2043V41.375ZM120.201 15.755H127.03C127.03 12.437 124.645 9.59912 121.377 9.02775C118.108 8.45638 114.902 10.3169 113.776 13.4381L120.201 15.755ZM110.961 41.375V48.2043C113.839 48.2043 116.408 46.3996 117.385 43.6919L110.961 41.375ZM106.201 41.375L99.7953 43.7435C100.787 46.4243 103.342 48.2043 106.201 48.2043V41.375ZM96.7273 15.755L103.133 13.3865C101.986 10.2842 98.7802 8.44985 95.5243 9.03253C92.2684 9.61521 89.8981 12.4474 89.8981 15.755H96.7273ZM96.7273 41.375V48.2043C100.499 48.2043 103.557 45.1467 103.557 41.375H96.7273ZM91.2207 41.375H84.3914C84.3914 45.1467 87.449 48.2043 91.2207 48.2043V41.375ZM91.2207 8.14833V1.31906C87.449 1.31906 84.3914 4.37663 84.3914 8.14833H91.2207ZM99.3873 8.14833L105.818 5.85067C104.848 3.13304 102.273 1.31906 99.3873 1.31906V8.14833ZM108.674 34.1417L102.243 36.4393C103.218 39.1702 105.812 40.9871 108.712 40.9708C111.612 40.9546 114.185 39.1088 115.13 36.3672L108.674 34.1417ZM117.634 8.14833V1.31906C114.72 1.31906 112.127 3.16793 111.178 5.92277L117.634 8.14833ZM125.754 8.14833H118.925V41.375H125.754H132.583V8.14833H125.754ZM125.754 41.375V34.5457H120.201V41.375V48.2043H125.754V41.375ZM120.201 41.375H127.03V15.755H120.201H113.371V41.375H120.201ZM120.201 15.755L113.776 13.4381L104.536 39.0581L110.961 41.375L117.385 43.6919L126.625 18.0719L120.201 15.755ZM110.961 41.375V34.5457H106.201V41.375V48.2043H110.961V41.375ZM106.201 41.375L112.606 39.0065L103.133 13.3865L96.7273 15.755L90.3219 18.1235L99.7953 43.7435L106.201 41.375ZM96.7273 15.755H89.8981V41.375H96.7273H103.557V15.755H96.7273ZM96.7273 41.375V34.5457H91.2207V41.375V48.2043H96.7273V41.375ZM91.2207 41.375H98.0499V8.14833H91.2207H84.3914V41.375H91.2207ZM91.2207 8.14833V14.9776H99.3873V8.14833V1.31906H91.2207V8.14833ZM99.3873 8.14833L92.9562 10.446L102.243 36.4393L108.674 34.1417L115.105 31.844L105.818 5.85067L99.3873 8.14833ZM108.674 34.1417L115.13 36.3672L124.09 10.3739L117.634 8.14833L111.178 5.92277L102.218 31.9161L108.674 34.1417ZM117.634 8.14833V14.9776H125.754V8.14833V1.31906H117.634V8.14833ZM154.019 41.375V48.2043C157.79 48.2043 160.848 45.1467 160.848 41.375H154.019ZM148.185 41.375H141.356C141.356 45.1467 144.414 48.2043 148.185 48.2043V41.375ZM148.185 13.1883H155.015C155.015 9.41663 151.957 6.35906 148.185 6.35906V13.1883ZM137.919 13.1883V6.35906C134.249 6.35906 131.235 9.25945 131.094 12.9266L137.919 13.1883ZM137.312 29.0083L144.135 29.2966C144.136 29.2878 144.136 29.2789 144.136 29.27L137.312 29.0083ZM134.605 38.8083L129.18 34.6599C129.168 34.6768 129.155 34.6938 129.142 34.7108L134.605 38.8083ZM124.899 41.375H118.069C118.069 44.3145 119.95 46.9243 122.739 47.8538L124.899 41.375ZM124.899 36.895L127.435 30.5542C125.331 29.7126 122.947 29.9695 121.07 31.2399C119.194 32.5104 118.069 34.6289 118.069 36.895H124.899ZM129.379 36.615L125.186 31.2243L129.379 36.615ZM130.872 33.7217L137.428 35.6339C137.432 35.6219 137.435 35.6098 137.439 35.5978L130.872 33.7217ZM131.665 27.4217L138.49 27.6597L138.491 27.653L131.665 27.4217ZM132.319 8.14833V1.31906C128.637 1.31906 125.618 4.23743 125.493 7.91696L132.319 8.14833ZM154.019 8.14833H160.848C160.848 4.37663 157.79 1.31906 154.019 1.31906V8.14833ZM154.019 41.375V34.5457H148.185V41.375V48.2043H154.019V41.375ZM148.185 41.375H155.015V13.1883H148.185H141.356V41.375H148.185ZM148.185 13.1883V6.35906H137.919V13.1883V20.0176H148.185V13.1883ZM137.919 13.1883L131.094 12.9266L130.488 28.7466L137.312 29.0083L144.136 29.27L144.743 13.45L137.919 13.1883ZM137.312 29.0083L130.489 28.72C130.326 32.5742 129.551 34.1753 129.18 34.6599L134.605 38.8083L140.03 42.9568C142.895 39.2102 143.925 34.278 144.135 29.2966L137.312 29.0083ZM134.605 38.8083L129.142 34.7108C129.009 34.8878 128.908 34.9878 128.848 35.0395C128.791 35.0893 128.76 35.1049 128.755 35.1077C128.75 35.1102 128.736 35.1175 128.697 35.1263C128.656 35.1357 128.562 35.1524 128.399 35.1524V41.9817V48.8109C133.19 48.8109 137.248 46.6673 140.069 42.9059L134.605 38.8083ZM128.399 41.9817V35.1524C128.109 35.1524 127.672 35.1009 127.058 34.8962L124.899 41.375L122.739 47.8538C124.552 48.458 126.449 48.8109 128.399 48.8109V41.9817ZM124.899 41.375H131.728V36.895H124.899H118.069V41.375H124.899ZM124.899 36.895L122.362 43.2358C124.018 43.898 125.697 44.0976 127.185 44.0976V37.2683V30.4391C127.043 30.4391 127 30.4289 127.037 30.435C127.075 30.4412 127.22 30.4681 127.435 30.5542L124.899 36.895ZM127.185 37.2683V44.0976C129.188 44.0976 131.52 43.6015 133.571 42.0057L129.379 36.615L125.186 31.2243C126.118 30.4996 126.987 30.4391 127.185 30.4391V37.2683ZM129.379 36.615L133.571 42.0057C134.937 40.944 135.755 39.6379 136.241 38.6972C136.757 37.6975 137.135 36.6374 137.428 35.6339L130.872 33.7217L124.316 31.8095C124.173 32.2993 124.085 32.468 124.103 32.4328C124.117 32.4061 124.189 32.2698 124.338 32.0723C124.486 31.8773 124.757 31.5577 125.186 31.2243L129.379 36.615ZM130.872 33.7217L137.439 35.5978C138.095 33.299 138.389 30.566 138.49 27.6597L131.665 27.4217L124.84 27.1836C124.755 29.6285 124.52 31.0954 124.306 31.8455L130.872 33.7217ZM131.665 27.4217L138.491 27.653L139.144 8.3797L132.319 8.14833L125.493 7.91696L124.84 27.1903L131.665 27.4217ZM132.319 8.14833V14.9776H154.019V8.14833V1.31906H132.319V8.14833ZM154.019 8.14833H147.189V41.375H154.019H160.848V8.14833H154.019ZM183.003 8.14833H189.833C189.833 4.37663 186.775 1.31906 183.003 1.31906V8.14833ZM183.003 41.375V48.2043C186.775 48.2043 189.833 45.1467 189.833 41.375H183.003ZM177.17 41.375H170.341C170.341 45.1467 173.398 48.2043 177.17 48.2043V41.375ZM177.17 26.4417H183.999C183.999 22.67 180.942 19.6124 177.17 19.6124V26.4417ZM161.957 26.4417V19.6124C158.185 19.6124 155.128 22.67 155.128 26.4417H161.957ZM161.957 41.375V48.2043C165.728 48.2043 168.786 45.1467 168.786 41.375H161.957ZM156.123 41.375H149.294C149.294 45.1467 152.352 48.2043 156.123 48.2043V41.375ZM156.123 8.14833V1.31906C152.352 1.31906 149.294 4.37663 149.294 8.14833H156.123ZM161.957 8.14833H168.786C168.786 4.37663 165.728 1.31906 161.957 1.31906V8.14833ZM161.957 21.355H155.128C155.128 25.1267 158.185 28.1843 161.957 28.1843V21.355ZM177.17 21.355V28.1843C180.942 28.1843 183.999 25.1267 183.999 21.355H177.17ZM177.17 8.14833V1.31906C173.398 1.31906 170.341 4.37663 170.341 8.14833H177.17ZM183.003 8.14833H176.174V41.375H183.003H189.833V8.14833H183.003ZM183.003 41.375V34.5457H177.17V41.375V48.2043H183.003V41.375ZM177.17 41.375H183.999V26.4417H177.17H170.341V41.375H177.17ZM177.17 26.4417V19.6124H161.957V26.4417V33.2709H177.17V26.4417ZM161.957 26.4417H155.128V41.375H161.957H168.786V26.4417H161.957ZM161.957 41.375V34.5457H156.123V41.375V48.2043H161.957V41.375ZM156.123 41.375H162.953V8.14833H156.123H149.294V41.375H156.123ZM156.123 8.14833V14.9776H161.957V8.14833V1.31906H156.123V8.14833ZM161.957 8.14833H155.128V21.355H161.957H168.786V8.14833H161.957ZM161.957 21.355V28.1843H177.17V21.355V14.5257H161.957V21.355ZM177.17 21.355H183.999V8.14833H177.17H170.341V21.355H177.17ZM177.17 8.14833V14.9776H183.003V8.14833V1.31906H177.17V8.14833ZM212.777 26.815H219.606C219.606 24.7991 218.715 22.8862 217.173 21.5886C215.63 20.291 213.593 19.7413 211.607 20.0867L212.777 26.815ZM198.917 27.0483L196.716 33.5133C196.77 33.5318 196.825 33.5496 196.88 33.5667L198.917 27.0483ZM195.51 25.275L190.886 30.3009C190.956 30.3648 191.027 30.4273 191.099 30.4884L195.51 25.275ZM192.617 20.1417L185.91 21.4314C185.914 21.4479 185.917 21.4645 185.92 21.481L192.617 20.1417ZM192.383 8.14833V1.31906C188.612 1.31906 185.554 4.37663 185.554 8.14833H192.383ZM198.217 8.14833H205.046C205.046 4.37663 201.988 1.31906 198.217 1.31906V8.14833ZM198.263 17.6217L205.075 17.1351V17.1351L198.263 17.6217ZM199.71 21.0283L204.357 16.0239V16.0239L199.71 21.0283ZM201.717 22.1017L199.49 28.5579H199.491L201.717 22.1017ZM212.777 21.775L214.116 28.4716C217.308 27.8332 219.606 25.0304 219.606 21.775H212.777ZM212.777 8.14833V1.31906C209.005 1.31906 205.948 4.37663 205.948 8.14833H212.777ZM218.61 8.14833H225.439C225.439 4.37663 222.382 1.31906 218.61 1.31906V8.14833ZM218.61 41.375V48.2043C222.382 48.2043 225.439 45.1467 225.439 41.375H218.61ZM212.777 41.375H205.948C205.948 45.1467 209.005 48.2043 212.777 48.2043V41.375ZM212.777 26.815L211.607 20.0867C208.209 20.6776 205.733 20.9191 204.05 20.9191V27.7483V34.5776C206.847 34.5776 210.189 34.1969 213.947 33.5433L212.777 26.815ZM204.05 27.7483V20.9191C202.658 20.9191 201.655 20.7491 200.954 20.5299L198.917 27.0483L196.88 33.5667C199.165 34.2809 201.585 34.5776 204.05 34.5776V27.7483ZM198.917 27.0483L201.118 20.5834C200.649 20.424 200.328 20.2813 200.122 20.174C199.914 20.0657 199.869 20.0173 199.921 20.0616L195.51 25.275L191.099 30.4884C192.786 31.9158 194.783 32.8552 196.716 33.5133L198.917 27.0483ZM195.51 25.275L200.134 20.2491C199.961 20.0899 199.806 19.8957 199.665 19.6228L193.597 22.755L187.528 25.8872C188.383 27.5432 189.504 29.029 190.886 30.3009L195.51 25.275ZM193.597 22.755L199.665 19.6228C199.52 19.3406 199.428 19.1278 199.373 18.9804C199.317 18.8318 199.308 18.7754 199.313 18.8023L192.617 20.1417L185.92 21.481C186.237 23.0643 186.838 24.5496 187.528 25.8872L193.597 22.755ZM192.617 20.1417L199.323 18.852C199.254 18.4917 199.213 18.0847 199.213 17.6217H192.383H185.554C185.554 18.9009 185.669 20.1738 185.91 21.4314L192.617 20.1417ZM192.383 17.6217H199.213V8.14833H192.383H185.554V17.6217H192.383ZM192.383 8.14833V14.9776H198.217V8.14833V1.31906H192.383V8.14833ZM198.217 8.14833H191.388V15.8483H198.217H205.046V8.14833H198.217ZM198.217 15.8483H191.388C191.388 16.6611 191.404 17.4369 191.452 18.1082L198.263 17.6217L205.075 17.1351C205.061 16.9353 205.046 16.5289 205.046 15.8483H198.217ZM198.263 17.6217L191.452 18.1082C191.546 19.425 191.909 20.6592 192.233 21.5919L198.683 19.3483L205.134 17.1048C205.099 17.0057 205.074 16.9274 205.056 16.8683C205.038 16.8088 205.03 16.7755 205.028 16.7659C205.025 16.7555 205.031 16.78 205.041 16.8351C205.046 16.8634 205.052 16.9024 205.058 16.9514C205.064 17.0002 205.07 17.0619 205.075 17.1351L198.263 17.6217ZM198.683 19.3483L192.233 21.5919C192.751 23.0791 193.616 24.689 195.063 26.0328L199.71 21.0283L204.357 16.0239C204.933 16.5587 205.114 17.0487 205.134 17.1048L198.683 19.3483ZM199.71 21.0283L195.063 26.0328C196.491 27.3589 198.171 28.1027 199.49 28.5579L201.717 22.1017L203.943 15.6455C203.751 15.5794 203.705 15.549 203.759 15.5781C203.807 15.6036 204.046 15.735 204.357 16.0239L199.71 21.0283ZM201.717 22.1017L199.491 28.5579C201.304 29.1834 203.189 29.3976 204.983 29.3976V22.5683V15.7391C204.227 15.7391 203.934 15.6422 203.943 15.6455L201.717 22.1017ZM204.983 22.5683V29.3976C208.009 29.3976 211.056 29.0837 214.116 28.4716L212.777 21.775L211.437 15.0783C209.209 15.524 207.06 15.7391 204.983 15.7391V22.5683ZM212.777 21.775H219.606V8.14833H212.777H205.948V21.775H212.777ZM212.777 8.14833V14.9776H218.61V8.14833V1.31906H212.777V8.14833ZM218.61 8.14833H211.781V41.375H218.61H225.439V8.14833H218.61ZM218.61 41.375V34.5457H212.777V41.375V48.2043H218.61V41.375ZM212.777 41.375H219.606V26.815H212.777H205.948V41.375H212.777ZM244.723 8.14833H251.553C251.553 4.37663 248.495 1.31906 244.723 1.31906V8.14833ZM244.723 13.0483V19.8776C248.495 19.8776 251.553 16.82 251.553 13.0483H244.723ZM226.57 13.0483V6.21906C222.798 6.21906 219.741 9.27663 219.741 13.0483H226.57ZM226.57 21.8683H219.741C219.741 25.64 222.798 28.6976 226.57 28.6976V21.8683ZM243.417 21.8683H250.246C250.246 18.0966 247.188 15.0391 243.417 15.0391V21.8683ZM243.417 26.5817V33.4109C247.188 33.4109 250.246 30.3534 250.246 26.5817H243.417ZM226.57 26.5817V19.7524C222.798 19.7524 219.741 22.81 219.741 26.5817H226.57ZM226.57 36.3817H219.741C219.741 40.1534 222.798 43.2109 226.57 43.2109V36.3817ZM245.003 36.3817H251.833C251.833 32.61 248.775 29.5524 245.003 29.5524V36.3817ZM245.003 41.375V48.2043C248.775 48.2043 251.833 45.1467 251.833 41.375H245.003ZM220.783 41.375H213.954C213.954 45.1467 217.012 48.2043 220.783 48.2043V41.375ZM220.783 8.14833V1.31906C217.012 1.31906 213.954 4.37663 213.954 8.14833H220.783ZM244.723 8.14833H237.894V13.0483H244.723H251.553V8.14833H244.723ZM244.723 13.0483V6.21906H226.57V13.0483V19.8776H244.723V13.0483ZM226.57 13.0483H219.741V21.8683H226.57H233.399V13.0483H226.57ZM226.57 21.8683V28.6976H243.417V21.8683V15.0391H226.57V21.8683ZM243.417 21.8683H236.587V26.5817H243.417H250.246V21.8683H243.417ZM243.417 26.5817V19.7524H226.57V26.5817V33.4109H243.417V26.5817ZM226.57 26.5817H219.741V36.3817H226.57H233.399V26.5817H226.57ZM226.57 36.3817V43.2109H245.003V36.3817V29.5524H226.57V36.3817ZM245.003 36.3817H238.174V41.375H245.003H251.833V36.3817H245.003ZM245.003 41.375V34.5457H220.783V41.375V48.2043H245.003V41.375ZM220.783 41.375H227.613V8.14833H220.783H213.954V41.375H220.783ZM220.783 8.14833V14.9776H244.723V8.14833V1.31906H220.783V8.14833ZM271.551 41.375V48.2043C275.323 48.2043 278.381 45.1467 278.381 41.375H271.551ZM265.718 41.375H258.889C258.889 45.1467 261.946 48.2043 265.718 48.2043V41.375ZM265.718 13.1883H272.547C272.547 9.41663 269.49 6.35906 265.718 6.35906V13.1883ZM255.451 13.1883V6.35906C251.781 6.35906 248.768 9.25945 248.627 12.9266L255.451 13.1883ZM254.845 29.0083L261.668 29.2966C261.668 29.2878 261.669 29.2789 261.669 29.27L254.845 29.0083ZM252.138 38.8083L246.713 34.6599C246.7 34.6768 246.687 34.6938 246.675 34.7108L252.138 38.8083ZM242.431 41.375H235.602C235.602 44.3145 237.483 46.9243 240.272 47.8538L242.431 41.375ZM242.431 36.895L244.968 30.5542C242.864 29.7126 240.479 29.9695 238.603 31.2399C236.726 32.5104 235.602 34.6289 235.602 36.895H242.431ZM246.911 36.615L242.718 31.2243L246.911 36.615ZM248.405 33.7217L254.961 35.6339C254.964 35.6219 254.968 35.6098 254.971 35.5978L248.405 33.7217ZM249.198 27.4217L256.023 27.6597L256.023 27.653L249.198 27.4217ZM249.851 8.14833V1.31906C246.17 1.31906 243.151 4.23743 243.026 7.91696L249.851 8.14833ZM271.551 8.14833H278.381C278.381 4.37663 275.323 1.31906 271.551 1.31906V8.14833ZM271.551 41.375V34.5457H265.718V41.375V48.2043H271.551V41.375ZM265.718 41.375H272.547V13.1883H265.718H258.889V41.375H265.718ZM265.718 13.1883V6.35906H255.451V13.1883V20.0176H265.718V13.1883ZM255.451 13.1883L248.627 12.9266L248.02 28.7466L254.845 29.0083L261.669 29.27L262.276 13.45L255.451 13.1883ZM254.845 29.0083L248.021 28.72C247.859 32.5742 247.084 34.1753 246.713 34.6599L252.138 38.8083L257.563 42.9568C260.428 39.2102 261.457 34.278 261.668 29.2966L254.845 29.0083ZM252.138 38.8083L246.675 34.7108C246.542 34.8878 246.44 34.9878 246.381 35.0395C246.323 35.0893 246.293 35.1049 246.287 35.1077C246.283 35.1102 246.268 35.1175 246.23 35.1263C246.189 35.1357 246.095 35.1524 245.931 35.1524V41.9817V48.8109C250.723 48.8109 254.78 46.6673 257.601 42.9059L252.138 38.8083ZM245.931 41.9817V35.1524C245.641 35.1524 245.205 35.1009 244.591 34.8962L242.431 41.375L240.272 47.8538C242.084 48.458 243.981 48.8109 245.931 48.8109V41.9817ZM242.431 41.375H249.261V36.895H242.431H235.602V41.375H242.431ZM242.431 36.895L239.895 43.2358C241.55 43.898 243.23 44.0976 244.718 44.0976V37.2683V30.4391C244.576 30.4391 244.533 30.4289 244.57 30.435C244.608 30.4412 244.752 30.4681 244.968 30.5542L242.431 36.895ZM244.718 37.2683V44.0976C246.72 44.0976 249.052 43.6015 251.104 42.0057L246.911 36.615L242.718 31.2243C243.65 30.4996 244.52 30.4391 244.718 30.4391V37.2683ZM246.911 36.615L251.104 42.0057C252.469 40.944 253.288 39.6379 253.773 38.6972C254.289 37.6975 254.668 36.6374 254.961 35.6339L248.405 33.7217L241.848 31.8095C241.706 32.2993 241.618 32.468 241.636 32.4328C241.65 32.4061 241.721 32.2698 241.871 32.0723C242.018 31.8773 242.29 31.5577 242.718 31.2243L246.911 36.615ZM248.405 33.7217L254.971 35.5978C255.628 33.299 255.922 30.566 256.023 27.6597L249.198 27.4217L242.373 27.1836C242.288 29.6285 242.052 31.0954 241.838 31.8455L248.405 33.7217ZM249.198 27.4217L256.023 27.653L256.677 8.3797L249.851 8.14833L243.026 7.91696L242.373 27.1903L249.198 27.4217ZM249.851 8.14833V14.9776H271.551V8.14833V1.31906H249.851V8.14833ZM271.551 8.14833H264.722V41.375H271.551H278.381V8.14833H271.551ZM299.509 12.2083L294.443 16.7876C294.458 16.8046 294.474 16.8216 294.489 16.8385L299.509 12.2083ZM299.509 37.3617L304.529 41.9918C304.537 41.9837 304.544 41.9757 304.552 41.9676L299.509 37.3617ZM276.409 37.3617L271.365 41.9653C271.373 41.9741 271.381 41.983 271.389 41.9918L276.409 37.3617ZM276.316 12.3017L271.182 7.7977L271.179 7.8011L276.316 12.3017ZM280.656 15.6617L285.938 19.9902C285.948 19.9783 285.958 19.9664 285.967 19.9544L280.656 15.6617ZM280.609 33.8617L275.262 38.11C275.274 38.1249 275.286 38.1397 275.298 38.1544L280.609 33.8617ZM295.309 33.8617L289.97 29.6043L289.962 29.6133L295.309 33.8617ZM295.309 15.6617L289.962 19.91C289.984 19.9369 290.005 19.9636 290.027 19.9902L295.309 15.6617ZM288.076 7.35499V14.1843C291.01 14.1843 292.921 15.1042 294.443 16.7876L299.509 12.2083L304.576 7.62904C300.248 2.84132 294.537 0.525726 288.076 0.525726V7.35499ZM299.509 12.2083L294.489 16.8385C296.072 18.5544 297.113 20.9767 297.113 24.7617H303.943H310.772C310.772 18.2178 308.858 12.2712 304.529 7.5782L299.509 12.2083ZM303.943 24.7617H297.113C297.113 28.5446 296.072 30.9984 294.467 32.7557L299.509 37.3617L304.552 41.9676C308.857 37.2538 310.772 31.3076 310.772 24.7617H303.943ZM299.509 37.3617L294.489 32.7315C292.944 34.4067 290.985 35.3391 287.983 35.3391V42.1683V48.9976C294.438 48.9976 300.163 46.7255 304.529 41.9918L299.509 37.3617ZM287.983 42.1683V35.3391C284.934 35.3391 282.965 34.3967 281.429 32.7315L276.409 37.3617L271.389 41.9918C275.765 46.7356 281.511 48.9976 287.983 48.9976V42.1683ZM276.409 37.3617L281.454 32.7581C279.897 31.0519 278.852 28.6093 278.852 24.7617H272.023H265.193C265.193 31.3051 267.073 37.2626 271.365 41.9653L276.409 37.3617ZM272.023 24.7617H278.852C278.852 21.0958 279.854 18.6268 281.453 16.8022L276.316 12.3017L271.179 7.8011C267.054 12.5098 265.193 18.3476 265.193 24.7617H272.023ZM276.316 12.3017L281.45 16.8056C282.873 15.1836 284.816 14.1843 288.076 14.1843V7.35499V0.525726C281.443 0.525726 275.546 2.82413 271.182 7.7977L276.316 12.3017ZM287.983 12.255V5.42573C282.976 5.42573 278.541 7.41359 275.345 11.3689L280.656 15.6617L285.967 19.9544C286.442 19.3675 286.891 19.0843 287.983 19.0843V12.255ZM280.656 15.6617L275.374 11.3331C272.271 15.1193 271.073 19.8051 271.073 24.6683H277.903H284.732C284.732 22.0027 285.37 20.684 285.938 19.9902L280.656 15.6617ZM277.903 24.6683H271.073C271.073 29.5594 272.223 34.2846 275.262 38.11L280.609 33.8617L285.956 29.6133C285.387 28.8965 284.732 27.4928 284.732 24.6683H277.903ZM280.609 33.8617L275.298 38.1544C278.539 42.1645 283.051 44.0976 288.076 44.0976V37.2683V30.4391C286.817 30.4391 286.351 30.101 285.921 29.5689L280.609 33.8617ZM288.076 37.2683V44.0976C293.079 44.0976 297.497 42.0866 300.656 38.11L295.309 33.8617L289.962 29.6133C289.513 30.179 289.109 30.4391 288.076 30.4391V37.2683ZM295.309 33.8617L300.649 38.1191C303.698 34.2954 304.892 29.6048 304.892 24.715H298.063H291.233C291.233 27.4164 290.592 28.8235 289.97 29.6043L295.309 33.8617ZM298.063 24.715H304.892C304.892 19.8364 303.702 15.1287 300.592 11.3331L295.309 15.6617L290.027 19.9902C290.588 20.6747 291.233 22.0025 291.233 24.715H298.063ZM295.309 15.6617L300.656 11.4133C297.467 7.39877 292.997 5.42573 287.983 5.42573V12.255V19.0843C289.129 19.0843 289.543 19.3823 289.962 19.91L295.309 15.6617ZM304.492 8.14833V1.31906C300.72 1.31906 297.662 4.37663 297.662 8.14833H304.492ZM327.638 10.435L323.275 15.6887C323.307 15.7153 323.34 15.7417 323.372 15.7678L327.638 10.435ZM329.132 20.795L334.726 24.7113C334.742 24.6898 334.757 24.6682 334.771 24.6464L329.132 20.795ZM325.678 23.5017L323.19 17.142C320.414 18.2283 318.663 20.99 318.865 23.9644C319.067 26.9388 321.175 29.4384 324.072 30.1394L325.678 23.5017ZM330.252 26.3017L324.919 30.5679V30.5679L330.252 26.3017ZM328.992 38.6683L324.366 33.6441C324.353 33.6564 324.34 33.6687 324.326 33.6811L328.992 38.6683ZM304.492 41.375H297.662C297.662 45.1467 300.72 48.2043 304.492 48.2043V41.375ZM310.185 12.8617V6.03239C306.413 6.03239 303.356 9.08996 303.356 12.8617H310.185ZM310.185 22.0083H303.356C303.356 25.78 306.413 28.8376 310.185 28.8376V22.0083ZM323.065 20.9817L326.775 26.7153C326.814 26.69 326.853 26.6643 326.892 26.6382L323.065 20.9817ZM322.972 13.7483L319.714 19.7503C319.737 19.763 319.76 19.7756 319.784 19.788L322.972 13.7483ZM310.185 26.2083V19.3791C306.413 19.3791 303.356 22.4366 303.356 26.2083H310.185ZM310.185 36.615H303.356C303.356 40.3867 306.413 43.4443 310.185 43.4443V36.615ZM324.185 35.495L327.635 41.3888V41.3888L324.185 35.495ZM325.492 28.7283L319.383 31.7825C319.435 31.8859 319.49 31.988 319.546 32.0887L325.492 28.7283ZM323.812 27.095L320.865 33.2559C320.899 33.272 320.932 33.2877 320.966 33.3032L323.812 27.095ZM304.492 8.14833V14.9776H319.658V8.14833V1.31906H304.492V8.14833ZM319.658 8.14833V14.9776C322.263 14.9776 323.121 15.5604 323.275 15.6887L327.638 10.435L332.002 5.18131C328.485 2.26066 324.023 1.31906 319.658 1.31906V8.14833ZM327.638 10.435L323.372 15.7678C323.466 15.8431 323.508 15.8922 323.521 15.9088C323.533 15.924 323.536 15.9294 323.538 15.9335C323.54 15.9386 323.556 15.9728 323.572 16.0531C323.589 16.1359 323.609 16.2805 323.609 16.5017H330.438H337.268C337.268 12.0363 335.512 7.98855 331.905 5.10223L327.638 10.435ZM330.438 16.5017H323.609C323.609 16.7538 323.566 16.8353 323.492 16.9436L329.132 20.795L334.771 24.6464C336.44 22.2036 337.268 19.4228 337.268 16.5017H330.438ZM329.132 20.795L323.537 16.8787C323.447 17.0067 323.383 17.0664 323.19 17.142L325.678 23.5017L328.167 29.8614C330.836 28.8169 333.074 27.0722 334.726 24.7113L329.132 20.795ZM325.678 23.5017L324.072 30.1394C324.697 30.2905 324.846 30.4764 324.919 30.5679L330.252 26.3017L335.585 22.0355C333.418 19.3269 330.518 17.6461 327.284 16.8639L325.678 23.5017ZM330.252 26.3017L324.919 30.5679C324.941 30.5959 324.971 30.6374 325.005 30.743C325.042 30.8615 325.102 31.1194 325.102 31.575H331.932H338.761C338.761 28.1996 337.841 24.8555 335.585 22.0355L330.252 26.3017ZM331.932 31.575H325.102C325.102 32.7981 324.776 33.2671 324.366 33.6441L328.992 38.6683L333.617 43.6926C337.128 40.4607 338.761 36.2008 338.761 31.575H331.932ZM328.992 38.6683L324.326 33.6811C323.884 34.0952 323.139 34.5457 321.432 34.5457V41.375V48.2043C325.947 48.2043 330.242 46.8503 333.657 43.6556L328.992 38.6683ZM321.432 41.375V34.5457H304.492V41.375V48.2043H321.432V41.375ZM304.492 41.375H311.321V8.14833H304.492H297.662V41.375H304.492ZM310.185 12.8617H303.356V22.0083H310.185H317.014V12.8617H310.185ZM310.185 22.0083V28.8376H318.118V22.0083V15.1791H310.185V22.0083ZM318.118 22.0083V28.8376C320.783 28.8376 324.047 28.4806 326.775 26.7153L323.065 20.9817L319.355 15.248C319.729 15.006 319.907 15.0109 319.647 15.0649C319.4 15.1161 318.915 15.1791 318.118 15.1791V22.0083ZM323.065 20.9817L326.892 26.6382C330.365 24.2883 331.481 20.613 331.481 17.435H324.652H317.822C317.822 17.5514 317.801 17.2606 318.021 16.7695C318.269 16.2164 318.698 15.6909 319.239 15.3251L323.065 20.9817ZM324.652 17.435H331.481C331.481 14.3722 330.495 9.99707 326.159 7.70863L322.972 13.7483L319.784 19.788C318.916 19.3301 318.319 18.6079 318.017 17.9452C317.768 17.399 317.822 17.1283 317.822 17.435H324.652ZM322.972 13.7483L326.23 7.7464C323.699 6.37224 320.825 6.03239 318.305 6.03239V12.8617V19.6909C319 19.6909 319.453 19.743 319.714 19.7926C319.981 19.8433 319.934 19.8702 319.714 19.7503L322.972 13.7483ZM318.305 12.8617V6.03239H310.185V12.8617V19.6909H318.305V12.8617ZM310.185 26.2083H303.356V36.615H310.185H317.014V26.2083H310.185ZM310.185 36.615V43.4443H318.912V36.615V29.7857H310.185V36.615ZM318.912 36.615V43.4443C321.787 43.4443 324.907 42.9854 327.635 41.3888L324.185 35.495L320.735 29.6012C320.847 29.5357 320.804 29.5883 320.491 29.6547C320.176 29.7216 319.666 29.7857 318.912 29.7857V36.615ZM324.185 35.495L327.635 41.3888C331.679 39.0218 332.928 34.9204 332.928 31.435H326.098H319.269C319.269 31.7074 319.221 31.4791 319.442 31.0087C319.558 30.7641 319.731 30.4888 319.974 30.2218C320.218 29.9543 320.483 29.7487 320.735 29.6012L324.185 35.495ZM326.098 31.435H332.928C332.928 29.5384 332.579 27.3887 331.437 25.368L325.492 28.7283L319.546 32.0887C319.213 31.4991 319.269 31.1538 319.269 31.435H326.098ZM325.492 28.7283L331.6 25.6742C330.543 23.5597 328.844 21.8891 326.657 20.8868L323.812 27.095L320.966 33.3032C320.668 33.1665 320.338 32.9552 320.031 32.6565C319.725 32.3589 319.516 32.0472 319.383 31.7825L325.492 28.7283ZM323.812 27.095L326.758 20.9341C325.456 20.3111 324.08 19.8802 322.651 19.6515L321.572 26.395L320.493 33.1385C320.619 33.1586 320.737 33.1945 320.865 33.2559L323.812 27.095ZM321.572 26.395L322.651 19.6515C321.419 19.4544 320.123 19.3791 318.818 19.3791V26.2083V33.0376C319.629 33.0376 320.169 33.0867 320.493 33.1385L321.572 26.395ZM318.818 26.2083V19.3791H310.185V26.2083V33.0376H318.818V26.2083ZM356.623 8.14833H363.452C363.452 4.37663 360.395 1.31906 356.623 1.31906V8.14833ZM356.623 13.0483V19.8776C360.395 19.8776 363.452 16.82 363.452 13.0483H356.623ZM338.47 13.0483V6.21906C334.698 6.21906 331.641 9.27663 331.641 13.0483H338.47ZM338.47 21.8683H331.641C331.641 25.64 334.698 28.6976 338.47 28.6976V21.8683ZM355.316 21.8683H362.146C362.146 18.0966 359.088 15.0391 355.316 15.0391V21.8683ZM355.316 26.5817V33.4109C359.088 33.4109 362.146 30.3534 362.146 26.5817H355.316ZM338.47 26.5817V19.7524C334.698 19.7524 331.641 22.81 331.641 26.5817H338.47ZM338.47 36.3817H331.641C331.641 40.1534 334.698 43.2109 338.47 43.2109V36.3817ZM356.903 36.3817H363.732C363.732 32.61 360.675 29.5524 356.903 29.5524V36.3817ZM356.903 41.375V48.2043C360.675 48.2043 363.732 45.1467 363.732 41.375H356.903ZM332.683 41.375H325.854C325.854 45.1467 328.911 48.2043 332.683 48.2043V41.375ZM332.683 8.14833V1.31906C328.911 1.31906 325.854 4.37663 325.854 8.14833H332.683ZM356.623 8.14833H349.794V13.0483H356.623H363.452V8.14833H356.623ZM356.623 13.0483V6.21906H338.47V13.0483V19.8776H356.623V13.0483ZM338.47 13.0483H331.641V21.8683H338.47H345.299V13.0483H338.47ZM338.47 21.8683V28.6976H355.316V21.8683V15.0391H338.47V21.8683ZM355.316 21.8683H348.487V26.5817H355.316H362.146V21.8683H355.316ZM355.316 26.5817V19.7524H338.47V26.5817V33.4109H355.316V26.5817ZM338.47 26.5817H331.641V36.3817H338.47H345.299V26.5817H338.47ZM338.47 36.3817V43.2109H356.903V36.3817V29.5524H338.47V36.3817ZM356.903 36.3817H350.074V41.375H356.903H363.732V36.3817H356.903ZM356.903 41.375V34.5457H332.683V41.375V48.2043H356.903V41.375ZM332.683 41.375H339.512V8.14833H332.683H325.854V41.375H332.683ZM332.683 8.14833V14.9776H356.623V8.14833V1.31906H332.683V8.14833ZM385.271 8.14833L390.092 12.9858C392.05 11.0346 392.638 8.0953 391.583 5.54043C390.527 2.98556 388.035 1.31906 385.271 1.31906V8.14833ZM371.971 21.4017L367.15 16.5642C364.79 18.9162 364.472 22.6281 366.397 25.3477L371.971 21.4017ZM386.111 41.375V48.2043C388.664 48.2043 391.004 46.7803 392.177 44.5127C393.35 42.2452 393.16 39.5127 391.685 37.429L386.111 41.375ZM378.878 41.375L373.247 45.2391C374.52 47.0951 376.627 48.2043 378.878 48.2043V41.375ZM367.958 25.4617L373.589 21.5976C372.44 19.9238 370.606 18.8477 368.585 18.6613C366.564 18.4748 364.564 19.1972 363.129 20.6326L367.958 25.4617ZM363.198 30.2217L358.369 25.3926C357.088 26.6734 356.368 28.4104 356.368 30.2217H363.198ZM363.198 41.375V48.2043C366.969 48.2043 370.027 45.1467 370.027 41.375H363.198ZM357.411 41.375H350.582C350.582 45.1467 353.639 48.2043 357.411 48.2043V41.375ZM357.411 8.14833V1.31906C353.639 1.31906 350.582 4.37663 350.582 8.14833H357.411ZM363.198 8.14833H370.027C370.027 4.37663 366.969 1.31906 363.198 1.31906V8.14833ZM363.198 23.2217H356.368C356.368 25.9994 358.051 28.5004 360.624 29.5473C363.197 30.5942 366.147 29.9784 368.087 27.9898L363.198 23.2217ZM377.898 8.14833V1.31906C376.057 1.31906 374.294 2.06228 373.008 3.38023L377.898 8.14833ZM385.271 8.14833L380.45 3.31083L367.15 16.5642L371.971 21.4017L376.792 26.2392L390.092 12.9858L385.271 8.14833ZM371.971 21.4017L366.397 25.3477L380.537 45.321L386.111 41.375L391.685 37.429L377.545 17.4557L371.971 21.4017ZM386.111 41.375V34.5457H378.878V41.375V48.2043H386.111V41.375ZM378.878 41.375L384.509 37.5109L373.589 21.5976L367.958 25.4617L362.327 29.3257L373.247 45.2391L378.878 41.375ZM367.958 25.4617L363.129 20.6326L358.369 25.3926L363.198 30.2217L368.027 35.0507L372.787 30.2907L367.958 25.4617ZM363.198 30.2217H356.368V41.375H363.198H370.027V30.2217H363.198ZM363.198 41.375V34.5457H357.411V41.375V48.2043H363.198V41.375ZM357.411 41.375H364.24V8.14833H357.411H350.582V41.375H357.411ZM357.411 8.14833V14.9776H363.198V8.14833V1.31906H357.411V8.14833ZM363.198 8.14833H356.368V23.2217H363.198H370.027V8.14833H363.198ZM363.198 23.2217L368.087 27.9898L382.787 12.9164L377.898 8.14833L373.008 3.38023L358.308 18.4536L363.198 23.2217ZM377.898 8.14833V14.9776H385.271V8.14833V1.31906H377.898V8.14833Z" fill="#CFF665" mask="url(#path-1-outside-1_3143_8141)"/>
</svg>
