<svg width="313" height="49" viewBox="0 0 313 49" fill="none" xmlns="http://www.w3.org/2000/svg">
<mask id="path-1-outside-1_3189_1814" maskUnits="userSpaceOnUse" x="-0.148438" y="0.375" width="314" height="49" fill="black">
<rect fill="white" x="-0.148438" y="0.375" width="314" height="49"/>
<path d="M31.3203 31.6683L7.19368 41.0483V36.0083L25.3003 29.335L7.19368 22.6617V17.715L31.3203 27.0017V31.6683ZM51.9288 36.6617V41.375H29.6221C29.6532 39.9128 29.8554 38.575 30.2288 37.3617C30.6021 36.1483 31.0221 35.1217 31.4888 34.2817C31.9866 33.4106 32.7021 32.5394 33.6354 31.6683C34.5999 30.7661 35.4554 30.035 36.2021 29.475C36.9799 28.8839 38.0377 28.1372 39.3755 27.235C39.4688 27.1728 39.9199 26.8772 40.7288 26.3483C41.5688 25.7883 42.0821 25.4461 42.2688 25.3217C42.4555 25.1661 42.8755 24.8394 43.5288 24.3417C44.1821 23.8128 44.6021 23.3928 44.7888 23.0817C45.0066 22.7706 45.2866 22.3506 45.6288 21.8217C46.0021 21.2928 46.251 20.7639 46.3755 20.235C46.4999 19.675 46.5621 19.0839 46.5621 18.4617C46.5621 16.7506 46.0799 15.4128 45.1155 14.4483C44.1821 13.4528 42.9066 12.955 41.2888 12.955C40.3555 12.955 39.5466 13.1106 38.8621 13.4217C38.1777 13.7017 37.6332 14.075 37.2288 14.5417C36.8555 15.0083 36.5443 15.615 36.2955 16.3617C36.0466 17.0772 35.8755 17.7617 35.7821 18.415C35.7199 19.0683 35.6732 19.8306 35.6421 20.7017H30.4621V19.8617C30.4621 16.3461 31.4421 13.5617 33.4021 11.5083C35.3932 9.42388 38.0688 8.38166 41.4288 8.38166C44.6021 8.38166 47.1532 9.28388 49.0821 11.0883C51.011 12.8617 51.9755 15.2261 51.9755 18.1817C51.9755 19.3639 51.7888 20.4839 51.4155 21.5417C51.0421 22.5994 50.6377 23.455 50.2021 24.1083C49.7977 24.7617 49.0821 25.5239 48.0555 26.395C47.0288 27.2661 46.2666 27.8728 45.7688 28.215C45.271 28.5572 44.3532 29.1794 43.0155 30.0817C39.1266 32.6017 36.7932 34.795 36.0155 36.6617H51.9288ZM59.4731 35.075V41.375H53.1264V35.075H59.4731ZM80.3947 8.89499V13.515H67.3747L65.8814 21.915C67.3436 20.3594 69.397 19.5817 72.0414 19.5817C75.0592 19.5817 77.5014 20.5617 79.3681 22.5217C81.2347 24.4817 82.1681 27.0639 82.1681 30.2683C82.1681 33.7217 81.0792 36.5372 78.9014 38.715C76.7236 40.8928 73.9236 41.9817 70.5014 41.9817C67.2658 41.9817 64.637 41.095 62.6147 39.3217C60.6236 37.5172 59.5658 35.1061 59.4414 32.0883H64.7147C64.8392 33.7683 65.4458 35.1061 66.5347 36.1017C67.6236 37.0972 68.9925 37.595 70.6414 37.595C72.5703 37.595 74.0636 36.9883 75.1214 35.775C76.1792 34.5306 76.7081 32.7883 76.7081 30.5483C76.7081 28.3706 76.1636 26.6906 75.0747 25.5083C73.9858 24.295 72.477 23.6883 70.5481 23.6883C68.2147 23.6883 66.3947 24.6683 65.0881 26.6283L60.4214 26.4883L63.5481 8.89499H80.3947ZM117.432 8.14833V41.375H111.879V15.755L102.639 41.375H97.8791L88.4057 15.755V41.375H82.899V8.14833H91.0657L100.352 34.1417L109.312 8.14833H117.432ZM127.824 41.375V31.575H118.164V27.1417H127.824V17.3417H132.584V27.1417H142.29V31.575H132.584V41.375H127.824ZM151.434 8.14833H165.854C169.432 8.14833 172.247 9.00388 174.3 10.715C176.385 12.395 177.427 14.915 177.427 18.275C177.427 21.4483 176.463 23.9683 174.534 25.835C172.605 27.6706 169.976 28.5883 166.647 28.5883H157.267V41.375H151.434V8.14833ZM157.267 13.0017V23.875H165.387C169.618 23.875 171.734 22.055 171.734 18.415C171.734 14.8061 169.447 13.0017 164.874 13.0017H157.267ZM201.693 8.14833V13.0483H183.54V21.8683H200.387V26.5817H183.54V36.3817H201.973V41.375H177.753V8.14833H201.693ZM216.855 7.35499C221.552 7.35499 225.364 8.97277 228.288 12.2083C231.244 15.4128 232.721 19.5972 232.721 24.7617C232.721 29.9261 231.244 34.1261 228.288 37.3617C225.332 40.5661 221.49 42.1683 216.761 42.1683C212.001 42.1683 208.144 40.5661 205.188 37.3617C202.264 34.1572 200.801 29.9572 200.801 24.7617C200.801 19.7217 202.232 15.5683 205.095 12.3017C207.988 9.00388 211.908 7.35499 216.855 7.35499ZM216.761 12.255C213.712 12.255 211.27 13.3906 209.435 15.6617C207.599 17.9017 206.681 20.9039 206.681 24.6683C206.681 28.5261 207.584 31.5906 209.388 33.8617C211.224 36.1328 213.712 37.2683 216.855 37.2683C219.872 37.2683 222.284 36.1328 224.088 33.8617C225.924 31.5594 226.841 28.5106 226.841 24.715C226.841 20.9194 225.924 17.9017 224.088 15.6617C222.284 13.3906 219.841 12.255 216.761 12.255ZM233.41 8.14833H247.83C251.408 8.14833 254.224 9.00388 256.277 10.715C258.361 12.395 259.404 14.915 259.404 18.275C259.404 21.4483 258.439 23.9683 256.51 25.835C254.581 27.6706 251.953 28.5883 248.624 28.5883H239.244V41.375H233.41V8.14833ZM239.244 13.0017V23.875H247.364C251.595 23.875 253.71 22.055 253.71 18.415C253.71 14.8061 251.424 13.0017 246.85 13.0017H239.244ZM282.503 36.335V41.375H259.73V8.14833H265.61V36.335H282.503ZM305.8 8.14833V13.0483H287.647V21.8683H304.494V26.5817H287.647V36.3817H306.08V41.375H281.86V8.14833H305.8Z"/>
</mask>
<path d="M31.3203 31.6683L7.19368 41.0483V36.0083L25.3003 29.335L7.19368 22.6617V17.715L31.3203 27.0017V31.6683ZM51.9288 36.6617V41.375H29.6221C29.6532 39.9128 29.8554 38.575 30.2288 37.3617C30.6021 36.1483 31.0221 35.1217 31.4888 34.2817C31.9866 33.4106 32.7021 32.5394 33.6354 31.6683C34.5999 30.7661 35.4554 30.035 36.2021 29.475C36.9799 28.8839 38.0377 28.1372 39.3755 27.235C39.4688 27.1728 39.9199 26.8772 40.7288 26.3483C41.5688 25.7883 42.0821 25.4461 42.2688 25.3217C42.4555 25.1661 42.8755 24.8394 43.5288 24.3417C44.1821 23.8128 44.6021 23.3928 44.7888 23.0817C45.0066 22.7706 45.2866 22.3506 45.6288 21.8217C46.0021 21.2928 46.251 20.7639 46.3755 20.235C46.4999 19.675 46.5621 19.0839 46.5621 18.4617C46.5621 16.7506 46.0799 15.4128 45.1155 14.4483C44.1821 13.4528 42.9066 12.955 41.2888 12.955C40.3555 12.955 39.5466 13.1106 38.8621 13.4217C38.1777 13.7017 37.6332 14.075 37.2288 14.5417C36.8555 15.0083 36.5443 15.615 36.2955 16.3617C36.0466 17.0772 35.8755 17.7617 35.7821 18.415C35.7199 19.0683 35.6732 19.8306 35.6421 20.7017H30.4621V19.8617C30.4621 16.3461 31.4421 13.5617 33.4021 11.5083C35.3932 9.42388 38.0688 8.38166 41.4288 8.38166C44.6021 8.38166 47.1532 9.28388 49.0821 11.0883C51.011 12.8617 51.9755 15.2261 51.9755 18.1817C51.9755 19.3639 51.7888 20.4839 51.4155 21.5417C51.0421 22.5994 50.6377 23.455 50.2021 24.1083C49.7977 24.7617 49.0821 25.5239 48.0555 26.395C47.0288 27.2661 46.2666 27.8728 45.7688 28.215C45.271 28.5572 44.3532 29.1794 43.0155 30.0817C39.1266 32.6017 36.7932 34.795 36.0155 36.6617H51.9288ZM59.4731 35.075V41.375H53.1264V35.075H59.4731ZM80.3947 8.89499V13.515H67.3747L65.8814 21.915C67.3436 20.3594 69.397 19.5817 72.0414 19.5817C75.0592 19.5817 77.5014 20.5617 79.3681 22.5217C81.2347 24.4817 82.1681 27.0639 82.1681 30.2683C82.1681 33.7217 81.0792 36.5372 78.9014 38.715C76.7236 40.8928 73.9236 41.9817 70.5014 41.9817C67.2658 41.9817 64.637 41.095 62.6147 39.3217C60.6236 37.5172 59.5658 35.1061 59.4414 32.0883H64.7147C64.8392 33.7683 65.4458 35.1061 66.5347 36.1017C67.6236 37.0972 68.9925 37.595 70.6414 37.595C72.5703 37.595 74.0636 36.9883 75.1214 35.775C76.1792 34.5306 76.7081 32.7883 76.7081 30.5483C76.7081 28.3706 76.1636 26.6906 75.0747 25.5083C73.9858 24.295 72.477 23.6883 70.5481 23.6883C68.2147 23.6883 66.3947 24.6683 65.0881 26.6283L60.4214 26.4883L63.5481 8.89499H80.3947ZM117.432 8.14833V41.375H111.879V15.755L102.639 41.375H97.8791L88.4057 15.755V41.375H82.899V8.14833H91.0657L100.352 34.1417L109.312 8.14833H117.432ZM127.824 41.375V31.575H118.164V27.1417H127.824V17.3417H132.584V27.1417H142.29V31.575H132.584V41.375H127.824ZM151.434 8.14833H165.854C169.432 8.14833 172.247 9.00388 174.3 10.715C176.385 12.395 177.427 14.915 177.427 18.275C177.427 21.4483 176.463 23.9683 174.534 25.835C172.605 27.6706 169.976 28.5883 166.647 28.5883H157.267V41.375H151.434V8.14833ZM157.267 13.0017V23.875H165.387C169.618 23.875 171.734 22.055 171.734 18.415C171.734 14.8061 169.447 13.0017 164.874 13.0017H157.267ZM201.693 8.14833V13.0483H183.54V21.8683H200.387V26.5817H183.54V36.3817H201.973V41.375H177.753V8.14833H201.693ZM216.855 7.35499C221.552 7.35499 225.364 8.97277 228.288 12.2083C231.244 15.4128 232.721 19.5972 232.721 24.7617C232.721 29.9261 231.244 34.1261 228.288 37.3617C225.332 40.5661 221.49 42.1683 216.761 42.1683C212.001 42.1683 208.144 40.5661 205.188 37.3617C202.264 34.1572 200.801 29.9572 200.801 24.7617C200.801 19.7217 202.232 15.5683 205.095 12.3017C207.988 9.00388 211.908 7.35499 216.855 7.35499ZM216.761 12.255C213.712 12.255 211.27 13.3906 209.435 15.6617C207.599 17.9017 206.681 20.9039 206.681 24.6683C206.681 28.5261 207.584 31.5906 209.388 33.8617C211.224 36.1328 213.712 37.2683 216.855 37.2683C219.872 37.2683 222.284 36.1328 224.088 33.8617C225.924 31.5594 226.841 28.5106 226.841 24.715C226.841 20.9194 225.924 17.9017 224.088 15.6617C222.284 13.3906 219.841 12.255 216.761 12.255ZM233.41 8.14833H247.83C251.408 8.14833 254.224 9.00388 256.277 10.715C258.361 12.395 259.404 14.915 259.404 18.275C259.404 21.4483 258.439 23.9683 256.51 25.835C254.581 27.6706 251.953 28.5883 248.624 28.5883H239.244V41.375H233.41V8.14833ZM239.244 13.0017V23.875H247.364C251.595 23.875 253.71 22.055 253.71 18.415C253.71 14.8061 251.424 13.0017 246.85 13.0017H239.244ZM282.503 36.335V41.375H259.73V8.14833H265.61V36.335H282.503ZM305.8 8.14833V13.0483H287.647V21.8683H304.494V26.5817H287.647V36.3817H306.08V41.375H281.86V8.14833H305.8Z" fill="#8F8F8F"/>
<path d="M31.3203 31.6683L33.795 38.0335C36.4203 37.0128 38.1496 34.485 38.1496 31.6683H31.3203ZM7.19368 41.0483H0.36441C0.36441 43.3027 1.47696 45.4119 3.33759 46.6848C5.19821 47.9577 7.56715 48.2304 9.66833 47.4135L7.19368 41.0483ZM7.19368 36.0083L4.832 29.6004C2.14761 30.5898 0.36441 33.1474 0.36441 36.0083H7.19368ZM25.3003 29.335L27.662 35.7429C30.3464 34.7536 32.1296 32.1959 32.1296 29.335C32.1296 26.4741 30.3464 23.9164 27.662 22.9271L25.3003 29.335ZM7.19368 22.6617H0.36441C0.36441 25.5226 2.14761 28.0802 4.832 29.0696L7.19368 22.6617ZM7.19368 17.715L9.64689 11.3416C7.54678 10.5332 5.18324 10.8113 3.32811 12.0851C1.47298 13.3588 0.36441 15.4647 0.36441 17.715H7.19368ZM31.3203 27.0017H38.1496C38.1496 24.1766 36.4101 21.6431 33.7736 20.6282L31.3203 27.0017ZM31.3203 31.6683L28.8457 25.3032L4.71903 34.6832L7.19368 41.0483L9.66833 47.4135L33.795 38.0335L31.3203 31.6683ZM7.19368 41.0483H14.0229V36.0083H7.19368H0.36441V41.0483H7.19368ZM7.19368 36.0083L9.55536 42.4162L27.662 35.7429L25.3003 29.335L22.9387 22.9271L4.832 29.6004L7.19368 36.0083ZM25.3003 29.335L27.662 22.9271L9.55536 16.2537L7.19368 22.6617L4.832 29.0696L22.9387 35.7429L25.3003 29.335ZM7.19368 22.6617H14.0229V17.715H7.19368H0.36441V22.6617H7.19368ZM7.19368 17.715L4.74046 24.0884L28.8671 33.3751L31.3203 27.0017L33.7736 20.6282L9.64689 11.3416L7.19368 17.715ZM31.3203 27.0017H24.4911V31.6683H31.3203H38.1496V27.0017H31.3203ZM51.9288 36.6617H58.7581C58.7581 32.89 55.7005 29.8324 51.9288 29.8324V36.6617ZM51.9288 41.375V48.2043C55.7005 48.2043 58.7581 45.1467 58.7581 41.375H51.9288ZM29.6221 41.375L22.7944 41.2297C22.7553 43.0657 23.4573 44.8401 24.742 46.1524C26.0267 47.4647 27.7857 48.2043 29.6221 48.2043V41.375ZM30.2288 37.3617L36.7561 39.3701L30.2288 37.3617ZM31.4888 34.2817L25.5593 30.8934C25.5457 30.9172 25.5322 30.9411 25.5189 30.9651L31.4888 34.2817ZM33.6354 31.6683L38.2952 36.6609L38.3009 36.6556L33.6354 31.6683ZM36.2021 29.475L40.2997 34.9384C40.3113 34.9297 40.3228 34.921 40.3344 34.9122L36.2021 29.475ZM39.3755 27.235L35.5873 21.5527C35.5771 21.5595 35.567 21.5662 35.5569 21.573L39.3755 27.235ZM40.7288 26.3483L44.4661 32.0642C44.4831 32.0531 44.5001 32.0419 44.517 32.0306L40.7288 26.3483ZM42.2688 25.3217L46.057 31.004C46.2592 30.8691 46.4541 30.7236 46.6408 30.5681L42.2688 25.3217ZM43.5288 24.3417L47.6676 29.7739C47.7209 29.7333 47.7737 29.6919 47.8258 29.6497L43.5288 24.3417ZM44.7888 23.0817L39.194 19.1653C39.1022 19.2965 39.0151 19.4308 38.9327 19.568L44.7888 23.0817ZM45.6288 21.8217L40.0495 17.8833C39.9965 17.9584 39.945 18.0345 39.8951 18.1117L45.6288 21.8217ZM46.3755 20.235L53.0232 21.7992C53.0297 21.7716 53.036 21.7441 53.0421 21.7165L46.3755 20.235ZM45.1155 14.4483L40.1332 19.1191C40.1835 19.1727 40.2345 19.2254 40.2864 19.2773L45.1155 14.4483ZM38.8621 13.4217L41.4479 19.7425C41.5286 19.7094 41.6087 19.6749 41.6881 19.6388L38.8621 13.4217ZM37.2288 14.5417L32.068 10.069C32.0093 10.1367 31.952 10.2055 31.896 10.2755L37.2288 14.5417ZM36.2955 16.3617L42.7457 18.6052C42.7554 18.5773 42.7649 18.5493 42.7743 18.5213L36.2955 16.3617ZM35.7821 18.415L29.0215 17.4492C29.0064 17.555 28.9937 17.6611 28.9836 17.7675L35.7821 18.415ZM35.6421 20.7017V27.5309C39.319 27.5309 42.3358 24.6199 42.467 20.9454L35.6421 20.7017ZM30.4621 20.7017H23.6328C23.6328 24.4734 26.6904 27.5309 30.4621 27.5309V20.7017ZM33.4021 11.5083L28.4638 6.79113L28.4621 6.79289L33.4021 11.5083ZM49.0821 11.0883L44.4167 16.0755C44.4311 16.089 44.4455 16.1025 44.4601 16.1158L49.0821 11.0883ZM51.4155 21.5417L44.9755 19.2687V19.2687L51.4155 21.5417ZM50.2021 24.1083L44.5198 20.3201C44.4773 20.384 44.4358 20.4485 44.3954 20.5137L50.2021 24.1083ZM48.0555 26.395L43.6371 21.1876V21.1876L48.0555 26.395ZM45.7688 28.215L49.6378 33.8426L49.6378 33.8426L45.7688 28.215ZM43.0154 30.0817L46.7293 35.8129C46.7644 35.7901 46.7993 35.767 46.834 35.7436L43.0154 30.0817ZM36.0154 36.6617L29.7115 34.035C28.8333 36.1428 29.0666 38.55 30.3332 40.4499C31.5998 42.3498 33.7321 43.4909 36.0154 43.4909V36.6617ZM51.9288 36.6617H45.0995V41.375H51.9288H58.7581V36.6617H51.9288ZM51.9288 41.375V34.5457H29.6221V41.375V48.2043H51.9288V41.375ZM29.6221 41.375L36.4498 41.5203C36.4695 40.5962 36.5943 39.8957 36.7561 39.3701L30.2288 37.3617L23.7015 35.3533C23.1166 37.2543 22.837 39.2294 22.7944 41.2297L29.6221 41.375ZM30.2288 37.3617L36.7561 39.3701C37.0313 38.4755 37.2827 37.9149 37.4586 37.5983L31.4888 34.2817L25.5189 30.9651C24.7615 32.3284 24.1729 33.8211 23.7015 35.3533L30.2288 37.3617ZM31.4888 34.2817L37.4182 37.6699C37.4977 37.5308 37.7336 37.185 38.2952 36.6609L33.6354 31.6683L28.9757 26.6758C27.6706 27.8939 26.4754 29.2903 25.5593 30.8934L31.4888 34.2817ZM33.6354 31.6683L38.3009 36.6556C39.1523 35.8591 39.8131 35.3034 40.2997 34.9384L36.2021 29.475L32.1046 24.0116C31.0978 24.7666 30.0474 25.6732 28.97 26.6811L33.6354 31.6683ZM36.2021 29.475L40.3344 34.9122C40.9655 34.4325 41.904 33.767 43.194 32.897L39.3755 27.235L35.5569 21.573C34.1714 22.5075 32.9943 23.3352 32.0698 24.0378L36.2021 29.475ZM39.3755 27.235L43.1636 32.9173C43.1609 32.9191 43.1669 32.9151 43.1874 32.9016C43.2059 32.8894 43.2308 32.873 43.263 32.8518C43.3273 32.8096 43.4148 32.7522 43.5264 32.6791C43.7493 32.533 44.0623 32.3283 44.4661 32.0642L40.7288 26.3483L36.9915 20.6324C36.2032 21.1479 35.7137 21.4684 35.5873 21.5527L39.3755 27.235ZM40.7288 26.3483L44.517 32.0306C45.357 31.4706 45.8703 31.1284 46.057 31.004L42.2688 25.3217L38.4806 19.6394C38.2939 19.7638 37.7806 20.106 36.9406 20.666L40.7288 26.3483ZM42.2688 25.3217L46.6408 30.5681C46.6394 30.5692 46.7135 30.5086 46.9165 30.3507C47.1018 30.2066 47.3505 30.0155 47.6676 29.7739L43.5288 24.3417L39.39 18.9094C38.7669 19.3842 38.2203 19.8057 37.8968 20.0753L42.2688 25.3217ZM43.5288 24.3417L47.8258 29.6497C48.4969 29.1064 49.7804 28.036 50.6448 26.5953L44.7888 23.0817L38.9327 19.568C39.1092 19.2739 39.2675 19.0733 39.3495 18.9744C39.4369 18.8691 39.4956 18.8102 39.5048 18.801C39.5168 18.7889 39.4423 18.8632 39.2318 19.0337L43.5288 24.3417ZM44.7888 23.0817L50.3835 26.998C50.6695 26.5895 51.0003 26.0914 51.3624 25.5317L45.6288 21.8217L39.8951 18.1117C39.5729 18.6097 39.3436 18.9516 39.194 19.1653L44.7888 23.0817ZM45.6288 21.8217L51.2081 25.76C51.9918 24.6497 52.6637 23.3271 53.0232 21.7992L46.3755 20.235L39.7277 18.6708C39.8384 18.2006 40.0124 17.9358 40.0495 17.8833L45.6288 21.8217ZM46.3755 20.235L53.0421 21.7165C53.2833 20.631 53.3914 19.5405 53.3914 18.4617H46.5621H39.7328C39.7328 18.6273 39.7165 18.719 39.7088 18.7535L46.3755 20.235ZM46.5621 18.4617H53.3914C53.3914 15.4257 52.4968 12.1717 49.9445 9.61931L45.1155 14.4483L40.2864 19.2773C40.028 19.019 39.8604 18.7255 39.7758 18.4908C39.701 18.2833 39.7328 18.2398 39.7328 18.4617H46.5621ZM45.1155 14.4483L50.0977 9.77751C47.6344 7.15009 44.4141 6.12573 41.2888 6.12573V12.955V19.7843C41.3994 19.7843 41.2591 19.8008 40.9761 19.6903C40.6683 19.5702 40.3656 19.367 40.1332 19.1191L45.1155 14.4483ZM41.2888 12.955V6.12573C39.6096 6.12573 37.7953 6.40493 36.0361 7.20452L38.8621 13.4217L41.6881 19.6388C41.2979 19.8162 41.1013 19.7843 41.2888 19.7843V12.955ZM38.8621 13.4217L36.2763 7.10085C34.7946 7.70703 33.2995 8.64801 32.068 10.069L37.2288 14.5417L42.3896 19.0144C41.967 19.502 41.5608 19.6963 41.4479 19.7425L38.8621 13.4217ZM37.2288 14.5417L31.896 10.2755C30.8881 11.5354 30.2441 12.9198 29.8166 14.2021L36.2955 16.3617L42.7743 18.5213C42.8055 18.4276 42.8167 18.4153 42.7923 18.463C42.7676 18.5111 42.6975 18.638 42.5616 18.8079L37.2288 14.5417ZM36.2955 16.3617L29.8452 14.1181C29.4727 15.1891 29.1853 16.3027 29.0215 17.4492L35.7821 18.415L42.5427 19.3808C42.5656 19.2206 42.6204 18.9654 42.7457 18.6052L36.2955 16.3617ZM35.7821 18.415L28.9836 17.7675C28.9052 18.5904 28.8517 19.4927 28.8172 20.4579L35.6421 20.7017L42.467 20.9454C42.4948 20.1684 42.5345 19.5463 42.5806 19.0625L35.7821 18.415ZM35.6421 20.7017V13.8724H30.4621V20.7017V27.5309H35.6421V20.7017ZM30.4621 20.7017H37.2914V19.8617H30.4621H23.6328V20.7017H30.4621ZM30.4621 19.8617H37.2914C37.2914 17.6618 37.8682 16.7202 38.3421 16.2238L33.4021 11.5083L28.4621 6.79289C25.016 10.4031 23.6328 15.0304 23.6328 19.8617H30.4621ZM33.4021 11.5083L38.3404 16.2255C38.8279 15.7152 39.5981 15.2109 41.4288 15.2109V8.38166V1.55239C36.5394 1.55239 31.9585 3.13259 28.4638 6.79113L33.4021 11.5083ZM41.4288 8.38166V15.2109C43.2392 15.2109 43.9993 15.6851 44.4167 16.0755L49.0821 11.0883L53.7476 6.10111C50.3072 2.88269 45.9651 1.55239 41.4288 1.55239V8.38166ZM49.0821 11.0883L44.4601 16.1158C44.7948 16.4236 45.1462 16.8665 45.1462 18.1817H51.9755H58.8047C58.8047 13.5857 57.2272 9.29975 53.7042 6.06084L49.0821 11.0883ZM51.9755 18.1817H45.1462C45.1462 18.6317 45.0775 18.9797 44.9755 19.2687L51.4155 21.5417L57.8554 23.8146C58.5 21.988 58.8047 20.096 58.8047 18.1817H51.9755ZM51.4155 21.5417L44.9755 19.2687C44.8526 19.6169 44.7444 19.8751 44.658 20.058C44.5704 20.2432 44.5197 20.3203 44.5198 20.3201L50.2021 24.1083L55.8844 27.8965C56.7368 26.618 57.3667 25.1993 57.8554 23.8146L51.4155 21.5417ZM50.2021 24.1083L44.3954 20.5137C44.5005 20.344 44.5328 20.3363 44.3831 20.4958C44.2437 20.6442 44.0064 20.8743 43.6371 21.1876L48.0555 26.395L52.4738 31.6024C53.7006 30.5615 55.0483 29.2546 56.0088 27.7029L50.2021 24.1083ZM48.0555 26.395L43.6371 21.1876C42.6267 22.0449 42.0901 22.4566 41.8998 22.5874L45.7688 28.215L49.6378 33.8426C50.443 33.289 51.4309 32.4873 52.4738 31.6024L48.0555 26.395ZM45.7688 28.215L41.8998 22.5874C41.4306 22.91 40.5367 23.5161 39.1969 24.4197L43.0154 30.0817L46.834 35.7436C48.1698 34.8427 49.1114 34.2045 49.6378 33.8426L45.7688 28.215ZM43.0154 30.0817L39.3016 24.3505C37.1517 25.7437 35.2355 27.1704 33.6713 28.6407C32.1674 30.0544 30.6242 31.8446 29.7115 34.035L36.0154 36.6617L42.3194 39.2883C42.1845 39.6121 42.1969 39.3723 43.0262 38.5927C43.7954 37.8696 44.9903 36.9397 46.7293 35.8129L43.0154 30.0817ZM36.0154 36.6617V43.4909H51.9288V36.6617V29.8324H36.0154V36.6617ZM59.4731 35.075H66.3024C66.3024 31.3033 63.2448 28.2457 59.4731 28.2457V35.075ZM59.4731 41.375V48.2043C63.2448 48.2043 66.3024 45.1467 66.3024 41.375H59.4731ZM53.1264 41.375H46.2972C46.2972 45.1467 49.3547 48.2043 53.1264 48.2043V41.375ZM53.1264 35.075V28.2457C49.3547 28.2457 46.2972 31.3033 46.2972 35.075H53.1264ZM59.4731 35.075H52.6438V41.375H59.4731H66.3024V35.075H59.4731ZM59.4731 41.375V34.5457H53.1264V41.375V48.2043H59.4731V41.375ZM53.1264 41.375H59.9557V35.075H53.1264H46.2972V41.375H53.1264ZM53.1264 35.075V41.9043H59.4731V35.075V28.2457H53.1264V35.075ZM80.3947 8.89499H87.224C87.224 5.12329 84.1664 2.06573 80.3947 2.06573V8.89499ZM80.3947 13.515V20.3443C84.1664 20.3443 87.224 17.2867 87.224 13.515H80.3947ZM67.3747 13.515V6.68573C64.0642 6.68573 61.2303 9.06018 60.6509 12.3196L67.3747 13.515ZM65.8814 21.915L59.1576 20.7196C58.6287 23.6944 60.1174 26.6631 62.8177 28.0185C65.518 29.3739 68.788 28.7939 70.8574 26.5924L65.8814 21.915ZM79.3681 22.5217L74.4227 27.2315V27.2315L79.3681 22.5217ZM78.9014 38.715L74.0724 33.886V33.886L78.9014 38.715ZM62.6147 39.3217L58.0287 44.3821C58.0563 44.407 58.0841 44.4318 58.112 44.4563L62.6147 39.3217ZM59.4414 32.0883V25.2591C57.5813 25.2591 55.8018 26.0178 54.5139 27.3598C53.226 28.7019 52.5413 30.5112 52.6179 32.3697L59.4414 32.0883ZM64.7147 32.0883L71.5253 31.5838C71.2612 28.0176 68.2907 25.2591 64.7147 25.2591V32.0883ZM75.1214 35.775L80.2691 40.2628C80.2878 40.2413 80.3064 40.2197 80.3249 40.198L75.1214 35.775ZM75.0747 25.5083L69.9921 30.0697C70.0118 30.0916 70.0316 30.1133 70.0515 30.135L75.0747 25.5083ZM65.0881 26.6283L64.8833 33.4545C67.2383 33.5252 69.4634 32.3769 70.7704 30.4165L65.0881 26.6283ZM60.4214 26.4883L53.6975 25.2934C53.3502 27.2473 53.8701 29.2556 55.1217 30.7956C56.3734 32.3356 58.233 33.255 60.2166 33.3145L60.4214 26.4883ZM63.5481 8.89499V2.06573C60.2373 2.06573 57.4035 4.44038 56.8242 7.70003L63.5481 8.89499ZM80.3947 8.89499H73.5655V13.515H80.3947H87.224V8.89499H80.3947ZM80.3947 13.515V6.68573H67.3747V13.515V20.3443H80.3947V13.515ZM67.3747 13.515L60.6509 12.3196L59.1576 20.7196L65.8814 21.915L72.6052 23.1103L74.0986 14.7103L67.3747 13.515ZM65.8814 21.915L70.8574 26.5924C70.8608 26.5888 70.8632 26.5865 70.8645 26.5852C70.8658 26.584 70.8665 26.5834 70.8665 26.5834C70.8665 26.5834 70.8662 26.5836 70.8658 26.5839C70.8654 26.5842 70.8652 26.5843 70.8655 26.5842C70.8656 26.5841 70.8696 26.5814 70.8795 26.5764C70.8894 26.5713 70.9079 26.5625 70.9372 26.5515C71.0508 26.5084 71.3813 26.4109 72.0414 26.4109V19.5817V12.7524C67.9937 12.7524 63.9546 13.9937 60.9054 17.2376L65.8814 21.915ZM72.0414 19.5817V26.4109C73.4271 26.4109 73.9998 26.7874 74.4227 27.2315L79.3681 22.5217L84.3134 17.8118C81.003 14.3359 76.6912 12.7524 72.0414 12.7524V19.5817ZM79.3681 22.5217L74.4227 27.2315C74.8619 27.6926 75.3388 28.4734 75.3388 30.2683H82.1681H88.9973C88.9973 25.6543 87.6076 21.2707 84.3134 17.8118L79.3681 22.5217ZM82.1681 30.2683H75.3388C75.3388 32.1504 74.8092 33.1492 74.0724 33.886L78.9014 38.715L83.7304 43.544C87.3492 39.9252 88.9973 35.2929 88.9973 30.2683H82.1681ZM78.9014 38.715L74.0724 33.886C73.3233 34.635 72.333 35.1524 70.5014 35.1524V41.9817V48.8109C75.5143 48.8109 80.1239 47.1505 83.7304 43.544L78.9014 38.715ZM70.5014 41.9817V35.1524C68.5699 35.1524 67.6522 34.6559 67.1174 34.187L62.6147 39.3217L58.112 44.4563C61.6217 47.5341 65.9618 48.8109 70.5014 48.8109V41.9817ZM62.6147 39.3217L67.2007 34.2613C66.7392 33.8431 66.3241 33.2445 66.2649 31.807L59.4414 32.0883L52.6179 32.3697C52.8075 36.9677 54.508 41.1914 58.0287 44.3821L62.6147 39.3217ZM59.4414 32.0883V38.9176H64.7147V32.0883V25.2591H59.4414V32.0883ZM64.7147 32.0883L57.9041 32.5928C58.1376 35.745 59.368 38.8026 61.9266 41.1419L66.5347 36.1017L71.1429 31.0615C71.2021 31.1156 71.2687 31.1876 71.3331 31.2762C71.3976 31.365 71.4472 31.4529 71.4827 31.5311C71.5558 31.6924 71.5368 31.739 71.5253 31.5838L64.7147 32.0883ZM66.5347 36.1017L61.9266 41.1419C64.4253 43.4264 67.5033 44.4243 70.6414 44.4243V37.595V30.7657C70.5089 30.7657 70.5565 30.747 70.7119 30.8036C70.7865 30.8307 70.8683 30.8689 70.9501 30.9186C71.0316 30.9681 71.0964 31.0189 71.1429 31.0615L66.5347 36.1017ZM70.6414 37.595V44.4243C74.1153 44.4243 77.657 43.259 80.2691 40.2628L75.1214 35.775L69.9737 31.2872C70.0502 31.1994 70.153 31.1025 70.2802 31.0118C70.4073 30.921 70.5316 30.856 70.6377 30.8129C70.851 30.7263 70.8942 30.7657 70.6414 30.7657V37.595ZM75.1214 35.775L80.3249 40.198C82.7651 37.3271 83.5373 33.8075 83.5373 30.5483H76.7081H69.8788C69.8788 31.1445 69.8069 31.4513 69.7766 31.5512C69.7528 31.6297 69.7745 31.5208 69.9179 31.352L75.1214 35.775ZM76.7081 30.5483H83.5373C83.5373 27.2737 82.7079 23.7153 80.098 20.8817L75.0747 25.5083L70.0515 30.135C69.9665 30.0427 69.9023 29.9509 69.8579 29.8731C69.8144 29.797 69.8009 29.7535 69.8031 29.7604C69.8105 29.7832 69.8788 30.0143 69.8788 30.5483H76.7081ZM75.0747 25.5083L80.1574 20.947C77.5345 18.0243 74.0277 16.8591 70.5481 16.8591V23.6883V30.5176C70.7989 30.5176 70.7699 30.5565 70.5788 30.4796C70.4845 30.4417 70.3739 30.3845 70.2607 30.3053C70.1476 30.226 70.0576 30.1426 69.9921 30.0697L75.0747 25.5083ZM70.5481 23.6883V16.8591C65.9051 16.8591 61.9644 19.0022 59.4058 22.8401L65.0881 26.6283L70.7704 30.4165C70.8364 30.3175 70.8653 30.2959 70.8425 30.3173C70.817 30.3414 70.7587 30.389 70.6708 30.4363C70.5827 30.4838 70.5065 30.5085 70.4626 30.5188C70.4225 30.5283 70.4441 30.5176 70.5481 30.5176V23.6883ZM65.0881 26.6283L65.2928 19.8021L60.6262 19.6621L60.4214 26.4883L60.2166 33.3145L64.8833 33.4545L65.0881 26.6283ZM60.4214 26.4883L67.1453 27.6833L70.272 10.09L63.5481 8.89499L56.8242 7.70003L53.6975 25.2934L60.4214 26.4883ZM63.5481 8.89499V15.7243H80.3947V8.89499V2.06573H63.5481V8.89499ZM117.432 8.14833H124.262C124.262 4.37663 121.204 1.31906 117.432 1.31906V8.14833ZM117.432 41.375V48.2043C121.204 48.2043 124.262 45.1467 124.262 41.375H117.432ZM111.879 41.375H105.05C105.05 45.1467 108.107 48.2043 111.879 48.2043V41.375ZM111.879 15.755H118.708C118.708 12.437 116.324 9.59912 113.055 9.02775C109.787 8.45638 106.58 10.3169 105.455 13.4381L111.879 15.755ZM102.639 41.375V48.2043C105.517 48.2043 108.087 46.3996 109.063 43.6919L102.639 41.375ZM97.8791 41.375L91.4736 43.7435C92.4649 46.4243 95.0208 48.2043 97.8791 48.2043V41.375ZM88.4057 15.755L94.8111 13.3865C93.664 10.2842 90.4586 8.44985 87.2027 9.03253C83.9468 9.61521 81.5764 12.4474 81.5764 15.755H88.4057ZM88.4057 41.375V48.2043C92.1774 48.2043 95.235 45.1467 95.235 41.375H88.4057ZM82.899 41.375H76.0698C76.0698 45.1467 79.1273 48.2043 82.899 48.2043V41.375ZM82.899 8.14833V1.31906C79.1273 1.31906 76.0698 4.37663 76.0698 8.14833H82.899ZM91.0657 8.14833L97.4969 5.85067C96.5259 3.13304 93.9516 1.31906 91.0657 1.31906V8.14833ZM100.352 34.1417L93.9212 36.4393C94.8969 39.1702 97.4908 40.9871 100.391 40.9708C103.29 40.9546 105.864 39.1088 106.809 36.3672L100.352 34.1417ZM109.312 8.14833V1.31906C106.398 1.31906 103.806 3.16793 102.856 5.92277L109.312 8.14833ZM117.432 8.14833H110.603V41.375H117.432H124.262V8.14833H117.432ZM117.432 41.375V34.5457H111.879V41.375V48.2043H117.432V41.375ZM111.879 41.375H118.708V15.755H111.879H105.05V41.375H111.879ZM111.879 15.755L105.455 13.4381L96.2148 39.0581L102.639 41.375L109.063 43.6919L118.303 18.0719L111.879 15.755ZM102.639 41.375V34.5457H97.8791V41.375V48.2043H102.639V41.375ZM97.8791 41.375L104.284 39.0065L94.8111 13.3865L88.4057 15.755L82.0003 18.1235L91.4736 43.7435L97.8791 41.375ZM88.4057 15.755H81.5764V41.375H88.4057H95.235V15.755H88.4057ZM88.4057 41.375V34.5457H82.899V41.375V48.2043H88.4057V41.375ZM82.899 41.375H89.7283V8.14833H82.899H76.0698V41.375H82.899ZM82.899 8.14833V14.9776H91.0657V8.14833V1.31906H82.899V8.14833ZM91.0657 8.14833L84.6346 10.446L93.9212 36.4393L100.352 34.1417L106.784 31.844L97.4969 5.85067L91.0657 8.14833ZM100.352 34.1417L106.809 36.3672L115.769 10.3739L109.312 8.14833L102.856 5.92277L93.8959 31.9161L100.352 34.1417ZM109.312 8.14833V14.9776H117.432V8.14833V1.31906H109.312V8.14833ZM127.824 41.375H120.994C120.994 45.1467 124.052 48.2043 127.824 48.2043V41.375ZM127.824 31.575H134.653C134.653 27.8033 131.595 24.7457 127.824 24.7457V31.575ZM118.164 31.575H111.334C111.334 35.3467 114.392 38.4043 118.164 38.4043V31.575ZM118.164 27.1417V20.3124C114.392 20.3124 111.334 23.37 111.334 27.1417H118.164ZM127.824 27.1417V33.9709C131.595 33.9709 134.653 30.9134 134.653 27.1417H127.824ZM127.824 17.3417V10.5124C124.052 10.5124 120.994 13.57 120.994 17.3417H127.824ZM132.584 17.3417H139.413C139.413 13.57 136.355 10.5124 132.584 10.5124V17.3417ZM132.584 27.1417H125.754C125.754 30.9134 128.812 33.9709 132.584 33.9709V27.1417ZM142.29 27.1417H149.12C149.12 23.37 146.062 20.3124 142.29 20.3124V27.1417ZM142.29 31.575V38.4043C146.062 38.4043 149.12 35.3467 149.12 31.575H142.29ZM132.584 31.575V24.7457C128.812 24.7457 125.754 27.8033 125.754 31.575H132.584ZM132.584 41.375V48.2043C136.355 48.2043 139.413 45.1467 139.413 41.375H132.584ZM127.824 41.375H134.653V31.575H127.824H120.994V41.375H127.824ZM127.824 31.575V24.7457H118.164V31.575V38.4043H127.824V31.575ZM118.164 31.575H124.993V27.1417H118.164H111.334V31.575H118.164ZM118.164 27.1417V33.9709H127.824V27.1417V20.3124H118.164V27.1417ZM127.824 27.1417H134.653V17.3417H127.824H120.994V27.1417H127.824ZM127.824 17.3417V24.1709H132.584V17.3417V10.5124H127.824V17.3417ZM132.584 17.3417H125.754V27.1417H132.584H139.413V17.3417H132.584ZM132.584 27.1417V33.9709H142.29V27.1417V20.3124H132.584V27.1417ZM142.29 27.1417H135.461V31.575H142.29H149.12V27.1417H142.29ZM142.29 31.575V24.7457H132.584V31.575V38.4043H142.29V31.575ZM132.584 31.575H125.754V41.375H132.584H139.413V31.575H132.584ZM132.584 41.375V34.5457H127.824V41.375V48.2043H132.584V41.375ZM151.434 8.14833V1.31906C147.662 1.31906 144.605 4.37663 144.605 8.14833H151.434ZM174.3 10.715L169.928 15.9614C169.957 15.9852 169.986 16.0089 170.015 16.0322L174.3 10.715ZM174.534 25.835L179.242 30.7822C179.256 30.7691 179.269 30.7558 179.283 30.7425L174.534 25.835ZM157.267 28.5883V21.7591C153.495 21.7591 150.438 24.8166 150.438 28.5883H157.267ZM157.267 41.375V48.2043C161.039 48.2043 164.096 45.1467 164.096 41.375H157.267ZM151.434 41.375H144.605C144.605 45.1467 147.662 48.2043 151.434 48.2043V41.375ZM157.267 13.0017V6.17239C153.495 6.17239 150.438 9.22996 150.438 13.0017H157.267ZM157.267 23.875H150.438C150.438 27.6467 153.495 30.7043 157.267 30.7043V23.875ZM151.434 8.14833V14.9776H165.854V8.14833V1.31906H151.434V8.14833ZM165.854 8.14833V14.9776C168.378 14.9776 169.464 15.5741 169.928 15.9614L174.3 10.715L178.672 5.46861C175.031 2.43369 170.486 1.31906 165.854 1.31906V8.14833ZM174.3 10.715L170.015 16.0322C170.09 16.0929 170.598 16.4047 170.598 18.275H177.427H184.256C184.256 13.4252 182.68 8.69707 178.586 5.39775L174.3 10.715ZM177.427 18.275H170.598C170.598 19.9627 170.143 20.5805 169.785 20.9275L174.534 25.835L179.283 30.7425C182.782 27.3562 184.256 22.934 184.256 18.275H177.427ZM174.534 25.835L169.826 20.8878C169.465 21.2316 168.683 21.7591 166.647 21.7591V28.5883V35.4176C171.269 35.4176 175.745 34.1095 179.242 30.7822L174.534 25.835ZM166.647 28.5883V21.7591H157.267V28.5883V35.4176H166.647V28.5883ZM157.267 28.5883H150.438V41.375H157.267H164.096V28.5883H157.267ZM157.267 41.375V34.5457H151.434V41.375V48.2043H157.267V41.375ZM151.434 41.375H158.263V8.14833H151.434H144.605V41.375H151.434ZM157.267 13.0017H150.438V23.875H157.267H164.096V13.0017H157.267ZM157.267 23.875V30.7043H165.387V23.875V17.0457H157.267V23.875ZM165.387 23.875V30.7043C168.325 30.7043 171.803 30.0944 174.601 27.6871C177.596 25.1106 178.563 21.5783 178.563 18.415H171.734H164.905C164.905 18.6791 164.865 18.6064 164.969 18.3364C165.09 18.0252 165.329 17.6464 165.693 17.3329C166.036 17.0384 166.299 16.9641 166.281 16.9691C166.244 16.9798 165.978 17.0457 165.387 17.0457V23.875ZM171.734 18.415H178.563C178.563 15.0706 177.422 11.4978 174.249 8.99389C171.385 6.73322 167.874 6.17239 164.874 6.17239V13.0017V19.8309C165.59 19.8309 165.983 19.904 166.138 19.9446C166.28 19.9821 166.095 19.9584 165.788 19.7161C165.448 19.4476 165.172 19.0782 165.014 18.7041C164.873 18.3714 164.905 18.2231 164.905 18.415H171.734ZM164.874 13.0017V6.17239H157.267V13.0017V19.8309H164.874V13.0017ZM201.693 8.14833H208.523C208.523 4.37663 205.465 1.31906 201.693 1.31906V8.14833ZM201.693 13.0483V19.8776C205.465 19.8776 208.523 16.82 208.523 13.0483H201.693ZM183.54 13.0483V6.21906C179.768 6.21906 176.711 9.27663 176.711 13.0483H183.54ZM183.54 21.8683H176.711C176.711 25.64 179.768 28.6976 183.54 28.6976V21.8683ZM200.387 21.8683H207.216C207.216 18.0966 204.158 15.0391 200.387 15.0391V21.8683ZM200.387 26.5817V33.4109C204.158 33.4109 207.216 30.3534 207.216 26.5817H200.387ZM183.54 26.5817V19.7524C179.768 19.7524 176.711 22.81 176.711 26.5817H183.54ZM183.54 36.3817H176.711C176.711 40.1534 179.768 43.2109 183.54 43.2109V36.3817ZM201.973 36.3817H208.803C208.803 32.61 205.745 29.5524 201.973 29.5524V36.3817ZM201.973 41.375V48.2043C205.745 48.2043 208.803 45.1467 208.803 41.375H201.973ZM177.753 41.375H170.924C170.924 45.1467 173.982 48.2043 177.753 48.2043V41.375ZM177.753 8.14833V1.31906C173.982 1.31906 170.924 4.37663 170.924 8.14833H177.753ZM201.693 8.14833H194.864V13.0483H201.693H208.523V8.14833H201.693ZM201.693 13.0483V6.21906H183.54V13.0483V19.8776H201.693V13.0483ZM183.54 13.0483H176.711V21.8683H183.54H190.369V13.0483H183.54ZM183.54 21.8683V28.6976H200.387V21.8683V15.0391H183.54V21.8683ZM200.387 21.8683H193.557V26.5817H200.387H207.216V21.8683H200.387ZM200.387 26.5817V19.7524H183.54V26.5817V33.4109H200.387V26.5817ZM183.54 26.5817H176.711V36.3817H183.54H190.369V26.5817H183.54ZM183.54 36.3817V43.2109H201.973V36.3817V29.5524H183.54V36.3817ZM201.973 36.3817H195.144V41.375H201.973H208.803V36.3817H201.973ZM201.973 41.375V34.5457H177.753V41.375V48.2043H201.973V41.375ZM177.753 41.375H184.583V8.14833H177.753H170.924V41.375H177.753ZM177.753 8.14833V14.9776H201.693V8.14833V1.31906H177.753V8.14833ZM228.288 12.2083L223.222 16.7876C223.237 16.8046 223.252 16.8216 223.268 16.8385L228.288 12.2083ZM228.288 37.3617L233.308 41.9918C233.315 41.9837 233.323 41.9757 233.33 41.9676L228.288 37.3617ZM205.188 37.3617L200.144 41.9653C200.152 41.9741 200.16 41.983 200.168 41.9918L205.188 37.3617ZM205.095 12.3017L199.961 7.7977L199.958 7.8011L205.095 12.3017ZM209.435 15.6617L214.717 19.9902C214.727 19.9783 214.736 19.9664 214.746 19.9544L209.435 15.6617ZM209.388 33.8617L204.041 38.11C204.053 38.1249 204.065 38.1397 204.077 38.1544L209.388 33.8617ZM224.088 33.8617L218.748 29.6043L218.741 29.6133L224.088 33.8617ZM224.088 15.6617L218.741 19.91C218.762 19.9369 218.784 19.9636 218.806 19.9902L224.088 15.6617ZM216.855 7.35499V14.1843C219.789 14.1843 221.7 15.1042 223.222 16.7876L228.288 12.2083L233.354 7.62904C229.027 2.84132 223.316 0.525726 216.855 0.525726V7.35499ZM228.288 12.2083L223.268 16.8385C224.851 18.5544 225.892 20.9767 225.892 24.7617H232.721H239.551C239.551 18.2178 237.636 12.2712 233.308 7.5782L228.288 12.2083ZM232.721 24.7617H225.892C225.892 28.5446 224.851 30.9984 223.246 32.7557L228.288 37.3617L233.33 41.9676C237.636 37.2538 239.551 31.3076 239.551 24.7617H232.721ZM228.288 37.3617L223.268 32.7315C221.723 34.4067 219.764 35.3391 216.761 35.3391V42.1683V48.9976C223.217 48.9976 228.942 46.7255 233.308 41.9918L228.288 37.3617ZM216.761 42.1683V35.3391C213.713 35.3391 211.744 34.3967 210.208 32.7315L205.188 37.3617L200.168 41.9918C204.543 46.7356 210.29 48.9976 216.761 48.9976V42.1683ZM205.188 37.3617L210.232 32.7581C208.675 31.0519 207.631 28.6093 207.631 24.7617H200.801H193.972C193.972 31.3051 195.852 37.2626 200.144 41.9653L205.188 37.3617ZM200.801 24.7617H207.631C207.631 21.0958 208.632 18.6268 210.231 16.8022L205.095 12.3017L199.958 7.8011C195.832 12.5098 193.972 18.3476 193.972 24.7617H200.801ZM205.095 12.3017L210.228 16.8056C211.651 15.1836 213.595 14.1843 216.855 14.1843V7.35499V0.525726C210.221 0.525726 204.325 2.82413 199.961 7.7977L205.095 12.3017ZM216.761 12.255V5.42573C211.755 5.42573 207.32 7.41359 204.123 11.3689L209.435 15.6617L214.746 19.9544C215.22 19.3675 215.67 19.0843 216.761 19.0843V12.255ZM209.435 15.6617L204.152 11.3331C201.05 15.1193 199.852 19.8051 199.852 24.6683H206.681H213.511C213.511 22.0027 214.148 20.684 214.717 19.9902L209.435 15.6617ZM206.681 24.6683H199.852C199.852 29.5594 201.002 34.2846 204.041 38.11L209.388 33.8617L214.735 29.6133C214.165 28.8965 213.511 27.4928 213.511 24.6683H206.681ZM209.388 33.8617L204.077 38.1544C207.318 42.1645 211.829 44.0976 216.855 44.0976V37.2683V30.4391C215.595 30.4391 215.129 30.101 214.699 29.5689L209.388 33.8617ZM216.855 37.2683V44.0976C221.858 44.0976 226.276 42.0866 229.435 38.11L224.088 33.8617L218.741 29.6133C218.292 30.179 217.887 30.4391 216.855 30.4391V37.2683ZM224.088 33.8617L229.428 38.1191C232.476 34.2954 233.671 29.6048 233.671 24.715H226.841H220.012C220.012 27.4164 219.371 28.8235 218.748 29.6043L224.088 33.8617ZM226.841 24.715H233.671C233.671 19.8364 232.481 15.1287 229.37 11.3331L224.088 15.6617L218.806 19.9902C219.367 20.6747 220.012 22.0025 220.012 24.715H226.841ZM224.088 15.6617L229.435 11.4133C226.245 7.39877 221.775 5.42573 216.761 5.42573V12.255V19.0843C217.907 19.0843 218.322 19.3823 218.741 19.91L224.088 15.6617ZM233.41 8.14833V1.31906C229.639 1.31906 226.581 4.37663 226.581 8.14833H233.41ZM256.277 10.715L251.905 15.9614C251.934 15.9852 251.962 16.0089 251.991 16.0322L256.277 10.715ZM256.51 25.835L261.218 30.7822C261.232 30.7691 261.246 30.7558 261.26 30.7425L256.51 25.835ZM239.244 28.5883V21.7591C235.472 21.7591 232.414 24.8166 232.414 28.5883H239.244ZM239.244 41.375V48.2043C243.015 48.2043 246.073 45.1467 246.073 41.375H239.244ZM233.41 41.375H226.581C226.581 45.1467 229.639 48.2043 233.41 48.2043V41.375ZM239.244 13.0017V6.17239C235.472 6.17239 232.414 9.22996 232.414 13.0017H239.244ZM239.244 23.875H232.414C232.414 27.6467 235.472 30.7043 239.244 30.7043V23.875ZM233.41 8.14833V14.9776H247.83V8.14833V1.31906H233.41V8.14833ZM247.83 8.14833V14.9776C250.354 14.9776 251.44 15.5741 251.905 15.9614L256.277 10.715L260.649 5.46861C257.007 2.43369 252.462 1.31906 247.83 1.31906V8.14833ZM256.277 10.715L251.991 16.0322C252.067 16.0929 252.574 16.4047 252.574 18.275H259.404H266.233C266.233 13.4252 264.656 8.69707 260.563 5.39775L256.277 10.715ZM259.404 18.275H252.574C252.574 19.9627 252.12 20.5805 251.761 20.9275L256.51 25.835L261.26 30.7425C264.759 27.3562 266.233 22.934 266.233 18.275H259.404ZM256.51 25.835L251.803 20.8878C251.441 21.2316 250.66 21.7591 248.624 21.7591V28.5883V35.4176C253.246 35.4176 257.722 34.1095 261.218 30.7822L256.51 25.835ZM248.624 28.5883V21.7591H239.244V28.5883V35.4176H248.624V28.5883ZM239.244 28.5883H232.414V41.375H239.244H246.073V28.5883H239.244ZM239.244 41.375V34.5457H233.41V41.375V48.2043H239.244V41.375ZM233.41 41.375H240.24V8.14833H233.41H226.581V41.375H233.41ZM239.244 13.0017H232.414V23.875H239.244H246.073V13.0017H239.244ZM239.244 23.875V30.7043H247.364V23.875V17.0457H239.244V23.875ZM247.364 23.875V30.7043C250.301 30.7043 253.779 30.0944 256.578 27.6871C259.572 25.1106 260.54 21.5783 260.54 18.415H253.71H246.881C246.881 18.6791 246.841 18.6064 246.946 18.3364C247.066 18.0252 247.305 17.6464 247.67 17.3329C248.012 17.0384 248.275 16.9641 248.258 16.9691C248.22 16.9798 247.954 17.0457 247.364 17.0457V23.875ZM253.71 18.415H260.54C260.54 15.0706 259.399 11.4978 256.226 8.99389C253.361 6.73322 249.851 6.17239 246.85 6.17239V13.0017V19.8309C247.567 19.8309 247.96 19.904 248.114 19.9446C248.257 19.9821 248.072 19.9584 247.765 19.7161C247.425 19.4476 247.149 19.0782 246.991 18.7041C246.85 18.3714 246.881 18.2231 246.881 18.415H253.71ZM246.85 13.0017V6.17239H239.244V13.0017V19.8309H246.85V13.0017ZM282.503 36.335H289.333C289.333 32.5633 286.275 29.5057 282.503 29.5057V36.335ZM282.503 41.375V48.2043C286.275 48.2043 289.333 45.1467 289.333 41.375H282.503ZM259.73 41.375H252.901C252.901 45.1467 255.958 48.2043 259.73 48.2043V41.375ZM259.73 8.14833V1.31906C255.958 1.31906 252.901 4.37663 252.901 8.14833H259.73ZM265.61 8.14833H272.439C272.439 4.37663 269.382 1.31906 265.61 1.31906V8.14833ZM265.61 36.335H258.781C258.781 40.1067 261.838 43.1643 265.61 43.1643V36.335ZM282.503 36.335H275.674V41.375H282.503H289.333V36.335H282.503ZM282.503 41.375V34.5457H259.73V41.375V48.2043H282.503V41.375ZM259.73 41.375H266.559V8.14833H259.73H252.901V41.375H259.73ZM259.73 8.14833V14.9776H265.61V8.14833V1.31906H259.73V8.14833ZM265.61 8.14833H258.781V36.335H265.61H272.439V8.14833H265.61ZM265.61 36.335V43.1643H282.503V36.335V29.5057H265.61V36.335ZM305.8 8.14833H312.629C312.629 4.37663 309.572 1.31906 305.8 1.31906V8.14833ZM305.8 13.0483V19.8776C309.572 19.8776 312.629 16.82 312.629 13.0483H305.8ZM287.647 13.0483V6.21906C283.875 6.21906 280.818 9.27663 280.818 13.0483H287.647ZM287.647 21.8683H280.818C280.818 25.64 283.875 28.6976 287.647 28.6976V21.8683ZM304.494 21.8683H311.323C311.323 18.0966 308.265 15.0391 304.494 15.0391V21.8683ZM304.494 26.5817V33.4109C308.265 33.4109 311.323 30.3534 311.323 26.5817H304.494ZM287.647 26.5817V19.7524C283.875 19.7524 280.818 22.81 280.818 26.5817H287.647ZM287.647 36.3817H280.818C280.818 40.1534 283.875 43.2109 287.647 43.2109V36.3817ZM306.08 36.3817H312.909C312.909 32.61 309.852 29.5524 306.08 29.5524V36.3817ZM306.08 41.375V48.2043C309.852 48.2043 312.909 45.1467 312.909 41.375H306.08ZM281.86 41.375H275.031C275.031 45.1467 278.089 48.2043 281.86 48.2043V41.375ZM281.86 8.14833V1.31906C278.089 1.31906 275.031 4.37663 275.031 8.14833H281.86ZM305.8 8.14833H298.971V13.0483H305.8H312.629V8.14833H305.8ZM305.8 13.0483V6.21906H287.647V13.0483V19.8776H305.8V13.0483ZM287.647 13.0483H280.818V21.8683H287.647H294.476V13.0483H287.647ZM287.647 21.8683V28.6976H304.494V21.8683V15.0391H287.647V21.8683ZM304.494 21.8683H297.664V26.5817H304.494H311.323V21.8683H304.494ZM304.494 26.5817V19.7524H287.647V26.5817V33.4109H304.494V26.5817ZM287.647 26.5817H280.818V36.3817H287.647H294.476V26.5817H287.647ZM287.647 36.3817V43.2109H306.08V36.3817V29.5524H287.647V36.3817ZM306.08 36.3817H299.251V41.375H306.08H312.909V36.3817H306.08ZM306.08 41.375V34.5457H281.86V41.375V48.2043H306.08V41.375ZM281.86 41.375H288.689V8.14833H281.86H275.031V41.375H281.86ZM281.86 8.14833V14.9776H305.8V8.14833V1.31906H281.86V8.14833Z" fill="#CFF665" mask="url(#path-1-outside-1_3189_1814)"/>
</svg>
