<svg width="309" height="46" viewBox="0 0 309 46" fill="none" xmlns="http://www.w3.org/2000/svg">
<mask id="path-1-outside-1_3144_1912" maskUnits="userSpaceOnUse" x="0" y="0" width="309" height="46" fill="black">
<rect fill="white" width="309" height="46"/>
<path d="M39.1985 6.86436V39H33.8276V14.2213L24.891 39H20.2873L11.125 14.2213V39H5.79914V6.86436H13.6976L22.6794 32.0042L31.3452 6.86436H39.1985ZM64.5041 6.86436V11.6035H46.9468V20.1339H63.2403V24.6924H46.9468V34.1706H64.7749V39H41.3502V6.86436H64.5041ZM65.4015 6.86436H79.348C82.8083 6.86436 85.5314 7.69182 87.5173 9.34675C89.5333 10.9716 90.5413 13.4088 90.5413 16.6585C90.5413 19.7276 89.6085 22.1649 87.743 23.9703C85.8774 25.7456 83.3349 26.6332 80.1153 26.6332H71.0433V39H65.4015V6.86436ZM71.0433 11.5583V22.0746H78.8966C82.9888 22.0746 85.0349 20.3144 85.0349 16.7939C85.0349 13.3035 82.8233 11.5583 78.4002 11.5583H71.0433ZM104.758 6.09707C109.302 6.09707 112.988 7.66173 115.816 10.791C118.675 13.8903 120.104 17.9373 120.104 22.9322C120.104 27.927 118.675 31.9891 115.816 35.1184C112.958 38.2177 109.242 39.7673 104.668 39.7673C100.064 39.7673 96.3332 38.2177 93.4747 35.1184C90.6463 32.0192 89.2321 27.9571 89.2321 22.9322C89.2321 18.0577 90.6162 14.0407 93.3844 10.8813C96.1827 7.69182 99.974 6.09707 104.758 6.09707ZM104.668 10.8362C101.719 10.8362 99.3572 11.9344 97.5819 14.131C95.8066 16.2974 94.919 19.2011 94.919 22.8419C94.919 26.573 95.7916 29.5368 97.5368 31.7334C99.3121 33.9299 101.719 35.0282 104.758 35.0282C107.677 35.0282 110.009 33.9299 111.754 31.7334C113.529 29.5067 114.417 26.558 114.417 22.887C114.417 19.2161 113.529 16.2974 111.754 14.131C110.009 11.9344 107.647 10.8362 104.668 10.8362ZM146.587 6.86436V39H140.945V11.7389H126.232V39H120.59V6.86436H146.587ZM148.829 6.86436H162.776C166.236 6.86436 168.959 7.69182 170.945 9.34675C172.961 10.9716 173.969 13.4088 173.969 16.6585C173.969 19.7276 173.037 22.1649 171.171 23.9703C169.305 25.7456 166.763 26.6332 163.543 26.6332H154.471V39H148.829V6.86436ZM154.471 11.5583V22.0746H162.325C166.417 22.0746 168.463 20.3144 168.463 16.7939C168.463 13.3035 166.251 11.5583 161.828 11.5583H154.471ZM174.24 39V6.86436H179.882V31.5077L193.693 6.86436H200.237V39H194.595V14.3567L180.784 39H174.24ZM226.626 39H220.984V25.7305H214.575L205.458 39H198.417L208.302 25.1889C205.654 24.3765 203.833 23.1729 202.84 21.5781C201.848 19.9834 201.351 18.0426 201.351 15.7558C201.351 13.0478 202.284 10.8964 204.149 9.30161C206.015 7.67678 208.633 6.86436 212.003 6.86436H226.626V39ZM220.984 21.4427V11.4681H212.589C210.664 11.4681 209.25 11.8592 208.347 12.6416C207.444 13.3938 206.993 14.5974 206.993 16.2523C206.993 19.7126 208.828 21.4427 212.499 21.4427H220.984ZM251.837 6.86436V11.7389H241.591V39H235.95V11.7389H225.704V6.86436H251.837ZM250.924 39V6.86436H256.566V31.5077L270.377 6.86436H276.921V39H271.28V14.3567L257.469 39H250.924ZM303.311 39H297.669V25.7305H291.26L282.143 39H275.102L284.986 25.1889C282.338 24.3765 280.518 23.1729 279.525 21.5781C278.532 19.9834 278.035 18.0426 278.035 15.7558C278.035 13.0478 278.968 10.8964 280.834 9.30161C282.699 7.67678 285.317 6.86436 288.687 6.86436H303.311V39ZM297.669 21.4427V11.4681H289.274C287.348 11.4681 285.934 11.8592 285.031 12.6416C284.128 13.3938 283.677 14.5974 283.677 16.2523C283.677 19.7126 285.513 21.4427 289.183 21.4427H297.669Z"/>
</mask>
<path d="M39.1985 6.86436V39H33.8276V14.2213L24.891 39H20.2873L11.125 14.2213V39H5.79914V6.86436H13.6976L22.6794 32.0042L31.3452 6.86436H39.1985ZM64.5041 6.86436V11.6035H46.9468V20.1339H63.2403V24.6924H46.9468V34.1706H64.7749V39H41.3502V6.86436H64.5041ZM65.4015 6.86436H79.348C82.8083 6.86436 85.5314 7.69182 87.5173 9.34675C89.5333 10.9716 90.5413 13.4088 90.5413 16.6585C90.5413 19.7276 89.6085 22.1649 87.743 23.9703C85.8774 25.7456 83.3349 26.6332 80.1153 26.6332H71.0433V39H65.4015V6.86436ZM71.0433 11.5583V22.0746H78.8966C82.9888 22.0746 85.0349 20.3144 85.0349 16.7939C85.0349 13.3035 82.8233 11.5583 78.4002 11.5583H71.0433ZM104.758 6.09707C109.302 6.09707 112.988 7.66173 115.816 10.791C118.675 13.8903 120.104 17.9373 120.104 22.9322C120.104 27.927 118.675 31.9891 115.816 35.1184C112.958 38.2177 109.242 39.7673 104.668 39.7673C100.064 39.7673 96.3332 38.2177 93.4747 35.1184C90.6463 32.0192 89.2321 27.9571 89.2321 22.9322C89.2321 18.0577 90.6162 14.0407 93.3844 10.8813C96.1827 7.69182 99.974 6.09707 104.758 6.09707ZM104.668 10.8362C101.719 10.8362 99.3572 11.9344 97.5819 14.131C95.8066 16.2974 94.919 19.2011 94.919 22.8419C94.919 26.573 95.7916 29.5368 97.5368 31.7334C99.3121 33.9299 101.719 35.0282 104.758 35.0282C107.677 35.0282 110.009 33.9299 111.754 31.7334C113.529 29.5067 114.417 26.558 114.417 22.887C114.417 19.2161 113.529 16.2974 111.754 14.131C110.009 11.9344 107.647 10.8362 104.668 10.8362ZM146.587 6.86436V39H140.945V11.7389H126.232V39H120.59V6.86436H146.587ZM148.829 6.86436H162.776C166.236 6.86436 168.959 7.69182 170.945 9.34675C172.961 10.9716 173.969 13.4088 173.969 16.6585C173.969 19.7276 173.037 22.1649 171.171 23.9703C169.305 25.7456 166.763 26.6332 163.543 26.6332H154.471V39H148.829V6.86436ZM154.471 11.5583V22.0746H162.325C166.417 22.0746 168.463 20.3144 168.463 16.7939C168.463 13.3035 166.251 11.5583 161.828 11.5583H154.471ZM174.24 39V6.86436H179.882V31.5077L193.693 6.86436H200.237V39H194.595V14.3567L180.784 39H174.24ZM226.626 39H220.984V25.7305H214.575L205.458 39H198.417L208.302 25.1889C205.654 24.3765 203.833 23.1729 202.84 21.5781C201.848 19.9834 201.351 18.0426 201.351 15.7558C201.351 13.0478 202.284 10.8964 204.149 9.30161C206.015 7.67678 208.633 6.86436 212.003 6.86436H226.626V39ZM220.984 21.4427V11.4681H212.589C210.664 11.4681 209.25 11.8592 208.347 12.6416C207.444 13.3938 206.993 14.5974 206.993 16.2523C206.993 19.7126 208.828 21.4427 212.499 21.4427H220.984ZM251.837 6.86436V11.7389H241.591V39H235.95V11.7389H225.704V6.86436H251.837ZM250.924 39V6.86436H256.566V31.5077L270.377 6.86436H276.921V39H271.28V14.3567L257.469 39H250.924ZM303.311 39H297.669V25.7305H291.26L282.143 39H275.102L284.986 25.1889C282.338 24.3765 280.518 23.1729 279.525 21.5781C278.532 19.9834 278.035 18.0426 278.035 15.7558C278.035 13.0478 278.968 10.8964 280.834 9.30161C282.699 7.67678 285.317 6.86436 288.687 6.86436H303.311V39ZM297.669 21.4427V11.4681H289.274C287.348 11.4681 285.934 11.8592 285.031 12.6416C284.128 13.3938 283.677 14.5974 283.677 16.2523C283.677 19.7126 285.513 21.4427 289.183 21.4427H297.669Z" fill="#CFF665"/>
<path d="M39.1985 6.86436H44.8403C44.8403 3.74848 42.3144 1.22257 39.1985 1.22257V6.86436ZM39.1985 39V44.6418C42.3144 44.6418 44.8403 42.1159 44.8403 39H39.1985ZM33.8276 39H28.1858C28.1858 42.1159 30.7117 44.6418 33.8276 44.6418V39ZM33.8276 14.2213H39.4693C39.4693 11.4802 37.4992 9.13577 34.7991 8.66374C32.099 8.19172 29.4503 9.72871 28.5204 12.3072L33.8276 14.2213ZM24.891 39V44.6418C27.2688 44.6418 29.3914 43.1509 30.1981 40.9141L24.891 39ZM20.2873 39L14.9956 40.9566C15.8145 43.1713 17.926 44.6418 20.2873 44.6418V39ZM11.125 14.2213L16.4166 12.2646C15.469 9.70171 12.8209 8.18633 10.1311 8.66769C7.44136 9.14905 5.4832 11.4888 5.4832 14.2213H11.125ZM11.125 39V44.6418C14.2409 44.6418 16.7668 42.1159 16.7668 39H11.125ZM5.79914 39H0.157346C0.157346 42.1159 2.68326 44.6418 5.79914 44.6418V39ZM5.79914 6.86436V1.22257C2.68326 1.22257 0.157346 3.74848 0.157346 6.86436H5.79914ZM13.6976 6.86436L19.0105 4.96621C18.2084 2.72113 16.0817 1.22257 13.6976 1.22257V6.86436ZM22.6794 32.0042L17.3665 33.9023C18.1725 36.1583 20.3153 37.6593 22.7109 37.6459C25.1065 37.6325 27.2325 36.1076 28.0132 33.8428L22.6794 32.0042ZM31.3452 6.86436V1.22257C28.9379 1.22257 26.7959 2.74995 26.0114 5.02578L31.3452 6.86436ZM39.1985 6.86436H33.5568V39H39.1985H44.8403V6.86436H39.1985ZM39.1985 39V33.3582H33.8276V39V44.6418H39.1985V39ZM33.8276 39H39.4693V14.2213H33.8276H28.1858V39H33.8276ZM33.8276 14.2213L28.5204 12.3072L19.5838 37.0859L24.891 39L30.1981 40.9141L39.1347 16.1353L33.8276 14.2213ZM24.891 39V33.3582H20.2873V39V44.6418H24.891V39ZM20.2873 39L25.5789 37.0434L16.4166 12.2646L11.125 14.2213L5.83336 16.1779L14.9956 40.9566L20.2873 39ZM11.125 14.2213H5.4832V39H11.125H16.7668V14.2213H11.125ZM11.125 39V33.3582H5.79914V39V44.6418H11.125V39ZM5.79914 39H11.4409V6.86436H5.79914H0.157346V39H5.79914ZM5.79914 6.86436V12.5061H13.6976V6.86436V1.22257H5.79914V6.86436ZM13.6976 6.86436L8.38475 8.7625L17.3665 33.9023L22.6794 32.0042L27.9923 30.106L19.0105 4.96621L13.6976 6.86436ZM22.6794 32.0042L28.0132 33.8428L36.679 8.70294L31.3452 6.86436L26.0114 5.02578L17.3456 30.1656L22.6794 32.0042ZM31.3452 6.86436V12.5061H39.1985V6.86436V1.22257H31.3452V6.86436ZM64.5041 6.86436H70.1459C70.1459 3.74848 67.62 1.22257 64.5041 1.22257V6.86436ZM64.5041 11.6035V17.2453C67.62 17.2453 70.1459 14.7193 70.1459 11.6035H64.5041ZM46.9468 11.6035V5.96167C43.831 5.96167 41.305 8.48759 41.305 11.6035H46.9468ZM46.9468 20.1339H41.305C41.305 23.2497 43.831 25.7756 46.9468 25.7756V20.1339ZM63.2403 20.1339H68.8821C68.8821 17.018 66.3562 14.4921 63.2403 14.4921V20.1339ZM63.2403 24.6924V30.3342C66.3562 30.3342 68.8821 27.8083 68.8821 24.6924H63.2403ZM46.9468 24.6924V19.0506C43.831 19.0506 41.305 21.5765 41.305 24.6924H46.9468ZM46.9468 34.1706H41.305C41.305 37.2865 43.831 39.8124 46.9468 39.8124V34.1706ZM64.7749 34.1706H70.4167C70.4167 31.0548 67.8908 28.5288 64.7749 28.5288V34.1706ZM64.7749 39V44.6418C67.8908 44.6418 70.4167 42.1159 70.4167 39H64.7749ZM41.3502 39H35.7084C35.7084 42.1159 38.2343 44.6418 41.3502 44.6418V39ZM41.3502 6.86436V1.22257C38.2343 1.22257 35.7084 3.74848 35.7084 6.86436H41.3502ZM64.5041 6.86436H58.8623V11.6035H64.5041H70.1459V6.86436H64.5041ZM64.5041 11.6035V5.96167H46.9468V11.6035V17.2453H64.5041V11.6035ZM46.9468 11.6035H41.305V20.1339H46.9468H52.5886V11.6035H46.9468ZM46.9468 20.1339V25.7756H63.2403V20.1339V14.4921H46.9468V20.1339ZM63.2403 20.1339H57.5985V24.6924H63.2403H68.8821V20.1339H63.2403ZM63.2403 24.6924V19.0506H46.9468V24.6924V30.3342H63.2403V24.6924ZM46.9468 24.6924H41.305V34.1706H46.9468H52.5886V24.6924H46.9468ZM46.9468 34.1706V39.8124H64.7749V34.1706V28.5288H46.9468V34.1706ZM64.7749 34.1706H59.1331V39H64.7749H70.4167V34.1706H64.7749ZM64.7749 39V33.3582H41.3502V39V44.6418H64.7749V39ZM41.3502 39H46.992V6.86436H41.3502H35.7084V39H41.3502ZM41.3502 6.86436V12.5061H64.5041V6.86436V1.22257H41.3502V6.86436ZM65.4015 6.86436V1.22257C62.2856 1.22257 59.7597 3.74848 59.7597 6.86436H65.4015ZM87.5173 9.34675L83.9055 13.6809C83.9292 13.7006 83.953 13.7201 83.9769 13.7394L87.5173 9.34675ZM87.743 23.9703L91.6322 28.0573C91.6437 28.0464 91.6551 28.0355 91.6664 28.0245L87.743 23.9703ZM71.0433 26.6332V20.9914C67.9274 20.9914 65.4015 23.5173 65.4015 26.6332H71.0433ZM71.0433 39V44.6418C74.1591 44.6418 76.6851 42.1159 76.6851 39H71.0433ZM65.4015 39H59.7597C59.7597 42.1159 62.2856 44.6418 65.4015 44.6418V39ZM71.0433 11.5583V5.91654C67.9274 5.91654 65.4015 8.44245 65.4015 11.5583H71.0433ZM71.0433 22.0746H65.4015C65.4015 25.1905 67.9274 27.7164 71.0433 27.7164V22.0746ZM65.4015 6.86436V12.5061H79.348V6.86436V1.22257H65.4015V6.86436ZM79.348 6.86436V12.5061C81.9375 12.5061 83.232 13.1196 83.9055 13.6809L87.5173 9.34675L91.1291 5.0126C87.8308 2.26405 83.6791 1.22257 79.348 1.22257V6.86436ZM87.5173 9.34675L83.9769 13.7394C84.3331 14.0265 84.8995 14.6395 84.8995 16.6585H90.5413H96.1831C96.1831 12.1781 94.7335 7.91665 91.0577 4.95407L87.5173 9.34675ZM90.5413 16.6585H84.8995C84.8995 18.5003 84.3878 19.3661 83.8195 19.9161L87.743 23.9703L91.6664 28.0245C94.8292 24.9637 96.1831 20.955 96.1831 16.6585H90.5413ZM87.743 23.9703L83.8537 19.8833C83.2832 20.4262 82.2667 20.9914 80.1153 20.9914V26.6332V32.275C84.403 32.275 88.4717 31.0649 91.6322 28.0573L87.743 23.9703ZM80.1153 26.6332V20.9914H71.0433V26.6332V32.275H80.1153V26.6332ZM71.0433 26.6332H65.4015V39H71.0433H76.6851V26.6332H71.0433ZM71.0433 39V33.3582H65.4015V39V44.6418H71.0433V39ZM65.4015 39H71.0433V6.86436H65.4015H59.7597V39H65.4015ZM71.0433 11.5583H65.4015V22.0746H71.0433H76.6851V11.5583H71.0433ZM71.0433 22.0746V27.7164H78.8966V22.0746V16.4328H71.0433V22.0746ZM78.8966 22.0746V27.7164C81.6219 27.7164 84.7188 27.1484 87.1797 25.0313C89.8031 22.7745 90.6767 19.6639 90.6767 16.7939H85.0349H79.3931C79.3931 17.1404 79.3414 17.1927 79.3906 17.0659C79.4165 16.999 79.4643 16.899 79.5442 16.7845C79.6248 16.6689 79.7201 16.5643 79.821 16.4775C80.0291 16.2984 80.1533 16.2851 80.027 16.3214C79.8842 16.3623 79.5336 16.4328 78.8966 16.4328V22.0746ZM85.0349 16.7939H90.6767C90.6767 13.7765 89.6537 10.6341 86.8712 8.43831C84.3432 6.44347 81.2012 5.91654 78.4002 5.91654V11.5583V17.2001C79.1534 17.2001 79.6191 17.2764 79.8677 17.3417C80.1065 17.4046 80.0543 17.4327 79.8813 17.2961C79.7948 17.2279 79.6995 17.1347 79.6109 17.0182C79.5224 16.9019 79.4616 16.7897 79.4231 16.6987C79.3473 16.5193 79.3931 16.5081 79.3931 16.7939H85.0349ZM78.4002 11.5583V5.91654H71.0433V11.5583V17.2001H78.4002V11.5583ZM115.816 10.791L111.631 14.5741C111.643 14.5882 111.656 14.6022 111.669 14.6161L115.816 10.791ZM115.816 35.1184L119.963 38.9435C119.969 38.9368 119.976 38.9302 119.982 38.9235L115.816 35.1184ZM93.4747 35.1184L89.3074 38.9216C89.3141 38.9289 89.3208 38.9362 89.3275 38.9435L93.4747 35.1184ZM93.3844 10.8813L89.1435 7.16051L89.141 7.16331L93.3844 10.8813ZM97.5819 14.131L101.946 17.7069C101.954 17.6971 101.962 17.6872 101.97 17.6773L97.5819 14.131ZM97.5368 31.7334L93.1195 35.243C93.1292 35.2553 93.1391 35.2675 93.1489 35.2797L97.5368 31.7334ZM111.754 31.7334L107.343 28.2162L107.337 28.2238L111.754 31.7334ZM111.754 14.131L107.337 17.6406C107.354 17.6628 107.372 17.6849 107.39 17.7069L111.754 14.131ZM104.758 6.09707V11.7389C107.845 11.7389 109.961 12.727 111.631 14.5741L115.816 10.791L120.002 7.008C116.014 2.59642 110.759 0.455283 104.758 0.455283V6.09707ZM115.816 10.791L111.669 14.6161C113.393 16.4856 114.462 19.0769 114.462 22.9322H120.104H125.746C125.746 16.7977 123.956 11.2949 119.963 6.966L115.816 10.791ZM120.104 22.9322H114.462C114.462 26.7858 113.394 29.4053 111.651 31.3134L115.816 35.1184L119.982 38.9235C123.956 34.573 125.746 29.0683 125.746 22.9322H120.104ZM115.816 35.1184L111.669 31.2934C109.976 33.1293 107.815 34.1255 104.668 34.1255V39.7673V45.4091C110.668 45.4091 115.94 43.3061 119.963 38.9435L115.816 35.1184ZM104.668 39.7673V34.1255C101.478 34.1255 99.3074 33.121 97.6218 31.2934L93.4747 35.1184L89.3275 38.9435C93.3589 43.3144 98.6504 45.4091 104.668 45.4091V39.7673ZM93.4747 35.1184L97.6419 31.3153C95.9431 29.4538 94.8738 26.8436 94.8738 22.9322H89.2321H83.5903C83.5903 29.0706 85.3494 34.5846 89.3074 38.9216L93.4747 35.1184ZM89.2321 22.9322H94.8738C94.8738 19.1928 95.9034 16.5674 97.6278 14.5993L93.3844 10.8813L89.141 7.16331C85.329 11.514 83.5903 16.9225 83.5903 22.9322H89.2321ZM93.3844 10.8813L97.6253 14.6021C99.209 12.797 101.367 11.7389 104.758 11.7389V6.09707V0.455283C98.5807 0.455283 93.1564 2.58661 89.1435 7.16051L93.3844 10.8813ZM104.668 10.8362V5.19439C100.102 5.19439 96.0938 6.99676 93.1941 10.5846L97.5819 14.131L101.97 17.6773C102.621 16.8721 103.336 16.478 104.668 16.478V10.8362ZM97.5819 14.131L93.2181 10.5551C90.3961 13.9989 89.2772 18.2933 89.2772 22.8419H94.919H100.561C100.561 20.1088 101.217 18.596 101.946 17.7069L97.5819 14.131ZM94.919 22.8419H89.2772C89.2772 27.4266 90.3541 31.7624 93.1195 35.243L97.5368 31.7334L101.954 28.2238C101.229 27.3112 100.561 25.7194 100.561 22.8419H94.919ZM97.5368 31.7334L93.1489 35.2797C96.0853 38.9129 100.164 40.67 104.758 40.67V35.0282V29.3864C103.275 29.3864 102.539 28.947 101.925 28.187L97.5368 31.7334ZM104.758 35.0282V40.67C109.317 40.67 113.307 38.8485 116.171 35.243L111.754 31.7334L107.337 28.2238C106.711 29.0114 106.037 29.3864 104.758 29.3864V35.0282ZM111.754 31.7334L116.165 35.2505C118.943 31.767 120.059 27.4619 120.059 22.887H114.417H108.775C108.775 25.654 108.116 27.2465 107.343 28.2162L111.754 31.7334ZM114.417 22.887H120.059C120.059 18.3214 118.946 14.0066 116.118 10.5551L111.754 14.131L107.39 17.7069C108.113 18.5883 108.775 20.1108 108.775 22.887H114.417ZM111.754 14.131L116.171 10.6214C113.282 6.98452 109.245 5.19439 104.668 5.19439V10.8362V16.478C106.049 16.478 106.736 16.8844 107.337 17.6406L111.754 14.131ZM146.587 6.86436H152.229C152.229 3.74848 149.703 1.22257 146.587 1.22257V6.86436ZM146.587 39V44.6418C149.703 44.6418 152.229 42.1159 152.229 39H146.587ZM140.945 39H135.304C135.304 42.1159 137.83 44.6418 140.945 44.6418V39ZM140.945 11.7389H146.587C146.587 8.62299 144.061 6.09707 140.945 6.09707V11.7389ZM126.232 11.7389V6.09707C123.116 6.09707 120.59 8.62299 120.59 11.7389H126.232ZM126.232 39V44.6418C129.348 44.6418 131.873 42.1159 131.873 39H126.232ZM120.59 39H114.948C114.948 42.1159 117.474 44.6418 120.59 44.6418V39ZM120.59 6.86436V1.22257C117.474 1.22257 114.948 3.74848 114.948 6.86436H120.59ZM146.587 6.86436H140.945V39H146.587H152.229V6.86436H146.587ZM146.587 39V33.3582H140.945V39V44.6418H146.587V39ZM140.945 39H146.587V11.7389H140.945H135.304V39H140.945ZM140.945 11.7389V6.09707H126.232V11.7389V17.3807H140.945V11.7389ZM126.232 11.7389H120.59V39H126.232H131.873V11.7389H126.232ZM126.232 39V33.3582H120.59V39V44.6418H126.232V39ZM120.59 39H126.232V6.86436H120.59H114.948V39H120.59ZM120.59 6.86436V12.5061H146.587V6.86436V1.22257H120.59V6.86436ZM148.829 6.86436V1.22257C145.714 1.22257 143.188 3.74848 143.188 6.86436H148.829ZM170.945 9.34675L167.333 13.6809C167.357 13.7006 167.381 13.7201 167.405 13.7394L170.945 9.34675ZM171.171 23.9703L175.06 28.0573C175.072 28.0464 175.083 28.0355 175.094 28.0245L171.171 23.9703ZM154.471 26.6332V20.9914C151.355 20.9914 148.829 23.5173 148.829 26.6332H154.471ZM154.471 39V44.6418C157.587 44.6418 160.113 42.1159 160.113 39H154.471ZM148.829 39H143.188C143.188 42.1159 145.714 44.6418 148.829 44.6418V39ZM154.471 11.5583V5.91654C151.355 5.91654 148.829 8.44245 148.829 11.5583H154.471ZM154.471 22.0746H148.829C148.829 25.1905 151.355 27.7164 154.471 27.7164V22.0746ZM148.829 6.86436V12.5061H162.776V6.86436V1.22257H148.829V6.86436ZM162.776 6.86436V12.5061C165.366 12.5061 166.66 13.1196 167.333 13.6809L170.945 9.34675L174.557 5.0126C171.259 2.26405 167.107 1.22257 162.776 1.22257V6.86436ZM170.945 9.34675L167.405 13.7394C167.761 14.0265 168.327 14.6395 168.327 16.6585H173.969H179.611C179.611 12.1781 178.161 7.91665 174.486 4.95407L170.945 9.34675ZM173.969 16.6585H168.327C168.327 18.5003 167.816 19.3661 167.248 19.9161L171.171 23.9703L175.094 28.0245C178.257 24.9637 179.611 20.955 179.611 16.6585H173.969ZM171.171 23.9703L167.282 19.8833C166.711 20.4262 165.695 20.9914 163.543 20.9914V26.6332V32.275C167.831 32.275 171.9 31.0649 175.06 28.0573L171.171 23.9703ZM163.543 26.6332V20.9914H154.471V26.6332V32.275H163.543V26.6332ZM154.471 26.6332H148.829V39H154.471H160.113V26.6332H154.471ZM154.471 39V33.3582H148.829V39V44.6418H154.471V39ZM148.829 39H154.471V6.86436H148.829H143.188V39H148.829ZM154.471 11.5583H148.829V22.0746H154.471H160.113V11.5583H154.471ZM154.471 22.0746V27.7164H162.325V22.0746V16.4328H154.471V22.0746ZM162.325 22.0746V27.7164C165.05 27.7164 168.147 27.1484 170.608 25.0313C173.231 22.7745 174.105 19.6639 174.105 16.7939H168.463H162.821C162.821 17.1404 162.769 17.1927 162.819 17.0659C162.844 16.999 162.892 16.899 162.972 16.7845C163.053 16.6689 163.148 16.5643 163.249 16.4775C163.457 16.2984 163.581 16.2851 163.455 16.3214C163.312 16.3623 162.962 16.4328 162.325 16.4328V22.0746ZM168.463 16.7939H174.105C174.105 13.7765 173.082 10.6341 170.299 8.43831C167.771 6.44347 164.629 5.91654 161.828 5.91654V11.5583V17.2001C162.581 17.2001 163.047 17.2764 163.296 17.3417C163.534 17.4046 163.482 17.4327 163.309 17.2961C163.223 17.2279 163.127 17.1347 163.039 17.0182C162.95 16.9019 162.89 16.7897 162.851 16.6987C162.775 16.5193 162.821 16.5081 162.821 16.7939H168.463ZM161.828 11.5583V5.91654H154.471V11.5583V17.2001H161.828V11.5583ZM174.24 39H168.598C168.598 42.1159 171.124 44.6418 174.24 44.6418V39ZM174.24 6.86436V1.22257C171.124 1.22257 168.598 3.74848 168.598 6.86436H174.24ZM179.882 6.86436H185.523C185.523 3.74848 182.997 1.22257 179.882 1.22257V6.86436ZM179.882 31.5077H174.24C174.24 34.0746 175.973 36.318 178.456 36.9665C180.94 37.615 183.548 36.5052 184.803 34.2659L179.882 31.5077ZM193.693 6.86436V1.22257C191.651 1.22257 189.769 2.32532 188.771 4.10611L193.693 6.86436ZM200.237 6.86436H205.879C205.879 3.74848 203.353 1.22257 200.237 1.22257V6.86436ZM200.237 39V44.6418C203.353 44.6418 205.879 42.1159 205.879 39H200.237ZM194.595 39H188.954C188.954 42.1159 191.479 44.6418 194.595 44.6418V39ZM194.595 14.3567H200.237C200.237 11.7897 198.504 9.5464 196.021 8.89789C193.537 8.24938 190.929 9.35919 189.674 11.5984L194.595 14.3567ZM180.784 39V44.6418C182.826 44.6418 184.708 43.539 185.706 41.7582L180.784 39ZM174.24 39H179.882V6.86436H174.24H168.598V39H174.24ZM174.24 6.86436V12.5061H179.882V6.86436V1.22257H174.24V6.86436ZM179.882 6.86436H174.24V31.5077H179.882H185.523V6.86436H179.882ZM179.882 31.5077L184.803 34.2659L198.614 9.6226L193.693 6.86436L188.771 4.10611L174.96 28.7495L179.882 31.5077ZM193.693 6.86436V12.5061H200.237V6.86436V1.22257H193.693V6.86436ZM200.237 6.86436H194.595V39H200.237H205.879V6.86436H200.237ZM200.237 39V33.3582H194.595V39V44.6418H200.237V39ZM194.595 39H200.237V14.3567H194.595H188.954V39H194.595ZM194.595 14.3567L189.674 11.5984L175.863 36.2418L180.784 39L185.706 41.7582L199.517 17.1149L194.595 14.3567ZM180.784 39V33.3582H174.24V39V44.6418H180.784V39ZM226.626 39V44.6418C229.742 44.6418 232.268 42.1159 232.268 39H226.626ZM220.984 39H215.343C215.343 42.1159 217.869 44.6418 220.984 44.6418V39ZM220.984 25.7305H226.626C226.626 22.6146 224.1 20.0887 220.984 20.0887V25.7305ZM214.575 25.7305V20.0887C212.717 20.0887 210.978 21.0039 209.925 22.5356L214.575 25.7305ZM205.458 39V44.6418C207.317 44.6418 209.056 43.7266 210.108 42.1949L205.458 39ZM198.417 39L193.829 35.7165C192.599 37.4358 192.433 39.6989 193.4 41.5793C194.366 43.4597 196.303 44.6418 198.417 44.6418V39ZM208.302 25.1889L212.89 28.4724C213.946 26.9962 214.228 25.1019 213.646 23.3823C213.065 21.6626 211.692 20.3277 209.957 19.7953L208.302 25.1889ZM202.84 21.5781L198.051 24.5602L202.84 21.5781ZM204.149 9.30161L207.815 13.5901C207.829 13.5788 207.842 13.5674 207.855 13.556L204.149 9.30161ZM226.626 6.86436H232.268C232.268 3.74848 229.742 1.22257 226.626 1.22257V6.86436ZM220.984 21.4427V27.0845C224.1 27.0845 226.626 24.5586 226.626 21.4427H220.984ZM220.984 11.4681H226.626C226.626 8.35218 224.1 5.82627 220.984 5.82627V11.4681ZM208.347 12.6416L211.959 16.9757C211.987 16.9524 212.014 16.9288 212.042 16.905L208.347 12.6416ZM226.626 39V33.3582H220.984V39V44.6418H226.626V39ZM220.984 39H226.626V25.7305H220.984H215.343V39H220.984ZM220.984 25.7305V20.0887H214.575V25.7305V31.3723H220.984V25.7305ZM214.575 25.7305L209.925 22.5356L200.808 35.8051L205.458 39L210.108 42.1949L219.225 28.9254L214.575 25.7305ZM205.458 39V33.3582H198.417V39V44.6418H205.458V39ZM198.417 39L203.005 42.2835L212.89 28.4724L208.302 25.1889L203.714 21.9054L193.829 35.7165L198.417 39ZM208.302 25.1889L209.957 19.7953C209.017 19.507 208.42 19.2074 208.062 18.9707C207.72 18.7444 207.634 18.6022 207.63 18.5961L202.84 21.5781L198.051 24.5602C200.038 27.7518 203.299 29.5555 206.647 30.5825L208.302 25.1889ZM202.84 21.5781L207.63 18.5961C207.304 18.0731 206.993 17.2183 206.993 15.7558H201.351H195.709C195.709 18.8669 196.391 21.8937 198.051 24.5602L202.84 21.5781ZM201.351 15.7558H206.993C206.993 14.5052 207.343 13.9941 207.815 13.5901L204.149 9.30161L200.483 5.01317C197.225 7.79866 195.709 11.5903 195.709 15.7558H201.351ZM204.149 9.30161L207.855 13.556C208.373 13.105 209.499 12.5061 212.003 12.5061V6.86436V1.22257C207.766 1.22257 203.657 2.24856 200.444 5.04724L204.149 9.30161ZM212.003 6.86436V12.5061H226.626V6.86436V1.22257H212.003V6.86436ZM226.626 6.86436H220.984V39H226.626H232.268V6.86436H226.626ZM220.984 21.4427H226.626V11.4681H220.984H215.343V21.4427H220.984ZM220.984 11.4681V5.82627H212.589V11.4681V17.1099H220.984V11.4681ZM212.589 11.4681V5.82627C210.087 5.82627 207.047 6.30244 204.652 8.37811L208.347 12.6416L212.042 16.905C211.731 17.1741 211.509 17.221 211.589 17.1991C211.681 17.1736 211.986 17.1099 212.589 17.1099V11.4681ZM208.347 12.6416L204.735 8.30741C202.084 10.5169 201.351 13.6364 201.351 16.2523H206.993H212.635C212.635 15.9162 212.683 15.9049 212.614 16.0894C212.577 16.1888 212.509 16.3347 212.393 16.5017C212.276 16.671 212.129 16.8336 211.959 16.9757L208.347 12.6416ZM206.993 16.2523H201.351C201.351 18.9401 202.08 21.9697 204.5 24.2505C206.857 26.4723 209.874 27.0845 212.499 27.0845V21.4427V15.801C212.007 15.801 211.797 15.7409 211.781 15.736C211.78 15.7354 211.833 15.752 211.921 15.8021C212.012 15.8533 212.124 15.9309 212.239 16.0397C212.355 16.1491 212.452 16.2685 212.527 16.3858C212.6 16.5013 212.639 16.5932 212.656 16.6422C212.687 16.7301 212.635 16.6342 212.635 16.2523H206.993ZM212.499 21.4427V27.0845H220.984V21.4427V15.801H212.499V21.4427ZM251.837 6.86436H257.479C257.479 3.74848 254.953 1.22257 251.837 1.22257V6.86436ZM251.837 11.7389V17.3807C254.953 17.3807 257.479 14.8547 257.479 11.7389H251.837ZM241.591 11.7389V6.09707C238.476 6.09707 235.95 8.62299 235.95 11.7389H241.591ZM241.591 39V44.6418C244.707 44.6418 247.233 42.1159 247.233 39H241.591ZM235.95 39H230.308C230.308 42.1159 232.834 44.6418 235.95 44.6418V39ZM235.95 11.7389H241.591C241.591 8.62299 239.066 6.09707 235.95 6.09707V11.7389ZM225.704 11.7389H220.062C220.062 14.8547 222.588 17.3807 225.704 17.3807V11.7389ZM225.704 6.86436V1.22257C222.588 1.22257 220.062 3.74848 220.062 6.86436H225.704ZM251.837 6.86436H246.195V11.7389H251.837H257.479V6.86436H251.837ZM251.837 11.7389V6.09707H241.591V11.7389V17.3807H251.837V11.7389ZM241.591 11.7389H235.95V39H241.591H247.233V11.7389H241.591ZM241.591 39V33.3582H235.95V39V44.6418H241.591V39ZM235.95 39H241.591V11.7389H235.95H230.308V39H235.95ZM235.95 11.7389V6.09707H225.704V11.7389V17.3807H235.95V11.7389ZM225.704 11.7389H231.346V6.86436H225.704H220.062V11.7389H225.704ZM225.704 6.86436V12.5061H251.837V6.86436V1.22257H225.704V6.86436ZM250.924 39H245.282C245.282 42.1159 247.808 44.6418 250.924 44.6418V39ZM250.924 6.86436V1.22257C247.808 1.22257 245.282 3.74848 245.282 6.86436H250.924ZM256.566 6.86436H262.208C262.208 3.74848 259.682 1.22257 256.566 1.22257V6.86436ZM256.566 31.5077H250.924C250.924 34.0746 252.657 36.318 255.14 36.9665C257.624 37.615 260.232 36.5052 261.487 34.2659L256.566 31.5077ZM270.377 6.86436V1.22257C268.336 1.22257 266.453 2.32532 265.455 4.10611L270.377 6.86436ZM276.921 6.86436H282.563C282.563 3.74848 280.037 1.22257 276.921 1.22257V6.86436ZM276.921 39V44.6418C280.037 44.6418 282.563 42.1159 282.563 39H276.921ZM271.28 39H265.638C265.638 42.1159 268.164 44.6418 271.28 44.6418V39ZM271.28 14.3567H276.921C276.921 11.7897 275.189 9.5464 272.705 8.89789C270.221 8.24938 267.613 9.35919 266.358 11.5984L271.28 14.3567ZM257.469 39V44.6418C259.51 44.6418 261.392 43.539 262.39 41.7582L257.469 39ZM250.924 39H256.566V6.86436H250.924H245.282V39H250.924ZM250.924 6.86436V12.5061H256.566V6.86436V1.22257H250.924V6.86436ZM256.566 6.86436H250.924V31.5077H256.566H262.208V6.86436H256.566ZM256.566 31.5077L261.487 34.2659L275.298 9.6226L270.377 6.86436L265.455 4.10611L251.644 28.7495L256.566 31.5077ZM270.377 6.86436V12.5061H276.921V6.86436V1.22257H270.377V6.86436ZM276.921 6.86436H271.28V39H276.921H282.563V6.86436H276.921ZM276.921 39V33.3582H271.28V39V44.6418H276.921V39ZM271.28 39H276.921V14.3567H271.28H265.638V39H271.28ZM271.28 14.3567L266.358 11.5984L252.547 36.2418L257.469 39L262.39 41.7582L276.201 17.1149L271.28 14.3567ZM257.469 39V33.3582H250.924V39V44.6418H257.469V39ZM303.311 39V44.6418C306.426 44.6418 308.952 42.1159 308.952 39H303.311ZM297.669 39H292.027C292.027 42.1159 294.553 44.6418 297.669 44.6418V39ZM297.669 25.7305H303.311C303.311 22.6146 300.785 20.0887 297.669 20.0887V25.7305ZM291.26 25.7305V20.0887C289.401 20.0887 287.662 21.0039 286.61 22.5356L291.26 25.7305ZM282.143 39V44.6418C284.001 44.6418 285.74 43.7266 286.793 42.1949L282.143 39ZM275.102 39L270.514 35.7165C269.283 37.4358 269.117 39.6989 270.084 41.5793C271.05 43.4597 272.987 44.6418 275.102 44.6418V39ZM284.986 25.1889L289.574 28.4724C290.63 26.9962 290.912 25.1019 290.331 23.3823C289.749 21.6626 288.376 20.3277 286.641 19.7953L284.986 25.1889ZM279.525 21.5781L274.735 24.5602L279.525 21.5781ZM280.834 9.30161L284.5 13.5901C284.513 13.5788 284.526 13.5674 284.539 13.556L280.834 9.30161ZM303.311 6.86436H308.952C308.952 3.74848 306.426 1.22257 303.311 1.22257V6.86436ZM297.669 21.4427V27.0845C300.785 27.0845 303.311 24.5586 303.311 21.4427H297.669ZM297.669 11.4681H303.311C303.311 8.35218 300.785 5.82627 297.669 5.82627V11.4681ZM285.031 12.6416L288.643 16.9757C288.671 16.9524 288.699 16.9288 288.726 16.905L285.031 12.6416ZM303.311 39V33.3582H297.669V39V44.6418H303.311V39ZM297.669 39H303.311V25.7305H297.669H292.027V39H297.669ZM297.669 25.7305V20.0887H291.26V25.7305V31.3723H297.669V25.7305ZM291.26 25.7305L286.61 22.5356L277.493 35.8051L282.143 39L286.793 42.1949L295.91 28.9254L291.26 25.7305ZM282.143 39V33.3582H275.102V39V44.6418H282.143V39ZM275.102 39L279.689 42.2835L289.574 28.4724L284.986 25.1889L280.398 21.9054L270.514 35.7165L275.102 39ZM284.986 25.1889L286.641 19.7953C285.701 19.507 285.104 19.2074 284.746 18.9707C284.404 18.7444 284.318 18.6022 284.314 18.5961L279.525 21.5781L274.735 24.5602C276.723 27.7518 279.984 29.5555 283.331 30.5825L284.986 25.1889ZM279.525 21.5781L284.314 18.5961C283.988 18.0731 283.677 17.2183 283.677 15.7558H278.035H272.394C272.394 18.8669 273.075 21.8937 274.735 24.5602L279.525 21.5781ZM278.035 15.7558H283.677C283.677 14.5052 284.027 13.9941 284.5 13.5901L280.834 9.30161L277.168 5.01317C273.909 7.79866 272.394 11.5903 272.394 15.7558H278.035ZM280.834 9.30161L284.539 13.556C285.057 13.105 286.183 12.5061 288.687 12.5061V6.86436V1.22257C284.451 1.22257 280.342 2.24856 277.128 5.04724L280.834 9.30161ZM288.687 6.86436V12.5061H303.311V6.86436V1.22257H288.687V6.86436ZM303.311 6.86436H297.669V39H303.311H308.952V6.86436H303.311ZM297.669 21.4427H303.311V11.4681H297.669H292.027V21.4427H297.669ZM297.669 11.4681V5.82627H289.274V11.4681V17.1099H297.669V11.4681ZM289.274 11.4681V5.82627C286.772 5.82627 283.731 6.30244 281.336 8.37811L285.031 12.6416L288.726 16.905C288.416 17.1741 288.193 17.221 288.273 17.1991C288.365 17.1736 288.671 17.1099 289.274 17.1099V11.4681ZM285.031 12.6416L281.419 8.30741C278.768 10.5169 278.035 13.6364 278.035 16.2523H283.677H289.319C289.319 15.9162 289.367 15.9049 289.298 16.0894C289.261 16.1888 289.193 16.3347 289.077 16.5017C288.96 16.671 288.813 16.8336 288.643 16.9757L285.031 12.6416ZM283.677 16.2523H278.035C278.035 18.9401 278.764 21.9697 281.184 24.2505C283.541 26.4723 286.559 27.0845 289.184 27.0845V21.4427V15.801C288.691 15.801 288.481 15.7409 288.466 15.736C288.464 15.7354 288.517 15.752 288.605 15.8021C288.696 15.8533 288.808 15.9309 288.924 16.0397C289.04 16.1491 289.136 16.2685 289.211 16.3858C289.284 16.5013 289.323 16.5932 289.34 16.6422C289.371 16.7301 289.319 16.6342 289.319 16.2523H283.677ZM289.184 21.4427V27.0845H297.669V21.4427V15.801H289.184V21.4427Z" fill="#8F8F8F" mask="url(#path-1-outside-1_3144_1912)"/>
</svg>
