<svg width="35" height="35" viewBox="0 0 35 35" fill="none" xmlns="http://www.w3.org/2000/svg">
<path d="M26.25 17.5C26.25 12.6744 22.3256 8.75 17.5 8.75C12.6744 8.75 8.75 12.6744 8.75 17.5C8.75 22.3256 12.6744 26.25 17.5 26.25C22.3256 26.25 26.25 22.3256 26.25 17.5ZM17.5 23.3333C14.2829 23.3333 11.6667 20.7171 11.6667 17.5C11.6667 14.2829 14.2829 11.6667 17.5 11.6667C20.7171 11.6667 23.3333 14.2829 23.3333 17.5C23.3333 20.7171 20.7171 23.3333 17.5 23.3333ZM11.6667 33.5417C11.6667 34.3481 11.0148 35 10.2083 35H7.29167C3.27104 35 0 31.729 0 27.7083V24.7917C0 23.9852 0.651875 23.3333 1.45833 23.3333C2.26479 23.3333 2.91667 23.9852 2.91667 24.7917V27.7083C2.91667 30.1204 4.87958 32.0833 7.29167 32.0833H10.2083C11.0148 32.0833 11.6667 32.7352 11.6667 33.5417ZM35 24.7917V27.7083C35 31.729 31.729 35 27.7083 35H24.7917C23.9852 35 23.3333 34.3481 23.3333 33.5417C23.3333 32.7352 23.9852 32.0833 24.7917 32.0833H27.7083C30.1204 32.0833 32.0833 30.1204 32.0833 27.7083V24.7917C32.0833 23.9852 32.7352 23.3333 33.5417 23.3333C34.3481 23.3333 35 23.9852 35 24.7917ZM35 7.29167V10.2083C35 11.0148 34.3481 11.6667 33.5417 11.6667C32.7352 11.6667 32.0833 11.0148 32.0833 10.2083V7.29167C32.0833 4.87958 30.1204 2.91667 27.7083 2.91667H24.7917C23.9852 2.91667 23.3333 2.26479 23.3333 1.45833C23.3333 0.651875 23.9852 0 24.7917 0H27.7083C31.729 0 35 3.27104 35 7.29167ZM0 10.2083V7.29167C0 3.27104 3.27104 0 7.29167 0H10.2083C11.0148 0 11.6667 0.651875 11.6667 1.45833C11.6667 2.26479 11.0148 2.91667 10.2083 2.91667H7.29167C4.87958 2.91667 2.91667 4.87958 2.91667 7.29167V10.2083C2.91667 11.0148 2.26479 11.6667 1.45833 11.6667C0.651875 11.6667 0 11.0148 0 10.2083Z" fill="#8F8F8F"/>
</svg>
