<svg width="825" height="129" viewBox="0 0 825 129" fill="none" xmlns="http://www.w3.org/2000/svg">
<mask id="path-1-outside-1_3354_1490" maskUnits="userSpaceOnUse" x="0" y="0" width="825" height="129" fill="black">
<rect fill="white" width="825" height="129"/>
<path d="M16.384 18.864H36.48L51.072 80.816L67.072 18.864H85.888L101.632 81.584L116.736 18.864H136.448L111.872 110H91.904L76.288 47.792L60.928 110H40.576L16.384 18.864ZM210.091 18.864V110H190.123V70.704H152.875V110H132.907V18.864H152.875V53.168H190.123V18.864H210.091ZM256.198 16.688C269.51 16.688 280.262 21.1253 288.454 30C296.731 38.7893 300.87 50.3093 300.87 64.56C300.87 78.8107 296.731 90.3307 288.454 99.12C280.262 107.824 269.467 112.176 256.07 112.176C242.587 112.176 231.707 107.824 223.43 99.12C215.153 90.3307 211.014 78.8107 211.014 64.56C211.014 50.1387 215.11 38.576 223.302 29.872C231.579 21.0827 242.545 16.688 256.198 16.688ZM255.942 33.072C248.433 33.072 242.417 35.888 237.894 41.52C233.457 47.152 231.238 54.704 231.238 64.176C231.238 73.9893 233.457 81.6693 237.894 87.216C242.331 92.7627 248.433 95.5787 256.198 95.664C263.793 95.664 269.766 92.848 274.118 87.216C278.47 81.584 280.646 73.904 280.646 64.176C280.646 54.6187 278.427 47.0667 273.99 41.52C269.553 35.888 263.537 33.072 255.942 33.072ZM369.944 18.736L404.632 110H383.64L376.472 89.648H342.552L335.128 110H314.648L349.336 18.736H369.944ZM371.608 75.056L359.576 41.136L347.416 75.056H371.608ZM400.225 18.864H445.537C454.582 18.864 461.964 20.9973 467.681 25.264C473.398 29.5307 476.257 36.016 476.257 44.72C476.257 50.0107 474.977 54.6613 472.417 58.672C469.857 62.5973 466.316 65.4133 461.793 67.12C469.644 68.7413 474.124 75.824 475.233 88.368C475.233 88.7947 475.318 90.1173 475.489 92.336C475.66 94.5547 475.83 96.3467 476.001 97.712C476.172 98.992 476.385 100.571 476.641 102.448C476.897 104.325 477.281 105.904 477.793 107.184C478.305 108.464 478.902 109.403 479.585 110H458.849C458.166 108.635 457.654 106.928 457.313 104.88C456.972 102.747 456.673 100.059 456.417 96.816C456.161 93.488 456.033 91.6533 456.033 91.312C455.35 84.912 453.729 80.4747 451.169 78C448.694 75.5253 444.257 74.288 437.857 74.288H420.065V110H400.225V18.864ZM420.065 34.608V59.824H439.009C444.556 59.824 448.865 58.9707 451.937 57.264C455.094 55.472 456.673 52.016 456.673 46.896C456.673 42.1173 455.137 38.8747 452.065 37.168C449.078 35.4613 445.025 34.608 439.905 34.608H420.065ZM547.384 18.864V35.248H498.872V55.088H543.416V70.832H498.872V93.232H548.28V110H479.032V18.864H547.384ZM563.609 18.864H583.705L598.297 80.816L614.297 18.864H633.113L648.857 81.584L663.961 18.864H683.673L659.097 110H639.129L623.513 47.792L608.153 110H587.801L563.609 18.864ZM748.484 18.864V35.248H699.972V55.088H744.516V70.832H699.972V93.232H749.38V110H680.132V18.864H748.484ZM745.468 48.304C746.065 38.4907 749.095 30.8107 754.556 25.264C760.017 19.7173 767.74 16.944 777.724 16.944C786.855 16.944 794.193 19.376 799.74 24.24C805.287 29.0187 808.06 35.3333 808.06 43.184C808.06 48.1333 806.78 52.4 804.22 55.984C801.745 59.568 798.204 62.9387 793.596 66.096C789.841 68.656 787.409 70.96 786.3 73.008C785.191 74.9707 784.636 78.1707 784.636 82.608H767.612C767.612 76.6347 768.081 72.0693 769.02 68.912C770.044 65.6693 772.519 62.384 776.444 59.056C776.956 58.6293 778.023 57.776 779.644 56.496C781.265 55.216 782.417 54.2347 783.1 53.552C783.783 52.8693 784.636 51.9307 785.66 50.736C786.684 49.5413 787.409 48.304 787.836 47.024C788.263 45.744 788.476 44.336 788.476 42.8C788.476 39.728 787.452 37.2533 785.404 35.376C783.441 33.4987 780.796 32.56 777.468 32.56C768.935 32.56 764.497 37.808 764.156 48.304H745.468ZM785.916 90.416V110H766.076V90.416H785.916Z"/>
</mask>
<path d="M16.384 18.864H36.48L51.072 80.816L67.072 18.864H85.888L101.632 81.584L116.736 18.864H136.448L111.872 110H91.904L76.288 47.792L60.928 110H40.576L16.384 18.864ZM210.091 18.864V110H190.123V70.704H152.875V110H132.907V18.864H152.875V53.168H190.123V18.864H210.091ZM256.198 16.688C269.51 16.688 280.262 21.1253 288.454 30C296.731 38.7893 300.87 50.3093 300.87 64.56C300.87 78.8107 296.731 90.3307 288.454 99.12C280.262 107.824 269.467 112.176 256.07 112.176C242.587 112.176 231.707 107.824 223.43 99.12C215.153 90.3307 211.014 78.8107 211.014 64.56C211.014 50.1387 215.11 38.576 223.302 29.872C231.579 21.0827 242.545 16.688 256.198 16.688ZM255.942 33.072C248.433 33.072 242.417 35.888 237.894 41.52C233.457 47.152 231.238 54.704 231.238 64.176C231.238 73.9893 233.457 81.6693 237.894 87.216C242.331 92.7627 248.433 95.5787 256.198 95.664C263.793 95.664 269.766 92.848 274.118 87.216C278.47 81.584 280.646 73.904 280.646 64.176C280.646 54.6187 278.427 47.0667 273.99 41.52C269.553 35.888 263.537 33.072 255.942 33.072ZM369.944 18.736L404.632 110H383.64L376.472 89.648H342.552L335.128 110H314.648L349.336 18.736H369.944ZM371.608 75.056L359.576 41.136L347.416 75.056H371.608ZM400.225 18.864H445.537C454.582 18.864 461.964 20.9973 467.681 25.264C473.398 29.5307 476.257 36.016 476.257 44.72C476.257 50.0107 474.977 54.6613 472.417 58.672C469.857 62.5973 466.316 65.4133 461.793 67.12C469.644 68.7413 474.124 75.824 475.233 88.368C475.233 88.7947 475.318 90.1173 475.489 92.336C475.66 94.5547 475.83 96.3467 476.001 97.712C476.172 98.992 476.385 100.571 476.641 102.448C476.897 104.325 477.281 105.904 477.793 107.184C478.305 108.464 478.902 109.403 479.585 110H458.849C458.166 108.635 457.654 106.928 457.313 104.88C456.972 102.747 456.673 100.059 456.417 96.816C456.161 93.488 456.033 91.6533 456.033 91.312C455.35 84.912 453.729 80.4747 451.169 78C448.694 75.5253 444.257 74.288 437.857 74.288H420.065V110H400.225V18.864ZM420.065 34.608V59.824H439.009C444.556 59.824 448.865 58.9707 451.937 57.264C455.094 55.472 456.673 52.016 456.673 46.896C456.673 42.1173 455.137 38.8747 452.065 37.168C449.078 35.4613 445.025 34.608 439.905 34.608H420.065ZM547.384 18.864V35.248H498.872V55.088H543.416V70.832H498.872V93.232H548.28V110H479.032V18.864H547.384ZM563.609 18.864H583.705L598.297 80.816L614.297 18.864H633.113L648.857 81.584L663.961 18.864H683.673L659.097 110H639.129L623.513 47.792L608.153 110H587.801L563.609 18.864ZM748.484 18.864V35.248H699.972V55.088H744.516V70.832H699.972V93.232H749.38V110H680.132V18.864H748.484ZM745.468 48.304C746.065 38.4907 749.095 30.8107 754.556 25.264C760.017 19.7173 767.74 16.944 777.724 16.944C786.855 16.944 794.193 19.376 799.74 24.24C805.287 29.0187 808.06 35.3333 808.06 43.184C808.06 48.1333 806.78 52.4 804.22 55.984C801.745 59.568 798.204 62.9387 793.596 66.096C789.841 68.656 787.409 70.96 786.3 73.008C785.191 74.9707 784.636 78.1707 784.636 82.608H767.612C767.612 76.6347 768.081 72.0693 769.02 68.912C770.044 65.6693 772.519 62.384 776.444 59.056C776.956 58.6293 778.023 57.776 779.644 56.496C781.265 55.216 782.417 54.2347 783.1 53.552C783.783 52.8693 784.636 51.9307 785.66 50.736C786.684 49.5413 787.409 48.304 787.836 47.024C788.263 45.744 788.476 44.336 788.476 42.8C788.476 39.728 787.452 37.2533 785.404 35.376C783.441 33.4987 780.796 32.56 777.468 32.56C768.935 32.56 764.497 37.808 764.156 48.304H745.468ZM785.916 90.416V110H766.076V90.416H785.916Z" fill="#CFF665"/>
<path d="M16.384 18.864V2.864C11.4163 2.864 6.73045 5.17142 3.70172 9.10901C0.672996 13.0466 -0.354963 18.1676 0.919564 22.969L16.384 18.864ZM36.48 18.864L52.0538 15.1958C50.3519 7.97006 43.9034 2.864 36.48 2.864V18.864ZM51.072 80.816L35.4982 84.4842C37.1854 91.6477 43.5416 96.7363 50.9006 96.8151C58.2597 96.8939 64.7234 91.9426 66.5637 84.8169L51.072 80.816ZM67.072 18.864V2.864C59.7764 2.864 53.4047 7.79922 51.5803 14.863L67.072 18.864ZM85.888 18.864L101.407 14.9685C99.6204 7.85312 93.2242 2.864 85.888 2.864V18.864ZM101.632 81.584L86.1135 85.4795C87.9066 92.6227 94.3442 97.6192 101.709 97.5838C109.074 97.5484 115.463 92.4901 117.187 85.33L101.632 81.584ZM116.736 18.864V2.864C109.342 2.864 102.912 7.92993 101.181 15.118L116.736 18.864ZM136.448 18.864L151.896 23.0298C153.192 18.2228 152.177 13.0863 149.149 9.13396C146.122 5.18165 141.427 2.864 136.448 2.864V18.864ZM111.872 110V126C119.104 126 125.437 121.149 127.32 114.166L111.872 110ZM91.904 110L76.3855 113.896C78.1716 121.011 84.5679 126 91.904 126V110ZM76.288 47.792L91.8065 43.8964C90.0175 36.7698 83.6047 31.7778 76.257 31.792C68.9094 31.8063 62.5159 36.8231 60.7545 43.9566L76.288 47.792ZM60.928 110V126C68.2872 126 74.6974 120.98 76.4615 113.835L60.928 110ZM40.576 110L25.1116 114.105C26.9731 121.118 33.3204 126 40.576 126V110ZM16.384 18.864V34.864H36.48V18.864V2.864H16.384V18.864ZM36.48 18.864L20.9062 22.5322L35.4982 84.4842L51.072 80.816L66.6458 77.1478L52.0538 15.1958L36.48 18.864ZM51.072 80.816L66.5637 84.8169L82.5637 22.865L67.072 18.864L51.5803 14.863L35.5803 76.815L51.072 80.816ZM67.072 18.864V34.864H85.888V18.864V2.864H67.072V18.864ZM85.888 18.864L70.3695 22.7595L86.1135 85.4795L101.632 81.584L117.151 77.6885L101.407 14.9685L85.888 18.864ZM101.632 81.584L117.187 85.33L132.291 22.61L116.736 18.864L101.181 15.118L86.0767 77.838L101.632 81.584ZM116.736 18.864V34.864H136.448V18.864V2.864H116.736V18.864ZM136.448 18.864L121 14.6982L96.4238 105.834L111.872 110L127.32 114.166L151.896 23.0298L136.448 18.864ZM111.872 110V94H91.904V110V126H111.872V110ZM91.904 110L107.423 106.104L91.8065 43.8964L76.288 47.792L60.7695 51.6876L76.3855 113.896L91.904 110ZM76.288 47.792L60.7545 43.9566L45.3945 106.165L60.928 110L76.4615 113.835L91.8215 51.6274L76.288 47.792ZM60.928 110V94H40.576V110V126H60.928V110ZM40.576 110L56.0404 105.895L31.8484 14.759L16.384 18.864L0.919564 22.969L25.1116 114.105L40.576 110ZM210.091 18.864H226.091C226.091 10.0274 218.928 2.864 210.091 2.864V18.864ZM210.091 110V126C218.928 126 226.091 118.837 226.091 110H210.091ZM190.123 110H174.123C174.123 118.837 181.286 126 190.123 126V110ZM190.123 70.704H206.123C206.123 61.8674 198.96 54.704 190.123 54.704V70.704ZM152.875 70.704V54.704C144.038 54.704 136.875 61.8674 136.875 70.704H152.875ZM152.875 110V126C161.712 126 168.875 118.837 168.875 110H152.875ZM132.907 110H116.907C116.907 118.837 124.07 126 132.907 126V110ZM132.907 18.864V2.864C124.07 2.864 116.907 10.0274 116.907 18.864H132.907ZM152.875 18.864H168.875C168.875 10.0274 161.712 2.864 152.875 2.864V18.864ZM152.875 53.168H136.875C136.875 62.0046 144.038 69.168 152.875 69.168V53.168ZM190.123 53.168V69.168C198.96 69.168 206.123 62.0046 206.123 53.168H190.123ZM190.123 18.864V2.864C181.286 2.864 174.123 10.0274 174.123 18.864H190.123ZM210.091 18.864H194.091V110H210.091H226.091V18.864H210.091ZM210.091 110V94H190.123V110V126H210.091V110ZM190.123 110H206.123V70.704H190.123H174.123V110H190.123ZM190.123 70.704V54.704H152.875V70.704V86.704H190.123V70.704ZM152.875 70.704H136.875V110H152.875H168.875V70.704H152.875ZM152.875 110V94H132.907V110V126H152.875V110ZM132.907 110H148.907V18.864H132.907H116.907V110H132.907ZM132.907 18.864V34.864H152.875V18.864V2.864H132.907V18.864ZM152.875 18.864H136.875V53.168H152.875H168.875V18.864H152.875ZM152.875 53.168V69.168H190.123V53.168V37.168H152.875V53.168ZM190.123 53.168H206.123V18.864H190.123H174.123V53.168H190.123ZM190.123 18.864V34.864H210.091V18.864V2.864H190.123V18.864ZM288.454 30L276.697 40.8525C276.733 40.8916 276.77 40.9306 276.806 40.9694L288.454 30ZM288.454 99.12L276.806 88.1506L276.803 88.1542L288.454 99.12ZM223.43 99.12L211.782 110.089C211.8 110.108 211.818 110.127 211.836 110.146L223.43 99.12ZM223.302 29.872L211.654 18.9026L211.651 18.9062L223.302 29.872ZM237.894 41.52L225.419 31.5018C225.388 31.5404 225.357 31.5792 225.326 31.618L237.894 41.52ZM237.894 87.216L225.4 97.2111L237.894 87.216ZM256.198 95.664L256.022 111.663C256.081 111.664 256.139 111.664 256.198 111.664V95.664ZM274.118 87.216L286.779 96.9992L274.118 87.216ZM273.99 41.52L261.422 51.422C261.447 51.4531 261.471 51.4842 261.496 51.5151L273.99 41.52ZM256.198 16.688V32.688C265.552 32.688 271.862 35.6145 276.697 40.8525L288.454 30L300.211 19.1475C288.662 6.6362 273.468 0.687996 256.198 0.687996V16.688ZM288.454 30L276.806 40.9694C281.793 46.265 284.87 53.6029 284.87 64.56H300.87H316.87C316.87 47.0158 311.669 31.3136 300.102 19.0306L288.454 30ZM300.87 64.56H284.87C284.87 75.5171 281.793 82.855 276.806 88.1506L288.454 99.12L300.102 110.089C311.669 97.8064 316.87 82.1042 316.87 64.56H300.87ZM288.454 99.12L276.803 88.1542C272.015 93.2409 265.644 96.176 256.07 96.176V112.176V128.176C273.291 128.176 288.509 122.407 300.105 110.086L288.454 99.12ZM256.07 112.176V96.176C246.379 96.176 239.897 93.2177 235.024 88.094L223.43 99.12L211.836 110.146C223.518 122.43 238.796 128.176 256.07 128.176V112.176ZM223.43 99.12L235.078 88.1506C230.091 82.855 227.014 75.5171 227.014 64.56H211.014H195.014C195.014 82.1042 200.215 97.8064 211.782 110.089L223.43 99.12ZM211.014 64.56H227.014C227.014 53.3233 230.111 45.983 234.953 40.8378L223.302 29.872L211.651 18.9062C200.109 31.169 195.014 46.954 195.014 64.56H211.014ZM223.302 29.872L234.95 40.8414C239.794 35.6972 246.32 32.688 256.198 32.688V16.688V0.687996C238.77 0.687996 223.364 6.46808 211.654 18.9026L223.302 29.872ZM255.942 33.072V17.072C243.805 17.072 233.115 21.9179 225.419 31.5018L237.894 41.52L250.369 51.5382C251.719 49.8581 253.06 49.072 255.942 49.072V33.072ZM237.894 41.52L225.326 31.618C218.043 40.8624 215.238 52.2676 215.238 64.176H231.238H247.238C247.238 57.1404 248.871 53.4416 250.462 51.422L237.894 41.52ZM231.238 64.176H215.238C215.238 76.2525 217.964 87.9162 225.4 97.2111L237.894 87.216L250.388 77.2209C248.949 75.4225 247.238 71.7262 247.238 64.176H231.238ZM237.894 87.216L225.4 97.2111C233.14 106.886 243.968 111.531 256.022 111.663L256.198 95.664L256.374 79.665C252.898 79.6268 251.523 78.6397 250.388 77.2209L237.894 87.216ZM256.198 95.664V111.664C268.363 111.664 279.169 106.847 286.779 96.9992L274.118 87.216L261.457 77.4328C260.363 78.8493 259.222 79.664 256.198 79.664V95.664ZM274.118 87.216L286.779 96.9992C293.967 87.6962 296.646 76.1618 296.646 64.176H280.646H264.646C264.646 71.6462 262.973 75.4718 261.457 77.4328L274.118 87.216ZM280.646 64.176H296.646C296.646 52.238 293.866 40.7525 286.484 31.5249L273.99 41.52L261.496 51.5151C262.989 53.3809 264.646 56.9993 264.646 64.176H280.646ZM273.99 41.52L286.558 31.618C278.885 21.8792 268.103 17.072 255.942 17.072V33.072V49.072C258.97 49.072 260.22 49.8968 261.422 51.422L273.99 41.52ZM369.944 18.736L384.9 13.0514C382.54 6.84138 376.587 2.73599 369.944 2.73599V18.736ZM404.632 110V126C409.892 126 414.816 123.414 417.803 119.084C420.79 114.754 421.457 109.232 419.588 104.315L404.632 110ZM383.64 110L368.549 115.315C370.803 121.717 376.852 126 383.64 126V110ZM376.472 89.648L391.563 84.3328C389.309 77.9307 383.26 73.648 376.472 73.648V89.648ZM342.552 89.648V73.648C335.83 73.648 329.824 77.8498 327.521 84.1649L342.552 89.648ZM335.128 110V126C341.85 126 347.856 121.798 350.159 115.483L335.128 110ZM314.648 110L299.692 104.315C297.823 109.232 298.49 114.754 301.477 119.084C304.464 123.414 309.388 126 314.648 126V110ZM349.336 18.736V2.73599C342.693 2.73599 336.74 6.84138 334.38 13.0514L349.336 18.736ZM371.608 75.056V91.056C376.805 91.056 381.678 88.5318 384.677 84.2868C387.675 80.0419 388.425 74.6051 386.687 69.7071L371.608 75.056ZM359.576 41.136L374.655 35.7871C372.394 29.4116 366.367 25.1473 359.603 25.136C352.838 25.1247 346.797 29.3688 344.515 35.7366L359.576 41.136ZM347.416 75.056L332.355 69.6566C330.598 74.5577 331.335 80.0073 334.332 84.265C337.329 88.5227 342.209 91.056 347.416 91.056V75.056ZM369.944 18.736L354.988 24.4206L389.676 115.685L404.632 110L419.588 104.315L384.9 13.0514L369.944 18.736ZM404.632 110V94H383.64V110V126H404.632V110ZM383.64 110L398.731 104.685L391.563 84.3328L376.472 89.648L361.381 94.9632L368.549 115.315L383.64 110ZM376.472 89.648V73.648H342.552V89.648V105.648H376.472V89.648ZM342.552 89.648L327.521 84.1649L320.097 104.517L335.128 110L350.159 115.483L357.583 95.1311L342.552 89.648ZM335.128 110V94H314.648V110V126H335.128V110ZM314.648 110L329.604 115.685L364.292 24.4206L349.336 18.736L334.38 13.0514L299.692 104.315L314.648 110ZM349.336 18.736V34.736H369.944V18.736V2.73599H349.336V18.736ZM371.608 75.056L386.687 69.7071L374.655 35.7871L359.576 41.136L344.497 46.4849L356.529 80.4049L371.608 75.056ZM359.576 41.136L344.515 35.7366L332.355 69.6566L347.416 75.056L362.477 80.4554L374.637 46.5354L359.576 41.136ZM347.416 75.056V91.056H371.608V75.056V59.056H347.416V75.056ZM400.225 18.864V2.864C391.388 2.864 384.225 10.0274 384.225 18.864H400.225ZM467.681 25.264L477.25 12.4411L477.25 12.4411L467.681 25.264ZM472.417 58.672L485.819 67.4123C485.847 67.3685 485.876 67.3246 485.904 67.2806L472.417 58.672ZM461.793 67.12L456.144 52.1504C449.482 54.6642 445.283 61.2778 445.842 68.3761C446.401 75.4744 451.584 81.3492 458.557 82.7893L461.793 67.12ZM475.233 88.368H491.233C491.233 87.8975 491.212 87.4272 491.171 86.9585L475.233 88.368ZM475.489 92.336L491.442 91.1089V91.1088L475.489 92.336ZM476.001 97.712L460.125 99.6966C460.13 99.7399 460.136 99.7833 460.141 99.8266L476.001 97.712ZM476.641 102.448L492.494 100.286V100.286L476.641 102.448ZM477.793 107.184L492.649 101.242L492.649 101.242L477.793 107.184ZM479.585 110V126C486.251 126 492.218 121.867 494.563 115.628C496.907 109.388 495.138 102.348 490.121 97.9588L479.585 110ZM458.849 110L444.538 117.155C447.248 122.576 452.789 126 458.849 126V110ZM457.313 104.88L441.514 107.408C441.519 107.442 441.525 107.476 441.531 107.51L457.313 104.88ZM456.417 96.816L440.464 98.0431C440.465 98.0538 440.466 98.0645 440.467 98.0752L456.417 96.816ZM456.033 91.312H472.033C472.033 90.7451 472.003 90.1786 471.943 89.615L456.033 91.312ZM451.169 78L439.855 89.3137C439.919 89.3776 439.984 89.441 440.049 89.5038L451.169 78ZM420.065 74.288V58.288C411.228 58.288 404.065 65.4514 404.065 74.288H420.065ZM420.065 110V126C428.902 126 436.065 118.837 436.065 110H420.065ZM400.225 110H384.225C384.225 118.837 391.388 126 400.225 126V110ZM420.065 34.608V18.608C411.228 18.608 404.065 25.7714 404.065 34.608H420.065ZM420.065 59.824H404.065C404.065 68.6606 411.228 75.824 420.065 75.824V59.824ZM451.937 57.264L459.707 71.2505C459.75 71.2269 459.792 71.203 459.835 71.179L451.937 57.264ZM452.065 37.168L444.127 51.0599C444.183 51.0918 444.239 51.1233 444.295 51.1545L452.065 37.168ZM400.225 18.864V34.864H445.537V18.864V2.864H400.225V18.864ZM445.537 18.864V34.864C452.067 34.864 455.823 36.3788 458.112 38.0869L467.681 25.264L477.25 12.4411C468.105 5.6159 457.098 2.864 445.537 2.864V18.864ZM467.681 25.264L458.112 38.0869C458.879 38.6599 460.257 39.8218 460.257 44.72H476.257H492.257C492.257 32.2102 487.917 20.4015 477.25 12.4411L467.681 25.264ZM476.257 44.72H460.257C460.257 47.3132 459.669 48.9062 458.93 50.0634L472.417 58.672L485.904 67.2806C490.285 60.4165 492.257 52.7081 492.257 44.72H476.257ZM472.417 58.672L459.015 49.9317C458.374 50.9152 457.594 51.6034 456.144 52.1504L461.793 67.12L467.442 82.0896C475.038 79.2233 481.34 74.2795 485.819 67.4123L472.417 58.672ZM461.793 67.12L458.557 82.7893C458.502 82.7779 458.188 82.6899 457.822 82.4315C457.469 82.1825 457.396 82.0074 457.519 82.2011C457.883 82.7758 458.862 84.8747 459.295 89.7775L475.233 88.368L491.171 86.9585C490.495 79.3173 488.679 71.6028 484.563 65.0949C480.12 58.0709 473.418 53.1832 465.029 51.4507L461.793 67.12ZM475.233 88.368H459.233C459.233 89.5716 459.391 91.6784 459.536 93.5632L475.489 92.336L491.442 91.1088C491.359 90.0277 491.3 89.2164 491.264 88.6499C491.245 88.3651 491.235 88.1809 491.23 88.0764C491.222 87.9074 491.233 88.0663 491.233 88.368H475.233ZM475.489 92.336L459.536 93.5631C459.716 95.9014 459.909 97.9746 460.125 99.6966L476.001 97.712L491.877 95.7274C491.751 94.7187 491.603 93.208 491.442 91.1089L475.489 92.336ZM476.001 97.712L460.141 99.8266C460.315 101.128 460.53 102.723 460.788 104.61L476.641 102.448L492.494 100.286C492.24 98.4181 492.029 96.8563 491.861 95.5974L476.001 97.712ZM476.641 102.448L460.788 104.61C461.16 107.337 461.797 110.275 462.937 113.126L477.793 107.184L492.649 101.242C492.718 101.416 492.711 101.438 492.668 101.258C492.625 101.082 492.56 100.767 492.494 100.286L476.641 102.448ZM477.793 107.184L462.937 113.126C463.943 115.64 465.732 119.139 469.049 122.041L479.585 110L490.121 97.9588C491.151 98.8603 491.782 99.7209 492.124 100.258C492.467 100.798 492.619 101.168 492.649 101.242L477.793 107.184ZM479.585 110V94H458.849V110V126H479.585V110ZM458.849 110L473.16 102.845C473.291 103.106 473.313 103.213 473.278 103.098C473.244 102.986 473.173 102.715 473.095 102.25L457.313 104.88L441.531 107.51C442.047 110.606 442.938 113.955 444.538 117.155L458.849 110ZM457.313 104.88L473.112 102.352C472.862 100.792 472.605 98.5636 472.367 95.5567L456.417 96.816L440.467 98.0752C440.741 101.554 441.081 104.701 441.514 107.408L457.313 104.88ZM456.417 96.816L472.37 95.5889C472.243 93.9376 472.15 92.6912 472.09 91.8304C472.06 91.3963 472.04 91.0965 472.029 90.9085C472.024 90.8129 472.022 90.7812 472.023 90.7943C472.023 90.8017 472.025 90.8434 472.027 90.9089C472.029 90.9605 472.033 91.1098 472.033 91.312H456.033H440.033C440.033 92.4585 440.249 95.2432 440.464 98.0431L456.417 96.816ZM456.033 91.312L471.943 89.615C471.148 82.1642 468.997 72.9799 462.289 66.4962L451.169 78L440.049 89.5038C439.115 88.6017 439.037 88.0202 439.277 88.6751C439.512 89.3191 439.874 90.6721 440.123 93.009L456.033 91.312ZM451.169 78L462.483 66.6863C455.328 59.5311 445.313 58.288 437.857 58.288V74.288V90.288C438.951 90.288 439.814 90.3414 440.474 90.4167C441.138 90.4925 441.523 90.5823 441.687 90.628C442.067 90.7338 441.086 90.544 439.855 89.3137L451.169 78ZM437.857 74.288V58.288H420.065V74.288V90.288H437.857V74.288ZM420.065 74.288H404.065V110H420.065H436.065V74.288H420.065ZM420.065 110V94H400.225V110V126H420.065V110ZM400.225 110H416.225V18.864H400.225H384.225V110H400.225ZM420.065 34.608H404.065V59.824H420.065H436.065V34.608H420.065ZM420.065 59.824V75.824H439.009V59.824V43.824H420.065V59.824ZM439.009 59.824V75.824C445.853 75.824 453.266 74.8291 459.707 71.2505L451.937 57.264L444.167 43.2775C444.398 43.1492 444.204 43.3083 443.293 43.4888C442.387 43.6681 440.997 43.824 439.009 43.824V59.824ZM451.937 57.264L459.835 71.179C469.938 65.4447 472.673 55.1327 472.673 46.896H456.673H440.673C440.673 47.9169 440.501 47.6308 440.935 46.6801C441.169 46.1695 441.549 45.5328 442.131 44.8886C442.717 44.2388 443.38 43.7231 444.039 43.349L451.937 57.264ZM456.673 46.896H472.673C472.673 38.6867 469.773 28.7025 459.835 23.1815L452.065 37.168L444.295 51.1545C443.654 50.7986 442.983 50.2961 442.371 49.6387C441.761 48.9838 441.337 48.3119 441.061 47.7294C440.537 46.6227 440.673 46.1266 440.673 46.896H456.673ZM452.065 37.168L460.003 23.2761C453.699 19.6738 446.548 18.608 439.905 18.608V34.608V50.608C441.606 50.608 442.765 50.7523 443.489 50.9048C444.207 51.0561 444.34 51.1815 444.127 51.0599L452.065 37.168ZM439.905 34.608V18.608H420.065V34.608V50.608H439.905V34.608ZM547.384 18.864H563.384C563.384 10.0274 556.221 2.864 547.384 2.864V18.864ZM547.384 35.248V51.248C556.221 51.248 563.384 44.0845 563.384 35.248H547.384ZM498.872 35.248V19.248C490.035 19.248 482.872 26.4114 482.872 35.248H498.872ZM498.872 55.088H482.872C482.872 63.9246 490.035 71.088 498.872 71.088V55.088ZM543.416 55.088H559.416C559.416 46.2514 552.253 39.088 543.416 39.088V55.088ZM543.416 70.832V86.832C552.253 86.832 559.416 79.6686 559.416 70.832H543.416ZM498.872 70.832V54.832C490.035 54.832 482.872 61.9954 482.872 70.832H498.872ZM498.872 93.232H482.872C482.872 102.069 490.035 109.232 498.872 109.232V93.232ZM548.28 93.232H564.28C564.28 84.3954 557.117 77.232 548.28 77.232V93.232ZM548.28 110V126C557.117 126 564.28 118.837 564.28 110H548.28ZM479.032 110H463.032C463.032 118.837 470.195 126 479.032 126V110ZM479.032 18.864V2.864C470.195 2.864 463.032 10.0274 463.032 18.864H479.032ZM547.384 18.864H531.384V35.248H547.384H563.384V18.864H547.384ZM547.384 35.248V19.248H498.872V35.248V51.248H547.384V35.248ZM498.872 35.248H482.872V55.088H498.872H514.872V35.248H498.872ZM498.872 55.088V71.088H543.416V55.088V39.088H498.872V55.088ZM543.416 55.088H527.416V70.832H543.416H559.416V55.088H543.416ZM543.416 70.832V54.832H498.872V70.832V86.832H543.416V70.832ZM498.872 70.832H482.872V93.232H498.872H514.872V70.832H498.872ZM498.872 93.232V109.232H548.28V93.232V77.232H498.872V93.232ZM548.28 93.232H532.28V110H548.28H564.28V93.232H548.28ZM548.28 110V94H479.032V110V126H548.28V110ZM479.032 110H495.032V18.864H479.032H463.032V110H479.032ZM479.032 18.864V34.864H547.384V18.864V2.864H479.032V18.864ZM563.609 18.864V2.864C558.641 2.864 553.955 5.17142 550.927 9.10901C547.898 13.0466 546.87 18.1676 548.145 22.969L563.609 18.864ZM583.705 18.864L599.279 15.1958C597.577 7.97006 591.128 2.864 583.705 2.864V18.864ZM598.297 80.816L582.723 84.4842C584.41 91.6477 590.767 96.7363 598.126 96.8151C605.485 96.8939 611.948 91.9426 613.789 84.8169L598.297 80.816ZM614.297 18.864V2.864C607.001 2.864 600.63 7.79922 598.805 14.863L614.297 18.864ZM633.113 18.864L648.632 14.9685C646.845 7.85312 640.449 2.864 633.113 2.864V18.864ZM648.857 81.584L633.338 85.4795C635.132 92.6227 641.569 97.6192 648.934 97.5838C656.299 97.5484 662.688 92.4901 664.412 85.33L648.857 81.584ZM663.961 18.864V2.864C656.567 2.864 650.137 7.92993 648.406 15.118L663.961 18.864ZM683.673 18.864L699.121 23.0298C700.417 18.2228 699.402 13.0863 696.374 9.13396C693.347 5.18165 688.652 2.864 683.673 2.864V18.864ZM659.097 110V126C666.329 126 672.662 121.149 674.545 114.166L659.097 110ZM639.129 110L623.61 113.896C625.397 121.011 631.793 126 639.129 126V110ZM623.513 47.792L639.031 43.8964C637.242 36.7698 630.83 31.7778 623.482 31.792C616.134 31.8063 609.741 36.8231 607.979 43.9566L623.513 47.792ZM608.153 110V126C615.512 126 621.922 120.98 623.686 113.835L608.153 110ZM587.801 110L572.337 114.105C574.198 121.118 580.545 126 587.801 126V110ZM563.609 18.864V34.864H583.705V18.864V2.864H563.609V18.864ZM583.705 18.864L568.131 22.5322L582.723 84.4842L598.297 80.816L613.871 77.1478L599.279 15.1958L583.705 18.864ZM598.297 80.816L613.789 84.8169L629.789 22.865L614.297 18.864L598.805 14.863L582.805 76.815L598.297 80.816ZM614.297 18.864V34.864H633.113V18.864V2.864H614.297V18.864ZM633.113 18.864L617.594 22.7595L633.338 85.4795L648.857 81.584L664.376 77.6885L648.632 14.9685L633.113 18.864ZM648.857 81.584L664.412 85.33L679.516 22.61L663.961 18.864L648.406 15.118L633.302 77.838L648.857 81.584ZM663.961 18.864V34.864H683.673V18.864V2.864H663.961V18.864ZM683.673 18.864L668.225 14.6982L643.649 105.834L659.097 110L674.545 114.166L699.121 23.0298L683.673 18.864ZM659.097 110V94H639.129V110V126H659.097V110ZM639.129 110L654.648 106.104L639.031 43.8964L623.513 47.792L607.994 51.6876L623.61 113.896L639.129 110ZM623.513 47.792L607.979 43.9566L592.62 106.165L608.153 110L623.686 113.835L639.046 51.6274L623.513 47.792ZM608.153 110V94H587.801V110V126H608.153V110ZM587.801 110L603.265 105.895L579.073 14.759L563.609 18.864L548.145 22.969L572.337 114.105L587.801 110ZM748.484 18.864H764.484C764.484 10.0274 757.321 2.864 748.484 2.864V18.864ZM748.484 35.248V51.248C757.321 51.248 764.484 44.0845 764.484 35.248H748.484ZM699.972 35.248V19.248C691.135 19.248 683.972 26.4114 683.972 35.248H699.972ZM699.972 55.088H683.972C683.972 63.9246 691.135 71.088 699.972 71.088V55.088ZM744.516 55.088H760.516C760.516 46.2514 753.353 39.088 744.516 39.088V55.088ZM744.516 70.832V86.832C753.353 86.832 760.516 79.6686 760.516 70.832H744.516ZM699.972 70.832V54.832C691.135 54.832 683.972 61.9954 683.972 70.832H699.972ZM699.972 93.232H683.972C683.972 102.069 691.135 109.232 699.972 109.232V93.232ZM749.38 93.232H765.38C765.38 84.3954 758.217 77.232 749.38 77.232V93.232ZM749.38 110V126C758.217 126 765.38 118.837 765.38 110H749.38ZM680.132 110H664.132C664.132 118.837 671.295 126 680.132 126V110ZM680.132 18.864V2.864C671.295 2.864 664.132 10.0274 664.132 18.864H680.132ZM748.484 18.864H732.484V35.248H748.484H764.484V18.864H748.484ZM748.484 35.248V19.248H699.972V35.248V51.248H748.484V35.248ZM699.972 35.248H683.972V55.088H699.972H715.972V35.248H699.972ZM699.972 55.088V71.088H744.516V55.088V39.088H699.972V55.088ZM744.516 55.088H728.516V70.832H744.516H760.516V55.088H744.516ZM744.516 70.832V54.832H699.972V70.832V86.832H744.516V70.832ZM699.972 70.832H683.972V93.232H699.972H715.972V70.832H699.972ZM699.972 93.232V109.232H749.38V93.232V77.232H699.972V93.232ZM749.38 93.232H733.38V110H749.38H765.38V93.232H749.38ZM749.38 110V94H680.132V110V126H749.38V110ZM680.132 110H696.132V18.864H680.132H664.132V110H680.132ZM680.132 18.864V34.864H748.484V18.864V2.864H680.132V18.864ZM745.468 48.304L729.498 47.3319C729.229 51.736 730.792 56.0553 733.816 59.2686C736.839 62.4819 741.056 64.304 745.468 64.304V48.304ZM754.556 25.264L743.155 14.0383V14.0383L754.556 25.264ZM799.74 24.24L789.191 36.2697C789.226 36.3006 789.261 36.3312 789.297 36.3617L799.74 24.24ZM804.22 55.984L791.2 46.6842C791.151 46.7534 791.102 46.823 791.054 46.8929L804.22 55.984ZM793.596 66.096L802.609 79.3156C802.62 79.3087 802.63 79.3018 802.64 79.2949L793.596 66.096ZM786.3 73.008L800.229 80.8809C800.276 80.7972 800.323 80.7131 800.369 80.6285L786.3 73.008ZM784.636 82.608V98.608C793.473 98.608 800.636 91.4446 800.636 82.608H784.636ZM767.612 82.608H751.612C751.612 91.4446 758.775 98.608 767.612 98.608V82.608ZM769.02 68.912L753.763 64.0939C753.736 64.1799 753.709 64.2661 753.683 64.3525L769.02 68.912ZM776.444 59.056L766.201 46.7644C766.166 46.7934 766.132 46.8226 766.097 46.8519L776.444 59.056ZM779.644 56.496L789.558 69.0541V69.0541L779.644 56.496ZM783.1 53.552L794.414 64.8657L794.414 64.8657L783.1 53.552ZM785.66 50.736L797.808 61.1487V61.1487L785.66 50.736ZM787.836 47.024L803.015 52.0836V52.0836L787.836 47.024ZM785.404 35.376L774.344 46.9383C774.426 47.0165 774.509 47.094 774.592 47.1705L785.404 35.376ZM764.156 48.304V64.304C772.79 64.304 779.867 57.4536 780.148 48.824L764.156 48.304ZM785.916 90.416H801.916C801.916 81.5794 794.753 74.416 785.916 74.416V90.416ZM785.916 110V126C794.753 126 801.916 118.837 801.916 110H785.916ZM766.076 110H750.076C750.076 118.837 757.239 126 766.076 126V110ZM766.076 90.416V74.416C757.239 74.416 750.076 81.5794 750.076 90.416H766.076ZM745.468 48.304L761.438 49.2761C761.865 42.2737 763.862 38.6174 765.957 36.4897L754.556 25.264L743.155 14.0383C734.327 23.0039 730.266 34.7076 729.498 47.3319L745.468 48.304ZM754.556 25.264L765.957 36.4897C767.623 34.7979 770.755 32.944 777.724 32.944V16.944V0.943993C764.725 0.943993 752.412 4.63672 743.155 14.0383L754.556 25.264ZM777.724 16.944V32.944C783.932 32.944 787.211 34.5334 789.191 36.2697L799.74 24.24L810.289 12.2102C801.176 4.21861 789.777 0.943993 777.724 0.943993V16.944ZM799.74 24.24L789.297 36.3617C791.036 37.8603 792.06 39.6081 792.06 43.184H808.06H824.06C824.06 31.0585 819.537 20.1771 810.183 12.1183L799.74 24.24ZM808.06 43.184H792.06C792.06 45.2289 791.586 46.1442 791.2 46.6842L804.22 55.984L817.24 65.2838C821.974 58.6558 824.06 51.0377 824.06 43.184H808.06ZM804.22 55.984L791.054 46.8929C789.955 48.4838 787.982 50.5474 784.552 52.8971L793.596 66.096L802.64 79.2949C808.427 75.3299 813.535 70.6522 817.386 65.075L804.22 55.984ZM793.596 66.096L784.583 52.8764C780.362 55.7542 775.239 59.8345 772.231 65.3875L786.3 73.008L800.369 80.6285C800.087 81.1483 799.854 81.445 799.79 81.5226C799.724 81.6048 799.76 81.5486 799.96 81.3592C800.382 80.9592 801.207 80.272 802.609 79.3156L793.596 66.096ZM786.3 73.008L772.371 65.1351C769.127 70.8741 768.636 77.6046 768.636 82.608H784.636H800.636C800.636 80.9981 800.741 80.051 800.817 79.6126C800.852 79.4106 800.862 79.4312 800.801 79.6204C800.741 79.8046 800.578 80.2631 800.229 80.8809L786.3 73.008ZM784.636 82.608V66.608H767.612V82.608V98.608H784.636V82.608ZM767.612 82.608H783.612C783.612 77.1415 784.079 74.4059 784.357 73.4715L769.02 68.912L753.683 64.3525C752.084 69.7327 751.612 76.1278 751.612 82.608H767.612ZM769.02 68.912L784.277 73.7301C784.141 74.1603 784.058 74.1291 784.424 73.6425C784.797 73.1478 785.517 72.3399 786.791 71.2601L776.444 59.056L766.097 46.8519C760.969 51.1992 756.048 56.8574 753.763 64.0939L769.02 68.912ZM776.444 59.056L786.687 71.3476C787.008 71.08 787.905 70.3592 789.558 69.0541L779.644 56.496L769.73 43.9379C768.14 45.1928 766.904 46.1787 766.201 46.7644L776.444 59.056ZM779.644 56.496L789.558 69.0541C791.248 67.7198 793.026 66.2533 794.414 64.8657L783.1 53.552L771.786 42.2383C771.865 42.16 771.76 42.2698 771.349 42.6201C770.967 42.9451 770.436 43.3801 769.73 43.9379L779.644 56.496ZM783.1 53.552L794.414 64.8657C795.508 63.7713 796.661 62.4873 797.808 61.1487L785.66 50.736L773.512 40.3233C772.611 41.374 772.057 41.9674 771.786 42.2383L783.1 53.552ZM785.66 50.736L797.808 61.1487C799.958 58.64 801.834 55.6252 803.015 52.0836L787.836 47.024L772.657 41.9644C772.984 40.9828 773.41 40.4426 773.512 40.3233L785.66 50.736ZM787.836 47.024L803.015 52.0836C804.055 48.9638 804.476 45.8214 804.476 42.8H788.476H772.476C772.476 42.8506 772.47 42.5242 772.657 41.9644L787.836 47.024ZM788.476 42.8H804.476C804.476 35.7707 801.94 28.8285 796.216 23.5815L785.404 35.376L774.592 47.1705C773.96 46.5904 773.339 45.7614 772.924 44.7576C772.524 43.7911 772.476 43.0571 772.476 42.8H788.476ZM785.404 35.376L796.464 23.8137C790.883 18.4758 783.936 16.56 777.468 16.56V32.56V48.56C777.639 48.56 777.278 48.5845 776.597 48.3428C775.863 48.0823 775.052 47.6147 774.344 46.9383L785.404 35.376ZM777.468 32.56V16.56C769.731 16.56 761.499 19.097 755.522 26.1654C750.03 32.6606 748.393 40.7403 748.164 47.7839L764.156 48.304L780.148 48.824C780.199 47.2343 780.394 46.3814 780.49 46.063C780.577 45.7772 780.504 46.1803 779.958 46.8266C779.688 47.1463 779.349 47.4672 778.951 47.7542C778.554 48.0404 778.168 48.2421 777.837 48.376C777.183 48.6407 776.952 48.56 777.468 48.56V32.56ZM764.156 48.304V32.304H745.468V48.304V64.304H764.156V48.304ZM785.916 90.416H769.916V110H785.916H801.916V90.416H785.916ZM785.916 110V94H766.076V110V126H785.916V110ZM766.076 110H782.076V90.416H766.076H750.076V110H766.076ZM766.076 90.416V106.416H785.916V90.416V74.416H766.076V90.416Z" fill="#8F8F8F" mask="url(#path-1-outside-1_3354_1490)"/>
</svg>
