<svg width="255" height="64" viewBox="0 0 255 64" fill="none" xmlns="http://www.w3.org/2000/svg">
<mask id="path-1-outside-1_3144_1492" maskUnits="userSpaceOnUse" x="0.0351562" y="0.419922" width="255" height="64" fill="black">
<rect fill="white" x="0.0351562" y="0.419922" width="255" height="64"/>
<path d="M46.1596 57.0704H39.5624V47.4199H14.2639V57.0704H7.66665V41.5315H11.4287C12.919 38.9144 14.1367 35.0978 15.0817 30.0817C16.0268 25.0656 16.4993 19.9042 16.4993 14.5973V8.59982H41.7978V41.5315H46.1596V57.0704ZM34.9825 41.5315V14.4883H23.1511V16.8327C23.1511 21.5217 22.7149 26.1924 21.8425 30.845C21.0065 35.4613 19.9706 39.0234 18.7347 41.5315H34.9825ZM75.7479 47.4199H68.9326V14.4883H56.9376L56.2288 32.9714C56.0107 38.1329 54.9566 41.9495 53.0665 44.4212C51.2128 46.8929 48.7956 48.1287 45.815 48.1287C44.5065 48.1287 43.1434 47.8925 41.7258 47.4199V42.1858C42.4528 42.4765 43.3433 42.6219 44.3974 42.6219C45.4515 42.6219 46.3057 42.3675 46.96 41.8586C47.6143 41.3497 48.1958 40.2229 48.7047 38.4782C49.2136 36.6971 49.5226 34.2436 49.6316 31.1177L50.3949 8.59982H75.7479V47.4199ZM107.595 47.4199H100.779V31.3903H93.0371L82.0236 47.4199H73.518L85.4585 30.736C82.2598 29.7546 80.0608 28.3007 78.8613 26.3742C77.6618 24.4477 77.062 22.1033 77.062 19.3408C77.062 16.0694 78.1888 13.4705 80.4424 11.544C82.696 9.58122 85.8583 8.59982 89.9294 8.59982H107.595V47.4199ZM100.779 26.2106V14.1611H90.6381C88.3118 14.1611 86.6035 14.6337 85.513 15.5787C84.4226 16.4874 83.8773 17.9414 83.8773 19.9405C83.8773 24.1206 86.0946 26.2106 90.5291 26.2106H100.779ZM152.406 8.59982L136.867 24.0842L153.388 47.4199H144.937L132.178 28.8277L126.617 34.389V47.4199H119.856V8.59982H126.617V26.2106L143.792 8.59982H152.406ZM167.563 7.67293C173.052 7.67293 177.504 9.56305 180.921 13.3433C184.374 17.0872 186.101 21.976 186.101 28.0099C186.101 34.0437 184.374 38.9507 180.921 42.731C177.468 46.4749 172.979 48.3468 167.454 48.3468C161.893 48.3468 157.386 46.4749 153.933 42.731C150.516 38.9871 148.807 34.0801 148.807 28.0099C148.807 22.1214 150.479 17.2689 153.823 13.4523C157.204 9.5994 161.784 7.67293 167.563 7.67293ZM167.454 13.3978C163.892 13.3978 161.039 14.7245 158.894 17.378C156.75 19.995 155.677 23.5027 155.677 27.9008C155.677 32.408 156.731 35.9883 158.84 38.6418C160.984 41.2952 163.892 42.6219 167.563 42.6219C171.089 42.6219 173.906 41.2952 176.014 38.6418C178.159 35.952 179.231 32.3899 179.231 27.9553C179.231 23.5208 178.159 19.995 176.014 17.378C173.906 14.7245 171.053 13.3978 167.454 13.3978ZM193.667 47.4199H186.851V8.59982H213.186V14.4883H193.667V47.4199ZM228.805 7.67293C234.294 7.67293 238.747 9.56305 242.163 13.3433C245.616 17.0872 247.343 21.976 247.343 28.0099C247.343 34.0437 245.616 38.9507 242.163 42.731C238.71 46.4749 234.221 48.3468 228.696 48.3468C223.135 48.3468 218.628 46.4749 215.175 42.731C211.758 38.9871 210.049 34.0801 210.049 28.0099C210.049 22.1214 211.722 17.2689 215.066 13.4523C218.446 9.5994 223.026 7.67293 228.805 7.67293ZM228.696 13.3978C225.134 13.3978 222.281 14.7245 220.136 17.378C217.992 19.995 216.919 23.5027 216.919 27.9008C216.919 32.408 217.973 35.9883 220.082 38.6418C222.226 41.2952 225.134 42.6219 228.805 42.6219C232.331 42.6219 235.148 41.2952 237.256 38.6418C239.401 35.952 240.473 32.3899 240.473 27.9553C240.473 23.5208 239.401 19.995 237.256 17.378C235.148 14.7245 232.295 13.3978 228.696 13.3978Z"/>
</mask>
<path d="M46.1596 57.0704H39.5624V47.4199H14.2639V57.0704H7.66665V41.5315H11.4287C12.919 38.9144 14.1367 35.0978 15.0817 30.0817C16.0268 25.0656 16.4993 19.9042 16.4993 14.5973V8.59982H41.7978V41.5315H46.1596V57.0704ZM34.9825 41.5315V14.4883H23.1511V16.8327C23.1511 21.5217 22.7149 26.1924 21.8425 30.845C21.0065 35.4613 19.9706 39.0234 18.7347 41.5315H34.9825ZM75.7479 47.4199H68.9326V14.4883H56.9376L56.2288 32.9714C56.0107 38.1329 54.9566 41.9495 53.0665 44.4212C51.2128 46.8929 48.7956 48.1287 45.815 48.1287C44.5065 48.1287 43.1434 47.8925 41.7258 47.4199V42.1858C42.4528 42.4765 43.3433 42.6219 44.3974 42.6219C45.4515 42.6219 46.3057 42.3675 46.96 41.8586C47.6143 41.3497 48.1958 40.2229 48.7047 38.4782C49.2136 36.6971 49.5226 34.2436 49.6316 31.1177L50.3949 8.59982H75.7479V47.4199ZM107.595 47.4199H100.779V31.3903H93.0371L82.0236 47.4199H73.518L85.4585 30.736C82.2598 29.7546 80.0608 28.3007 78.8613 26.3742C77.6618 24.4477 77.062 22.1033 77.062 19.3408C77.062 16.0694 78.1888 13.4705 80.4424 11.544C82.696 9.58122 85.8583 8.59982 89.9294 8.59982H107.595V47.4199ZM100.779 26.2106V14.1611H90.6381C88.3118 14.1611 86.6035 14.6337 85.513 15.5787C84.4226 16.4874 83.8773 17.9414 83.8773 19.9405C83.8773 24.1206 86.0946 26.2106 90.5291 26.2106H100.779ZM152.406 8.59982L136.867 24.0842L153.388 47.4199H144.937L132.178 28.8277L126.617 34.389V47.4199H119.856V8.59982H126.617V26.2106L143.792 8.59982H152.406ZM167.563 7.67293C173.052 7.67293 177.504 9.56305 180.921 13.3433C184.374 17.0872 186.101 21.976 186.101 28.0099C186.101 34.0437 184.374 38.9507 180.921 42.731C177.468 46.4749 172.979 48.3468 167.454 48.3468C161.893 48.3468 157.386 46.4749 153.933 42.731C150.516 38.9871 148.807 34.0801 148.807 28.0099C148.807 22.1214 150.479 17.2689 153.823 13.4523C157.204 9.5994 161.784 7.67293 167.563 7.67293ZM167.454 13.3978C163.892 13.3978 161.039 14.7245 158.894 17.378C156.75 19.995 155.677 23.5027 155.677 27.9008C155.677 32.408 156.731 35.9883 158.84 38.6418C160.984 41.2952 163.892 42.6219 167.563 42.6219C171.089 42.6219 173.906 41.2952 176.014 38.6418C178.159 35.952 179.231 32.3899 179.231 27.9553C179.231 23.5208 178.159 19.995 176.014 17.378C173.906 14.7245 171.053 13.3978 167.454 13.3978ZM193.667 47.4199H186.851V8.59982H213.186V14.4883H193.667V47.4199ZM228.805 7.67293C234.294 7.67293 238.747 9.56305 242.163 13.3433C245.616 17.0872 247.343 21.976 247.343 28.0099C247.343 34.0437 245.616 38.9507 242.163 42.731C238.71 46.4749 234.221 48.3468 228.696 48.3468C223.135 48.3468 218.628 46.4749 215.175 42.731C211.758 38.9871 210.049 34.0801 210.049 28.0099C210.049 22.1214 211.722 17.2689 215.066 13.4523C218.446 9.5994 223.026 7.67293 228.805 7.67293ZM228.696 13.3978C225.134 13.3978 222.281 14.7245 220.136 17.378C217.992 19.995 216.919 23.5027 216.919 27.9008C216.919 32.408 217.973 35.9883 220.082 38.6418C222.226 41.2952 225.134 42.6219 228.805 42.6219C232.331 42.6219 235.148 41.2952 237.256 38.6418C239.401 35.952 240.473 32.3899 240.473 27.9553C240.473 23.5208 239.401 19.995 237.256 17.378C235.148 14.7245 232.295 13.3978 228.696 13.3978Z" fill="#8F8F8F"/>
<path d="M46.1596 57.0704V63.8858C49.9236 63.8858 52.9749 60.8344 52.9749 57.0704H46.1596ZM39.5624 57.0704H32.7471C32.7471 60.8344 35.7984 63.8858 39.5624 63.8858V57.0704ZM39.5624 47.4199H46.3777C46.3777 43.6559 43.3264 40.6046 39.5624 40.6046V47.4199ZM14.2639 47.4199V40.6046C10.4999 40.6046 7.44856 43.6559 7.44856 47.4199H14.2639ZM14.2639 57.0704V63.8858C18.0279 63.8858 21.0792 60.8344 21.0792 57.0704H14.2639ZM7.66665 57.0704H0.851321C0.851321 60.8344 3.90265 63.8858 7.66665 63.8858V57.0704ZM7.66665 41.5315V34.7162C3.90265 34.7162 0.851321 37.7675 0.851321 41.5315H7.66665ZM11.4287 41.5315V48.3468C13.8781 48.3468 16.1391 47.0324 17.3511 44.904L11.4287 41.5315ZM15.0817 30.0817L8.38423 28.8199L15.0817 30.0817ZM16.4993 8.59982V1.78449C12.7353 1.78449 9.68399 4.83582 9.68399 8.59982H16.4993ZM41.7978 8.59982H48.6131C48.6131 4.83582 45.5618 1.78449 41.7978 1.78449V8.59982ZM41.7978 41.5315H34.9825C34.9825 45.2955 38.0338 48.3468 41.7978 48.3468V41.5315ZM46.1596 41.5315H52.9749C52.9749 37.7675 49.9236 34.7162 46.1596 34.7162V41.5315ZM34.9825 41.5315V48.3468C38.7465 48.3468 41.7978 45.2955 41.7978 41.5315H34.9825ZM34.9825 14.4883H41.7978C41.7978 10.7243 38.7465 7.67293 34.9825 7.67293V14.4883ZM23.1511 14.4883V7.67293C19.3871 7.67293 16.3357 10.7243 16.3357 14.4883H23.1511ZM21.8425 30.845L15.1439 29.5891C15.1413 29.6029 15.1388 29.6167 15.1363 29.6305L21.8425 30.845ZM18.7347 41.5315L12.6213 38.5191C11.5804 40.6315 11.7038 43.1317 12.9477 45.1313C14.1916 47.131 16.3797 48.3468 18.7347 48.3468V41.5315ZM46.1596 57.0704V50.2551H39.5624V57.0704V63.8858H46.1596V57.0704ZM39.5624 57.0704H46.3777V47.4199H39.5624H32.7471V57.0704H39.5624ZM39.5624 47.4199V40.6046H14.2639V47.4199V54.2352H39.5624V47.4199ZM14.2639 47.4199H7.44856V57.0704H14.2639H21.0792V47.4199H14.2639ZM14.2639 57.0704V50.2551H7.66665V57.0704V63.8858H14.2639V57.0704ZM7.66665 57.0704H14.482V41.5315H7.66665H0.851321V57.0704H7.66665ZM7.66665 41.5315V48.3468H11.4287V41.5315V34.7162H7.66665V41.5315ZM11.4287 41.5315L17.3511 44.904C19.386 41.3306 20.7774 36.6609 21.7792 31.3436L15.0817 30.0817L8.38423 28.8199C7.49593 33.5347 6.45203 36.4982 5.50629 38.159L11.4287 41.5315ZM15.0817 30.0817L21.7792 31.3436C22.8057 25.8953 23.3146 20.3108 23.3146 14.5973H16.4993H9.68399C9.68399 19.4976 9.24786 24.236 8.38423 28.8199L15.0817 30.0817ZM16.4993 14.5973H23.3146V8.59982H16.4993H9.68399V14.5973H16.4993ZM16.4993 8.59982V15.4151H41.7978V8.59982V1.78449H16.4993V8.59982ZM41.7978 8.59982H34.9825V41.5315H41.7978H48.6131V8.59982H41.7978ZM41.7978 41.5315V48.3468H46.1596V41.5315V34.7162H41.7978V41.5315ZM46.1596 41.5315H39.3443V57.0704H46.1596H52.9749V41.5315H46.1596ZM34.9825 41.5315H41.7978V14.4883H34.9825H28.1672V41.5315H34.9825ZM34.9825 14.4883V7.67293H23.1511V14.4883V21.3036H34.9825V14.4883ZM23.1511 14.4883H16.3357V16.8327H23.1511H29.9664V14.4883H23.1511ZM23.1511 16.8327H16.3357C16.3357 21.0963 15.9394 25.3466 15.1439 29.5891L21.8425 30.845L28.5411 32.101C29.4904 27.0382 29.9664 21.9471 29.9664 16.8327H23.1511ZM21.8425 30.845L15.1363 29.6305C14.3479 33.9837 13.4512 36.8349 12.6213 38.5191L18.7347 41.5315L24.8482 44.5439C26.49 41.212 27.6651 36.9389 28.5488 32.0596L21.8425 30.845ZM18.7347 41.5315V48.3468H34.9825V41.5315V34.7162H18.7347V41.5315ZM75.7479 47.4199V54.2352C79.5119 54.2352 82.5633 51.1839 82.5633 47.4199H75.7479ZM68.9326 47.4199H62.1173C62.1173 51.1839 65.1686 54.2352 68.9326 54.2352V47.4199ZM68.9326 14.4883H75.7479C75.7479 10.7243 72.6966 7.67293 68.9326 7.67293V14.4883ZM56.9376 14.4883V7.67293C53.2752 7.67293 50.2677 10.5674 50.1273 14.2271L56.9376 14.4883ZM56.2288 32.9714L63.0381 33.2591C63.0385 33.2503 63.0388 33.2414 63.0392 33.2326L56.2288 32.9714ZM53.0665 44.4212L47.6527 40.2812C47.6398 40.2981 47.627 40.315 47.6143 40.332L53.0665 44.4212ZM41.7258 47.4199H34.9105C34.9105 50.3534 36.7876 52.9578 39.5706 53.8855L41.7258 47.4199ZM41.7258 42.1857L44.257 35.8579C42.1572 35.018 39.7776 35.2743 37.9049 36.5422C36.0323 37.8101 34.9105 39.9243 34.9105 42.1857H41.7258ZM46.96 41.8586L42.7758 36.4789H42.7758L46.96 41.8586ZM48.7047 38.4782L55.2474 40.3865C55.2509 40.3745 55.2544 40.3625 55.2578 40.3505L48.7047 38.4782ZM49.6316 31.1177L56.4428 31.3553L56.443 31.3486L49.6316 31.1177ZM50.3949 8.59982V1.78449C46.7208 1.78449 43.708 4.6969 43.5835 8.36892L50.3949 8.59982ZM75.7479 8.59982H82.5633C82.5633 4.83582 79.5119 1.78449 75.7479 1.78449V8.59982ZM75.7479 47.4199V40.6046H68.9326V47.4199V54.2352H75.7479V47.4199ZM68.9326 47.4199H75.7479V14.4883H68.9326H62.1173V47.4199H68.9326ZM68.9326 14.4883V7.67293H56.9376V14.4883V21.3036H68.9326V14.4883ZM56.9376 14.4883L50.1273 14.2271L49.4185 32.7103L56.2288 32.9714L63.0392 33.2326L63.7479 14.7494L56.9376 14.4883ZM56.2288 32.9714L49.4196 32.6837C49.2253 37.2827 48.2982 39.4372 47.6527 40.2812L53.0665 44.4212L58.4803 48.5611C61.6151 44.4618 62.7962 38.9831 63.0381 33.2591L56.2288 32.9714ZM53.0665 44.4212L47.6143 40.332C46.9924 41.1612 46.56 41.3134 45.815 41.3134V48.1287V54.944C51.0312 54.944 55.4332 52.6245 58.5188 48.5104L53.0665 44.4212ZM45.815 48.1287V41.3134C45.3347 41.3134 44.7007 41.2276 43.881 40.9543L41.7258 47.4199L39.5706 53.8855C41.5861 54.5573 43.6782 54.944 45.815 54.944V48.1287ZM41.7258 47.4199H48.5411V42.1857H41.7258H34.9105V47.4199H41.7258ZM41.7258 42.1857L39.1947 48.5136C40.9528 49.2169 42.7586 49.4373 44.3974 49.4373V42.6219V35.8066C44.1787 35.8066 44.0649 35.7912 44.0371 35.7866C44.01 35.7822 44.0951 35.7931 44.257 35.8579L41.7258 42.1857ZM44.3974 42.6219V49.4373C46.5496 49.4373 49.0012 48.9051 51.1442 47.2383L46.96 41.8586L42.7758 36.4789C43.6102 35.8299 44.3535 35.8066 44.3974 35.8066V42.6219ZM46.96 41.8586L51.1442 47.2383C52.5542 46.1417 53.4162 44.7786 53.9431 43.7577C54.5004 42.6779 54.9182 41.5152 55.2474 40.3865L48.7047 38.4782L42.162 36.5699C42.0763 36.8637 42.0002 37.0876 41.938 37.2514C41.875 37.4175 41.8361 37.4954 41.8306 37.5061C41.8232 37.5205 41.8729 37.4199 41.9993 37.2526C42.1238 37.0878 42.3718 36.7931 42.7758 36.4789L46.96 41.8586ZM48.7047 38.4782L55.2578 40.3505C55.9875 37.7967 56.3257 34.7114 56.4428 31.3553L49.6316 31.1177L42.8204 30.8801C42.7194 33.7758 42.4397 35.5976 42.1516 36.6059L48.7047 38.4782ZM49.6316 31.1177L56.443 31.3486L57.2063 8.83071L50.3949 8.59982L43.5835 8.36892L42.8202 30.8868L49.6316 31.1177ZM50.3949 8.59982V15.4151H75.7479V8.59982V1.78449H50.3949V8.59982ZM75.7479 8.59982H68.9326V47.4199H75.7479H82.5633V8.59982H75.7479ZM107.595 47.4199V54.2352C111.359 54.2352 114.41 51.1839 114.41 47.4199H107.595ZM100.779 47.4199H93.964C93.964 51.1839 97.0154 54.2352 100.779 54.2352V47.4199ZM100.779 31.3903H107.595C107.595 27.6263 104.543 24.5749 100.779 24.5749V31.3903ZM93.0371 31.3903V24.5749C90.7922 24.5749 88.6912 25.6805 87.4199 27.5308L93.0371 31.3903ZM82.0236 47.4199V54.2352C84.2685 54.2352 86.3695 53.1297 87.6408 51.2794L82.0236 47.4199ZM73.518 47.4199L67.9759 43.4535C66.4894 45.5304 66.289 48.2641 67.4566 50.5357C68.6243 52.8072 70.964 54.2352 73.518 54.2352V47.4199ZM85.4585 30.736L91.0007 34.7025C92.2769 32.9193 92.6171 30.631 91.915 28.5536C91.2128 26.4763 89.5539 24.8637 87.4576 24.2205L85.4585 30.736ZM78.8613 26.3742L73.0758 29.9765L78.8613 26.3742ZM80.4424 11.544L84.8709 16.7245C84.8868 16.7109 84.9028 16.6971 84.9186 16.6834L80.4424 11.544ZM107.595 8.59982H114.41C114.41 4.83582 111.359 1.78449 107.595 1.78449V8.59982ZM100.779 26.2106V33.0259C104.543 33.0259 107.595 29.9746 107.595 26.2106H100.779ZM100.779 14.1611H107.595C107.595 10.3971 104.543 7.3458 100.779 7.3458V14.1611ZM85.513 15.5787L89.8761 20.8144C89.9099 20.7862 89.9434 20.7578 89.9766 20.729L85.513 15.5787ZM107.595 47.4199V40.6046H100.779V47.4199V54.2352H107.595V47.4199ZM100.779 47.4199H107.595V31.3903H100.779H93.964V47.4199H100.779ZM100.779 31.3903V24.5749H93.0371V31.3903V38.2056H100.779V31.3903ZM93.0371 31.3903L87.4199 27.5308L76.4063 43.5605L82.0236 47.4199L87.6408 51.2794L98.6544 35.2497L93.0371 31.3903ZM82.0236 47.4199V40.6046H73.518V47.4199V54.2352H82.0236V47.4199ZM73.518 47.4199L79.0602 51.3864L91.0007 34.7025L85.4585 30.736L79.9163 26.7695L67.9759 43.4535L73.518 47.4199ZM85.4585 30.736L87.4576 24.2205C86.3225 23.8722 85.6014 23.5103 85.1689 23.2244C84.7555 22.9511 84.6513 22.7792 84.6468 22.7719L78.8613 26.3742L73.0758 29.9765C75.4764 33.8321 79.4157 36.0109 83.4594 37.2515L85.4585 30.736ZM78.8613 26.3742L84.6468 22.7719C84.2534 22.1401 83.8773 21.1075 83.8773 19.3408H77.062H70.2467C70.2467 23.099 71.0701 26.7554 73.0758 29.9765L78.8613 26.3742ZM77.062 19.3408H83.8773C83.8773 17.83 84.3 17.2125 84.8709 16.7245L80.4424 11.544L76.0139 6.36356C72.0777 9.72846 70.2467 14.3088 70.2467 19.3408H77.062ZM80.4424 11.544L84.9186 16.6834C85.5441 16.1385 86.905 15.4151 89.9294 15.4151V8.59982V1.78449C84.8117 1.78449 79.8479 3.0239 75.9662 6.40472L80.4424 11.544ZM89.9294 8.59982V15.4151H107.595V8.59982V1.78449H89.9294V8.59982ZM107.595 8.59982H100.779V47.4199H107.595H114.41V8.59982H107.595ZM100.779 26.2106H107.595V14.1611H100.779H93.964V26.2106H100.779ZM100.779 14.1611V7.3458H90.6381V14.1611V20.9765H100.779V14.1611ZM90.6381 14.1611V7.3458C87.6155 7.3458 83.9426 7.92101 81.0495 10.4284L85.513 15.5787L89.9766 20.729C89.6014 21.0541 89.3331 21.1107 89.429 21.0842C89.5403 21.0534 89.9094 20.9765 90.6381 20.9765V14.1611ZM85.513 15.5787L81.1499 10.343C77.947 13.0122 77.062 16.7804 77.062 19.9405H83.8773H90.6927C90.6927 19.5346 90.7512 19.5209 90.6676 19.7437C90.6226 19.8638 90.5406 20.0401 90.4009 20.2418C90.2594 20.4463 90.0821 20.6427 89.8761 20.8144L85.513 15.5787ZM83.8773 19.9405H77.062C77.062 23.1874 77.9426 26.8472 80.8655 29.6024C83.7128 32.2864 87.3584 33.0259 90.5291 33.0259V26.2106V19.3953C89.9345 19.3953 89.6809 19.3228 89.6619 19.3168C89.6597 19.3161 89.7239 19.3362 89.8308 19.3966C89.9403 19.4586 90.0755 19.5522 90.2151 19.6838C90.3553 19.8159 90.472 19.9601 90.5622 20.1017C90.651 20.2413 90.6976 20.3524 90.7185 20.4115C90.756 20.5177 90.6927 20.4019 90.6927 19.9405H83.8773ZM90.5291 26.2106V33.0259H100.779V26.2106V19.3953H90.5291V26.2106ZM152.406 8.59982L157.217 13.4274C159.171 11.4802 159.759 8.54689 158.705 5.99724C157.652 3.44758 155.165 1.78449 152.406 1.78449V8.59982ZM136.867 24.0842L132.057 19.2566C129.701 21.6038 129.383 25.3082 131.305 28.0222L136.867 24.0842ZM153.388 47.4199V54.2352C155.935 54.2352 158.271 52.8142 159.441 50.5512C160.612 48.2883 160.422 45.5614 158.95 43.482L153.388 47.4199ZM144.937 47.4199L139.317 51.2761C140.588 53.1283 142.69 54.2352 144.937 54.2352V47.4199ZM132.178 28.8277L137.798 24.9715C136.652 23.3012 134.822 22.2273 132.804 22.0412C130.787 21.8551 128.792 22.5761 127.359 24.0085L132.178 28.8277ZM126.617 34.389L121.798 29.5699C120.52 30.848 119.802 32.5815 119.802 34.389H126.617ZM126.617 47.4199V54.2352C130.381 54.2352 133.432 51.1839 133.432 47.4199H126.617ZM119.856 47.4199H113.041C113.041 51.1839 116.092 54.2352 119.856 54.2352V47.4199ZM119.856 8.59982V1.78449C116.092 1.78449 113.041 4.83582 113.041 8.59982H119.856ZM126.617 8.59982H133.432C133.432 4.83582 130.381 1.78449 126.617 1.78449V8.59982ZM126.617 26.2106H119.802C119.802 28.9827 121.481 31.4786 124.049 32.5234C126.616 33.5682 129.561 32.9536 131.496 30.969L126.617 26.2106ZM143.792 8.59982V1.78449C141.955 1.78449 140.195 2.5262 138.913 3.84146L143.792 8.59982ZM152.406 8.59982L147.596 3.77219L132.057 19.2566L136.867 24.0842L141.678 28.9119L157.217 13.4274L152.406 8.59982ZM136.867 24.0842L131.305 28.0222L147.825 51.3579L153.388 47.4199L158.95 43.482L142.43 20.1463L136.867 24.0842ZM153.388 47.4199V40.6046H144.937V47.4199V54.2352H153.388V47.4199ZM144.937 47.4199L150.556 43.5637L137.798 24.9715L132.178 28.8277L126.559 32.6839L139.317 51.2761L144.937 47.4199ZM132.178 28.8277L127.359 24.0085L121.798 29.5699L126.617 34.389L131.436 39.2082L136.998 33.6469L132.178 28.8277ZM126.617 34.389H119.802V47.4199H126.617H133.432V34.389H126.617ZM126.617 47.4199V40.6046H119.856V47.4199V54.2352H126.617V47.4199ZM119.856 47.4199H126.672V8.59982H119.856H113.041V47.4199H119.856ZM119.856 8.59982V15.4151H126.617V8.59982V1.78449H119.856V8.59982ZM126.617 8.59982H119.802V26.2106H126.617H133.432V8.59982H126.617ZM126.617 26.2106L131.496 30.969L148.671 13.3582L143.792 8.59982L138.913 3.84146L121.738 21.4523L126.617 26.2106ZM143.792 8.59982V15.4151H152.406V8.59982V1.78449H143.792V8.59982ZM180.921 13.3433L175.865 17.9132C175.88 17.9302 175.896 17.9471 175.911 17.964L180.921 13.3433ZM180.921 42.731L185.931 47.3517C185.938 47.3436 185.946 47.3356 185.953 47.3275L180.921 42.731ZM153.933 42.731L148.898 47.3252C148.907 47.334 148.915 47.3429 148.923 47.3517L153.933 42.731ZM153.823 13.4523L148.7 8.95757L148.697 8.96095L153.823 13.4523ZM158.894 17.378L164.166 21.6977C164.175 21.6858 164.185 21.6739 164.195 21.662L158.894 17.378ZM158.84 38.6418L153.503 42.8814C153.515 42.8963 153.527 42.9111 153.539 42.9258L158.84 38.6418ZM176.014 38.6418L170.685 34.3931L170.678 34.4021L176.014 38.6418ZM176.014 17.378L170.678 21.6176C170.699 21.6445 170.721 21.6711 170.743 21.6977L176.014 17.378ZM167.563 7.67293V14.4883C171.292 14.4883 173.848 15.682 175.865 17.9132L180.921 13.3433L185.977 8.77334C181.161 3.44411 174.812 0.857605 167.563 0.857605V7.67293ZM180.921 13.3433L175.911 17.964C177.994 20.2224 179.286 23.3527 179.286 28.0099H186.101H192.916C192.916 20.5994 190.754 13.952 185.931 8.7226L180.921 13.3433ZM186.101 28.0099H179.286C179.286 32.665 177.995 35.8294 175.889 38.1345L180.921 42.731L185.953 47.3275C190.754 42.072 192.916 35.4224 192.916 28.0099H186.101ZM180.921 42.731L175.911 38.1103C173.866 40.328 171.256 41.5315 167.454 41.5315V48.3468V55.1621C174.702 55.1621 181.07 52.6217 185.931 47.3517L180.921 42.731ZM167.454 48.3468V41.5315C163.601 41.5315 160.979 40.318 158.942 38.1103L153.933 42.731L148.923 47.3517C153.793 52.6317 160.185 55.1621 167.454 55.1621V48.3468ZM153.933 42.731L158.967 38.1368C156.914 35.8881 155.623 32.7349 155.623 28.0099H148.807H141.992C141.992 35.4252 144.117 42.0861 148.898 47.3252L153.933 42.731ZM148.807 28.0099H155.623C155.623 23.4927 156.866 20.3212 158.95 17.9437L153.823 13.4523L148.697 8.96095C144.092 14.2167 141.992 20.7501 141.992 28.0099H148.807ZM153.823 13.4523L158.947 17.9471C160.86 15.7665 163.467 14.4883 167.563 14.4883V7.67293V0.857605C160.101 0.857605 153.548 3.43226 148.7 8.95757L153.823 13.4523ZM167.454 13.3978V6.58248C161.938 6.58248 157.096 8.75976 153.594 13.0939L158.894 17.378L164.195 21.662C164.981 20.6893 165.846 20.2131 167.454 20.2131V13.3978ZM158.894 17.378L153.623 13.0582C150.214 17.2184 148.862 22.4061 148.862 27.9008H155.677H162.493C162.493 24.5992 163.285 22.7717 164.166 21.6977L158.894 17.378ZM155.677 27.9008H148.862C148.862 33.4392 150.163 38.6769 153.503 42.8814L158.84 38.6418L164.176 34.4021C163.3 33.2998 162.493 31.3769 162.493 27.9008H155.677ZM158.84 38.6418L153.539 42.9258C157.086 47.3147 162.013 49.4373 167.563 49.4373V42.6219V35.8066C165.771 35.8066 164.882 35.2758 164.14 34.3578L158.84 38.6418ZM167.563 42.6219V49.4373C173.07 49.4373 177.89 47.2369 181.35 42.8814L176.014 38.6418L170.678 34.4021C169.922 35.3536 169.108 35.8066 167.563 35.8066V42.6219ZM176.014 38.6418L181.343 42.8905C184.698 38.6824 186.046 33.4818 186.046 27.9553H179.231H172.416C172.416 31.2979 171.619 33.2216 170.685 34.3931L176.014 38.6418ZM179.231 27.9553H186.046C186.046 22.44 184.702 17.2277 181.286 13.0582L176.014 17.378L170.743 21.6977C171.615 22.7624 172.416 24.6017 172.416 27.9553H179.231ZM176.014 17.378L181.35 13.1383C177.86 8.74498 172.983 6.58248 167.454 6.58248V13.3978V20.2131C169.122 20.2131 169.952 20.7041 170.678 21.6176L176.014 17.378ZM193.667 47.4199V54.2352C197.431 54.2352 200.482 51.1839 200.482 47.4199H193.667ZM186.851 47.4199H180.036C180.036 51.1839 183.087 54.2352 186.851 54.2352V47.4199ZM186.851 8.59982V1.78449C183.087 1.78449 180.036 4.83582 180.036 8.59982H186.851ZM213.186 8.59982H220.001C220.001 4.83582 216.95 1.78449 213.186 1.78449V8.59982ZM213.186 14.4883V21.3036C216.95 21.3036 220.001 18.2523 220.001 14.4883H213.186ZM193.667 14.4883V7.67293C189.903 7.67293 186.851 10.7243 186.851 14.4883H193.667ZM193.667 47.4199V40.6046H186.851V47.4199V54.2352H193.667V47.4199ZM186.851 47.4199H193.667V8.59982H186.851H180.036V47.4199H186.851ZM186.851 8.59982V15.4151H213.186V8.59982V1.78449H186.851V8.59982ZM213.186 8.59982H206.37V14.4883H213.186H220.001V8.59982H213.186ZM213.186 14.4883V7.67293H193.667V14.4883V21.3036H213.186V14.4883ZM193.667 14.4883H186.851V47.4199H193.667H200.482V14.4883H193.667ZM242.163 13.3433L237.107 17.9132C237.123 17.9302 237.138 17.9471 237.154 17.964L242.163 13.3433ZM242.163 42.731L247.173 47.3517C247.181 47.3436 247.188 47.3356 247.195 47.3275L242.163 42.731ZM215.175 42.731L210.141 47.3252C210.149 47.334 210.157 47.3429 210.165 47.3517L215.175 42.731ZM215.066 13.4523L209.943 8.95757L209.94 8.96095L215.066 13.4523ZM220.136 17.378L225.408 21.6977C225.417 21.6858 225.427 21.6739 225.437 21.662L220.136 17.378ZM220.082 38.6418L214.746 42.8814C214.757 42.8963 214.769 42.9111 214.781 42.9258L220.082 38.6418ZM237.256 38.6418L231.927 34.3931L231.92 34.4021L237.256 38.6418ZM237.256 17.378L231.92 21.6176C231.941 21.6445 231.963 21.6711 231.985 21.6977L237.256 17.378ZM228.805 7.67293V14.4883C232.534 14.4883 235.09 15.682 237.107 17.9132L242.163 13.3433L247.219 8.77334C242.403 3.44411 236.054 0.857605 228.805 0.857605V7.67293ZM242.163 13.3433L237.154 17.964C239.237 20.2224 240.528 23.3527 240.528 28.0099H247.343H254.158C254.158 20.5994 251.996 13.952 247.173 8.7226L242.163 13.3433ZM247.343 28.0099H240.528C240.528 32.665 239.237 35.8294 237.131 38.1345L242.163 42.731L247.195 47.3275C251.996 42.072 254.158 35.4224 254.158 28.0099H247.343ZM242.163 42.731L237.154 38.1103C235.108 40.328 232.498 41.5315 228.696 41.5315V48.3468V55.1621C235.944 55.1621 242.312 52.6217 247.173 47.3517L242.163 42.731ZM228.696 48.3468V41.5315C224.843 41.5315 222.221 40.318 220.184 38.1103L215.175 42.731L210.165 47.3517C215.035 52.6317 221.427 55.1621 228.696 55.1621V48.3468ZM215.175 42.731L220.209 38.1368C218.156 35.8881 216.865 32.7349 216.865 28.0099H210.049H203.234C203.234 35.4252 205.359 42.0861 210.141 47.3252L215.175 42.731ZM210.049 28.0099H216.865C216.865 23.4927 218.109 20.3212 220.192 17.9437L215.066 13.4523L209.94 8.96095C205.335 14.2167 203.234 20.7501 203.234 28.0099H210.049ZM215.066 13.4523L220.189 17.9471C222.102 15.7665 224.709 14.4883 228.805 14.4883V7.67293V0.857605C221.343 0.857605 214.79 3.43226 209.943 8.95757L215.066 13.4523ZM228.696 13.3978V6.58248C223.18 6.58248 218.339 8.75976 214.836 13.0939L220.136 17.378L225.437 21.662C226.223 20.6893 227.088 20.2131 228.696 20.2131V13.3978ZM220.136 17.378L214.865 13.0582C211.456 17.2184 210.104 22.4061 210.104 27.9008H216.919H223.735C223.735 24.5992 224.528 22.7717 225.408 21.6977L220.136 17.378ZM216.919 27.9008H210.104C210.104 33.4392 211.405 38.6769 214.746 42.8814L220.082 38.6418L225.418 34.4021C224.542 33.2998 223.735 31.3769 223.735 27.9008H216.919ZM220.082 38.6418L214.781 42.9258C218.328 47.3147 223.255 49.4373 228.805 49.4373V42.6219V35.8066C227.013 35.8066 226.124 35.2758 225.382 34.3578L220.082 38.6418ZM228.805 42.6219V49.4373C234.312 49.4373 239.132 47.2369 242.592 42.8814L237.256 38.6418L231.92 34.4021C231.164 35.3536 230.35 35.8066 228.805 35.8066V42.6219ZM237.256 38.6418L242.585 42.8905C245.94 38.6824 247.288 33.4818 247.288 27.9553H240.473H233.658C233.658 31.2979 232.861 33.2216 231.927 34.3931L237.256 38.6418ZM240.473 27.9553H247.288C247.288 22.44 245.944 17.2277 242.528 13.0582L237.256 17.378L231.985 21.6977C232.857 22.7624 233.658 24.6017 233.658 27.9553H240.473ZM237.256 17.378L242.592 13.1383C239.102 8.74498 234.225 6.58248 228.696 6.58248V13.3978V20.2131C230.365 20.2131 231.194 20.7041 231.92 21.6176L237.256 17.378Z" fill="#CFF665" mask="url(#path-1-outside-1_3144_1492)"/>
</svg>
