<svg width="268" height="64" viewBox="0 0 268 64" fill="none" xmlns="http://www.w3.org/2000/svg">
<mask id="path-1-outside-1_3144_1511" maskUnits="userSpaceOnUse" x="0.1875" y="0.421875" width="268" height="64" fill="black">
<rect fill="white" x="0.1875" y="0.421875" width="268" height="64"/>
<path d="M31.0989 30.4108C26.9188 31.1378 23.5203 31.5013 20.9032 31.5013C18.6496 31.5013 16.6504 31.2287 14.9057 30.6834C13.1973 30.1019 11.8706 29.4112 10.9255 28.6116C10.0168 27.7756 9.27167 26.7941 8.6901 25.6673C8.10852 24.5405 7.72687 23.5228 7.54512 22.6141C7.36338 21.669 7.27251 20.6876 7.27251 19.6699V8.60177H14.0878V17.598C14.0878 18.4704 14.106 19.161 14.1424 19.6699C14.1787 20.1787 14.3423 20.8512 14.6331 21.6872C14.9239 22.5232 15.3237 23.1775 15.8326 23.65C16.3414 24.1225 17.1229 24.5405 18.177 24.904C19.2311 25.2675 20.5033 25.4493 21.9936 25.4493C24.9742 25.4493 28.0093 25.1403 31.0989 24.5224V8.60177H37.9142V47.4219H31.0989V30.4108ZM68.3689 8.60177V14.4902H55.9923V47.4219H49.177V14.4902H36.8003V8.60177H68.3689ZM83.1552 7.67489C88.6438 7.67489 93.0965 9.565 96.5133 13.3452C99.9664 17.0891 101.693 21.978 101.693 28.0118C101.693 34.0457 99.9664 38.9527 96.5133 42.7329C93.0602 46.4768 88.5711 48.3488 83.0462 48.3488C77.4849 48.3488 72.9777 46.4768 69.5246 42.7329C66.1078 38.989 64.3994 34.082 64.3994 28.0118C64.3994 22.1234 66.0715 17.2709 69.4155 13.4543C72.7959 9.60135 77.3758 7.67489 83.1552 7.67489ZM83.0462 13.3998C79.484 13.3998 76.6307 14.7265 74.4861 17.3799C72.3416 19.997 71.2693 23.5046 71.2693 27.9028C71.2693 32.41 72.3234 35.9903 74.4316 38.6437C76.5762 41.2972 79.484 42.6239 83.1552 42.6239C86.681 42.6239 89.498 41.2972 91.6062 38.6437C93.7508 35.954 94.8231 32.3918 94.8231 27.9573C94.8231 23.5228 93.7508 19.997 91.6062 17.3799C89.498 14.7265 86.6447 13.3998 83.0462 13.3998ZM143.844 35.3724C143.844 39.2253 142.68 42.2059 140.354 44.3141C138.064 46.3859 134.811 47.4219 130.595 47.4219H112.166V8.60177H140.736V14.4902H118.981V23.4319H130.595C134.847 23.4319 138.119 24.4679 140.409 26.5397C142.699 28.6116 143.844 31.5558 143.844 35.3724ZM137.028 35.5359C137.028 33.5004 136.429 31.9011 135.229 30.738C134.03 29.5748 132.357 28.9932 130.213 28.9932H118.981V41.8606H130.322C134.793 41.8606 137.028 39.7524 137.028 35.5359ZM154.099 36.5174L140.687 8.60177H148.211L157.589 29.4294L167.185 8.60177H174.545L159.443 39.5161C157.88 42.7148 156.208 44.9865 154.426 46.3314C152.645 47.6763 150.628 48.3488 148.374 48.3488C146.775 48.3488 145.249 48.0216 143.795 47.3674V41.6425C144.849 42.2967 146.303 42.6239 148.156 42.6239C149.32 42.6239 150.301 42.1695 151.101 41.2608C151.9 40.3521 152.882 38.8073 154.045 36.6264L154.099 36.5174ZM204.995 57.0724H198.398V47.4219H173.099V57.0724H166.502V41.5334H170.264C171.754 38.9163 172.972 35.0998 173.917 30.0837C174.862 25.0676 175.335 19.9061 175.335 14.5993V8.60177H200.633V41.5334H204.995V57.0724ZM193.818 41.5334V14.4902H181.986V16.8347C181.986 21.5236 181.55 26.1944 180.678 30.847C179.842 35.4632 178.806 39.0254 177.57 41.5334H193.818ZM232.13 8.60177V14.3266H210.92V24.6314H230.603V30.1382H210.92V41.588H232.457V47.4219H204.16V8.60177H232.13ZM260.966 8.60177V14.4902H248.589V47.4219H241.774V14.4902H229.397V8.60177H260.966Z"/>
</mask>
<path d="M31.0989 30.4108C26.9188 31.1378 23.5203 31.5013 20.9032 31.5013C18.6496 31.5013 16.6504 31.2287 14.9057 30.6834C13.1973 30.1019 11.8706 29.4112 10.9255 28.6116C10.0168 27.7756 9.27167 26.7941 8.6901 25.6673C8.10852 24.5405 7.72687 23.5228 7.54512 22.6141C7.36338 21.669 7.27251 20.6876 7.27251 19.6699V8.60177H14.0878V17.598C14.0878 18.4704 14.106 19.161 14.1424 19.6699C14.1787 20.1787 14.3423 20.8512 14.6331 21.6872C14.9239 22.5232 15.3237 23.1775 15.8326 23.65C16.3414 24.1225 17.1229 24.5405 18.177 24.904C19.2311 25.2675 20.5033 25.4493 21.9936 25.4493C24.9742 25.4493 28.0093 25.1403 31.0989 24.5224V8.60177H37.9142V47.4219H31.0989V30.4108ZM68.3689 8.60177V14.4902H55.9923V47.4219H49.177V14.4902H36.8003V8.60177H68.3689ZM83.1552 7.67489C88.6438 7.67489 93.0965 9.565 96.5133 13.3452C99.9664 17.0891 101.693 21.978 101.693 28.0118C101.693 34.0457 99.9664 38.9527 96.5133 42.7329C93.0602 46.4768 88.5711 48.3488 83.0462 48.3488C77.4849 48.3488 72.9777 46.4768 69.5246 42.7329C66.1078 38.989 64.3994 34.082 64.3994 28.0118C64.3994 22.1234 66.0715 17.2709 69.4155 13.4543C72.7959 9.60135 77.3758 7.67489 83.1552 7.67489ZM83.0462 13.3998C79.484 13.3998 76.6307 14.7265 74.4861 17.3799C72.3416 19.997 71.2693 23.5046 71.2693 27.9028C71.2693 32.41 72.3234 35.9903 74.4316 38.6437C76.5762 41.2972 79.484 42.6239 83.1552 42.6239C86.681 42.6239 89.498 41.2972 91.6062 38.6437C93.7508 35.954 94.8231 32.3918 94.8231 27.9573C94.8231 23.5228 93.7508 19.997 91.6062 17.3799C89.498 14.7265 86.6447 13.3998 83.0462 13.3998ZM143.844 35.3724C143.844 39.2253 142.68 42.2059 140.354 44.3141C138.064 46.3859 134.811 47.4219 130.595 47.4219H112.166V8.60177H140.736V14.4902H118.981V23.4319H130.595C134.847 23.4319 138.119 24.4679 140.409 26.5397C142.699 28.6116 143.844 31.5558 143.844 35.3724ZM137.028 35.5359C137.028 33.5004 136.429 31.9011 135.229 30.738C134.03 29.5748 132.357 28.9932 130.213 28.9932H118.981V41.8606H130.322C134.793 41.8606 137.028 39.7524 137.028 35.5359ZM154.099 36.5174L140.687 8.60177H148.211L157.589 29.4294L167.185 8.60177H174.545L159.443 39.5161C157.88 42.7148 156.208 44.9865 154.426 46.3314C152.645 47.6763 150.628 48.3488 148.374 48.3488C146.775 48.3488 145.249 48.0216 143.795 47.3674V41.6425C144.849 42.2967 146.303 42.6239 148.156 42.6239C149.32 42.6239 150.301 42.1695 151.101 41.2608C151.9 40.3521 152.882 38.8073 154.045 36.6264L154.099 36.5174ZM204.995 57.0724H198.398V47.4219H173.099V57.0724H166.502V41.5334H170.264C171.754 38.9163 172.972 35.0998 173.917 30.0837C174.862 25.0676 175.335 19.9061 175.335 14.5993V8.60177H200.633V41.5334H204.995V57.0724ZM193.818 41.5334V14.4902H181.986V16.8347C181.986 21.5236 181.55 26.1944 180.678 30.847C179.842 35.4632 178.806 39.0254 177.57 41.5334H193.818ZM232.13 8.60177V14.3266H210.92V24.6314H230.603V30.1382H210.92V41.588H232.457V47.4219H204.16V8.60177H232.13ZM260.966 8.60177V14.4902H248.589V47.4219H241.774V14.4902H229.397V8.60177H260.966Z" fill="#8F8F8F"/>
<path d="M31.0989 30.4108H37.9142C37.9142 28.399 37.0254 26.4901 35.4858 25.1951C33.9462 23.9002 31.9132 23.3516 29.9311 23.6963L31.0989 30.4108ZM14.9057 30.6834L12.7093 37.1352C12.7636 37.1536 12.8181 37.1714 12.8728 37.1885L14.9057 30.6834ZM10.9255 28.6116L6.31116 33.6272C6.38055 33.691 6.45125 33.7534 6.52322 33.8143L10.9255 28.6116ZM7.54512 22.6141L0.852428 23.9011C0.855606 23.9177 0.858845 23.9342 0.862145 23.9507L7.54512 22.6141ZM7.27251 8.60177V1.78644C3.50851 1.78644 0.457183 4.83777 0.457183 8.60177H7.27251ZM14.0878 8.60177H20.9032C20.9032 4.83777 17.8518 1.78644 14.0878 1.78644V8.60177ZM14.1424 19.6699L20.9404 19.1843V19.1843L14.1424 19.6699ZM15.8326 23.65L20.4701 18.6558L20.4701 18.6558L15.8326 23.65ZM18.177 24.904L15.9553 31.3471L15.9553 31.3471L18.177 24.904ZM31.0989 24.5224L32.4355 31.2054C35.6211 30.5682 37.9142 27.7711 37.9142 24.5224H31.0989ZM31.0989 8.60177V1.78644C27.3349 1.78644 24.2836 4.83777 24.2836 8.60177H31.0989ZM37.9142 8.60177H44.7295C44.7295 4.83777 41.6782 1.78644 37.9142 1.78644V8.60177ZM37.9142 47.4219V54.2372C41.6782 54.2372 44.7295 51.1859 44.7295 47.4219H37.9142ZM31.0989 47.4219H24.2836C24.2836 51.1859 27.3349 54.2372 31.0989 54.2372V47.4219ZM31.0989 30.4108L29.9311 23.6963C25.9312 24.3919 22.9644 24.6859 20.9032 24.6859V31.5013V38.3166C24.0761 38.3166 27.9065 37.8836 32.2666 37.1254L31.0989 30.4108ZM20.9032 31.5013V24.6859C19.1851 24.6859 17.8929 24.4766 16.9385 24.1783L14.9057 30.6834L12.8728 37.1885C15.4079 37.9807 18.1141 38.3166 20.9032 38.3166V31.5013ZM14.9057 30.6834L17.102 24.2317C15.8634 23.8101 15.3966 23.467 15.3278 23.4088L10.9255 28.6116L6.52322 33.8143C8.3446 35.3555 10.5312 36.3937 12.7093 37.1352L14.9057 30.6834ZM10.9255 28.6116L15.5399 23.596C15.2347 23.3152 14.9717 22.9782 14.7463 22.5415L8.6901 25.6673L2.63386 28.7932C3.57162 30.6101 4.79896 32.236 6.31116 33.6272L10.9255 28.6116ZM8.6901 25.6673L14.7463 22.5415C14.357 21.7871 14.2491 21.3823 14.2281 21.2775L7.54512 22.6141L0.862145 23.9507C1.20467 25.6633 1.86009 27.294 2.63386 28.7932L8.6901 25.6673ZM7.54512 22.6141L14.2378 21.327C14.1422 20.8297 14.0878 20.2803 14.0878 19.6699H7.27251H0.457183C0.457183 21.0949 0.584587 22.5084 0.852428 23.9011L7.54512 22.6141ZM7.27251 19.6699H14.0878V8.60177H7.27251H0.457183V19.6699H7.27251ZM7.27251 8.60177V15.4171H14.0878V8.60177V1.78644H7.27251V8.60177ZM14.0878 8.60177H7.27251V17.598H14.0878H20.9032V8.60177H14.0878ZM14.0878 17.598H7.27251C7.27251 18.5363 7.2912 19.4113 7.34435 20.1554L14.1424 19.6699L20.9404 19.1843C20.9208 18.9107 20.9032 18.4044 20.9032 17.598H14.0878ZM14.1424 19.6699L7.34435 20.1554C7.44352 21.5437 7.82987 22.8735 8.19601 23.9262L14.6331 21.6872L21.0701 19.4482C20.9778 19.1828 20.9328 19.0202 20.9145 18.945C20.9061 18.9102 20.9076 18.9116 20.9133 18.945C20.9187 18.9771 20.9315 19.0595 20.9404 19.1843L14.1424 19.6699ZM14.6331 21.6872L8.19601 23.9262C8.75464 25.5322 9.67669 27.2343 11.1951 28.6442L15.8326 23.65L20.4701 18.6558C20.9707 19.1206 21.0931 19.5142 21.0701 19.4482L14.6331 21.6872ZM15.8326 23.65L11.1951 28.6442C12.6945 30.0366 14.4844 30.8398 15.9553 31.3471L18.177 24.904L20.3988 18.461C20.2692 18.4163 20.1735 18.3787 20.1073 18.3505C20.0406 18.3221 20.0121 18.3068 20.0148 18.3083C20.017 18.3095 20.0614 18.3332 20.1365 18.385C20.2113 18.4366 20.3286 18.5245 20.4701 18.6558L15.8326 23.65ZM18.177 24.904L15.9553 31.3471C17.9193 32.0243 19.9856 32.2646 21.9936 32.2646V25.4493V18.6339C21.0211 18.6339 20.543 18.5107 20.3988 18.461L18.177 24.904ZM21.9936 25.4493V32.2646C25.4477 32.2646 28.9307 31.9063 32.4355 31.2054L31.0989 24.5224L29.7623 17.8394C27.0878 18.3743 24.5006 18.6339 21.9936 18.6339V25.4493ZM31.0989 24.5224H37.9142V8.60177H31.0989H24.2836V24.5224H31.0989ZM31.0989 8.60177V15.4171H37.9142V8.60177V1.78644H31.0989V8.60177ZM37.9142 8.60177H31.0989V47.4219H37.9142H44.7295V8.60177H37.9142ZM37.9142 47.4219V40.6065H31.0989V47.4219V54.2372H37.9142V47.4219ZM31.0989 47.4219H37.9142V30.4108H31.0989H24.2836V47.4219H31.0989ZM68.3689 8.60177H75.1843C75.1843 4.83777 72.1329 1.78644 68.3689 1.78644V8.60177ZM68.3689 14.4902V21.3055C72.1329 21.3055 75.1843 18.2542 75.1843 14.4902H68.3689ZM55.9923 14.4902V7.67489C52.2283 7.67489 49.177 10.7262 49.177 14.4902H55.9923ZM55.9923 47.4219V54.2372C59.7563 54.2372 62.8076 51.1859 62.8076 47.4219H55.9923ZM49.177 47.4219H42.3616C42.3616 51.1859 45.413 54.2372 49.177 54.2372V47.4219ZM49.177 14.4902H55.9923C55.9923 10.7262 52.941 7.67489 49.177 7.67489V14.4902ZM36.8003 14.4902H29.985C29.985 18.2542 33.0363 21.3055 36.8003 21.3055V14.4902ZM36.8003 8.60177V1.78644C33.0363 1.78644 29.985 4.83777 29.985 8.60177H36.8003ZM68.3689 8.60177H61.5536V14.4902H68.3689H75.1843V8.60177H68.3689ZM68.3689 14.4902V7.67489H55.9923V14.4902V21.3055H68.3689V14.4902ZM55.9923 14.4902H49.177V47.4219H55.9923H62.8076V14.4902H55.9923ZM55.9923 47.4219V40.6065H49.177V47.4219V54.2372H55.9923V47.4219ZM49.177 47.4219H55.9923V14.4902H49.177H42.3616V47.4219H49.177ZM49.177 14.4902V7.67489H36.8003V14.4902V21.3055H49.177V14.4902ZM36.8003 14.4902H43.6157V8.60177H36.8003H29.985V14.4902H36.8003ZM36.8003 8.60177V15.4171H68.3689V8.60177V1.78644H36.8003V8.60177ZM96.5133 13.3452L91.4571 17.9152C91.4725 17.9322 91.4879 17.9491 91.5035 17.9659L96.5133 13.3452ZM96.5133 42.7329L101.523 47.3536C101.53 47.3456 101.538 47.3375 101.545 47.3294L96.5133 42.7329ZM69.5246 42.7329L64.4905 47.3271C64.4986 47.336 64.5067 47.3448 64.5148 47.3536L69.5246 42.7329ZM69.4155 13.4543L64.2924 8.95952L64.2895 8.9629L69.4155 13.4543ZM74.4861 17.3799L79.7576 21.6996C79.7673 21.6878 79.777 21.6759 79.7867 21.6639L74.4861 17.3799ZM74.4316 38.6437L69.0955 42.8834C69.1073 42.8982 69.1191 42.913 69.131 42.9277L74.4316 38.6437ZM91.6062 38.6437L86.2773 34.395L86.2701 34.4041L91.6062 38.6437ZM91.6062 17.3799L86.2701 21.6196C86.2914 21.6464 86.313 21.6731 86.3347 21.6996L91.6062 17.3799ZM83.1552 7.67489V14.4902C86.8838 14.4902 89.4404 15.6839 91.4571 17.9152L96.5133 13.3452L101.569 8.77529C96.7526 3.44607 90.4038 0.859558 83.1552 0.859558V7.67489ZM96.5133 13.3452L91.5035 17.9659C93.5865 20.2243 94.8776 23.3546 94.8776 28.0118H101.693H108.508C108.508 20.6013 106.346 13.9539 101.523 8.72456L96.5133 13.3452ZM101.693 28.0118H94.8776C94.8776 32.667 93.5868 35.8314 91.4813 38.1364L96.5133 42.7329L101.545 47.3294C106.346 42.074 108.508 35.4243 108.508 28.0118H101.693ZM96.5133 42.7329L91.5035 38.1122C89.458 40.33 86.8483 41.5334 83.0462 41.5334V48.3488V55.1641C90.2939 55.1641 96.6623 52.6237 101.523 47.3536L96.5133 42.7329ZM83.0462 48.3488V41.5334C79.1929 41.5334 76.5706 40.32 74.5343 38.1122L69.5246 42.7329L64.5148 47.3536C69.3847 52.6337 75.7769 55.1641 83.0462 55.1641V48.3488ZM69.5246 42.7329L74.5586 38.1387C72.5064 35.89 71.2148 32.7369 71.2148 28.0118H64.3994H57.5841C57.5841 35.4271 59.7092 42.088 64.4905 47.3271L69.5246 42.7329ZM64.3994 28.0118H71.2148C71.2148 23.4947 72.4585 20.3231 74.5415 17.9457L69.4155 13.4543L64.2895 8.9629C59.6845 14.2186 57.5841 20.7521 57.5841 28.0118H64.3994ZM69.4155 13.4543L74.5386 17.949C76.4517 15.7685 79.059 14.4902 83.1552 14.4902V7.67489V0.859558C75.6926 0.859558 69.1401 3.43422 64.2924 8.95952L69.4155 13.4543ZM83.0462 13.3998V6.58443C77.5304 6.58443 72.6885 8.76172 69.1856 13.0959L74.4861 17.3799L79.7867 21.6639C80.5728 20.6912 81.4376 20.2151 83.0462 20.2151V13.3998ZM74.4861 17.3799L69.2146 13.0602C65.8056 17.2203 64.454 22.408 64.454 27.9028H71.2693H78.0846C78.0846 24.6012 78.8775 22.7736 79.7576 21.6996L74.4861 17.3799ZM71.2693 27.9028H64.454C64.454 33.4412 65.7549 38.6788 69.0955 42.8834L74.4316 38.6437L79.7677 34.4041C78.8919 33.3018 78.0846 31.3788 78.0846 27.9028H71.2693ZM74.4316 38.6437L69.131 42.9277C72.6782 47.3166 77.6049 49.4392 83.1552 49.4392V42.6239V35.8086C81.3631 35.8086 80.4741 35.2777 79.7322 34.3597L74.4316 38.6437ZM83.1552 42.6239V49.4392C88.6621 49.4392 93.4819 47.2388 96.9423 42.8834L91.6062 38.6437L86.2701 34.4041C85.5142 35.3555 84.6999 35.8086 83.1552 35.8086V42.6239ZM91.6062 38.6437L96.9351 42.8924C100.29 38.6844 101.638 33.4838 101.638 27.9573H94.8231H88.0077C88.0077 31.2998 87.2113 33.2235 86.2773 34.395L91.6062 38.6437ZM94.8231 27.9573H101.638C101.638 22.442 100.294 17.2297 96.8777 13.0602L91.6062 17.3799L86.3347 21.6996C87.2072 22.7643 88.0077 24.6036 88.0077 27.9573H94.8231ZM91.6062 17.3799L96.9423 13.1403C93.4517 8.74693 88.5749 6.58443 83.0462 6.58443V13.3998V20.2151C84.7145 20.2151 85.5443 20.706 86.2701 21.6196L91.6062 17.3799ZM140.354 44.3141L144.927 49.3679L144.931 49.3642L140.354 44.3141ZM112.166 47.4219H105.351C105.351 51.1859 108.402 54.2372 112.166 54.2372V47.4219ZM112.166 8.60177V1.78644C108.402 1.78644 105.351 4.83777 105.351 8.60177H112.166ZM140.736 8.60177H147.551C147.551 4.83777 144.5 1.78644 140.736 1.78644V8.60177ZM140.736 14.4902V21.3055C144.5 21.3055 147.551 18.2542 147.551 14.4902H140.736ZM118.981 14.4902V7.67489C115.217 7.67489 112.166 10.7262 112.166 14.4902H118.981ZM118.981 23.4319H112.166C112.166 27.1959 115.217 30.2472 118.981 30.2472V23.4319ZM140.409 26.5397L144.981 21.4859L144.981 21.4859L140.409 26.5397ZM135.229 30.738L139.973 25.8452L135.229 30.738ZM118.981 28.9932V22.1779C115.217 22.1779 112.166 25.2292 112.166 28.9932H118.981ZM118.981 41.8606H112.166C112.166 45.6246 115.217 48.6759 118.981 48.6759V41.8606ZM143.844 35.3724H137.028C137.028 37.7735 136.362 38.734 135.778 39.264L140.354 44.3141L144.931 49.3642C148.998 45.6778 150.659 40.6771 150.659 35.3724H143.844ZM140.354 44.3141L135.782 39.2603C135.141 39.8403 133.744 40.6065 130.595 40.6065V47.4219V54.2372C135.878 54.2372 140.988 52.9316 144.927 49.3679L140.354 44.3141ZM130.595 47.4219V40.6065H112.166V47.4219V54.2372H130.595V47.4219ZM112.166 47.4219H118.981V8.60177H112.166H105.351V47.4219H112.166ZM112.166 8.60177V15.4171H140.736V8.60177V1.78644H112.166V8.60177ZM140.736 8.60177H133.92V14.4902H140.736H147.551V8.60177H140.736ZM140.736 14.4902V7.67489H118.981V14.4902V21.3055H140.736V14.4902ZM118.981 14.4902H112.166V23.4319H118.981H125.797V14.4902H118.981ZM118.981 23.4319V30.2472H130.595V23.4319V16.6166H118.981V23.4319ZM130.595 23.4319V30.2472C133.799 30.2472 135.205 31.0224 135.836 31.5935L140.409 26.5397L144.981 21.4859C141.033 17.9133 135.896 16.6166 130.595 16.6166V23.4319ZM140.409 26.5397L135.836 31.5935C136.371 32.0778 137.028 32.9921 137.028 35.3724H143.844H150.659C150.659 30.1195 149.026 25.1453 144.981 21.4859L140.409 26.5397ZM137.028 35.5359H143.844C143.844 32.0873 142.777 28.5638 139.973 25.8452L135.229 30.738L130.485 35.6307C130.425 35.5725 130.362 35.498 130.305 35.4117C130.249 35.3257 130.215 35.2514 130.197 35.2028C130.161 35.1062 130.213 35.1826 130.213 35.5359H137.028ZM135.229 30.738L139.973 25.8452C137.171 23.1273 133.605 22.1779 130.213 22.1779V28.9932V35.8086C130.679 35.8086 130.854 35.8726 130.836 35.8665C130.825 35.8625 130.775 35.8435 130.702 35.7991C130.628 35.7541 130.552 35.6965 130.485 35.6307L135.229 30.738ZM130.213 28.9932V22.1779H118.981V28.9932V35.8086H130.213V28.9932ZM118.981 28.9932H112.166V41.8606H118.981H125.797V28.9932H118.981ZM118.981 41.8606V48.6759H130.322V41.8606V35.0452H118.981V41.8606ZM130.322 41.8606V48.6759C133.512 48.6759 137.171 47.9314 140.028 45.2376C142.959 42.4731 143.844 38.8001 143.844 35.5359H137.028H130.213C130.213 36.0067 130.148 36.1308 130.183 36.0318C130.203 35.9762 130.248 35.8683 130.335 35.7317C130.423 35.5929 130.538 35.4512 130.676 35.3212C130.813 35.1919 130.945 35.1 131.052 35.0396C131.156 34.9807 131.218 34.9619 131.212 34.9636C131.187 34.9716 130.925 35.0452 130.322 35.0452V41.8606ZM154.099 36.5174L160.195 39.5653C161.138 37.6803 161.155 35.4654 160.242 33.5658L154.099 36.5174ZM140.687 8.60177V1.78644C138.344 1.78644 136.165 2.98993 134.918 4.97321C133.67 6.95648 133.529 9.44147 134.544 11.5533L140.687 8.60177ZM148.211 8.60177L154.425 5.80365C153.324 3.35869 150.892 1.78644 148.211 1.78644V8.60177ZM157.589 29.4294L151.374 32.2275C152.471 34.6627 154.889 36.2331 157.559 36.2447C160.23 36.2563 162.661 34.7069 163.779 32.2813L157.589 29.4294ZM167.185 8.60177V1.78644C164.525 1.78644 162.108 3.33398 160.995 5.74986L167.185 8.60177ZM174.545 8.60177L180.669 11.5934C181.701 9.48111 181.571 6.98613 180.326 4.99207C179.081 2.99802 176.896 1.78644 174.545 1.78644V8.60177ZM159.443 39.5161L165.566 42.5082L165.566 42.5077L159.443 39.5161ZM154.426 46.3314L150.32 40.8925L154.426 46.3314ZM143.795 47.3674H136.979C136.979 50.0493 138.552 52.4818 140.998 53.5824L143.795 47.3674ZM143.795 41.6425L147.389 35.8519C145.287 34.5473 142.643 34.4841 140.481 35.6866C138.32 36.8892 136.979 39.1687 136.979 41.6425H143.795ZM151.101 41.2608L156.217 45.7632L151.101 41.2608ZM154.045 36.6264L160.058 39.8336C160.086 39.7809 160.114 39.7278 160.141 39.6743L154.045 36.6264ZM154.099 36.5174L160.242 33.5658L146.83 5.65023L140.687 8.60177L134.544 11.5533L147.956 39.4689L154.099 36.5174ZM140.687 8.60177V15.4171H148.211V8.60177V1.78644H140.687V8.60177ZM148.211 8.60177L141.996 11.3999L151.374 32.2275L157.589 29.4294L163.803 26.6313L154.425 5.80365L148.211 8.60177ZM157.589 29.4294L163.779 32.2813L173.375 11.4537L167.185 8.60177L160.995 5.74986L151.399 26.5775L157.589 29.4294ZM167.185 8.60177V15.4171H174.545V8.60177V1.78644H167.185V8.60177ZM174.545 8.60177L168.422 5.61015L153.319 36.5245L159.443 39.5161L165.566 42.5077L180.669 11.5934L174.545 8.60177ZM159.443 39.5161L153.319 36.524C151.976 39.2723 150.884 40.4664 150.32 40.8925L154.426 46.3314L158.533 51.7703C161.531 49.5067 163.783 46.1572 165.566 42.5082L159.443 39.5161ZM154.426 46.3314L150.32 40.8925C149.734 41.3348 149.162 41.5334 148.374 41.5334V48.3488V55.1641C152.095 55.1641 155.557 54.0178 158.533 51.7703L154.426 46.3314ZM148.374 48.3488V41.5334C147.736 41.5334 147.163 41.4096 146.591 41.1523L143.795 47.3674L140.998 53.5824C143.334 54.6336 145.814 55.1641 148.374 55.1641V48.3488ZM143.795 47.3674H150.61V41.6425H143.795H136.979V47.3674H143.795ZM143.795 41.6425L140.2 47.4331C142.742 49.0104 145.618 49.4392 148.156 49.4392V42.6239V35.8086C147.616 35.8086 147.306 35.7596 147.172 35.7294C147.042 35.7003 147.154 35.7062 147.389 35.8519L143.795 41.6425ZM148.156 42.6239V49.4392C151.367 49.4392 154.183 48.0741 156.217 45.7632L151.101 41.2608L145.984 36.7584C146.136 36.5865 146.435 36.3143 146.902 36.0984C147.375 35.8794 147.825 35.8086 148.156 35.8086V42.6239ZM151.101 41.2608L156.217 45.7632C157.564 44.2322 158.848 42.1029 160.058 39.8336L154.045 36.6264L148.031 33.4192C146.915 35.5117 146.236 36.472 145.984 36.7584L151.101 41.2608ZM154.045 36.6264L160.141 39.6743L160.195 39.5653L154.099 36.5174L148.004 33.4694L147.949 33.5785L154.045 36.6264ZM204.995 57.0724V63.8877C208.759 63.8877 211.81 60.8364 211.81 57.0724H204.995ZM198.398 57.0724H191.582C191.582 60.8364 194.634 63.8877 198.398 63.8877V57.0724ZM198.398 47.4219H205.213C205.213 43.6579 202.162 40.6065 198.398 40.6065V47.4219ZM173.099 47.4219V40.6065C169.335 40.6065 166.284 43.6579 166.284 47.4219H173.099ZM173.099 57.0724V63.8877C176.863 63.8877 179.915 60.8364 179.915 57.0724H173.099ZM166.502 57.0724H159.687C159.687 60.8364 162.738 63.8877 166.502 63.8877V57.0724ZM166.502 41.5334V34.7181C162.738 34.7181 159.687 37.7694 159.687 41.5334H166.502ZM170.264 41.5334V48.3488C172.713 48.3488 174.974 47.0344 176.186 44.9059L170.264 41.5334ZM173.917 30.0837L167.22 28.8218L173.917 30.0837ZM175.335 8.60177V1.78644C171.571 1.78644 168.519 4.83777 168.519 8.60177H175.335ZM200.633 8.60177H207.448C207.448 4.83777 204.397 1.78644 200.633 1.78644V8.60177ZM200.633 41.5334H193.818C193.818 45.2974 196.869 48.3488 200.633 48.3488V41.5334ZM204.995 41.5334H211.81C211.81 37.7694 208.759 34.7181 204.995 34.7181V41.5334ZM193.818 41.5334V48.3488C197.582 48.3488 200.633 45.2974 200.633 41.5334H193.818ZM193.818 14.4902H200.633C200.633 10.7262 197.582 7.67489 193.818 7.67489V14.4902ZM181.986 14.4902V7.67489C178.222 7.67489 175.171 10.7262 175.171 14.4902H181.986ZM180.678 30.847L173.979 29.591C173.977 29.6048 173.974 29.6187 173.972 29.6325L180.678 30.847ZM177.57 41.5334L171.457 38.521C170.416 40.6335 170.539 43.1336 171.783 45.1333C173.027 47.133 175.215 48.3488 177.57 48.3488V41.5334ZM204.995 57.0724V50.257H198.398V57.0724V63.8877H204.995V57.0724ZM198.398 57.0724H205.213V47.4219H198.398H191.582V57.0724H198.398ZM198.398 47.4219V40.6065H173.099V47.4219V54.2372H198.398V47.4219ZM173.099 47.4219H166.284V57.0724H173.099H179.915V47.4219H173.099ZM173.099 57.0724V50.257H166.502V57.0724V63.8877H173.099V57.0724ZM166.502 57.0724H173.317V41.5334H166.502H159.687V57.0724H166.502ZM166.502 41.5334V48.3488H170.264V41.5334V34.7181H166.502V41.5334ZM170.264 41.5334L176.186 44.9059C178.221 41.3326 179.613 36.6629 180.615 31.3455L173.917 30.0837L167.22 28.8218C166.331 33.5367 165.287 36.5001 164.342 38.1609L170.264 41.5334ZM173.917 30.0837L180.615 31.3455C181.641 25.8973 182.15 20.3127 182.15 14.5993H175.335H168.519C168.519 19.4995 168.083 24.2379 167.22 28.8218L173.917 30.0837ZM175.335 14.5993H182.15V8.60177H175.335H168.519V14.5993H175.335ZM175.335 8.60177V15.4171H200.633V8.60177V1.78644H175.335V8.60177ZM200.633 8.60177H193.818V41.5334H200.633H207.448V8.60177H200.633ZM200.633 41.5334V48.3488H204.995V41.5334V34.7181H200.633V41.5334ZM204.995 41.5334H198.18V57.0724H204.995H211.81V41.5334H204.995ZM193.818 41.5334H200.633V14.4902H193.818H187.002V41.5334H193.818ZM193.818 14.4902V7.67489H181.986V14.4902V21.3055H193.818V14.4902ZM181.986 14.4902H175.171V16.8347H181.986H188.802V14.4902H181.986ZM181.986 16.8347H175.171C175.171 21.0982 174.775 25.3486 173.979 29.591L180.678 30.847L187.376 32.103C188.326 27.0402 188.802 21.949 188.802 16.8347H181.986ZM180.678 30.847L173.972 29.6325C173.183 33.9857 172.287 36.8369 171.457 38.521L177.57 41.5334L183.684 44.5458C185.325 41.2139 186.5 36.9408 187.384 32.0615L180.678 30.847ZM177.57 41.5334V48.3488H193.818V41.5334V34.7181H177.57V41.5334ZM232.13 8.60177H238.945C238.945 4.83777 235.894 1.78644 232.13 1.78644V8.60177ZM232.13 14.3266V21.142C235.894 21.142 238.945 18.0906 238.945 14.3266H232.13ZM210.92 14.3266V7.51132C207.156 7.51132 204.105 10.5626 204.105 14.3266H210.92ZM210.92 24.6314H204.105C204.105 28.3954 207.156 31.4467 210.92 31.4467V24.6314ZM230.603 24.6314H237.418C237.418 20.8674 234.367 17.8161 230.603 17.8161V24.6314ZM230.603 30.1382V36.9535C234.367 36.9535 237.418 33.9022 237.418 30.1382H230.603ZM210.92 30.1382V23.3229C207.156 23.3229 204.105 26.3742 204.105 30.1382H210.92ZM210.92 41.588H204.105C204.105 45.352 207.156 48.4033 210.92 48.4033V41.588ZM232.457 41.588H239.272C239.272 37.824 236.221 34.7726 232.457 34.7726V41.588ZM232.457 47.4219V54.2372C236.221 54.2372 239.272 51.1859 239.272 47.4219H232.457ZM204.16 47.4219H197.344C197.344 51.1859 200.396 54.2372 204.16 54.2372V47.4219ZM204.16 8.60177V1.78644C200.396 1.78644 197.344 4.83777 197.344 8.60177H204.16ZM232.13 8.60177H225.314V14.3266H232.13H238.945V8.60177H232.13ZM232.13 14.3266V7.51132H210.92V14.3266V21.142H232.13V14.3266ZM210.92 14.3266H204.105V24.6314H210.92H217.736V14.3266H210.92ZM210.92 24.6314V31.4467H230.603V24.6314V17.8161H210.92V24.6314ZM230.603 24.6314H223.788V30.1382H230.603H237.418V24.6314H230.603ZM230.603 30.1382V23.3229H210.92V30.1382V36.9535H230.603V30.1382ZM210.92 30.1382H204.105V41.588H210.92H217.736V30.1382H210.92ZM210.92 41.588V48.4033H232.457V41.588V34.7726H210.92V41.588ZM232.457 41.588H225.642V47.4219H232.457H239.272V41.588H232.457ZM232.457 47.4219V40.6065H204.16V47.4219V54.2372H232.457V47.4219ZM204.16 47.4219H210.975V8.60177H204.16H197.344V47.4219H204.16ZM204.16 8.60177V15.4171H232.13V8.60177V1.78644H204.16V8.60177ZM260.966 8.60177H267.781C267.781 4.83777 264.73 1.78644 260.966 1.78644V8.60177ZM260.966 14.4902V21.3055C264.73 21.3055 267.781 18.2542 267.781 14.4902H260.966ZM248.589 14.4902V7.67489C244.825 7.67489 241.774 10.7262 241.774 14.4902H248.589ZM248.589 47.4219V54.2372C252.353 54.2372 255.405 51.1859 255.405 47.4219H248.589ZM241.774 47.4219H234.959C234.959 51.1859 238.01 54.2372 241.774 54.2372V47.4219ZM241.774 14.4902H248.589C248.589 10.7262 245.538 7.67489 241.774 7.67489V14.4902ZM229.397 14.4902H222.582C222.582 18.2542 225.633 21.3055 229.397 21.3055V14.4902ZM229.397 8.60177V1.78644C225.633 1.78644 222.582 4.83777 222.582 8.60177H229.397ZM260.966 8.60177H254.151V14.4902H260.966H267.781V8.60177H260.966ZM260.966 14.4902V7.67489H248.589V14.4902V21.3055H260.966V14.4902ZM248.589 14.4902H241.774V47.4219H248.589H255.405V14.4902H248.589ZM248.589 47.4219V40.6065H241.774V47.4219V54.2372H248.589V47.4219ZM241.774 47.4219H248.589V14.4902H241.774H234.959V47.4219H241.774ZM241.774 14.4902V7.67489H229.397V14.4902V21.3055H241.774V14.4902ZM229.397 14.4902H236.213V8.60177H229.397H222.582V14.4902H229.397ZM229.397 8.60177V15.4171H260.966V8.60177V1.78644H229.397V8.60177Z" fill="#CFF665" mask="url(#path-1-outside-1_3144_1511)"/>
</svg>
