<svg width="1196" height="218" viewBox="0 0 1196 218" fill="none" xmlns="http://www.w3.org/2000/svg">
<path d="M71.215 204.07L25.8198 180.331L15.4081 158.258L8.32812 104.95L15.4081 76.2134L25.8198 54.1405L45.3939 32.4841L83.2926 11.2441L119.109 17.0747L157.424 48.7264L167.003 84.5428L190.742 90.3733L214.897 107.032L241.551 94.1216L270.287 81.211L278.617 38.7311L294.859 32.4841L308.186 24.1547L342.337 16.2418L377.737 14.5759L386.482 36.6488L384.817 78.7122L414.386 81.211H505.593L524.334 54.9734L551.821 47.8935L592.218 54.9734L603.463 34.5664L634.698 26.237L703.832 34.5664L750.893 23.7382L780.046 52.0581L802.535 39.9805L840.851 36.2323L873.752 39.9805H902.072L908.319 63.3028L1035.76 59.1381L1050.33 36.2323L1061.58 29.5688L1121.13 36.2323L1175.28 29.5688L1186.94 53.724L1180.27 86.2086H1154.45L1136.54 82.0439V153.677L1154.45 175.333L1149.04 191.575L1090.73 185.328L1074.91 175.333L1071.16 124.524L1035.76 157.425L1003.27 175.333H904.154L892.493 185.328L876.667 199.072L849.18 211.982L807.95 205.735L780.046 191.575L750.893 169.503L734.651 179.914L705.914 185.328L684.258 179.914L661.769 191.575L643.028 199.072L592.218 183.246L567.23 179.914H524.334L500.595 175.75L461.447 179.914H391.064L358.995 165.338H289.862L285.697 188.244L278.2 209.067L248.631 204.07L222.393 194.907L216.979 198.655L173.667 204.07L162.422 194.907L143.264 165.338L108.697 194.907L71.215 204.07Z" fill="#CFF665"/>
<path d="M763.971 113.113L766.495 110.564L763.971 108.016L761.422 110.564L763.971 113.113Z" fill="black"/>
<path d="M763.971 123.257L766.495 120.708L763.971 118.168L761.422 120.708L763.971 123.257Z" fill="black"/>
<path d="M763.971 118.169L766.495 115.637L763.971 113.113L761.422 115.637L763.971 118.169Z" fill="black"/>
<path d="M845.122 184.122L847.671 181.59L845.122 179.066L842.59 181.59L845.122 184.122Z" fill="black"/>
<path d="M827.375 176.516L829.916 179.064L832.448 176.516L829.916 173.967L827.375 176.516Z" fill="black"/>
<path d="M763.971 128.314L766.495 125.773L763.971 123.258L761.422 125.773L763.971 128.314Z" fill="black"/>
<path d="M834.994 184.122L837.518 181.59L834.994 179.066L832.445 181.59L834.994 184.122Z" fill="black"/>
<path d="M855.278 184.122L857.819 181.59L855.278 179.066L852.746 181.59L855.278 184.122Z" fill="black"/>
<path d="M847.672 186.662L850.196 189.194L852.744 186.662L850.196 184.121L847.672 186.662Z" fill="black"/>
<path d="M761.42 125.773L758.888 123.258L756.348 125.773L758.888 128.314L761.42 125.773Z" fill="black"/>
<path d="M845.122 189.195L842.59 191.719L845.122 194.268L847.671 191.719L845.122 189.195Z" fill="black"/>
<path d="M883.17 166.363L880.646 163.822L878.098 166.363L880.646 168.912L883.17 166.363Z" fill="black"/>
<path d="M873.029 176.516L870.496 173.967L867.973 176.516L870.496 179.064L873.029 176.516Z" fill="black"/>
<path d="M865.423 184.122L867.972 181.59L865.423 179.066L862.891 181.59L865.423 184.122Z" fill="black"/>
<path d="M875.576 173.966L878.1 171.442L875.576 168.91L873.027 171.442L875.576 173.966Z" fill="black"/>
<path d="M761.42 115.637L758.888 113.113L756.348 115.637L758.888 118.169L761.42 115.637Z" fill="black"/>
<path d="M771.569 95.3549L769.045 92.8145L766.496 95.3549L769.045 97.8704L771.569 95.3549Z" fill="black"/>
<path d="M824.842 173.966L827.374 171.442L824.842 168.91L822.293 171.442L824.842 173.966Z" fill="black"/>
<path d="M774.115 143.541L776.647 141.009L774.115 138.469L771.566 141.009L774.115 143.541Z" fill="black"/>
<path d="M786.793 156.219L789.325 158.768L791.866 156.219L789.325 153.67L786.793 156.219Z" fill="black"/>
<path d="M784.246 153.669L786.795 151.162L784.246 148.613L781.723 151.162L784.246 153.669Z" fill="black"/>
<path d="M824.842 52.2161L827.374 49.684L824.842 47.1602L822.293 49.684L824.842 52.2161Z" fill="black"/>
<path d="M766.496 125.773L769.045 128.314L771.569 125.773L769.045 123.258L766.496 125.773Z" fill="black"/>
<path d="M766.496 135.919L769.045 138.468L771.569 135.919L769.045 133.387L766.496 135.919Z" fill="black"/>
<path d="M834.994 52.2161L837.518 49.684L834.994 47.1602L832.445 49.684L834.994 52.2161Z" fill="black"/>
<path d="M776.648 146.065L779.189 148.614L781.721 146.065L779.189 143.541L776.648 146.065Z" fill="black"/>
<path d="M814.693 173.966L817.225 171.442L814.693 168.91L812.145 171.442L814.693 173.966Z" fill="black"/>
<path d="M804.543 173.966L807.092 171.442L804.543 168.91L802.02 171.442L804.543 173.966Z" fill="black"/>
<path d="M774.115 92.8153L776.647 90.2665L774.115 87.7344L771.566 90.2665L774.115 92.8153Z" fill="black"/>
<path d="M763.971 128.314L761.422 130.863L763.971 133.387L766.495 130.863L763.971 128.314Z" fill="black"/>
<path d="M774.115 97.8704L776.647 95.3549L774.115 92.8145L771.566 95.3549L774.115 97.8704Z" fill="black"/>
<path d="M796.945 166.363L799.469 168.912L802.018 166.363L799.469 163.822L796.945 166.363Z" fill="black"/>
<path d="M837.52 54.7573L840.068 57.3061L842.592 54.7573L840.068 52.2168L837.52 54.7573Z" fill="black"/>
<path d="M822.295 54.7573L819.771 52.2168L817.23 54.7573L819.771 57.3061L822.295 54.7573Z" fill="black"/>
<path d="M794.395 163.822L796.944 161.289L794.395 158.766L791.863 161.289L794.395 163.822Z" fill="black"/>
<path d="M802.018 176.516L799.469 173.967L796.945 176.516L799.469 179.064L802.018 176.516Z" fill="black"/>
<path d="M794.395 179.064L796.944 176.516L794.395 173.967L791.863 176.516L794.395 179.064Z" fill="black"/>
<path d="M807.092 176.516L804.543 173.967L802.02 176.516L804.543 179.064L807.092 176.516Z" fill="black"/>
<path d="M794.395 173.966L796.944 171.442L794.395 168.91L791.863 171.442L794.395 173.966Z" fill="black"/>
<path d="M784.243 168.912L786.791 166.363L784.243 163.822L781.719 166.363L784.243 168.912Z" fill="black"/>
<path d="M784.243 163.822L786.791 161.289L784.243 158.766L781.719 161.289L784.243 163.822Z" fill="black"/>
<path d="M812.146 176.516L809.622 173.967L807.09 176.516L809.622 179.064L812.146 176.516Z" fill="black"/>
<path d="M791.866 166.363L789.325 163.822L786.793 166.363L789.325 168.912L791.866 166.363Z" fill="black"/>
<path d="M837.518 186.662L834.994 184.121L832.445 186.662L834.994 189.194L837.518 186.662Z" fill="black"/>
<path d="M817.225 176.516L814.693 173.967L812.145 176.516L814.693 179.064L817.225 176.516Z" fill="black"/>
<path d="M814.693 179.066L812.145 181.59L814.693 184.122L817.225 181.59L814.693 179.066Z" fill="black"/>
<path d="M817.23 186.662L819.771 189.194L822.295 186.662L819.771 184.121L817.23 186.662Z" fill="black"/>
<path d="M824.842 189.194L827.374 186.662L824.842 184.121L822.293 186.662L824.842 189.194Z" fill="black"/>
<path d="M812.145 186.662L814.693 189.194L817.225 186.662L814.693 184.121L812.145 186.662Z" fill="black"/>
<path d="M834.994 189.195L832.445 191.719L834.994 194.268L837.518 191.719L834.994 189.195Z" fill="black"/>
<path d="M824.842 184.122L827.374 181.59L824.842 179.066L822.293 181.59L824.842 184.122Z" fill="black"/>
<path d="M822.295 176.516L819.771 173.967L817.23 176.516L819.771 179.064L822.295 176.516Z" fill="black"/>
<path d="M781.721 156.219L779.189 153.67L776.648 156.219L779.189 158.768L781.721 156.219Z" fill="black"/>
<path d="M774.115 148.613L771.566 151.162L774.115 153.669L776.647 151.162L774.115 148.613Z" fill="black"/>
<path d="M812.146 186.662L809.622 184.121L807.09 186.662L809.622 189.194L812.146 186.662Z" fill="black"/>
<path d="M814.693 189.195L812.145 191.719L814.693 194.268L817.225 191.719L814.693 189.195Z" fill="black"/>
<path d="M804.543 179.066L802.02 181.59L804.543 184.122L807.092 181.59L804.543 179.066Z" fill="black"/>
<path d="M824.842 189.195L822.293 191.719L824.842 194.268L827.374 191.719L824.842 189.195Z" fill="black"/>
<path d="M776.647 146.065L774.115 143.541L771.566 146.065L774.115 148.614L776.647 146.065Z" fill="black"/>
<path d="M771.569 146.065L769.045 143.541L766.496 146.065L769.045 148.614L771.569 146.065Z" fill="black"/>
<path d="M786.791 156.219L784.243 153.67L781.719 156.219L784.243 158.768L786.791 156.219Z" fill="black"/>
<path d="M796.944 166.363L794.395 163.822L791.863 166.363L794.395 168.912L796.944 166.363Z" fill="black"/>
<path d="M847.671 186.662L845.122 184.121L842.59 186.662L845.122 189.194L847.671 186.662Z" fill="black"/>
<path d="M784.243 168.91L781.719 171.442L784.243 173.966L786.791 171.442L784.243 168.91Z" fill="black"/>
<path d="M781.721 166.363L779.189 163.822L776.648 166.363L779.189 168.912L781.721 166.363Z" fill="black"/>
<path d="M827.374 176.516L824.842 173.967L822.293 176.516L824.842 179.064L827.374 176.516Z" fill="black"/>
<path d="M794.395 179.066L791.863 181.59L794.395 184.122L796.944 181.59L794.395 179.066Z" fill="black"/>
<path d="M842.592 186.662L840.068 184.121L837.52 186.662L840.068 189.194L842.592 186.662Z" fill="black"/>
<path d="M791.866 176.516L789.325 173.967L786.793 176.516L789.325 179.064L791.866 176.516Z" fill="black"/>
<path d="M847.672 64.9101L850.196 67.4339L852.744 64.9101L850.196 62.3613L847.672 64.9101Z" fill="black"/>
<path d="M867.973 64.9101L870.496 67.4339L873.029 64.9101L870.496 62.3613L867.973 64.9101Z" fill="black"/>
<path d="M822.293 64.9101L824.842 67.4339L827.374 64.9101L824.842 62.3613L822.293 64.9101Z" fill="black"/>
<path d="M875.576 57.3066L873.027 59.8388L875.576 62.3626L878.1 59.8388L875.576 57.3066Z" fill="black"/>
<path d="M824.842 52.2168L822.293 54.7573L824.842 57.3061L827.374 54.7573L824.842 52.2168Z" fill="black"/>
<path d="M845.122 77.5882L847.671 75.0561L845.122 72.5156L842.59 75.0561L845.122 77.5882Z" fill="black"/>
<path d="M824.842 128.314L827.374 125.773L824.842 123.258L822.293 125.773L824.842 128.314Z" fill="black"/>
<path d="M865.423 67.4355L862.891 69.9677L865.423 72.5165L867.972 69.9677L865.423 67.4355Z" fill="black"/>
<path d="M845.122 72.5165L847.671 69.9677L845.122 67.4355L842.59 69.9677L845.122 72.5165Z" fill="black"/>
<path d="M832.448 54.7573L829.916 52.2168L827.375 54.7573L829.916 57.3061L832.448 54.7573Z" fill="black"/>
<path d="M802.02 125.773L804.543 128.314L807.092 125.773L804.543 123.258L802.02 125.773Z" fill="black"/>
<path d="M845.122 77.5879L842.59 80.12L845.122 82.6605L847.671 80.12L845.122 77.5879Z" fill="black"/>
<path d="M824.842 57.3066L822.293 59.8388L824.842 62.3626L827.374 59.8388L824.842 57.3066Z" fill="black"/>
<path d="M855.278 67.4355L852.746 69.9677L855.278 72.5165L857.819 69.9677L855.278 67.4355Z" fill="black"/>
<path d="M837.518 54.7573L834.994 52.2168L832.445 54.7573L834.994 57.3061L837.518 54.7573Z" fill="black"/>
<path d="M847.672 75.0561L850.196 77.5882L852.744 75.0561L850.196 72.5156L847.672 75.0561Z" fill="black"/>
<path d="M834.994 62.3626L837.518 59.8388L834.994 57.3066L832.445 59.8388L834.994 62.3626Z" fill="black"/>
<path d="M802.018 125.773L799.469 123.258L796.945 125.773L799.469 128.314L802.018 125.773Z" fill="black"/>
<path d="M794.395 128.314L791.863 130.863L794.395 133.387L796.944 130.863L794.395 128.314Z" fill="black"/>
<path d="M824.842 128.314L822.293 130.863L824.842 133.387L827.374 130.863L824.842 128.314Z" fill="black"/>
<path d="M472.795 146.297C474.053 144.915 474.936 142.657 475.403 139.534V105.5H418.146C415.023 106.45 412.807 107.716 411.475 109.282C410.158 110.847 409.084 112.813 408.234 115.22V149.796H464.791C468.864 148.846 471.538 147.672 472.795 146.289V146.297Z" fill="black"/>
<path d="M804.543 128.314L802.02 130.863L804.543 133.387L807.092 130.863L804.543 128.314Z" fill="black"/>
<path d="M814.693 128.314L812.145 130.863L814.693 133.387L817.225 130.863L814.693 128.314Z" fill="black"/>
<path d="M1193.74 39.0648C1193.74 27.5453 1184.36 18.1664 1172.84 18.1664H1168.41C1165.11 18.1664 1161.71 19.066 1158.58 20.7568L1153.92 23.2806H1076.79L1072.11 20.7318C1069.04 19.0576 1065.58 18.1664 1062.09 18.1664H1057.66C1047.89 18.1664 1039.53 24.7966 1037.33 34.2921L1033.56 50.4594H920.306L914.684 38.3735C913.551 35.933 912.185 33.9173 910.619 32.3513L908.07 29.8109C904.122 25.8794 898.883 23.7221 893.327 23.7221L890.728 23.8304L888.246 23.7221C884.181 23.7221 880.233 24.9049 876.818 27.1205L865.415 34.5336L854.029 27.1122C850.622 24.8965 846.682 23.7221 843.001 23.7221L840.069 23.847L837.837 23.7221L835.038 23.847L832.456 23.7221L829.907 23.847L827.741 23.7221L824.876 23.847L822.669 23.7221L819.729 23.8304L817.163 23.7221C812.465 23.7304 807.784 25.4796 803.986 28.6281L785.553 43.9125L772.901 23.5971C769.011 17.3584 762.406 13.6352 755.226 13.6352H733.528C728.313 13.6352 723.333 15.551 719.493 19.041L713.512 24.4801H688.457L682.477 19.041C678.637 15.551 673.656 13.6352 668.442 13.6352H614.201C606.171 13.6352 598.758 18.4246 595.318 25.8211L587.33 43.0379L569.43 36.7326C565.491 35.3416 561.459 34.6419 557.453 34.6419H552.413C548.507 34.6419 543.293 35.1584 536.221 36.2828L531.698 37.0991C522.986 38.6817 516.789 44.4789 513.274 54.3326L508.334 68.226H393.597L395.146 45.8783C395.196 45.1203 395.28 44.379 395.404 43.4711V26.3375C395.404 14.818 386.026 5.43909 374.506 5.43909H321.756C311.061 5.43909 301.082 9.68707 293.636 17.4001L288.622 22.5976L281.475 23.5888C271.238 25.0215 263.525 33.9173 263.525 44.2873V75.6808L246.034 78.5795C241.103 79.3874 236.638 81.3115 232.748 84.2851L220.046 93.9888L207.352 84.2518C203.412 81.2449 198.531 79.2541 193.225 78.5045L175.225 75.1061V56.9314C175.225 50.2845 172.01 43.9708 166.629 40.0394L163.972 38.0986L162.04 35.4332C160.832 33.784 159.4 32.3097 157.767 31.077L155.26 29.1695L153.419 26.604C152.136 24.8216 150.57 23.239 148.78 21.9063L146.239 20.0322L144.365 17.4834C141.391 13.4603 137.11 10.6283 132.296 9.4955L127.315 8.34604L123.433 5.02262C119.66 1.79082 114.829 0 109.848 0H83.5105C78.6961 0 74.1482 1.59924 70.3833 4.63114L66.3602 7.85461L61.3126 8.84581C55.9235 9.89531 51.0675 13.1438 47.9856 17.7416L46.1698 20.432L43.6293 22.4643C42.2134 23.5888 40.9389 24.9049 39.8644 26.3708L37.9653 28.9613L35.3749 30.8604C33.6841 32.0931 32.1764 33.5841 30.927 35.2833L28.9613 37.9237L26.2792 39.8311C24.7299 40.9306 23.339 42.23 22.1562 43.671L20.1238 46.1448L17.4501 47.894C11.5196 51.7755 7.97956 58.314 7.97956 65.394V74.698L3.98145 80.187C1.38268 83.777 0 88.0166 0 92.4645V154.585C0 159.391 1.58258 163.914 4.58116 167.662L7.84628 171.735L8.8125 176.866C10.4034 185.329 17.1585 192.034 25.6295 193.542L30.7438 194.45L34.8502 197.656C37.2657 199.547 39.9977 200.863 42.963 201.555L47.9356 202.704L51.8005 206.011C55.5737 209.243 60.3964 211.025 65.3774 211.025H91.4817C96.4377 211.025 101.252 209.259 105.017 206.052L108.948 202.712L113.988 201.58C116.087 201.113 118.244 200.205 120.368 198.864L137.118 188.361L148.53 204.487C154.177 212.458 163.114 217.031 173.06 217.031C174.701 217.031 176.317 216.906 177.899 216.681L180.889 216.256L183.88 216.681C185.429 216.906 187.036 217.031 188.644 217.031C195.591 217.031 202.054 214.898 207.319 210.875L220.037 201.163L232.731 210.9C237.971 214.915 244.376 217.031 251.273 217.031C252.914 217.031 254.529 216.906 256.104 216.681L259.094 216.256L262.084 216.681C263.634 216.906 265.224 217.031 266.832 217.031C282.358 217.031 294.635 206.311 296.685 190.968L299.117 172.843H360.904L367.151 179.915C369.517 182.597 374.689 187.111 382.702 187.111H481.039C483.404 187.111 485.978 186.795 488.694 186.17L497.265 184.188L504.678 188.936C509.717 192.159 519.979 193.009 537.795 194.241L544.167 194.283C548.016 194.283 551.689 193.525 555.079 192.026L562.275 189.41L570.172 191.184C584.365 194.708 593.053 196.382 598.35 196.624L605.763 196.957L611.302 201.896C614.076 204.37 618.724 207.302 625.104 207.302H657.647C664.219 207.302 670.291 204.295 674.289 199.047L685.475 184.404L701.41 193.658C704.616 195.524 708.131 196.465 711.88 196.465H722.724C728.805 196.465 733.253 193.867 735.918 191.693L749.753 180.356L763.089 192.276L763.78 192.95L766.046 194.716L767.687 196.84C768.228 197.531 768.811 198.214 769.502 198.897L772.068 201.463C775.041 204.437 778.781 206.411 782.896 207.202L788.693 208.301L793.058 212.274C796.923 215.781 801.92 217.722 806.826 217.722L809.667 217.622L811.791 217.722L814.739 217.597L816.838 217.722L819.812 217.597L821.953 217.722L824.868 217.597L827.025 217.722L829.982 217.597L832.081 217.722L835.03 217.597L837.129 217.722L840.086 217.597L842.268 217.722L845.167 217.597L847.374 217.722L850.256 217.614L853.013 217.722C858.144 217.664 863.041 215.731 866.84 212.283L871.196 208.31L876.985 207.194C881.108 206.411 884.856 204.42 887.83 201.446L890.445 198.831C891.061 198.214 891.628 197.565 892.161 196.882L893.827 194.724L895.984 193.059C896.667 192.525 897.325 191.959 897.992 191.284L899.882 189.385L900.649 188.419L907.445 180.814H1008.95C1017.34 180.814 1025.31 177.899 1031.95 172.36L1055.73 152.578L1065.21 181.997C1068.02 190.71 1075.95 196.557 1084.93 196.557H1146.19C1157.71 196.557 1167.09 187.178 1167.09 175.659V169.853C1167.09 162.281 1162.97 155.276 1156.35 151.587L1145.65 145.606V96.7209L1168.68 97.7037C1169.46 97.7037 1170.26 97.6621 1171.04 97.5788L1177.26 96.8874C1188.55 95.6214 1196.68 85.776 1195.78 74.4564C1194.45 57.7476 1193.78 45.8366 1193.78 39.0565L1193.74 39.0648ZM154.319 118.552L145.856 119.518V136.202L136.669 137.168V154.577L128.681 155.285L127.481 163.273C126.182 163.431 124.824 163.548 123.367 163.623C121.909 163.697 120.551 163.914 119.26 164.231L118.536 171.96L110.331 172.943L109.348 181.164H92.9227L91.465 190.093H65.3607L64.6361 182.105L47.7191 181.164C47.3859 179.865 47.186 178.49 47.111 177.033C47.0361 175.575 46.8362 174.218 46.5196 172.943H29.3444V155.276L20.8901 154.568V92.4396L28.878 91.7149V65.369L37.5739 64.6194L38.2985 56.9064L46.5196 55.6903L47.7191 47.7024L55.4488 47.2276C55.7819 45.77 56.0151 44.354 56.1734 42.9963C56.3317 41.622 56.4899 40.2226 56.6648 38.765C57.9392 38.6067 59.2803 38.4484 60.6379 38.2735C62.0123 38.1153 63.3533 37.957 64.6361 37.7821L65.3607 29.3194H82.2777L83.4938 20.8568H109.84C109.681 22.1562 109.565 23.4139 109.481 24.6133C109.382 25.8128 109.265 27.0705 109.107 28.3699L127.481 29.8026L128.448 37.7654L136.435 38.7483L137.168 46.9694L145.14 47.6774L146.097 55.6653L154.327 56.8814V118.519L154.319 118.552ZM260.685 124.216C260.685 130.13 256.354 133.47 251.239 133.47C247.699 133.47 245.334 132.087 243.56 129.522C242.968 130.513 241.985 131.304 240.994 131.896C243.56 133.662 244.942 136.227 244.942 139.784C244.942 143.34 243.568 145.881 240.994 147.447C243.56 149.229 244.942 151.778 244.942 155.335C244.942 159.075 243.568 161.623 240.994 163.206C241.985 163.797 242.968 164.572 243.56 165.563C245.334 162.998 247.891 161.615 251.431 161.615C256.354 161.615 260.685 165.172 260.685 171.077C260.685 174.617 259.319 177.174 256.562 178.949C257.936 179.348 258.728 180.331 259.111 181.306C260.885 178.757 263.442 177.374 266.999 177.374C271.921 177.374 276.253 180.723 276.253 186.628C276.253 192.534 271.921 196.09 266.79 196.09C263.25 196.09 260.893 194.708 259.111 192.142C257.345 194.708 254.779 196.09 251.231 196.09C246.308 196.09 241.977 192.742 241.977 186.628C241.977 183.08 243.351 180.531 245.909 178.949C244.926 178.357 244.143 177.374 243.551 176.4C241.786 179.157 239.029 180.54 235.464 180.54C230.541 180.54 226.418 176.975 226.418 171.077C226.418 167.529 227.584 164.98 230.349 163.198C229.366 162.606 228.375 161.815 227.8 160.84C226.21 163.389 223.661 164.772 220.121 164.772C216.581 164.772 214.007 163.389 212.233 160.84C211.85 161.615 210.858 162.415 209.684 163.198C212.233 164.98 213.616 167.529 213.616 171.077C213.616 176.975 209.476 180.54 204.362 180.54C200.813 180.54 198.248 179.157 196.482 176.4C196.082 177.374 195.099 178.357 194.108 178.949C196.674 180.539 198.056 183.088 198.056 186.628C198.056 192.742 193.725 196.09 188.611 196.09C185.046 196.09 182.689 194.708 180.931 192.142C179.149 194.708 176.583 196.09 173.043 196.09C167.929 196.09 163.789 192.742 163.789 186.628C163.789 180.515 167.929 177.374 173.251 177.374C176.583 177.374 179.149 178.757 180.931 181.306C181.714 180.14 182.505 179.348 183.48 178.949C180.723 177.166 179.548 174.617 179.548 171.077C179.548 165.172 183.48 161.615 188.802 161.615C192.342 161.615 194.916 162.998 196.482 165.563C197.073 164.572 198.056 163.797 199.031 163.206C196.29 161.615 195.099 159.066 195.099 155.335C195.099 151.603 196.282 149.221 199.031 147.447C196.29 145.873 195.099 143.307 195.099 139.784C195.099 136.26 196.282 133.653 199.031 131.896C198.056 131.304 197.073 130.513 196.482 129.522C194.908 132.087 192.151 133.47 188.602 133.47C183.471 133.47 179.54 130.13 179.54 124.216C179.54 120.668 180.714 117.911 183.471 116.145C182.305 115.745 181.497 114.954 180.923 113.963C179.14 116.528 176.575 117.911 173.035 117.911C167.92 117.911 163.781 114.363 163.781 108.449C163.781 102.535 167.92 99.0031 173.243 99.0031C176.575 99.0031 179.14 100.194 180.923 103.143C182.688 100.194 185.254 99.0031 188.802 99.0031C193.725 99.0031 198.056 102.551 198.056 108.449C198.056 112.005 196.674 114.571 194.108 116.145C195.099 116.911 196.082 117.719 196.482 118.694C198.248 115.937 200.813 114.762 204.553 114.762C209.476 114.762 213.616 118.094 213.616 124.208C213.616 127.756 212.233 130.322 209.684 131.888C210.858 132.479 211.85 133.262 212.233 134.261C214.015 131.696 216.581 130.313 220.121 130.313C223.661 130.313 226.218 131.688 227.8 134.261C228.375 133.27 229.375 132.479 230.349 131.888C227.592 130.313 226.418 127.748 226.418 124.208C226.418 118.094 230.541 114.762 235.863 114.762C239.212 114.762 241.786 115.937 243.551 118.694C244.143 117.719 244.926 116.911 245.909 116.145C243.36 114.571 241.977 112.005 241.977 108.449C241.977 102.543 246.308 99.0031 251.423 99.0031C254.771 99.0031 257.345 100.194 259.111 103.143C260.885 100.194 263.442 99.0031 266.999 99.0031C271.921 99.0031 276.253 102.551 276.253 108.449C276.253 114.346 271.921 117.911 266.79 117.911C263.25 117.911 260.893 116.528 259.111 113.963C258.719 114.954 257.728 115.745 256.562 116.145C259.319 117.911 260.685 120.476 260.685 124.216ZM374.498 44.2624H303.623V133.987H374.498V151.928H303.623V151.736C293.028 151.736 284.424 143.132 284.424 132.537V44.2624H303.623C303.623 34.4004 311.702 26.3209 321.739 26.3209H374.498V44.2624ZM500.805 151.428C500.805 152.861 500.147 154.46 498.831 156.193C497.514 157.942 495.857 159.533 493.875 160.974C491.892 162.415 489.743 163.639 487.394 164.672C485.045 165.68 482.921 166.196 480.997 166.196H382.669V104.434C382.669 102.501 383.377 100.619 384.751 98.7449C386.126 96.8958 387.875 95.2382 389.974 93.8056C392.073 92.3563 394.355 91.2235 396.82 90.3905C399.269 89.5409 401.643 89.1328 403.934 89.1328H500.813V151.437L500.805 151.428ZM610.927 160.682L608.978 174.159C606.388 175.217 603.348 175.742 599.849 175.742C596.351 175.742 587.447 173.976 573.404 170.461C570.88 170.461 569.339 168.345 568.772 164.122C568.048 161.923 567.298 154.702 566.523 142.458L562.409 131.629C563.4 125.466 563.125 122.384 561.576 122.384L561.034 121.859C558.819 121.859 557.028 123.092 555.662 125.557L555.437 135.069L550.589 153.036C550.156 154.71 549.823 159.733 549.598 168.095L549.223 169.42C548.515 172.06 546.816 173.385 544.117 173.385H539.07C523.694 172.327 516.047 171.619 516.131 171.269C514.765 164.047 515.814 153.919 519.296 140.883L520.912 123.708L524.752 112.08C525.51 109.215 527.309 96.2711 530.149 73.2403L532.281 62.9369C533.239 59.4135 534.155 57.656 535.038 57.656C543.201 56.2483 548.982 55.5404 552.388 55.5404H557.436C567.081 55.5404 573.112 63.4699 575.519 79.3208C579.076 91.0319 580.342 98.7865 579.326 102.568C579.517 104.592 580.475 106 582.191 106.791H582.524C584.965 106 586.464 104.592 587.022 102.568C587.064 99.178 588.546 89.491 591.478 73.5069C594.802 63.9947 597.434 59.2386 599.383 59.2386C617.033 60.9545 625.729 62.2788 625.471 63.2034C626.753 63.2034 624.196 80.6368 617.791 115.512C618.807 119.868 616.516 134.928 610.911 160.691L610.927 160.682ZM744.373 45.3785V56.2234H733.528V67.0682H722.683V142.999H744.381V153.844H733.536V164.689H722.691V175.534H711.846V164.689H701.001V142.991H690.157V121.293H679.312V110.448H668.467V88.7496H657.622V153.835H679.32V164.68H635.932V175.525H657.63V186.37H625.087V164.672H635.932V153.827H646.777V56.1984H635.932V45.3535H614.234V34.5087H668.475V56.2067H679.32V77.9048H690.165V99.6028H701.01V121.301H711.855V67.0599H701.01V56.215H690.165V45.3702H733.553V34.5253H755.251V45.3702H744.406L744.373 45.3785ZM885.722 62.3621L883.174 64.9109L880.641 62.3621L878.093 64.9109L875.56 62.3621L873.012 64.9109L875.56 67.443L873.012 69.9752L875.56 72.524L873.012 75.0728L870.48 72.524L867.947 75.0728L865.399 72.524L862.866 75.0728L860.318 72.524L857.786 75.0728L855.237 72.524L852.705 75.0728L855.237 77.6049L852.705 80.1371L855.237 82.6858L852.705 85.2346L850.156 82.6858L847.624 85.2346L845.075 82.6858L842.543 85.2346L840.011 82.6858L837.462 85.2346L834.93 82.6858L837.462 80.1371L834.93 77.6049L837.462 75.0728L834.93 72.524L832.381 75.0728L829.849 72.524L827.308 75.0728L824.776 72.524L822.227 75.0728L819.704 72.524L817.155 75.0728L814.623 72.524L817.155 69.9752L814.623 67.443L817.155 64.9109L814.623 62.3621L812.082 64.9109L809.55 62.3621L807.018 64.9109L804.477 62.3621L801.945 64.9109L804.477 67.443L801.945 69.9752L804.477 72.524L801.945 75.0728L799.397 72.524L796.864 75.0728L794.316 72.524L791.783 75.0728L794.316 77.6049L791.783 80.1371L794.316 82.6858L791.783 85.2346L789.235 82.6858L786.703 85.2346L784.154 82.6858L781.622 85.2346L784.154 87.7668L781.622 90.2989L784.154 92.8477L781.622 95.3965L784.154 97.9036L781.622 100.452L784.154 103.001L781.622 105.533L779.089 103.001L776.541 105.533L774.008 103.001L771.46 105.533L774.008 108.065L771.46 110.614L774.008 113.163L771.46 115.695L774.008 118.227L771.46 120.776L774.008 123.325L771.46 125.84L774.008 128.389L771.46 130.938L774.008 133.47L771.46 136.002L774.008 138.551L776.541 136.002L779.089 138.551L781.622 136.002L784.154 138.551L781.622 141.1L784.154 143.632L781.622 146.164L784.154 148.713L786.703 146.164L789.235 148.713L791.783 146.164L794.316 148.713L791.783 151.262L794.316 153.769L791.783 156.318L794.316 158.866L796.864 156.318L799.397 158.866L801.945 156.318L804.477 158.866L801.945 161.399L804.477 163.931L801.945 166.48L804.477 169.028L807.018 166.48L809.55 169.028L812.082 166.48L814.623 169.028L817.155 166.48L819.704 169.028L822.227 166.48L824.776 169.028L827.308 166.48L829.849 169.028L832.381 166.48L834.93 169.028L832.381 171.56L834.93 174.093L832.381 176.641L834.93 179.19L837.462 176.641L840.011 179.19L842.543 176.641L845.075 179.19L847.624 176.641L850.156 179.19L852.705 176.641L855.237 179.19L857.786 176.641L860.318 179.19L862.866 176.641L865.399 179.19L867.947 176.641L865.399 174.093L867.947 171.56L865.399 169.028L867.947 166.48L870.48 169.028L873.012 166.48L875.56 169.028L878.093 166.48L875.56 163.931L878.093 161.399L875.56 158.866L878.093 156.318L880.641 158.866L883.174 156.318L885.722 158.866L883.174 161.399L885.722 163.931L883.174 166.48L885.722 169.028L883.174 171.56L885.722 174.093L883.174 176.641L880.641 174.093L878.093 176.641L875.56 174.093L873.012 176.641L875.56 179.19L873.012 181.722L875.56 184.254L873.012 186.803L870.48 184.254L867.947 186.803L865.399 184.254L862.866 186.803L860.318 184.254L857.786 186.803L855.237 184.254L852.705 186.803L855.237 189.335L852.705 191.867L855.237 194.416L852.705 196.965L850.156 194.416L847.624 196.965L845.075 194.416L842.543 196.965L840.011 194.416L837.462 196.965L834.93 194.416L832.381 196.965L829.849 194.416L827.308 196.965L824.776 194.416L822.227 196.965L819.704 194.416L817.155 196.965L814.623 194.416L812.082 196.965L809.55 194.416L807.018 196.965L804.477 194.416L807.018 191.867L804.477 189.335L807.018 186.803L804.477 184.254L801.945 186.803L799.397 184.254L796.864 186.803L794.316 184.254L791.783 186.803L789.235 184.254L786.703 186.803L784.154 184.254L786.703 181.722L784.154 179.19L786.703 176.641L784.154 174.093L781.622 176.641L779.089 174.093L776.541 176.641L774.008 174.093L776.541 171.56L774.008 169.028L776.541 166.48L774.008 163.931L776.541 161.399L774.008 158.866L776.541 156.318L774.008 153.769L771.46 156.318L768.928 153.769L766.379 156.318L763.847 153.769L766.379 151.262L763.847 148.713L766.379 146.164L763.847 143.632L766.379 141.1L763.847 138.551L766.379 136.002L763.847 133.47L761.298 136.002L758.766 133.47L756.225 136.002L753.693 133.47L756.225 130.938L753.693 128.389L756.225 125.84L753.693 123.325L756.225 120.776L753.693 118.227L756.225 115.695L753.693 113.163L756.225 110.614L753.693 108.065L756.225 105.533L758.766 108.065L761.298 105.533L763.847 108.065L766.379 105.533L763.847 103.001L766.379 100.452L763.847 97.9036L766.379 95.3965L763.847 92.8477L766.379 90.2989L763.847 87.7668L766.379 85.2346L768.928 87.7668L771.46 85.2346L774.008 87.7668L776.541 85.2346L774.008 82.6858L776.541 80.1371L774.008 77.6049L776.541 75.0728L779.089 77.6049L781.622 75.0728L784.154 77.6049L786.703 75.0728L784.154 72.524L786.703 69.9752L784.154 67.443L786.703 64.9109L789.235 67.443L791.783 64.9109L794.316 67.443L796.864 64.9109L794.316 62.3621L796.864 59.83L794.316 57.2979L796.864 54.7491L799.397 57.2979L801.945 54.7491L804.477 57.2979L807.018 54.7491L809.55 57.2979L812.082 54.7491L814.623 57.2979L817.155 54.7491L814.623 52.2003L817.155 49.6681L814.623 47.136L817.155 44.5872L819.704 47.136L822.227 44.5872L824.776 47.136L827.308 44.5872L829.849 47.136L832.381 44.5872L834.93 47.136L837.462 44.5872L840.011 47.136L842.543 44.5872L845.075 47.136L842.543 49.6681L845.075 52.2003L842.543 54.7491L845.075 57.2979L847.624 54.7491L850.156 57.2979L852.705 54.7491L855.237 57.2979L857.786 54.7491L860.318 57.2979L862.866 54.7491L865.399 57.2979L867.947 54.7491L870.48 57.2979L873.012 54.7491L875.56 57.2979L878.093 54.7491L880.641 57.2979L883.174 54.7491L885.722 57.2979L883.174 59.83L885.722 62.3621ZM845.125 113.113L842.593 115.645L840.061 113.113L837.512 115.645L834.98 113.113L837.512 110.564L834.98 108.016L837.512 105.483L840.061 108.016L842.593 105.483L845.125 108.016L842.593 110.564L845.125 113.113ZM834.996 123.258L832.448 125.774L834.996 128.323L832.448 130.871L834.996 133.403L832.448 135.936L829.915 133.403L827.375 135.936L824.843 133.403L822.294 135.936L819.77 133.403L817.221 135.936L814.689 133.403L812.149 135.936L809.617 133.403L807.085 135.936L804.544 133.403L802.012 135.936L799.463 133.403L796.931 135.936L794.382 133.403L791.85 135.936L789.301 133.403L786.769 135.936L784.22 133.403L786.769 130.871L784.22 128.323L786.769 125.774L789.301 128.323L791.85 125.774L794.382 128.323L796.931 125.774L794.382 123.258L796.931 120.71L794.382 118.161L796.931 115.629L799.463 118.161L802.012 115.629L804.544 118.161L807.085 115.629L809.617 118.161L812.149 115.629L814.689 118.161L817.221 115.629L819.77 118.161L822.294 115.629L824.843 118.161L827.375 115.629L829.915 118.161L832.448 115.629L834.996 118.161L832.448 120.71L834.996 123.258ZM888.254 54.7574L885.722 52.2086L888.254 49.6765L885.722 47.1443L888.254 44.5955L890.803 47.1443L893.335 44.5955L895.876 47.1443L893.335 49.6765L895.876 52.2086L893.335 54.7574L890.803 52.2086L888.254 54.7574ZM1018.23 117.786C1015.29 122.267 1010.29 125.041 1004.94 125.041H988.199L1006.67 95.5214H935.024C931.584 95.5214 928.477 97.7537 927.602 101.044L916.908 135.736H1027.73L1023.77 148.863C1021.7 155.418 1015.65 159.916 1008.92 159.916H906.379C895.834 159.916 888.413 149.904 891.52 139.884L906.379 91.0402C910.002 79.2875 920.706 71.3579 932.792 71.3579H1047.41L1018.24 117.786H1018.23ZM1168.69 76.8136C1166.47 66.7184 1164.27 61.3293 1161.63 57.8726C1158.18 53.1665 1154.58 51.6505 1138.82 51.6505H1124.72V150.246C1124.72 166.288 1126.52 168.637 1146.15 169.878V175.683H1084.89V169.878C1103.84 168.637 1105.63 166.421 1105.63 150.246V51.6505H1093.61C1075.63 51.6505 1071.34 53.5829 1068.58 57.8726C1065.95 61.3293 1064.15 67.2765 1061.52 76.8136H1055.3C1056.27 63.6782 1057.23 50.2679 1057.65 39.0648H1062.07C1065.11 44.1791 1067.74 44.1791 1073.82 44.1791H1157.62C1163.29 44.1791 1165.22 42.938 1168.41 39.0648H1172.83C1172.83 48.3271 1173.94 63.953 1174.9 76.1223L1168.68 76.8136H1168.69Z" fill="black"/>
<path d="M827.375 125.773L829.916 128.314L832.448 125.773L829.916 123.258L827.375 125.773Z" fill="black"/>
<path d="M118.525 39.0142C117.242 38.6977 115.909 38.4645 114.551 38.2812C113.177 38.123 111.761 37.9647 110.32 37.7898L108.862 28.6191L83.4828 29.8186L82.4999 37.7815L74.2955 39.0059L73.3293 47.227L64.8499 47.7018V64.6188C63.4173 64.7937 61.9596 64.9519 60.502 65.1102C59.0693 65.2851 57.6117 65.4434 56.154 65.6016V91.7059L47.6914 92.4306V154.56L56.3873 155.526V172.193L64.6167 172.942L65.3414 180.905H91.4457L92.6701 172.942C93.9445 172.784 95.2855 172.609 96.6432 172.451C98.0176 172.293 99.3419 172.118 100.633 171.96L101.366 163.988L109.82 163.264V146.58L118.774 144.889V119.743L127.47 118.543V56.6475L118.516 55.6813V38.9976L118.525 39.0142Z" fill="black"/>
<path d="M807.09 125.773L809.622 128.314L812.146 125.773L809.622 123.258L807.09 125.773Z" fill="black"/>
<path d="M817.23 125.773L819.771 128.314L822.295 125.773L819.771 123.258L817.23 125.773Z" fill="black"/>
<path d="M812.145 125.773L814.693 128.314L817.225 125.773L814.693 123.258L812.145 125.773Z" fill="black"/>
<path d="M842.592 75.0561L840.068 72.5156L837.52 75.0561L840.068 77.5882L842.592 75.0561Z" fill="black"/>
<path d="M824.842 123.257L827.374 120.708L824.842 118.168L822.293 120.708L824.842 123.257Z" fill="black"/>
<path d="M804.543 123.257L807.092 120.708L804.543 118.168L802.02 120.708L804.543 123.257Z" fill="black"/>
<path d="M766.496 115.637L769.045 118.169L771.569 115.637L769.045 113.113L766.496 115.637Z" fill="black"/>
<path d="M865.423 67.4339L867.972 64.9101L865.423 62.3613L862.891 64.9101L865.423 67.4339Z" fill="black"/>
<path d="M814.693 123.257L817.225 120.708L814.693 118.168L812.145 120.708L814.693 123.257Z" fill="black"/>
<path d="M857.816 64.9101L860.348 67.4339L862.889 64.9101L860.348 62.3613L857.816 64.9101Z" fill="black"/>
<path d="M774.115 97.8711L771.566 100.42L774.115 102.96L776.647 100.42L774.115 97.8711Z" fill="black"/>
<path d="M794.395 67.4355L791.863 69.9677L794.395 72.5165L796.944 69.9677L794.395 67.4355Z" fill="black"/>
<path d="M852.746 64.9101L855.278 67.4339L857.819 64.9101L855.278 62.3613L852.746 64.9101Z" fill="black"/>
<path d="M796.945 64.9101L799.469 67.4339L802.018 64.9101L799.469 62.3613L796.945 64.9101Z" fill="black"/>
<path d="M832.448 186.662L829.916 184.121L827.375 186.662L829.916 189.194L832.448 186.662Z" fill="black"/>
<path d="M786.793 75.0561L789.325 77.5882L791.866 75.0561L789.325 72.5156L786.793 75.0561Z" fill="black"/>
<path d="M776.648 95.3549L779.189 97.8704L781.721 95.3549L779.189 92.8145L776.648 95.3549Z" fill="black"/>
<path d="M776.648 85.2109L779.189 87.7347L781.721 85.2109L779.189 82.6621L776.648 85.2109Z" fill="black"/>
<path d="M784.243 77.5879L781.719 80.12L784.243 82.6605L786.791 80.12L784.243 77.5879Z" fill="black"/>
<path d="M865.423 62.3626L867.972 59.8388L865.423 57.3066L862.891 59.8388L865.423 62.3626Z" fill="black"/>
<path d="M804.543 57.3066L802.02 59.8388L804.543 62.3626L807.092 59.8388L804.543 57.3066Z" fill="black"/>
<path d="M837.52 64.9101L840.068 67.4339L842.592 64.9101L840.068 62.3613L837.52 64.9101Z" fill="black"/>
<path d="M845.122 62.3626L847.671 59.8388L845.122 57.3066L842.59 59.8388L845.122 62.3626Z" fill="black"/>
<path d="M824.842 67.4355L822.293 69.9677L824.842 72.5165L827.374 69.9677L824.842 67.4355Z" fill="black"/>
<path d="M832.445 64.9101L834.994 67.4339L837.518 64.9101L834.994 62.3613L832.445 64.9101Z" fill="black"/>
<path d="M766.496 105.491L769.045 108.015L771.569 105.491L769.045 102.959L766.496 105.491Z" fill="black"/>
<path d="M834.994 67.4355L832.445 69.9677L834.994 72.5165L837.518 69.9677L834.994 67.4355Z" fill="black"/>
<path d="M822.295 64.9101L819.771 62.3613L817.23 64.9101L819.771 67.4339L822.295 64.9101Z" fill="black"/>
<path d="M827.375 64.9101L829.916 67.4339L832.448 64.9101L829.916 62.3613L827.375 64.9101Z" fill="black"/>
<path d="M842.59 64.9101L845.122 67.4339L847.671 64.9101L845.122 62.3613L842.59 64.9101Z" fill="black"/>
<path d="M814.693 57.3066L812.145 59.8388L814.693 62.3626L817.225 59.8388L814.693 57.3066Z" fill="black"/>
<path d="M855.278 62.3626L857.819 59.8388L855.278 57.3066L852.746 59.8388L855.278 62.3626Z" fill="black"/>
</svg>
