<svg width="35" height="35" viewBox="0 0 35 35" fill="none" xmlns="http://www.w3.org/2000/svg">
<g clip-path="url(#clip0_3152_1786)">
<path d="M18.9583 29.1667C18.1562 29.1667 17.5 28.5104 17.5 27.7083V18.9583C17.5 18.1562 16.8438 17.5 16.0417 17.5C15.2396 17.5 14.5833 16.8438 14.5833 16.0417C14.5833 15.2396 15.2396 14.5833 16.0417 14.5833C18.4479 14.5833 20.4167 16.5521 20.4167 18.9583V27.7083C20.4167 28.5104 19.7604 29.1667 18.9583 29.1667ZM17.5 7.29167C16.2896 7.29167 15.3125 8.26875 15.3125 9.47917C15.3125 10.6896 16.2896 11.6667 17.5 11.6667C18.7104 11.6667 19.6875 10.6896 19.6875 9.47917C19.6875 8.26875 18.7104 7.29167 17.5 7.29167ZM35 27.7083V7.29167C35 3.26667 31.7333 0 27.7083 0H7.29167C3.26667 0 0 3.26667 0 7.29167V27.7083C0 31.7333 3.26667 35 7.29167 35H27.7083C31.7333 35 35 31.7333 35 27.7083ZM27.7083 2.91667C30.1146 2.91667 32.0833 4.88542 32.0833 7.29167V27.7083C32.0833 30.1146 30.1146 32.0833 27.7083 32.0833H7.29167C4.88542 32.0833 2.91667 30.1146 2.91667 27.7083V7.29167C2.91667 4.88542 4.88542 2.91667 7.29167 2.91667H27.7083Z" fill="#8F8F8F"/>
</g>
<defs>
<clipPath id="clip0_3152_1786">
<rect width="35" height="35" fill="white"/>
</clipPath>
</defs>
</svg>
