<svg width="354" height="50" viewBox="0 0 354 50" fill="none" xmlns="http://www.w3.org/2000/svg">
<mask id="path-1-outside-1_3143_8140" maskUnits="userSpaceOnUse" x="-0.273438" y="0.822266" width="354" height="49" fill="black">
<rect fill="white" x="-0.273438" y="0.822266" width="354" height="49"/>
<path d="M30.4687 29.5956V34.0756H26.3153V41.8223H21.182L21.1353 34.0756H7.27534V28.8023L21.2753 8.87559H26.3153V29.5956H30.4687ZM21.2287 29.5956V15.4556L11.662 29.5956H21.2287ZM73.728 8.59559V41.8223H68.1746V16.2023L58.9346 41.8223H54.1746L44.7013 16.2023V41.8223H39.1946V8.59559H47.3613L56.648 34.5889L65.608 8.59559H73.728ZM99.8927 8.59559V13.4956H81.7393V22.3156H98.586V27.0289H81.7393V36.8289H100.173V41.8223H75.9526V8.59559H99.8927ZM100.821 8.59559H115.241C118.818 8.59559 121.634 9.45115 123.687 11.1623C125.772 12.8423 126.814 15.3623 126.814 18.7223C126.814 21.8956 125.849 24.4156 123.921 26.2823C121.992 28.1178 119.363 29.0356 116.034 29.0356H106.654V41.8223H100.821V8.59559ZM106.654 13.4489V24.3223H114.774C119.005 24.3223 121.121 22.5023 121.121 18.8623C121.121 15.2534 118.834 13.4489 114.261 13.4489H106.654ZM141.513 7.80226C146.211 7.80226 150.022 9.42004 152.947 12.6556C155.902 15.86 157.38 20.0445 157.38 25.2089C157.38 30.3734 155.902 34.5734 152.947 37.8089C149.991 41.0134 146.149 42.6156 141.42 42.6156C136.66 42.6156 132.802 41.0134 129.847 37.8089C126.922 34.6045 125.46 30.4045 125.46 25.2089C125.46 20.1689 126.891 16.0156 129.753 12.7489C132.647 9.45115 136.567 7.80226 141.513 7.80226ZM141.42 12.7023C138.371 12.7023 135.929 13.8378 134.093 16.1089C132.258 18.3489 131.34 21.3512 131.34 25.1156C131.34 28.9734 132.242 32.0378 134.047 34.3089C135.882 36.58 138.371 37.7156 141.513 37.7156C144.531 37.7156 146.942 36.58 148.747 34.3089C150.582 32.0067 151.5 28.9578 151.5 25.1623C151.5 21.3667 150.582 18.3489 148.747 16.1089C146.942 13.8378 144.5 12.7023 141.42 12.7023ZM184.763 8.59559V41.8223H178.929V13.6356H163.716V41.8223H157.883V8.59559H184.763ZM187.081 8.59559H201.501C205.079 8.59559 207.894 9.45115 209.948 11.1623C212.032 12.8423 213.074 15.3623 213.074 18.7223C213.074 21.8956 212.11 24.4156 210.181 26.2823C208.252 28.1178 205.623 29.0356 202.294 29.0356H192.914V41.8223H187.081V8.59559ZM192.914 13.4489V24.3223H201.034C205.265 24.3223 207.381 22.5023 207.381 18.8623C207.381 15.2534 205.094 13.4489 200.521 13.4489H192.914ZM213.354 41.8223V8.59559H219.187V34.0756L233.467 8.59559H240.234V41.8223H234.401V16.3423L220.121 41.8223H213.354ZM267.519 41.8223H261.686V28.1023H255.059L245.632 41.8223H238.352L248.572 27.5423C245.835 26.7023 243.952 25.4578 242.926 23.8089C241.899 22.16 241.386 20.1534 241.386 17.7889C241.386 14.9889 242.35 12.7645 244.279 11.1156C246.208 9.43559 248.915 8.59559 252.399 8.59559H267.519V41.8223ZM261.686 23.6689V13.3556H253.006C251.015 13.3556 249.552 13.76 248.619 14.5689C247.686 15.3467 247.219 16.5912 247.219 18.3023C247.219 21.88 249.117 23.6689 252.912 23.6689H261.686ZM293.586 8.59559V13.6356H282.992V41.8223H277.159V13.6356H266.566V8.59559H293.586ZM292.642 41.8223V8.59559H298.475V34.0756L312.755 8.59559H319.522V41.8223H313.688V16.3423L299.408 41.8223H292.642ZM346.807 41.8223H340.973V28.1023H334.347L324.92 41.8223H317.64L327.86 27.5423C325.122 26.7023 323.24 25.4578 322.213 23.8089C321.187 22.16 320.673 20.1534 320.673 17.7889C320.673 14.9889 321.638 12.7645 323.567 11.1156C325.496 9.43559 328.202 8.59559 331.687 8.59559H346.807V41.8223ZM340.973 23.6689V13.3556H332.293C330.302 13.3556 328.84 13.76 327.907 14.5689C326.973 15.3467 326.507 16.5912 326.507 18.3023C326.507 21.88 328.405 23.6689 332.2 23.6689H340.973Z"/>
</mask>
<path d="M30.4687 29.5956V34.0756H26.3153V41.8223H21.182L21.1353 34.0756H7.27534V28.8023L21.2753 8.87559H26.3153V29.5956H30.4687ZM21.2287 29.5956V15.4556L11.662 29.5956H21.2287ZM73.728 8.59559V41.8223H68.1746V16.2023L58.9346 41.8223H54.1746L44.7013 16.2023V41.8223H39.1946V8.59559H47.3613L56.648 34.5889L65.608 8.59559H73.728ZM99.8927 8.59559V13.4956H81.7393V22.3156H98.586V27.0289H81.7393V36.8289H100.173V41.8223H75.9526V8.59559H99.8927ZM100.821 8.59559H115.241C118.818 8.59559 121.634 9.45115 123.687 11.1623C125.772 12.8423 126.814 15.3623 126.814 18.7223C126.814 21.8956 125.849 24.4156 123.921 26.2823C121.992 28.1178 119.363 29.0356 116.034 29.0356H106.654V41.8223H100.821V8.59559ZM106.654 13.4489V24.3223H114.774C119.005 24.3223 121.121 22.5023 121.121 18.8623C121.121 15.2534 118.834 13.4489 114.261 13.4489H106.654ZM141.513 7.80226C146.211 7.80226 150.022 9.42004 152.947 12.6556C155.902 15.86 157.38 20.0445 157.38 25.2089C157.38 30.3734 155.902 34.5734 152.947 37.8089C149.991 41.0134 146.149 42.6156 141.42 42.6156C136.66 42.6156 132.802 41.0134 129.847 37.8089C126.922 34.6045 125.46 30.4045 125.46 25.2089C125.46 20.1689 126.891 16.0156 129.753 12.7489C132.647 9.45115 136.567 7.80226 141.513 7.80226ZM141.42 12.7023C138.371 12.7023 135.929 13.8378 134.093 16.1089C132.258 18.3489 131.34 21.3512 131.34 25.1156C131.34 28.9734 132.242 32.0378 134.047 34.3089C135.882 36.58 138.371 37.7156 141.513 37.7156C144.531 37.7156 146.942 36.58 148.747 34.3089C150.582 32.0067 151.5 28.9578 151.5 25.1623C151.5 21.3667 150.582 18.3489 148.747 16.1089C146.942 13.8378 144.5 12.7023 141.42 12.7023ZM184.763 8.59559V41.8223H178.929V13.6356H163.716V41.8223H157.883V8.59559H184.763ZM187.081 8.59559H201.501C205.079 8.59559 207.894 9.45115 209.948 11.1623C212.032 12.8423 213.074 15.3623 213.074 18.7223C213.074 21.8956 212.11 24.4156 210.181 26.2823C208.252 28.1178 205.623 29.0356 202.294 29.0356H192.914V41.8223H187.081V8.59559ZM192.914 13.4489V24.3223H201.034C205.265 24.3223 207.381 22.5023 207.381 18.8623C207.381 15.2534 205.094 13.4489 200.521 13.4489H192.914ZM213.354 41.8223V8.59559H219.187V34.0756L233.467 8.59559H240.234V41.8223H234.401V16.3423L220.121 41.8223H213.354ZM267.519 41.8223H261.686V28.1023H255.059L245.632 41.8223H238.352L248.572 27.5423C245.835 26.7023 243.952 25.4578 242.926 23.8089C241.899 22.16 241.386 20.1534 241.386 17.7889C241.386 14.9889 242.35 12.7645 244.279 11.1156C246.208 9.43559 248.915 8.59559 252.399 8.59559H267.519V41.8223ZM261.686 23.6689V13.3556H253.006C251.015 13.3556 249.552 13.76 248.619 14.5689C247.686 15.3467 247.219 16.5912 247.219 18.3023C247.219 21.88 249.117 23.6689 252.912 23.6689H261.686ZM293.586 8.59559V13.6356H282.992V41.8223H277.159V13.6356H266.566V8.59559H293.586ZM292.642 41.8223V8.59559H298.475V34.0756L312.755 8.59559H319.522V41.8223H313.688V16.3423L299.408 41.8223H292.642ZM346.807 41.8223H340.973V28.1023H334.347L324.92 41.8223H317.64L327.86 27.5423C325.122 26.7023 323.24 25.4578 322.213 23.8089C321.187 22.16 320.673 20.1534 320.673 17.7889C320.673 14.9889 321.638 12.7645 323.567 11.1156C325.496 9.43559 328.202 8.59559 331.687 8.59559H346.807V41.8223ZM340.973 23.6689V13.3556H332.293C330.302 13.3556 328.84 13.76 327.907 14.5689C326.973 15.3467 326.507 16.5912 326.507 18.3023C326.507 21.88 328.405 23.6689 332.2 23.6689H340.973Z" fill="#8F8F8F"/>
<path d="M30.4687 29.5956H37.298C37.298 25.8239 34.2404 22.7663 30.4687 22.7663V29.5956ZM30.4687 34.0756V40.9049C34.2404 40.9049 37.298 37.8473 37.298 34.0756H30.4687ZM26.3153 34.0756V27.2463C22.5436 27.2463 19.4861 30.3039 19.4861 34.0756H26.3153ZM26.3153 41.8223V48.6515C30.087 48.6515 33.1446 45.594 33.1446 41.8223H26.3153ZM21.182 41.8223L14.3529 41.8634C14.3755 45.619 17.4264 48.6515 21.182 48.6515V41.8223ZM21.1353 34.0756L27.9645 34.0345C27.9419 30.2789 24.891 27.2463 21.1353 27.2463V34.0756ZM7.27534 34.0756H0.446076C0.446076 37.8473 3.50364 40.9049 7.27534 40.9049V34.0756ZM7.27534 28.8023L1.68736 24.8763C0.879545 26.0261 0.446076 27.3971 0.446076 28.8023H7.27534ZM21.2753 8.87559V2.04633C19.051 2.04633 16.9661 3.12958 15.6874 4.94961L21.2753 8.87559ZM26.3153 8.87559H33.1446C33.1446 5.10389 30.087 2.04633 26.3153 2.04633V8.87559ZM26.3153 29.5956H19.4861C19.4861 33.3673 22.5436 36.4249 26.3153 36.4249V29.5956ZM21.2287 29.5956V36.4249C25.0004 36.4249 28.0579 33.3673 28.0579 29.5956H21.2287ZM21.2287 15.4556H28.0579C28.0579 12.4548 26.0991 9.80553 23.23 8.92615C20.3609 8.04676 17.2539 9.1433 15.5724 11.6287L21.2287 15.4556ZM11.662 29.5956L6.0057 25.7687C4.58968 27.8617 4.4451 30.5655 5.62986 32.7975C6.81462 35.0295 9.13505 36.4249 11.662 36.4249V29.5956ZM30.4687 29.5956H23.6394V34.0756H30.4687H37.298V29.5956H30.4687ZM30.4687 34.0756V27.2463H26.3153V34.0756V40.9049H30.4687V34.0756ZM26.3153 34.0756H19.4861V41.8223H26.3153H33.1446V34.0756H26.3153ZM26.3153 41.8223V34.993H21.182V41.8223V48.6515H26.3153V41.8223ZM21.182 41.8223L28.0112 41.7811L27.9645 34.0345L21.1353 34.0756L14.3062 34.1167L14.3529 41.8634L21.182 41.8223ZM21.1353 34.0756V27.2463H7.27534V34.0756V40.9049H21.1353V34.0756ZM7.27534 34.0756H14.1046V28.8023H7.27534H0.446076V34.0756H7.27534ZM7.27534 28.8023L12.8633 32.7282L26.8633 12.8016L21.2753 8.87559L15.6874 4.94961L1.68736 24.8763L7.27534 28.8023ZM21.2753 8.87559V15.7049H26.3153V8.87559V2.04633H21.2753V8.87559ZM26.3153 8.87559H19.4861V29.5956H26.3153H33.1446V8.87559H26.3153ZM26.3153 29.5956V36.4249H30.4687V29.5956V22.7663H26.3153V29.5956ZM21.2287 29.5956H28.0579V15.4556H21.2287H14.3994V29.5956H21.2287ZM21.2287 15.4556L15.5724 11.6287L6.0057 25.7687L11.662 29.5956L17.3183 33.4225L26.885 19.2825L21.2287 15.4556ZM11.662 29.5956V36.4249H21.2287V29.5956V22.7663H11.662V29.5956ZM73.728 8.59559H80.5572C80.5572 4.82389 77.4997 1.76633 73.728 1.76633V8.59559ZM73.728 41.8223V48.6515C77.4997 48.6515 80.5572 45.594 80.5572 41.8223H73.728ZM68.1746 41.8223H61.3454C61.3454 45.594 64.4029 48.6515 68.1746 48.6515V41.8223ZM68.1746 16.2023H75.0039C75.0039 12.8843 72.6191 10.0464 69.3507 9.47502C66.0823 8.90364 62.8761 10.7641 61.7504 13.8853L68.1746 16.2023ZM58.9346 41.8223V48.6515C61.813 48.6515 64.3823 46.8468 65.3588 44.1392L58.9346 41.8223ZM54.1746 41.8223L47.7692 44.1908C48.7605 46.8716 51.3164 48.6515 54.1746 48.6515V41.8223ZM44.7013 16.2023L51.1067 13.8338C49.9596 10.7314 46.7541 8.89712 43.4982 9.47979C40.2423 10.0625 37.872 12.8946 37.872 16.2023H44.7013ZM44.7013 41.8223V48.6515C48.473 48.6515 51.5306 45.594 51.5306 41.8223H44.7013ZM39.1946 41.8223H32.3653C32.3653 45.594 35.4229 48.6515 39.1946 48.6515V41.8223ZM39.1946 8.59559V1.76633C35.4229 1.76633 32.3653 4.82389 32.3653 8.59559H39.1946ZM47.3613 8.59559L53.7924 6.29793C52.8215 3.58031 50.2471 1.76633 47.3613 1.76633V8.59559ZM56.648 34.5889L50.2168 36.8866C51.1925 39.6174 53.7863 41.4343 56.6862 41.4181C59.586 41.4019 62.1594 39.5561 63.1044 36.8145L56.648 34.5889ZM65.608 8.59559V1.76633C62.694 1.76633 60.1011 3.61519 59.1515 6.37003L65.608 8.59559ZM73.728 8.59559H66.8987V41.8223H73.728H80.5572V8.59559H73.728ZM73.728 41.8223V34.993H68.1746V41.8223V48.6515H73.728V41.8223ZM68.1746 41.8223H75.0039V16.2023H68.1746H61.3454V41.8223H68.1746ZM68.1746 16.2023L61.7504 13.8853L52.5104 39.5053L58.9346 41.8223L65.3588 44.1392L74.5989 18.5192L68.1746 16.2023ZM58.9346 41.8223V34.993H54.1746V41.8223V48.6515H58.9346V41.8223ZM54.1746 41.8223L60.58 39.4538L51.1067 13.8338L44.7013 16.2023L38.2959 18.5707L47.7692 44.1908L54.1746 41.8223ZM44.7013 16.2023H37.872V41.8223H44.7013H51.5306V16.2023H44.7013ZM44.7013 41.8223V34.993H39.1946V41.8223V48.6515H44.7013V41.8223ZM39.1946 41.8223H46.0239V8.59559H39.1946H32.3653V41.8223H39.1946ZM39.1946 8.59559V15.4249H47.3613V8.59559V1.76633H39.1946V8.59559ZM47.3613 8.59559L40.9301 10.8933L50.2168 36.8866L56.648 34.5889L63.0791 32.2913L53.7924 6.29793L47.3613 8.59559ZM56.648 34.5889L63.1044 36.8145L72.0644 10.8212L65.608 8.59559L59.1515 6.37003L50.1915 32.3634L56.648 34.5889ZM65.608 8.59559V15.4249H73.728V8.59559V1.76633H65.608V8.59559ZM99.8926 8.59559H106.722C106.722 4.82389 103.664 1.76633 99.8926 1.76633V8.59559ZM99.8926 13.4956V20.3249C103.664 20.3249 106.722 17.2673 106.722 13.4956H99.8926ZM81.7393 13.4956V6.66632C77.9676 6.66632 74.91 9.72389 74.91 13.4956H81.7393ZM81.7393 22.3156H74.91C74.91 26.0873 77.9676 29.1449 81.7393 29.1449V22.3156ZM98.586 22.3156H105.415C105.415 18.5439 102.358 15.4863 98.586 15.4863V22.3156ZM98.586 27.0289V33.8582C102.358 33.8582 105.415 30.8006 105.415 27.0289H98.586ZM81.7393 27.0289V20.1997C77.9676 20.1997 74.91 23.2572 74.91 27.0289H81.7393ZM81.7393 36.8289H74.91C74.91 40.6006 77.9676 43.6582 81.7393 43.6582V36.8289ZM100.173 36.8289H107.002C107.002 33.0572 103.944 29.9997 100.173 29.9997V36.8289ZM100.173 41.8223V48.6515C103.944 48.6515 107.002 45.594 107.002 41.8223H100.173ZM75.9526 41.8223H69.1234C69.1234 45.594 72.1809 48.6515 75.9526 48.6515V41.8223ZM75.9526 8.59559V1.76633C72.1809 1.76633 69.1234 4.82389 69.1234 8.59559H75.9526ZM99.8926 8.59559H93.0634V13.4956H99.8926H106.722V8.59559H99.8926ZM99.8926 13.4956V6.66632H81.7393V13.4956V20.3249H99.8926V13.4956ZM81.7393 13.4956H74.91V22.3156H81.7393H88.5686V13.4956H81.7393ZM81.7393 22.3156V29.1449H98.586V22.3156V15.4863H81.7393V22.3156ZM98.586 22.3156H91.7567V27.0289H98.586H105.415V22.3156H98.586ZM98.586 27.0289V20.1997H81.7393V27.0289V33.8582H98.586V27.0289ZM81.7393 27.0289H74.91V36.8289H81.7393H88.5686V27.0289H81.7393ZM81.7393 36.8289V43.6582H100.173V36.8289V29.9997H81.7393V36.8289ZM100.173 36.8289H93.3434V41.8223H100.173H107.002V36.8289H100.173ZM100.173 41.8223V34.993H75.9526V41.8223V48.6515H100.173V41.8223ZM75.9526 41.8223H82.7819V8.59559H75.9526H69.1234V41.8223H75.9526ZM75.9526 8.59559V15.4249H99.8926V8.59559V1.76633H75.9526V8.59559ZM100.821 8.59559V1.76633C97.0488 1.76633 93.9912 4.82389 93.9912 8.59559H100.821ZM123.687 11.1623L119.315 16.4087C119.344 16.4325 119.373 16.4561 119.402 16.4795L123.687 11.1623ZM123.921 26.2823L128.628 31.2295C128.642 31.2163 128.656 31.2031 128.67 31.1898L123.921 26.2823ZM106.654 29.0356V22.2063C102.882 22.2063 99.8246 25.2639 99.8246 29.0356H106.654ZM106.654 41.8223V48.6515C110.426 48.6515 113.483 45.594 113.483 41.8223H106.654ZM100.821 41.8223H93.9912C93.9912 45.594 97.0488 48.6515 100.821 48.6515V41.8223ZM106.654 13.4489V6.61966C102.882 6.61966 99.8246 9.67723 99.8246 13.4489H106.654ZM106.654 24.3223H99.8246C99.8246 28.094 102.882 31.1515 106.654 31.1515V24.3223ZM100.821 8.59559V15.4249H115.241V8.59559V1.76633H100.821V8.59559ZM115.241 8.59559V15.4249C117.764 15.4249 118.85 16.0213 119.315 16.4087L123.687 11.1623L128.059 5.91587C124.417 2.88095 119.872 1.76633 115.241 1.76633V8.59559ZM123.687 11.1623L119.402 16.4795C119.477 16.5402 119.985 16.852 119.985 18.7223H126.814H133.643C133.643 13.8725 132.066 9.14433 127.973 5.84502L123.687 11.1623ZM126.814 18.7223H119.985C119.985 20.4099 119.53 21.0277 119.171 21.3747L123.921 26.2823L128.67 31.1898C132.169 27.8034 133.643 23.3813 133.643 18.7223H126.814ZM123.921 26.2823L119.213 21.335C118.851 21.6789 118.07 22.2063 116.034 22.2063V29.0356V35.8649C120.656 35.8649 125.132 34.5568 128.628 31.2295L123.921 26.2823ZM116.034 29.0356V22.2063H106.654V29.0356V35.8649H116.034V29.0356ZM106.654 29.0356H99.8246V41.8223H106.654H113.483V29.0356H106.654ZM106.654 41.8223V34.993H100.821V41.8223V48.6515H106.654V41.8223ZM100.821 41.8223H107.65V8.59559H100.821H93.9912V41.8223H100.821ZM106.654 13.4489H99.8246V24.3223H106.654H113.483V13.4489H106.654ZM106.654 24.3223V31.1515H114.774V24.3223V17.493H106.654V24.3223ZM114.774 24.3223V31.1515C117.712 31.1515 121.189 30.5417 123.988 28.1344C126.983 25.5579 127.95 22.0256 127.95 18.8623H121.121H114.291C114.291 19.1263 114.251 19.0536 114.356 18.7837C114.476 18.4725 114.716 18.0936 115.08 17.7802C115.422 17.4857 115.685 17.4113 115.668 17.4163C115.631 17.427 115.364 17.493 114.774 17.493V24.3223ZM121.121 18.8623H127.95C127.95 15.5179 126.809 11.945 123.636 9.44115C120.771 7.18048 117.261 6.61966 114.261 6.61966V13.4489V20.2782C114.977 20.2782 115.37 20.3512 115.524 20.3919C115.667 20.4294 115.482 20.4057 115.175 20.1634C114.835 19.8949 114.559 19.5255 114.401 19.1513C114.26 18.8187 114.291 18.6703 114.291 18.8623H121.121ZM114.261 13.4489V6.61966H106.654V13.4489V20.2782H114.261V13.4489ZM152.947 12.6556L147.88 17.2349C147.896 17.2519 147.911 17.2689 147.927 17.2857L152.947 12.6556ZM152.947 37.8089L157.967 42.4391C157.974 42.431 157.982 42.4229 157.989 42.4148L152.947 37.8089ZM129.847 37.8089L124.802 42.4125C124.811 42.4214 124.819 42.4302 124.827 42.4391L129.847 37.8089ZM129.753 12.7489L124.62 8.24497L124.617 8.24836L129.753 12.7489ZM134.093 16.1089L139.376 20.4375C139.386 20.4256 139.395 20.4137 139.405 20.4017L134.093 16.1089ZM134.047 34.3089L128.7 38.5573C128.712 38.5721 128.723 38.5869 128.735 38.6017L134.047 34.3089ZM148.747 34.3089L143.407 30.0515L143.4 30.0606L148.747 34.3089ZM148.747 16.1089L143.4 20.3572C143.421 20.3842 143.443 20.4109 143.465 20.4375L148.747 16.1089ZM141.513 7.80226V14.6315C144.448 14.6315 146.359 15.5515 147.88 17.2349L152.947 12.6556L158.013 8.0763C153.686 3.28859 147.975 0.972992 141.513 0.972992V7.80226ZM152.947 12.6556L147.927 17.2857C149.509 19.0017 150.551 21.4239 150.551 25.2089H157.38H164.209C164.209 18.665 162.295 12.7184 157.967 8.02546L152.947 12.6556ZM157.38 25.2089H150.551C150.551 28.9919 149.51 31.4457 147.905 33.203L152.947 37.8089L157.989 42.4148C162.295 37.7011 164.209 31.7549 164.209 25.2089H157.38ZM152.947 37.8089L147.927 33.1788C146.382 34.854 144.423 35.7863 141.42 35.7863V42.6156V49.4449C147.875 49.4449 153.601 47.1728 157.967 42.4391L152.947 37.8089ZM141.42 42.6156V35.7863C138.372 35.7863 136.403 34.8439 134.867 33.1788L129.847 37.8089L124.827 42.4391C129.202 47.1828 134.949 49.4449 141.42 49.4449V42.6156ZM129.847 37.8089L134.891 33.2053C133.334 31.4991 132.289 29.0566 132.289 25.2089H125.46H118.631C118.631 31.7524 120.511 37.7098 124.802 42.4125L129.847 37.8089ZM125.46 25.2089H132.289C132.289 21.543 133.291 19.0741 134.89 17.2495L129.753 12.7489L124.617 8.24836C120.491 12.9571 118.631 18.7948 118.631 25.2089H125.46ZM129.753 12.7489L134.887 17.2529C136.31 15.6309 138.253 14.6315 141.513 14.6315V7.80226V0.972992C134.88 0.972992 128.984 3.2714 124.62 8.24497L129.753 12.7489ZM141.42 12.7023V5.87299C136.414 5.87299 131.979 7.86085 128.782 11.8162L134.093 16.1089L139.405 20.4017C139.879 19.8148 140.329 19.5315 141.42 19.5315V12.7023ZM134.093 16.1089L128.811 11.7804C125.709 15.5666 124.511 20.2523 124.511 25.1156H131.34H138.169C138.169 22.45 138.807 21.1313 139.376 20.4375L134.093 16.1089ZM131.34 25.1156H124.511C124.511 30.0067 125.66 34.7319 128.7 38.5573L134.047 34.3089L139.394 30.0606C138.824 29.3438 138.169 27.9401 138.169 25.1156H131.34ZM134.047 34.3089L128.735 38.6017C131.976 42.6118 136.488 44.5449 141.513 44.5449V37.7156V30.8863C140.254 30.8863 139.788 30.5483 139.358 30.0162L134.047 34.3089ZM141.513 37.7156V44.5449C146.516 44.5449 150.934 42.5338 154.094 38.5573L148.747 34.3089L143.4 30.0606C142.95 30.6263 142.546 30.8863 141.513 30.8863V37.7156ZM148.747 34.3089L154.087 38.5663C157.135 34.7427 158.329 30.052 158.329 25.1623H151.5H144.671C144.671 27.8636 144.03 29.2707 143.407 30.0515L148.747 34.3089ZM151.5 25.1623H158.329C158.329 20.2837 157.139 15.5759 154.029 11.7804L148.747 16.1089L143.465 20.4375C144.025 21.1219 144.671 22.4498 144.671 25.1623H151.5ZM148.747 16.1089L154.094 11.8606C150.904 7.84604 146.434 5.87299 141.42 5.87299V12.7023V19.5315C142.566 19.5315 142.981 19.8296 143.4 20.3572L148.747 16.1089ZM184.763 8.59559H191.592C191.592 4.82389 188.534 1.76633 184.763 1.76633V8.59559ZM184.763 41.8223V48.6515C188.534 48.6515 191.592 45.594 191.592 41.8223H184.763ZM178.929 41.8223H172.1C172.1 45.594 175.158 48.6515 178.929 48.6515V41.8223ZM178.929 13.6356H185.758C185.758 9.86389 182.701 6.80633 178.929 6.80633V13.6356ZM163.716 13.6356V6.80633C159.944 6.80633 156.887 9.86389 156.887 13.6356H163.716ZM163.716 41.8223V48.6515C167.488 48.6515 170.545 45.594 170.545 41.8223H163.716ZM157.883 41.8223H151.053C151.053 45.594 154.111 48.6515 157.883 48.6515V41.8223ZM157.883 8.59559V1.76633C154.111 1.76633 151.053 4.82389 151.053 8.59559H157.883ZM184.763 8.59559H177.933V41.8223H184.763H191.592V8.59559H184.763ZM184.763 41.8223V34.993H178.929V41.8223V48.6515H184.763V41.8223ZM178.929 41.8223H185.758V13.6356H178.929H172.1V41.8223H178.929ZM178.929 13.6356V6.80633H163.716V13.6356V20.4649H178.929V13.6356ZM163.716 13.6356H156.887V41.8223H163.716H170.545V13.6356H163.716ZM163.716 41.8223V34.993H157.883V41.8223V48.6515H163.716V41.8223ZM157.883 41.8223H164.712V8.59559H157.883H151.053V41.8223H157.883ZM157.883 8.59559V15.4249H184.763V8.59559V1.76633H157.883V8.59559ZM187.081 8.59559V1.76633C183.309 1.76633 180.252 4.82389 180.252 8.59559H187.081ZM209.948 11.1623L205.576 16.4087C205.604 16.4325 205.633 16.4561 205.662 16.4795L209.948 11.1623ZM210.181 26.2823L214.889 31.2295C214.903 31.2163 214.916 31.2031 214.93 31.1898L210.181 26.2823ZM192.914 29.0356V22.2063C189.143 22.2063 186.085 25.2639 186.085 29.0356H192.914ZM192.914 41.8223V48.6515C196.686 48.6515 199.744 45.594 199.744 41.8223H192.914ZM187.081 41.8223H180.252C180.252 45.594 183.309 48.6515 187.081 48.6515V41.8223ZM192.914 13.4489V6.61966C189.143 6.61966 186.085 9.67723 186.085 13.4489H192.914ZM192.914 24.3223H186.085C186.085 28.094 189.143 31.1515 192.914 31.1515V24.3223ZM187.081 8.59559V15.4249H201.501V8.59559V1.76633H187.081V8.59559ZM201.501 8.59559V15.4249C204.025 15.4249 205.111 16.0213 205.576 16.4087L209.948 11.1623L214.32 5.91587C210.678 2.88095 206.133 1.76633 201.501 1.76633V8.59559ZM209.948 11.1623L205.662 16.4795C205.737 16.5402 206.245 16.852 206.245 18.7223H213.074H219.904C219.904 13.8725 218.327 9.14433 214.233 5.84502L209.948 11.1623ZM213.074 18.7223H206.245C206.245 20.4099 205.79 21.0277 205.432 21.3747L210.181 26.2823L214.93 31.1898C218.429 27.8034 219.904 23.3813 219.904 18.7223H213.074ZM210.181 26.2823L205.473 21.335C205.112 21.6789 204.33 22.2063 202.294 22.2063V29.0356V35.8649C206.916 35.8649 211.392 34.5568 214.889 31.2295L210.181 26.2823ZM202.294 29.0356V22.2063H192.914V29.0356V35.8649H202.294V29.0356ZM192.914 29.0356H186.085V41.8223H192.914H199.744V29.0356H192.914ZM192.914 41.8223V34.993H187.081V41.8223V48.6515H192.914V41.8223ZM187.081 41.8223H193.91V8.59559H187.081H180.252V41.8223H187.081ZM192.914 13.4489H186.085V24.3223H192.914H199.744V13.4489H192.914ZM192.914 24.3223V31.1515H201.034V24.3223V17.493H192.914V24.3223ZM201.034 24.3223V31.1515C203.972 31.1515 207.45 30.5417 210.248 28.1344C213.243 25.5579 214.21 22.0256 214.21 18.8623H207.381H200.552C200.552 19.1263 200.512 19.0536 200.616 18.7837C200.737 18.4725 200.976 18.0936 201.34 17.7802C201.683 17.4857 201.946 17.4113 201.928 17.4163C201.891 17.427 201.625 17.493 201.034 17.493V24.3223ZM207.381 18.8623H214.21C214.21 15.5179 213.069 11.945 209.896 9.44115C207.032 7.18048 203.521 6.61966 200.521 6.61966V13.4489V20.2782C201.238 20.2782 201.63 20.3512 201.785 20.3919C201.928 20.4294 201.742 20.4057 201.435 20.1634C201.095 19.8949 200.819 19.5255 200.661 19.1513C200.521 18.8187 200.552 18.6703 200.552 18.8623H207.381ZM200.521 13.4489V6.61966H192.914V13.4489V20.2782H200.521V13.4489ZM213.354 41.8223H206.525C206.525 45.594 209.582 48.6515 213.354 48.6515V41.8223ZM213.354 8.59559V1.76633C209.582 1.76633 206.525 4.82389 206.525 8.59559H213.354ZM219.187 8.59559H226.017C226.017 4.82389 222.959 1.76633 219.187 1.76633V8.59559ZM219.187 34.0756H212.358C212.358 37.1828 214.455 39.8983 217.462 40.6833C220.468 41.4683 223.626 40.1249 225.145 37.4144L219.187 34.0756ZM233.467 8.59559V1.76633C230.996 1.76633 228.718 3.10119 227.51 5.2568L233.467 8.59559ZM240.234 8.59559H247.063C247.063 4.82389 244.006 1.76633 240.234 1.76633V8.59559ZM240.234 41.8223V48.6515C244.006 48.6515 247.063 45.594 247.063 41.8223H240.234ZM234.401 41.8223H227.571C227.571 45.594 230.629 48.6515 234.401 48.6515V41.8223ZM234.401 16.3423H241.23C241.23 13.2351 239.132 10.5196 236.126 9.73454C233.12 8.94953 229.962 10.2929 228.443 13.0035L234.401 16.3423ZM220.121 41.8223V48.6515C222.592 48.6515 224.87 47.3167 226.078 45.1611L220.121 41.8223ZM213.354 41.8223H220.183V8.59559H213.354H206.525V41.8223H213.354ZM213.354 8.59559V15.4249H219.187V8.59559V1.76633H213.354V8.59559ZM219.187 8.59559H212.358V34.0756H219.187H226.017V8.59559H219.187ZM219.187 34.0756L225.145 37.4144L239.425 11.9344L233.467 8.59559L227.51 5.2568L213.23 30.7368L219.187 34.0756ZM233.467 8.59559V15.4249H240.234V8.59559V1.76633H233.467V8.59559ZM240.234 8.59559H233.405V41.8223H240.234H247.063V8.59559H240.234ZM240.234 41.8223V34.993H234.401V41.8223V48.6515H240.234V41.8223ZM234.401 41.8223H241.23V16.3423H234.401H227.571V41.8223H234.401ZM234.401 16.3423L228.443 13.0035L214.163 38.4835L220.121 41.8223L226.078 45.1611L240.358 19.6811L234.401 16.3423ZM220.121 41.8223V34.993H213.354V41.8223V48.6515H220.121V41.8223ZM267.519 41.8223V48.6515C271.291 48.6515 274.348 45.594 274.348 41.8223H267.519ZM261.686 41.8223H254.856C254.856 45.594 257.914 48.6515 261.686 48.6515V41.8223ZM261.686 28.1023H268.515C268.515 24.3306 265.457 21.273 261.686 21.273V28.1023ZM255.059 28.1023V21.273C252.809 21.273 250.704 22.3808 249.43 24.2349L255.059 28.1023ZM245.632 41.8223V48.6515C247.882 48.6515 249.987 47.5437 251.261 45.6896L245.632 41.8223ZM238.352 41.8223L232.799 37.8477C231.309 39.9289 231.108 42.6682 232.278 44.9444C233.449 47.2206 235.793 48.6515 238.352 48.6515V41.8223ZM248.572 27.5423L254.126 31.5168C255.405 29.73 255.746 27.437 255.042 25.3554C254.338 23.2738 252.676 21.6579 250.575 21.0134L248.572 27.5423ZM242.926 23.8089L237.128 27.4186L242.926 23.8089ZM244.279 11.1156L248.717 16.3067C248.732 16.293 248.748 16.2792 248.764 16.2654L244.279 11.1156ZM267.519 8.59559H274.348C274.348 4.82389 271.291 1.76633 267.519 1.76633V8.59559ZM261.686 23.6689V30.4982C265.457 30.4982 268.515 27.4406 268.515 23.6689H261.686ZM261.686 13.3556H268.515C268.515 9.58389 265.457 6.52633 261.686 6.52633V13.3556ZM248.619 14.5689L252.991 19.8153C253.025 19.7871 253.058 19.7586 253.092 19.7297L248.619 14.5689ZM267.519 41.8223V34.993H261.686V41.8223V48.6515H267.519V41.8223ZM261.686 41.8223H268.515V28.1023H261.686H254.856V41.8223H261.686ZM261.686 28.1023V21.273H255.059V28.1023V34.9315H261.686V28.1023ZM255.059 28.1023L249.43 24.2349L240.004 37.9549L245.632 41.8223L251.261 45.6896L260.688 31.9696L255.059 28.1023ZM245.632 41.8223V34.993H238.352V41.8223V48.6515H245.632V41.8223ZM238.352 41.8223L243.906 45.7968L254.126 31.5168L248.572 27.5423L243.019 23.5677L232.799 37.8477L238.352 41.8223ZM248.572 27.5423L250.575 21.0134C248.684 20.4332 248.546 19.9151 248.723 20.1993L242.926 23.8089L237.128 27.4186C239.359 31.0005 242.985 32.9713 246.569 34.0711L248.572 27.5423ZM242.926 23.8089L248.723 20.1993C248.504 19.8477 248.215 19.1556 248.215 17.7889H241.386H234.556C234.556 21.1512 235.294 24.4724 237.128 27.4186L242.926 23.8089ZM241.386 17.7889H248.215C248.215 16.7531 248.474 16.5142 248.717 16.3067L244.279 11.1156L239.841 5.92452C236.226 9.01479 234.556 13.2247 234.556 17.7889H241.386ZM244.279 11.1156L248.764 16.2654C249.062 16.0063 249.963 15.4249 252.399 15.4249V8.59559V1.76633C247.866 1.76633 243.354 2.86486 239.794 5.96577L244.279 11.1156ZM252.399 8.59559V15.4249H267.519V8.59559V1.76633H252.399V8.59559ZM267.519 8.59559H260.69V41.8223H267.519H274.348V8.59559H267.519ZM261.686 23.6689H268.515V13.3556H261.686H254.856V23.6689H261.686ZM261.686 13.3556V6.52633H253.006V13.3556V20.1849H261.686V13.3556ZM253.006 13.3556V6.52633C250.317 6.52633 246.886 7.03366 244.146 9.40812L248.619 14.5689L253.092 19.7297C252.636 20.1246 252.265 20.2331 252.236 20.2411C252.221 20.2453 252.272 20.23 252.406 20.2143C252.539 20.1987 252.736 20.1849 253.006 20.1849V13.3556ZM248.619 14.5689L244.247 9.32254C241.197 11.8643 240.39 15.4279 240.39 18.3023H247.219H254.048C254.048 18.0415 254.087 18.154 253.963 18.4835C253.821 18.863 253.518 19.3761 252.991 19.8153L248.619 14.5689ZM247.219 18.3023H240.39C240.39 21.2504 241.191 24.6886 243.958 27.2967C246.649 29.8335 250.059 30.4982 252.912 30.4982V23.6689V16.8397C251.97 16.8397 252.533 16.61 253.327 17.3578C253.713 17.7222 253.922 18.1153 254.013 18.3734C254.091 18.5943 254.048 18.6119 254.048 18.3023H247.219ZM252.912 23.6689V30.4982H261.686V23.6689V16.8397H252.912V23.6689ZM293.586 8.59559H300.415C300.415 4.82389 297.357 1.76633 293.586 1.76633V8.59559ZM293.586 13.6356V20.4649C297.357 20.4649 300.415 17.4073 300.415 13.6356H293.586ZM282.992 13.6356V6.80633C279.221 6.80633 276.163 9.86389 276.163 13.6356H282.992ZM282.992 41.8223V48.6515C286.764 48.6515 289.822 45.594 289.822 41.8223H282.992ZM277.159 41.8223H270.33C270.33 45.594 273.387 48.6515 277.159 48.6515V41.8223ZM277.159 13.6356H283.988C283.988 9.86389 280.931 6.80633 277.159 6.80633V13.6356ZM266.566 13.6356H259.736C259.736 17.4073 262.794 20.4649 266.566 20.4649V13.6356ZM266.566 8.59559V1.76633C262.794 1.76633 259.736 4.82389 259.736 8.59559H266.566ZM293.586 8.59559H286.756V13.6356H293.586H300.415V8.59559H293.586ZM293.586 13.6356V6.80633H282.992V13.6356V20.4649H293.586V13.6356ZM282.992 13.6356H276.163V41.8223H282.992H289.822V13.6356H282.992ZM282.992 41.8223V34.993H277.159V41.8223V48.6515H282.992V41.8223ZM277.159 41.8223H283.988V13.6356H277.159H270.33V41.8223H277.159ZM277.159 13.6356V6.80633H266.566V13.6356V20.4649H277.159V13.6356ZM266.566 13.6356H273.395V8.59559H266.566H259.736V13.6356H266.566ZM266.566 8.59559V15.4249H293.586V8.59559V1.76633H266.566V8.59559ZM292.642 41.8223H285.812C285.812 45.594 288.87 48.6515 292.642 48.6515V41.8223ZM292.642 8.59559V1.76633C288.87 1.76633 285.812 4.82389 285.812 8.59559H292.642ZM298.475 8.59559H305.304C305.304 4.82389 302.247 1.76633 298.475 1.76633V8.59559ZM298.475 34.0756H291.646C291.646 37.1828 293.743 39.8983 296.75 40.6833C299.756 41.4683 302.913 40.1249 304.432 37.4144L298.475 34.0756ZM312.755 8.59559V1.76633C310.284 1.76633 308.006 3.10119 306.798 5.2568L312.755 8.59559ZM319.522 8.59559H326.351C326.351 4.82389 323.293 1.76633 319.522 1.76633V8.59559ZM319.522 41.8223V48.6515C323.293 48.6515 326.351 45.594 326.351 41.8223H319.522ZM313.688 41.8223H306.859C306.859 45.594 309.917 48.6515 313.688 48.6515V41.8223ZM313.688 16.3423H320.518C320.518 13.2351 318.42 10.5196 315.414 9.73454C312.407 8.94953 309.25 10.2929 307.731 13.0035L313.688 16.3423ZM299.408 41.8223V48.6515C301.879 48.6515 304.158 47.3167 305.366 45.1611L299.408 41.8223ZM292.642 41.8223H299.471V8.59559H292.642H285.812V41.8223H292.642ZM292.642 8.59559V15.4249H298.475V8.59559V1.76633H292.642V8.59559ZM298.475 8.59559H291.646V34.0756H298.475H305.304V8.59559H298.475ZM298.475 34.0756L304.432 37.4144L318.712 11.9344L312.755 8.59559L306.798 5.2568L292.518 30.7368L298.475 34.0756ZM312.755 8.59559V15.4249H319.522V8.59559V1.76633H312.755V8.59559ZM319.522 8.59559H312.692V41.8223H319.522H326.351V8.59559H319.522ZM319.522 41.8223V34.993H313.688V41.8223V48.6515H319.522V41.8223ZM313.688 41.8223H320.518V16.3423H313.688H306.859V41.8223H313.688ZM313.688 16.3423L307.731 13.0035L293.451 38.4835L299.408 41.8223L305.366 45.1611L319.646 19.6811L313.688 16.3423ZM299.408 41.8223V34.993H292.642V41.8223V48.6515H299.408V41.8223ZM346.807 41.8223V48.6515C350.578 48.6515 353.636 45.594 353.636 41.8223H346.807ZM340.973 41.8223H334.144C334.144 45.594 337.202 48.6515 340.973 48.6515V41.8223ZM340.973 28.1023H347.803C347.803 24.3306 344.745 21.273 340.973 21.273V28.1023ZM334.347 28.1023V21.273C332.097 21.273 329.992 22.3808 328.718 24.2349L334.347 28.1023ZM324.92 41.8223V48.6515C327.17 48.6515 329.275 47.5437 330.549 45.6896L324.92 41.8223ZM317.64 41.8223L312.087 37.8477C310.597 39.9289 310.396 42.6682 311.566 44.9444C312.736 47.2206 315.081 48.6515 317.64 48.6515V41.8223ZM327.86 27.5423L333.414 31.5168C334.692 29.73 335.033 27.437 334.33 25.3554C333.626 23.2738 331.964 21.6579 329.863 21.0134L327.86 27.5423ZM322.213 23.8089L316.416 27.4186L322.213 23.8089ZM323.567 11.1156L328.004 16.3067C328.02 16.293 328.036 16.2792 328.052 16.2654L323.567 11.1156ZM346.807 8.59559H353.636C353.636 4.82389 350.578 1.76633 346.807 1.76633V8.59559ZM340.973 23.6689V30.4982C344.745 30.4982 347.803 27.4406 347.803 23.6689H340.973ZM340.973 13.3556H347.803C347.803 9.58389 344.745 6.52633 340.973 6.52633V13.3556ZM327.907 14.5689L332.279 19.8153C332.313 19.7871 332.346 19.7586 332.379 19.7297L327.907 14.5689ZM346.807 41.8223V34.993H340.973V41.8223V48.6515H346.807V41.8223ZM340.973 41.8223H347.803V28.1023H340.973H334.144V41.8223H340.973ZM340.973 28.1023V21.273H334.347V28.1023V34.9315H340.973V28.1023ZM334.347 28.1023L328.718 24.2349L319.291 37.9549L324.92 41.8223L330.549 45.6896L339.975 31.9696L334.347 28.1023ZM324.92 41.8223V34.993H317.64V41.8223V48.6515H324.92V41.8223ZM317.64 41.8223L323.194 45.7968L333.414 31.5168L327.86 27.5423L322.307 23.5677L312.087 37.8477L317.64 41.8223ZM327.86 27.5423L329.863 21.0134C327.972 20.4332 327.834 19.9151 328.011 20.1993L322.213 23.8089L316.416 27.4186C318.646 31.0005 322.272 32.9713 325.857 34.0711L327.86 27.5423ZM322.213 23.8089L328.011 20.1993C327.792 19.8477 327.503 19.1556 327.503 17.7889H320.673H313.844C313.844 21.1512 314.582 24.4724 316.416 27.4186L322.213 23.8089ZM320.673 17.7889H327.503C327.503 16.7531 327.762 16.5142 328.004 16.3067L323.567 11.1156L319.129 5.92452C315.514 9.01479 313.844 13.2247 313.844 17.7889H320.673ZM323.567 11.1156L328.052 16.2654C328.35 16.0063 329.251 15.4249 331.687 15.4249V8.59559V1.76633C327.153 1.76633 322.642 2.86486 319.081 5.96577L323.567 11.1156ZM331.687 8.59559V15.4249H346.807V8.59559V1.76633H331.687V8.59559ZM346.807 8.59559H339.977V41.8223H346.807H353.636V8.59559H346.807ZM340.973 23.6689H347.803V13.3556H340.973H334.144V23.6689H340.973ZM340.973 13.3556V6.52633H332.293V13.3556V20.1849H340.973V13.3556ZM332.293 13.3556V6.52633C329.605 6.52633 326.174 7.03366 323.434 9.40812L327.907 14.5689L332.379 19.7297C331.924 20.1246 331.553 20.2331 331.524 20.2411C331.509 20.2453 331.56 20.23 331.694 20.2143C331.827 20.1987 332.024 20.1849 332.293 20.1849V13.3556ZM327.907 14.5689L323.535 9.32254C320.485 11.8643 319.677 15.4279 319.677 18.3023H326.507H333.336C333.336 18.0415 333.375 18.154 333.251 18.4835C333.109 18.863 332.806 19.3761 332.279 19.8153L327.907 14.5689ZM326.507 18.3023H319.677C319.677 21.2504 320.479 24.6886 323.246 27.2967C325.937 29.8335 329.347 30.4982 332.2 30.4982V23.6689V16.8397C331.258 16.8397 331.821 16.61 332.614 17.3578C333.001 17.7222 333.21 18.1153 333.301 18.3734C333.379 18.5943 333.336 18.6119 333.336 18.3023H326.507ZM332.2 23.6689V30.4982H340.973V23.6689V16.8397H332.2V23.6689Z" fill="#CFF665" mask="url(#path-1-outside-1_3143_8140)"/>
</svg>
