<svg width="98" height="44" viewBox="0 0 98 44" fill="none" xmlns="http://www.w3.org/2000/svg">
<mask id="path-1-outside-1_3189_1754" maskUnits="userSpaceOnUse" x="0" y="0" width="98" height="44" fill="black">
<rect fill="white" width="98" height="44"/>
<path d="M39.1389 5.86436V38H33.7679V13.2213L24.8313 38H20.2276L11.0653 13.2213V38H5.73946V5.86436H13.638L22.6197 31.0042L31.2855 5.86436H39.1389ZM56.0043 5.81922L68.4162 38H62.3682L59.2991 29.4696H46.5712L43.4118 38H37.5895L50.0014 5.81922H56.0043ZM57.8097 25.227L53.0254 11.6867L48.0155 25.227H57.8097ZM67.0167 5.86436H80.9632C84.4235 5.86436 87.1466 6.69182 89.1325 8.34675C91.1485 9.97158 92.1565 12.4088 92.1565 15.6585C92.1565 18.7276 91.2238 21.1649 89.3582 22.9703C87.4927 24.7456 84.9501 25.6332 81.7305 25.6332H72.6585V38H67.0167V5.86436ZM72.6585 10.5583V21.0746H80.5119C84.6041 21.0746 86.6502 19.3144 86.6502 15.7939C86.6502 12.3035 84.4386 10.5583 80.0154 10.5583H72.6585Z"/>
</mask>
<path d="M39.1389 5.86436V38H33.7679V13.2213L24.8313 38H20.2276L11.0653 13.2213V38H5.73946V5.86436H13.638L22.6197 31.0042L31.2855 5.86436H39.1389ZM56.0043 5.81922L68.4162 38H62.3682L59.2991 29.4696H46.5712L43.4118 38H37.5895L50.0014 5.81922H56.0043ZM57.8097 25.227L53.0254 11.6867L48.0155 25.227H57.8097ZM67.0167 5.86436H80.9632C84.4235 5.86436 87.1466 6.69182 89.1325 8.34675C91.1485 9.97158 92.1565 12.4088 92.1565 15.6585C92.1565 18.7276 91.2238 21.1649 89.3582 22.9703C87.4927 24.7456 84.9501 25.6332 81.7305 25.6332H72.6585V38H67.0167V5.86436ZM72.6585 10.5583V21.0746H80.5119C84.6041 21.0746 86.6502 19.3144 86.6502 15.7939C86.6502 12.3035 84.4386 10.5583 80.0154 10.5583H72.6585Z" fill="#CFF665"/>
<path d="M39.1389 5.86436H44.7807C44.7807 2.74848 42.2547 0.222568 39.1389 0.222568V5.86436ZM39.1389 38V43.6418C42.2547 43.6418 44.7807 41.1159 44.7807 38H39.1389ZM33.7679 38H28.1261C28.1261 41.1159 30.652 43.6418 33.7679 43.6418V38ZM33.7679 13.2213H39.4097C39.4097 10.4802 37.4395 8.13577 34.7394 7.66374C32.0393 7.19172 29.3906 8.72871 28.4607 11.3072L33.7679 13.2213ZM24.8313 38V43.6418C27.2091 43.6418 29.3317 42.1509 30.1385 39.9141L24.8313 38ZM20.2276 38L14.936 39.9566C15.7549 42.1713 17.8663 43.6418 20.2276 43.6418V38ZM11.0653 13.2213L16.3569 11.2646C15.4093 8.70171 12.7612 7.18633 10.0714 7.66769C7.38169 8.14905 5.42352 10.4888 5.42352 13.2213H11.0653ZM11.0653 38V43.6418C14.1812 43.6418 16.7071 41.1159 16.7071 38H11.0653ZM5.73946 38H0.0976691C0.0976691 41.1159 2.62358 43.6418 5.73946 43.6418V38ZM5.73946 5.86436V0.222568C2.62358 0.222568 0.0976691 2.74848 0.0976691 5.86436H5.73946ZM13.638 5.86436L18.9509 3.96621C18.1488 1.72113 16.022 0.222568 13.638 0.222568V5.86436ZM22.6197 31.0042L17.3068 32.9023C18.1128 35.1583 20.2557 36.6593 22.6513 36.6459C25.0469 36.6325 27.1728 35.1076 27.9535 32.8428L22.6197 31.0042ZM31.2855 5.86436V0.222568C28.8783 0.222568 26.7362 1.74995 25.9517 4.02578L31.2855 5.86436ZM39.1389 5.86436H33.4971V38H39.1389H44.7807V5.86436H39.1389ZM39.1389 38V32.3582H33.7679V38V43.6418H39.1389V38ZM33.7679 38H39.4097V13.2213H33.7679H28.1261V38H33.7679ZM33.7679 13.2213L28.4607 11.3072L19.5241 36.0859L24.8313 38L30.1385 39.9141L39.0751 15.1353L33.7679 13.2213ZM24.8313 38V32.3582H20.2276V38V43.6418H24.8313V38ZM20.2276 38L25.5192 36.0434L16.3569 11.2646L11.0653 13.2213L5.77368 15.1779L14.936 39.9566L20.2276 38ZM11.0653 13.2213H5.42352V38H11.0653H16.7071V13.2213H11.0653ZM11.0653 38V32.3582H5.73946V38V43.6418H11.0653V38ZM5.73946 38H11.3813V5.86436H5.73946H0.0976691V38H5.73946ZM5.73946 5.86436V11.5061H13.638V5.86436V0.222568H5.73946V5.86436ZM13.638 5.86436L8.32507 7.7625L17.3068 32.9023L22.6197 31.0042L27.9326 29.106L18.9509 3.96621L13.638 5.86436ZM22.6197 31.0042L27.9535 32.8428L36.6193 7.70294L31.2855 5.86436L25.9517 4.02578L17.2859 29.1656L22.6197 31.0042ZM31.2855 5.86436V11.5061H39.1389V5.86436V0.222568H31.2855V5.86436ZM56.0043 5.81922L61.2681 3.78899C60.4288 1.61277 58.3368 0.177431 56.0043 0.177431V5.81922ZM68.4162 38V43.6418C70.2759 43.6418 72.0162 42.7253 73.0683 41.1918C74.1205 39.6584 74.3493 37.7049 73.6801 35.9698L68.4162 38ZM62.3682 38L57.0596 39.91C57.8651 42.1489 59.9888 43.6418 62.3682 43.6418V38ZM59.2991 29.4696L64.6077 27.5596C63.8022 25.3207 61.6785 23.8278 59.2991 23.8278V29.4696ZM46.5712 29.4696V23.8278C44.2111 23.8278 42.1003 25.2969 41.2806 27.5101L46.5712 29.4696ZM43.4118 38V43.6418C45.772 43.6418 47.8827 42.1727 48.7024 39.9595L43.4118 38ZM37.5895 38L32.3257 35.9698C31.6564 37.7049 31.8853 39.6584 32.9374 41.1918C33.9895 42.7253 35.7298 43.6418 37.5895 43.6418V38ZM50.0014 5.81922V0.177431C47.6689 0.177431 45.5769 1.61277 44.7376 3.78899L50.0014 5.81922ZM57.8097 25.227V30.8688C59.641 30.8688 61.3584 29.9799 62.4159 28.4847C63.4733 26.9896 63.7393 25.0741 63.1292 23.3474L57.8097 25.227ZM53.0254 11.6867L58.3449 9.80713C57.5533 7.56681 55.443 6.06256 53.067 6.04505C50.691 6.02754 48.5587 7.50053 47.7342 9.72894L53.0254 11.6867ZM48.0155 25.227L42.7243 23.2692C42.0837 25.0005 42.3306 26.9357 43.3854 28.4507C44.4403 29.9657 46.1695 30.8688 48.0155 30.8688V25.227ZM56.0043 5.81922L50.7405 7.84945L63.1524 40.0302L68.4162 38L73.6801 35.9698L61.2681 3.78899L56.0043 5.81922ZM68.4162 38V32.3582H62.3682V38V43.6418H68.4162V38ZM62.3682 38L67.6769 36.09L64.6077 27.5596L59.2991 29.4696L53.9905 31.3796L57.0596 39.91L62.3682 38ZM59.2991 29.4696V23.8278H46.5712V29.4696V35.1114H59.2991V29.4696ZM46.5712 29.4696L41.2806 27.5101L38.1212 36.0405L43.4118 38L48.7024 39.9595L51.8618 31.4291L46.5712 29.4696ZM43.4118 38V32.3582H37.5895V38V43.6418H43.4118V38ZM37.5895 38L42.8533 40.0302L55.2653 7.84945L50.0014 5.81922L44.7376 3.78899L32.3257 35.9698L37.5895 38ZM50.0014 5.81922V11.461H56.0043V5.81922V0.177431H50.0014V5.81922ZM57.8097 25.227L63.1292 23.3474L58.3449 9.80713L53.0254 11.6867L47.7059 13.5662L52.4902 27.1065L57.8097 25.227ZM53.0254 11.6867L47.7342 9.72894L42.7243 23.2692L48.0155 25.227L53.3067 27.1847L58.3166 13.6444L53.0254 11.6867ZM48.0155 25.227V30.8688H57.8097V25.227V19.5852H48.0155V25.227ZM67.0167 5.86436V0.222568C63.9008 0.222568 61.3749 2.74848 61.3749 5.86436H67.0167ZM89.1325 8.34675L85.5208 12.6809C85.5444 12.7006 85.5682 12.7201 85.5922 12.7394L89.1325 8.34675ZM89.3582 22.9703L93.2475 27.0573C93.2589 27.0464 93.2703 27.0355 93.2816 27.0245L89.3582 22.9703ZM72.6585 25.6332V19.9914C69.5426 19.9914 67.0167 22.5173 67.0167 25.6332H72.6585ZM72.6585 38V43.6418C75.7744 43.6418 78.3003 41.1159 78.3003 38H72.6585ZM67.0167 38H61.3749C61.3749 41.1159 63.9008 43.6418 67.0167 43.6418V38ZM72.6585 10.5583V4.91654C69.5426 4.91654 67.0167 7.44245 67.0167 10.5583H72.6585ZM72.6585 21.0746H67.0167C67.0167 24.1905 69.5426 26.7164 72.6585 26.7164V21.0746ZM67.0167 5.86436V11.5061H80.9632V5.86436V0.222568H67.0167V5.86436ZM80.9632 5.86436V11.5061C83.5528 11.5061 84.8472 12.1196 85.5208 12.6809L89.1325 8.34675L92.7443 4.0126C89.4461 1.26405 85.2943 0.222568 80.9632 0.222568V5.86436ZM89.1325 8.34675L85.5922 12.7394C85.9484 13.0265 86.5147 13.6395 86.5147 15.6585H92.1565H97.7983C97.7983 11.1781 96.3487 6.91665 92.6729 3.95407L89.1325 8.34675ZM92.1565 15.6585H86.5147C86.5147 17.5003 86.0031 18.3661 85.4348 18.9161L89.3582 22.9703L93.2816 27.0245C96.4445 23.9637 97.7983 19.955 97.7983 15.6585H92.1565ZM89.3582 22.9703L85.469 18.8833C84.8984 19.4262 83.8819 19.9914 81.7305 19.9914V25.6332V31.275C86.0182 31.275 90.0869 30.0649 93.2475 27.0573L89.3582 22.9703ZM81.7305 25.6332V19.9914H72.6585V25.6332V31.275H81.7305V25.6332ZM72.6585 25.6332H67.0167V38H72.6585H78.3003V25.6332H72.6585ZM72.6585 38V32.3582H67.0167V38V43.6418H72.6585V38ZM67.0167 38H72.6585V5.86436H67.0167H61.3749V38H67.0167ZM72.6585 10.5583H67.0167V21.0746H72.6585H78.3003V10.5583H72.6585ZM72.6585 21.0746V26.7164H80.5119V21.0746V15.4328H72.6585V21.0746ZM80.5119 21.0746V26.7164C83.2371 26.7164 86.3341 26.1484 88.795 24.0313C91.4183 21.7745 92.2919 18.6639 92.2919 15.7939H86.6502H81.0084C81.0084 16.1404 80.9567 16.1927 81.0058 16.0659C81.0317 15.999 81.0796 15.899 81.1595 15.7845C81.2401 15.6689 81.3354 15.5643 81.4362 15.4775C81.6444 15.2984 81.7685 15.2851 81.6422 15.3214C81.4994 15.3623 81.1488 15.4328 80.5119 15.4328V21.0746ZM86.6502 15.7939H92.2919C92.2919 12.7765 91.2689 9.63406 88.4864 7.43831C85.9585 5.44347 82.8164 4.91654 80.0154 4.91654V10.5583V16.2001C80.7687 16.2001 81.2344 16.2764 81.4829 16.3417C81.7217 16.4046 81.6696 16.4327 81.4965 16.2961C81.41 16.2279 81.3147 16.1347 81.2261 16.0182C81.1376 15.9019 81.0768 15.7897 81.0383 15.6987C80.9626 15.5193 81.0084 15.5081 81.0084 15.7939H86.6502ZM80.0154 10.5583V4.91654H72.6585V10.5583V16.2001H80.0154V10.5583Z" fill="#8F8F8F" mask="url(#path-1-outside-1_3189_1754)"/>
</svg>
