<svg width="57" height="58" viewBox="0 0 57 58" fill="none" xmlns="http://www.w3.org/2000/svg">
<path d="M53.9863 24.5859C53.9863 23.0176 52.7148 21.7461 51.1465 21.7461C42.4493 21.7461 35.4004 14.6959 35.4004 5.99805C35.4004 4.42984 34.1287 3.15838 32.5605 3.1582H24.2988C22.7305 3.1582 21.459 4.42973 21.459 5.99805C21.459 14.5595 14.6271 21.5238 6.11719 21.7393L5.71094 21.7441C4.14271 21.7441 2.87127 23.0158 2.87109 24.584V32.8457C2.87109 34.414 4.1426 35.6855 5.71094 35.6855C14.408 35.6855 21.457 42.7359 21.457 51.4336L21.4717 51.7236C21.6169 53.1557 22.8265 54.2734 24.2969 54.2734H32.5586L32.8486 54.2588C34.2807 54.1135 35.3984 52.904 35.3984 51.4336C35.3984 42.7365 42.4486 35.6875 51.1465 35.6875C52.7147 35.6875 53.9862 34.4159 53.9863 32.8477V24.5859Z" stroke="#CFF665" stroke-width="5.67944" stroke-linejoin="round"/>
</svg>
