<svg width="319" height="330" viewBox="0 0 319 330" fill="none" xmlns="http://www.w3.org/2000/svg">
<mask id="path-1-outside-1_3143_4584" maskUnits="userSpaceOnUse" x="0" y="0" width="319" height="330" fill="black">
<rect fill="white" width="319" height="330"/>
<path d="M18.384 18.864H38.48L53.072 80.816L69.072 18.864H87.888L103.632 81.584L118.736 18.864H138.448L113.872 110H93.904L78.288 47.792L62.928 110H42.576L18.384 18.864ZM212.091 18.864V110H192.123V70.704H154.875V110H134.907V18.864H154.875V53.168H192.123V18.864H212.091ZM258.198 16.688C271.51 16.688 282.262 21.1253 290.454 30C298.731 38.7893 302.87 50.3093 302.87 64.56C302.87 78.8107 298.731 90.3307 290.454 99.12C282.262 107.824 271.467 112.176 258.07 112.176C244.587 112.176 233.707 107.824 225.43 99.12C217.153 90.3307 213.014 78.8107 213.014 64.56C213.014 50.1387 217.11 38.576 225.302 29.872C233.579 21.0827 244.545 16.688 258.198 16.688ZM257.942 33.072C250.433 33.072 244.417 35.888 239.894 41.52C235.457 47.152 233.238 54.704 233.238 64.176C233.238 73.9893 235.457 81.6693 239.894 87.216C244.331 92.7627 250.433 95.5787 258.198 95.664C265.793 95.664 271.766 92.848 276.118 87.216C280.47 81.584 282.646 73.904 282.646 64.176C282.646 54.6187 280.427 47.0667 275.99 41.52C271.553 35.888 265.537 33.072 257.942 33.072ZM72.144 120.736L106.832 212H85.84L78.672 191.648H44.752L37.328 212H16.848L51.536 120.736H72.144ZM73.808 177.056L61.776 143.136L49.616 177.056H73.808ZM102.425 120.864H147.737C156.782 120.864 164.164 122.997 169.881 127.264C175.598 131.531 178.457 138.016 178.457 146.72C178.457 152.011 177.177 156.661 174.617 160.672C172.057 164.597 168.516 167.413 163.993 169.12C171.844 170.741 176.324 177.824 177.433 190.368C177.433 190.795 177.518 192.117 177.689 194.336C177.86 196.555 178.03 198.347 178.201 199.712C178.372 200.992 178.585 202.571 178.841 204.448C179.097 206.325 179.481 207.904 179.993 209.184C180.505 210.464 181.102 211.403 181.785 212H161.049C160.366 210.635 159.854 208.928 159.513 206.88C159.172 204.747 158.873 202.059 158.617 198.816C158.361 195.488 158.233 193.653 158.233 193.312C157.55 186.912 155.929 182.475 153.369 180C150.894 177.525 146.457 176.288 140.057 176.288H122.265V212H102.425V120.864ZM122.265 136.608V161.824H141.209C146.756 161.824 151.065 160.971 154.137 159.264C157.294 157.472 158.873 154.016 158.873 148.896C158.873 144.117 157.337 140.875 154.265 139.168C151.278 137.461 147.225 136.608 142.105 136.608H122.265ZM249.584 120.864V137.248H201.072V157.088H245.616V172.832H201.072V195.232H250.48V212H181.232V120.864H249.584ZM18.384 222.864H38.48L53.072 284.816L69.072 222.864H87.888L103.632 285.584L118.736 222.864H138.448L113.872 314H93.904L78.288 251.792L62.928 314H42.576L18.384 222.864ZM203.259 222.864V239.248H154.747V259.088H199.291V274.832H154.747V297.232H204.155V314H134.907V222.864H203.259ZM200.243 252.304C200.84 242.491 203.87 234.811 209.331 229.264C214.792 223.717 222.515 220.944 232.499 220.944C241.63 220.944 248.968 223.376 254.515 228.24C260.062 233.019 262.835 239.333 262.835 247.184C262.835 252.133 261.555 256.4 258.995 259.984C256.52 263.568 252.979 266.939 248.371 270.096C244.616 272.656 242.184 274.96 241.075 277.008C239.966 278.971 239.411 282.171 239.411 286.608H222.387C222.387 280.635 222.856 276.069 223.795 272.912C224.819 269.669 227.294 266.384 231.219 263.056C231.731 262.629 232.798 261.776 234.419 260.496C236.04 259.216 237.192 258.235 237.875 257.552C238.558 256.869 239.411 255.931 240.435 254.736C241.459 253.541 242.184 252.304 242.611 251.024C243.038 249.744 243.251 248.336 243.251 246.8C243.251 243.728 242.227 241.253 240.179 239.376C238.216 237.499 235.571 236.56 232.243 236.56C223.71 236.56 219.272 241.808 218.931 252.304H200.243ZM240.691 294.416V314H220.851V294.416H240.691Z"/>
</mask>
<path d="M18.384 18.864H38.48L53.072 80.816L69.072 18.864H87.888L103.632 81.584L118.736 18.864H138.448L113.872 110H93.904L78.288 47.792L62.928 110H42.576L18.384 18.864ZM212.091 18.864V110H192.123V70.704H154.875V110H134.907V18.864H154.875V53.168H192.123V18.864H212.091ZM258.198 16.688C271.51 16.688 282.262 21.1253 290.454 30C298.731 38.7893 302.87 50.3093 302.87 64.56C302.87 78.8107 298.731 90.3307 290.454 99.12C282.262 107.824 271.467 112.176 258.07 112.176C244.587 112.176 233.707 107.824 225.43 99.12C217.153 90.3307 213.014 78.8107 213.014 64.56C213.014 50.1387 217.11 38.576 225.302 29.872C233.579 21.0827 244.545 16.688 258.198 16.688ZM257.942 33.072C250.433 33.072 244.417 35.888 239.894 41.52C235.457 47.152 233.238 54.704 233.238 64.176C233.238 73.9893 235.457 81.6693 239.894 87.216C244.331 92.7627 250.433 95.5787 258.198 95.664C265.793 95.664 271.766 92.848 276.118 87.216C280.47 81.584 282.646 73.904 282.646 64.176C282.646 54.6187 280.427 47.0667 275.99 41.52C271.553 35.888 265.537 33.072 257.942 33.072ZM72.144 120.736L106.832 212H85.84L78.672 191.648H44.752L37.328 212H16.848L51.536 120.736H72.144ZM73.808 177.056L61.776 143.136L49.616 177.056H73.808ZM102.425 120.864H147.737C156.782 120.864 164.164 122.997 169.881 127.264C175.598 131.531 178.457 138.016 178.457 146.72C178.457 152.011 177.177 156.661 174.617 160.672C172.057 164.597 168.516 167.413 163.993 169.12C171.844 170.741 176.324 177.824 177.433 190.368C177.433 190.795 177.518 192.117 177.689 194.336C177.86 196.555 178.03 198.347 178.201 199.712C178.372 200.992 178.585 202.571 178.841 204.448C179.097 206.325 179.481 207.904 179.993 209.184C180.505 210.464 181.102 211.403 181.785 212H161.049C160.366 210.635 159.854 208.928 159.513 206.88C159.172 204.747 158.873 202.059 158.617 198.816C158.361 195.488 158.233 193.653 158.233 193.312C157.55 186.912 155.929 182.475 153.369 180C150.894 177.525 146.457 176.288 140.057 176.288H122.265V212H102.425V120.864ZM122.265 136.608V161.824H141.209C146.756 161.824 151.065 160.971 154.137 159.264C157.294 157.472 158.873 154.016 158.873 148.896C158.873 144.117 157.337 140.875 154.265 139.168C151.278 137.461 147.225 136.608 142.105 136.608H122.265ZM249.584 120.864V137.248H201.072V157.088H245.616V172.832H201.072V195.232H250.48V212H181.232V120.864H249.584ZM18.384 222.864H38.48L53.072 284.816L69.072 222.864H87.888L103.632 285.584L118.736 222.864H138.448L113.872 314H93.904L78.288 251.792L62.928 314H42.576L18.384 222.864ZM203.259 222.864V239.248H154.747V259.088H199.291V274.832H154.747V297.232H204.155V314H134.907V222.864H203.259ZM200.243 252.304C200.84 242.491 203.87 234.811 209.331 229.264C214.792 223.717 222.515 220.944 232.499 220.944C241.63 220.944 248.968 223.376 254.515 228.24C260.062 233.019 262.835 239.333 262.835 247.184C262.835 252.133 261.555 256.4 258.995 259.984C256.52 263.568 252.979 266.939 248.371 270.096C244.616 272.656 242.184 274.96 241.075 277.008C239.966 278.971 239.411 282.171 239.411 286.608H222.387C222.387 280.635 222.856 276.069 223.795 272.912C224.819 269.669 227.294 266.384 231.219 263.056C231.731 262.629 232.798 261.776 234.419 260.496C236.04 259.216 237.192 258.235 237.875 257.552C238.558 256.869 239.411 255.931 240.435 254.736C241.459 253.541 242.184 252.304 242.611 251.024C243.038 249.744 243.251 248.336 243.251 246.8C243.251 243.728 242.227 241.253 240.179 239.376C238.216 237.499 235.571 236.56 232.243 236.56C223.71 236.56 219.272 241.808 218.931 252.304H200.243ZM240.691 294.416V314H220.851V294.416H240.691Z" fill="#CFF665"/>
<path d="M18.384 18.864V2.864C13.4163 2.864 8.73045 5.17142 5.70172 9.10901C2.673 13.0466 1.64504 18.1676 2.91956 22.969L18.384 18.864ZM38.48 18.864L54.0538 15.1958C52.3519 7.97006 45.9034 2.864 38.48 2.864V18.864ZM53.072 80.816L37.4982 84.4842C39.1854 91.6477 45.5416 96.7363 52.9006 96.8151C60.2597 96.8939 66.7234 91.9426 68.5637 84.8169L53.072 80.816ZM69.072 18.864V2.864C61.7764 2.864 55.4047 7.79922 53.5803 14.863L69.072 18.864ZM87.888 18.864L103.407 14.9685C101.62 7.85312 95.2242 2.864 87.888 2.864V18.864ZM103.632 81.584L88.1135 85.4795C89.9066 92.6227 96.3442 97.6192 103.709 97.5838C111.074 97.5484 117.463 92.4901 119.187 85.33L103.632 81.584ZM118.736 18.864V2.864C111.342 2.864 104.912 7.92993 103.181 15.118L118.736 18.864ZM138.448 18.864L153.896 23.0298C155.192 18.2228 154.177 13.0863 151.149 9.13396C148.122 5.18165 143.427 2.864 138.448 2.864V18.864ZM113.872 110V126C121.104 126 127.437 121.149 129.32 114.166L113.872 110ZM93.904 110L78.3855 113.896C80.1716 121.011 86.5679 126 93.904 126V110ZM78.288 47.792L93.8065 43.8964C92.0175 36.7698 85.6047 31.7778 78.257 31.792C70.9094 31.8063 64.5159 36.8231 62.7545 43.9566L78.288 47.792ZM62.928 110V126C70.2872 126 76.6974 120.98 78.4615 113.835L62.928 110ZM42.576 110L27.1116 114.105C28.9731 121.118 35.3204 126 42.576 126V110ZM18.384 18.864V34.864H38.48V18.864V2.864H18.384V18.864ZM38.48 18.864L22.9062 22.5322L37.4982 84.4842L53.072 80.816L68.6458 77.1478L54.0538 15.1958L38.48 18.864ZM53.072 80.816L68.5637 84.8169L84.5637 22.865L69.072 18.864L53.5803 14.863L37.5803 76.815L53.072 80.816ZM69.072 18.864V34.864H87.888V18.864V2.864H69.072V18.864ZM87.888 18.864L72.3695 22.7595L88.1135 85.4795L103.632 81.584L119.151 77.6885L103.407 14.9685L87.888 18.864ZM103.632 81.584L119.187 85.33L134.291 22.61L118.736 18.864L103.181 15.118L88.0767 77.838L103.632 81.584ZM118.736 18.864V34.864H138.448V18.864V2.864H118.736V18.864ZM138.448 18.864L123 14.6982L98.4238 105.834L113.872 110L129.32 114.166L153.896 23.0298L138.448 18.864ZM113.872 110V94H93.904V110V126H113.872V110ZM93.904 110L109.423 106.104L93.8065 43.8964L78.288 47.792L62.7695 51.6876L78.3855 113.896L93.904 110ZM78.288 47.792L62.7545 43.9566L47.3945 106.165L62.928 110L78.4615 113.835L93.8215 51.6274L78.288 47.792ZM62.928 110V94H42.576V110V126H62.928V110ZM42.576 110L58.0404 105.895L33.8484 14.759L18.384 18.864L2.91956 22.969L27.1116 114.105L42.576 110ZM212.091 18.864H228.091C228.091 10.0274 220.928 2.864 212.091 2.864V18.864ZM212.091 110V126C220.928 126 228.091 118.837 228.091 110H212.091ZM192.123 110H176.123C176.123 118.837 183.286 126 192.123 126V110ZM192.123 70.704H208.123C208.123 61.8674 200.96 54.704 192.123 54.704V70.704ZM154.875 70.704V54.704C146.038 54.704 138.875 61.8674 138.875 70.704H154.875ZM154.875 110V126C163.712 126 170.875 118.837 170.875 110H154.875ZM134.907 110H118.907C118.907 118.837 126.07 126 134.907 126V110ZM134.907 18.864V2.864C126.07 2.864 118.907 10.0274 118.907 18.864H134.907ZM154.875 18.864H170.875C170.875 10.0274 163.712 2.864 154.875 2.864V18.864ZM154.875 53.168H138.875C138.875 62.0046 146.038 69.168 154.875 69.168V53.168ZM192.123 53.168V69.168C200.96 69.168 208.123 62.0046 208.123 53.168H192.123ZM192.123 18.864V2.864C183.286 2.864 176.123 10.0274 176.123 18.864H192.123ZM212.091 18.864H196.091V110H212.091H228.091V18.864H212.091ZM212.091 110V94H192.123V110V126H212.091V110ZM192.123 110H208.123V70.704H192.123H176.123V110H192.123ZM192.123 70.704V54.704H154.875V70.704V86.704H192.123V70.704ZM154.875 70.704H138.875V110H154.875H170.875V70.704H154.875ZM154.875 110V94H134.907V110V126H154.875V110ZM134.907 110H150.907V18.864H134.907H118.907V110H134.907ZM134.907 18.864V34.864H154.875V18.864V2.864H134.907V18.864ZM154.875 18.864H138.875V53.168H154.875H170.875V18.864H154.875ZM154.875 53.168V69.168H192.123V53.168V37.168H154.875V53.168ZM192.123 53.168H208.123V18.864H192.123H176.123V53.168H192.123ZM192.123 18.864V34.864H212.091V18.864V2.864H192.123V18.864ZM290.454 30L278.697 40.8525C278.733 40.8916 278.77 40.9306 278.806 40.9694L290.454 30ZM290.454 99.12L278.806 88.1506L278.803 88.1542L290.454 99.12ZM225.43 99.12L213.782 110.089C213.8 110.108 213.818 110.127 213.836 110.146L225.43 99.12ZM225.302 29.872L213.654 18.9026L213.651 18.9062L225.302 29.872ZM239.894 41.52L227.419 31.5018C227.388 31.5404 227.357 31.5792 227.326 31.618L239.894 41.52ZM239.894 87.216L227.4 97.2111L239.894 87.216ZM258.198 95.664L258.022 111.663C258.081 111.664 258.139 111.664 258.198 111.664V95.664ZM276.118 87.216L288.779 96.9992L276.118 87.216ZM275.99 41.52L263.422 51.422C263.447 51.4531 263.471 51.4842 263.496 51.5151L275.99 41.52ZM258.198 16.688V32.688C267.552 32.688 273.862 35.6145 278.697 40.8525L290.454 30L302.211 19.1475C290.662 6.6362 275.468 0.687996 258.198 0.687996V16.688ZM290.454 30L278.806 40.9694C283.793 46.265 286.87 53.6029 286.87 64.56H302.87H318.87C318.87 47.0158 313.669 31.3136 302.102 19.0306L290.454 30ZM302.87 64.56H286.87C286.87 75.5171 283.793 82.855 278.806 88.1506L290.454 99.12L302.102 110.089C313.669 97.8064 318.87 82.1042 318.87 64.56H302.87ZM290.454 99.12L278.803 88.1542C274.015 93.2409 267.644 96.176 258.07 96.176V112.176V128.176C275.291 128.176 290.509 122.407 302.105 110.086L290.454 99.12ZM258.07 112.176V96.176C248.379 96.176 241.897 93.2177 237.024 88.094L225.43 99.12L213.836 110.146C225.518 122.43 240.796 128.176 258.07 128.176V112.176ZM225.43 99.12L237.078 88.1506C232.091 82.855 229.014 75.5171 229.014 64.56H213.014H197.014C197.014 82.1042 202.215 97.8064 213.782 110.089L225.43 99.12ZM213.014 64.56H229.014C229.014 53.3233 232.111 45.983 236.953 40.8378L225.302 29.872L213.651 18.9062C202.109 31.169 197.014 46.954 197.014 64.56H213.014ZM225.302 29.872L236.95 40.8414C241.794 35.6972 248.32 32.688 258.198 32.688V16.688V0.687996C240.77 0.687996 225.364 6.46808 213.654 18.9026L225.302 29.872ZM257.942 33.072V17.072C245.805 17.072 235.115 21.9179 227.419 31.5018L239.894 41.52L252.369 51.5382C253.719 49.8581 255.06 49.072 257.942 49.072V33.072ZM239.894 41.52L227.326 31.618C220.043 40.8624 217.238 52.2676 217.238 64.176H233.238H249.238C249.238 57.1404 250.871 53.4416 252.462 51.422L239.894 41.52ZM233.238 64.176H217.238C217.238 76.2525 219.964 87.9162 227.4 97.2111L239.894 87.216L252.388 77.2209C250.949 75.4225 249.238 71.7262 249.238 64.176H233.238ZM239.894 87.216L227.4 97.2111C235.14 106.886 245.968 111.531 258.022 111.663L258.198 95.664L258.374 79.665C254.898 79.6268 253.523 78.6397 252.388 77.2209L239.894 87.216ZM258.198 95.664V111.664C270.363 111.664 281.169 106.847 288.779 96.9992L276.118 87.216L263.457 77.4328C262.363 78.8493 261.222 79.664 258.198 79.664V95.664ZM276.118 87.216L288.779 96.9992C295.967 87.6962 298.646 76.1618 298.646 64.176H282.646H266.646C266.646 71.6462 264.973 75.4718 263.457 77.4328L276.118 87.216ZM282.646 64.176H298.646C298.646 52.238 295.866 40.7525 288.484 31.5249L275.99 41.52L263.496 51.5151C264.989 53.3809 266.646 56.9993 266.646 64.176H282.646ZM275.99 41.52L288.558 31.618C280.885 21.8792 270.103 17.072 257.942 17.072V33.072V49.072C260.97 49.072 262.22 49.8968 263.422 51.422L275.99 41.52ZM72.144 120.736L87.1001 115.051C84.7398 108.841 78.7875 104.736 72.144 104.736V120.736ZM106.832 212V228C112.092 228 117.016 225.414 120.003 221.084C122.99 216.754 123.657 211.232 121.788 206.315L106.832 212ZM85.84 212L70.7487 217.315C73.0035 223.717 79.0524 228 85.84 228V212ZM78.672 191.648L93.7634 186.333C91.5085 179.931 85.4596 175.648 78.672 175.648V191.648ZM44.752 191.648V175.648C38.0298 175.648 32.0245 179.85 29.7208 186.165L44.752 191.648ZM37.328 212V228C44.0502 228 50.0555 223.798 52.3592 217.483L37.328 212ZM16.848 212L1.89188 206.315C0.0229816 211.232 0.690357 216.754 3.67695 221.084C6.66353 225.414 11.5877 228 16.848 228V212ZM51.536 120.736V104.736C44.8925 104.736 38.9402 108.841 36.5799 115.051L51.536 120.736ZM73.808 177.056V193.056C79.0051 193.056 83.8784 190.532 86.8767 186.287C89.8751 182.042 90.6248 176.605 88.8874 171.707L73.808 177.056ZM61.776 143.136L76.8554 137.787C74.594 131.412 68.5674 127.147 61.8028 127.136C55.0382 127.125 48.9974 131.369 46.7146 137.737L61.776 143.136ZM49.616 177.056L34.5546 171.657C32.7976 176.558 33.5352 182.007 36.5318 186.265C39.5285 190.523 44.4095 193.056 49.616 193.056V177.056ZM72.144 120.736L57.1879 126.421L91.8759 217.685L106.832 212L121.788 206.315L87.1001 115.051L72.144 120.736ZM106.832 212V196H85.84V212V228H106.832V212ZM85.84 212L100.931 206.685L93.7634 186.333L78.672 191.648L63.5807 196.963L70.7487 217.315L85.84 212ZM78.672 191.648V175.648H44.752V191.648V207.648H78.672V191.648ZM44.752 191.648L29.7208 186.165L22.2968 206.517L37.328 212L52.3592 217.483L59.7832 197.131L44.752 191.648ZM37.328 212V196H16.848V212V228H37.328V212ZM16.848 212L31.8041 217.685L66.4921 126.421L51.536 120.736L36.5799 115.051L1.89188 206.315L16.848 212ZM51.536 120.736V136.736H72.144V120.736V104.736H51.536V120.736ZM73.808 177.056L88.8874 171.707L76.8554 137.787L61.776 143.136L46.6966 148.485L58.7286 182.405L73.808 177.056ZM61.776 143.136L46.7146 137.737L34.5546 171.657L49.616 177.056L64.6774 182.455L76.8374 148.535L61.776 143.136ZM49.616 177.056V193.056H73.808V177.056V161.056H49.616V177.056ZM102.425 120.864V104.864C93.5884 104.864 86.425 112.027 86.425 120.864H102.425ZM169.881 127.264L179.45 114.441L179.45 114.441L169.881 127.264ZM174.617 160.672L188.019 169.412C188.047 169.369 188.076 169.325 188.104 169.281L174.617 160.672ZM163.993 169.12L158.344 154.15C151.682 156.664 147.483 163.278 148.042 170.376C148.601 177.474 153.784 183.349 160.757 184.789L163.993 169.12ZM177.433 190.368H193.433C193.433 189.897 193.412 189.427 193.371 188.959L177.433 190.368ZM177.689 194.336L193.642 193.109V193.109L177.689 194.336ZM178.201 199.712L162.325 201.697C162.33 201.74 162.336 201.783 162.341 201.827L178.201 199.712ZM178.841 204.448L194.694 202.286V202.286L178.841 204.448ZM179.993 209.184L194.849 203.242L194.849 203.242L179.993 209.184ZM181.785 212V228C188.451 228 194.418 223.867 196.763 217.628C199.107 211.388 197.338 204.348 192.321 199.959L181.785 212ZM161.049 212L146.738 219.155C149.448 224.576 154.989 228 161.049 228V212ZM159.513 206.88L143.714 209.408C143.719 209.442 143.725 209.476 143.731 209.51L159.513 206.88ZM158.617 198.816L142.664 200.043C142.665 200.054 142.666 200.065 142.667 200.075L158.617 198.816ZM158.233 193.312H174.233C174.233 192.745 174.203 192.179 174.143 191.615L158.233 193.312ZM153.369 180L142.055 191.314C142.119 191.378 142.184 191.441 142.249 191.504L153.369 180ZM122.265 176.288V160.288C113.428 160.288 106.265 167.451 106.265 176.288H122.265ZM122.265 212V228C131.102 228 138.265 220.837 138.265 212H122.265ZM102.425 212H86.425C86.425 220.837 93.5884 228 102.425 228V212ZM122.265 136.608V120.608C113.428 120.608 106.265 127.771 106.265 136.608H122.265ZM122.265 161.824H106.265C106.265 170.661 113.428 177.824 122.265 177.824V161.824ZM154.137 159.264L161.907 173.251C161.95 173.227 161.992 173.203 162.035 173.179L154.137 159.264ZM154.265 139.168L146.327 153.06C146.383 153.092 146.439 153.123 146.495 153.155L154.265 139.168ZM102.425 120.864V136.864H147.737V120.864V104.864H102.425V120.864ZM147.737 120.864V136.864C154.267 136.864 158.023 138.379 160.312 140.087L169.881 127.264L179.45 114.441C170.305 107.616 159.298 104.864 147.737 104.864V120.864ZM169.881 127.264L160.312 140.087C161.079 140.66 162.457 141.822 162.457 146.72H178.457H194.457C194.457 134.21 190.117 122.401 179.45 114.441L169.881 127.264ZM178.457 146.72H162.457C162.457 149.313 161.869 150.906 161.13 152.063L174.617 160.672L188.104 169.281C192.485 162.416 194.457 154.708 194.457 146.72H178.457ZM174.617 160.672L161.215 151.932C160.574 152.915 159.794 153.603 158.344 154.15L163.993 169.12L169.642 184.09C177.238 181.223 183.54 176.279 188.019 169.412L174.617 160.672ZM163.993 169.12L160.757 184.789C160.702 184.778 160.388 184.69 160.022 184.431C159.669 184.182 159.596 184.007 159.719 184.201C160.083 184.776 161.062 186.875 161.495 191.777L177.433 190.368L193.371 188.959C192.695 181.317 190.879 173.603 186.763 167.095C182.32 160.071 175.618 155.183 167.229 153.451L163.993 169.12ZM177.433 190.368H161.433C161.433 191.572 161.591 193.678 161.736 195.563L177.689 194.336L193.642 193.109C193.559 192.028 193.5 191.216 193.464 190.65C193.445 190.365 193.435 190.181 193.43 190.076C193.422 189.907 193.433 190.066 193.433 190.368H177.433ZM177.689 194.336L161.736 195.563C161.916 197.901 162.109 199.975 162.325 201.697L178.201 199.712L194.077 197.727C193.951 196.719 193.803 195.208 193.642 193.109L177.689 194.336ZM178.201 199.712L162.341 201.827C162.515 203.128 162.73 204.723 162.988 206.61L178.841 204.448L194.694 202.286C194.44 200.418 194.229 198.856 194.061 197.597L178.201 199.712ZM178.841 204.448L162.988 206.61C163.36 209.337 163.997 212.275 165.137 215.126L179.993 209.184L194.849 203.242C194.918 203.416 194.911 203.438 194.868 203.258C194.825 203.082 194.76 202.767 194.694 202.286L178.841 204.448ZM179.993 209.184L165.137 215.126C166.143 217.64 167.932 221.139 171.249 224.041L181.785 212L192.321 199.959C193.351 200.86 193.982 201.721 194.324 202.258C194.667 202.798 194.819 203.168 194.849 203.242L179.993 209.184ZM181.785 212V196H161.049V212V228H181.785V212ZM161.049 212L175.36 204.845C175.491 205.106 175.513 205.213 175.478 205.098C175.444 204.986 175.373 204.715 175.295 204.25L159.513 206.88L143.731 209.51C144.247 212.606 145.138 215.955 146.738 219.155L161.049 212ZM159.513 206.88L175.312 204.352C175.062 202.792 174.805 200.564 174.567 197.557L158.617 198.816L142.667 200.075C142.941 203.554 143.281 206.701 143.714 209.408L159.513 206.88ZM158.617 198.816L174.57 197.589C174.443 195.938 174.35 194.691 174.29 193.83C174.26 193.396 174.24 193.097 174.229 192.908C174.224 192.813 174.222 192.781 174.223 192.794C174.223 192.802 174.225 192.843 174.227 192.909C174.229 192.96 174.233 193.11 174.233 193.312H158.233H142.233C142.233 194.459 142.449 197.243 142.664 200.043L158.617 198.816ZM158.233 193.312L174.143 191.615C173.348 184.164 171.197 174.98 164.489 168.496L153.369 180L142.249 191.504C141.315 190.602 141.237 190.02 141.477 190.675C141.712 191.319 142.074 192.672 142.323 195.009L158.233 193.312ZM153.369 180L164.683 168.686C157.528 161.531 147.513 160.288 140.057 160.288V176.288V192.288C141.151 192.288 142.014 192.341 142.674 192.417C143.338 192.492 143.723 192.582 143.887 192.628C144.267 192.734 143.286 192.544 142.055 191.314L153.369 180ZM140.057 176.288V160.288H122.265V176.288V192.288H140.057V176.288ZM122.265 176.288H106.265V212H122.265H138.265V176.288H122.265ZM122.265 212V196H102.425V212V228H122.265V212ZM102.425 212H118.425V120.864H102.425H86.425V212H102.425ZM122.265 136.608H106.265V161.824H122.265H138.265V136.608H122.265ZM122.265 161.824V177.824H141.209V161.824V145.824H122.265V161.824ZM141.209 161.824V177.824C148.053 177.824 155.466 176.829 161.907 173.251L154.137 159.264L146.367 145.277C146.598 145.149 146.404 145.308 145.493 145.489C144.587 145.668 143.197 145.824 141.209 145.824V161.824ZM154.137 159.264L162.035 173.179C172.138 167.445 174.873 157.133 174.873 148.896H158.873H142.873C142.873 149.917 142.701 149.631 143.135 148.68C143.369 148.17 143.749 147.533 144.331 146.889C144.917 146.239 145.58 145.723 146.239 145.349L154.137 159.264ZM158.873 148.896H174.873C174.873 140.687 171.973 130.702 162.035 125.181L154.265 139.168L146.495 153.155C145.854 152.799 145.183 152.296 144.571 151.639C143.961 150.984 143.537 150.312 143.261 149.729C142.737 148.623 142.873 148.127 142.873 148.896H158.873ZM154.265 139.168L162.203 125.276C155.899 121.674 148.748 120.608 142.105 120.608V136.608V152.608C143.806 152.608 144.965 152.752 145.689 152.905C146.407 153.056 146.54 153.182 146.327 153.06L154.265 139.168ZM142.105 136.608V120.608H122.265V136.608V152.608H142.105V136.608ZM249.584 120.864H265.584C265.584 112.027 258.421 104.864 249.584 104.864V120.864ZM249.584 137.248V153.248C258.421 153.248 265.584 146.085 265.584 137.248H249.584ZM201.072 137.248V121.248C192.235 121.248 185.072 128.411 185.072 137.248H201.072ZM201.072 157.088H185.072C185.072 165.925 192.235 173.088 201.072 173.088V157.088ZM245.616 157.088H261.616C261.616 148.251 254.453 141.088 245.616 141.088V157.088ZM245.616 172.832V188.832C254.453 188.832 261.616 181.669 261.616 172.832H245.616ZM201.072 172.832V156.832C192.235 156.832 185.072 163.995 185.072 172.832H201.072ZM201.072 195.232H185.072C185.072 204.069 192.235 211.232 201.072 211.232V195.232ZM250.48 195.232H266.48C266.48 186.395 259.317 179.232 250.48 179.232V195.232ZM250.48 212V228C259.317 228 266.48 220.837 266.48 212H250.48ZM181.232 212H165.232C165.232 220.837 172.395 228 181.232 228V212ZM181.232 120.864V104.864C172.395 104.864 165.232 112.027 165.232 120.864H181.232ZM249.584 120.864H233.584V137.248H249.584H265.584V120.864H249.584ZM249.584 137.248V121.248H201.072V137.248V153.248H249.584V137.248ZM201.072 137.248H185.072V157.088H201.072H217.072V137.248H201.072ZM201.072 157.088V173.088H245.616V157.088V141.088H201.072V157.088ZM245.616 157.088H229.616V172.832H245.616H261.616V157.088H245.616ZM245.616 172.832V156.832H201.072V172.832V188.832H245.616V172.832ZM201.072 172.832H185.072V195.232H201.072H217.072V172.832H201.072ZM201.072 195.232V211.232H250.48V195.232V179.232H201.072V195.232ZM250.48 195.232H234.48V212H250.48H266.48V195.232H250.48ZM250.48 212V196H181.232V212V228H250.48V212ZM181.232 212H197.232V120.864H181.232H165.232V212H181.232ZM181.232 120.864V136.864H249.584V120.864V104.864H181.232V120.864ZM18.384 222.864V206.864C13.4163 206.864 8.73045 209.171 5.70172 213.109C2.673 217.047 1.64504 222.168 2.91956 226.969L18.384 222.864ZM38.48 222.864L54.0538 219.196C52.3519 211.97 45.9034 206.864 38.48 206.864V222.864ZM53.072 284.816L37.4982 288.484C39.1854 295.648 45.5416 300.736 52.9006 300.815C60.2597 300.894 66.7234 295.943 68.5637 288.817L53.072 284.816ZM69.072 222.864V206.864C61.7764 206.864 55.4047 211.799 53.5803 218.863L69.072 222.864ZM87.888 222.864L103.407 218.969C101.62 211.853 95.2242 206.864 87.888 206.864V222.864ZM103.632 285.584L88.1135 289.479C89.9066 296.623 96.3442 301.619 103.709 301.584C111.074 301.548 117.463 296.49 119.187 289.33L103.632 285.584ZM118.736 222.864V206.864C111.342 206.864 104.912 211.93 103.181 219.118L118.736 222.864ZM138.448 222.864L153.896 227.03C155.192 222.223 154.177 217.086 151.149 213.134C148.122 209.182 143.427 206.864 138.448 206.864V222.864ZM113.872 314V330C121.104 330 127.437 325.149 129.32 318.166L113.872 314ZM93.904 314L78.3855 317.896C80.1716 325.011 86.5679 330 93.904 330V314ZM78.288 251.792L93.8065 247.896C92.0175 240.77 85.6047 235.778 78.257 235.792C70.9094 235.806 64.5159 240.823 62.7545 247.957L78.288 251.792ZM62.928 314V330C70.2872 330 76.6974 324.98 78.4615 317.835L62.928 314ZM42.576 314L27.1116 318.105C28.9731 325.118 35.3204 330 42.576 330V314ZM18.384 222.864V238.864H38.48V222.864V206.864H18.384V222.864ZM38.48 222.864L22.9062 226.532L37.4982 288.484L53.072 284.816L68.6458 281.148L54.0538 219.196L38.48 222.864ZM53.072 284.816L68.5637 288.817L84.5637 226.865L69.072 222.864L53.5803 218.863L37.5803 280.815L53.072 284.816ZM69.072 222.864V238.864H87.888V222.864V206.864H69.072V222.864ZM87.888 222.864L72.3695 226.759L88.1135 289.479L103.632 285.584L119.151 281.689L103.407 218.969L87.888 222.864ZM103.632 285.584L119.187 289.33L134.291 226.61L118.736 222.864L103.181 219.118L88.0767 281.838L103.632 285.584ZM118.736 222.864V238.864H138.448V222.864V206.864H118.736V222.864ZM138.448 222.864L123 218.698L98.4238 309.834L113.872 314L129.32 318.166L153.896 227.03L138.448 222.864ZM113.872 314V298H93.904V314V330H113.872V314ZM93.904 314L109.423 310.104L93.8065 247.896L78.288 251.792L62.7695 255.688L78.3855 317.896L93.904 314ZM78.288 251.792L62.7545 247.957L47.3945 310.165L62.928 314L78.4615 317.835L93.8215 255.627L78.288 251.792ZM62.928 314V298H42.576V314V330H62.928V314ZM42.576 314L58.0404 309.895L33.8484 218.759L18.384 222.864L2.91956 226.969L27.1116 318.105L42.576 314ZM203.259 222.864H219.259C219.259 214.027 212.096 206.864 203.259 206.864V222.864ZM203.259 239.248V255.248C212.096 255.248 219.259 248.085 219.259 239.248H203.259ZM154.747 239.248V223.248C145.91 223.248 138.747 230.411 138.747 239.248H154.747ZM154.747 259.088H138.747C138.747 267.925 145.91 275.088 154.747 275.088V259.088ZM199.291 259.088H215.291C215.291 250.251 208.128 243.088 199.291 243.088V259.088ZM199.291 274.832V290.832C208.128 290.832 215.291 283.669 215.291 274.832H199.291ZM154.747 274.832V258.832C145.91 258.832 138.747 265.995 138.747 274.832H154.747ZM154.747 297.232H138.747C138.747 306.069 145.91 313.232 154.747 313.232V297.232ZM204.155 297.232H220.155C220.155 288.395 212.992 281.232 204.155 281.232V297.232ZM204.155 314V330C212.992 330 220.155 322.837 220.155 314H204.155ZM134.907 314H118.907C118.907 322.837 126.07 330 134.907 330V314ZM134.907 222.864V206.864C126.07 206.864 118.907 214.027 118.907 222.864H134.907ZM203.259 222.864H187.259V239.248H203.259H219.259V222.864H203.259ZM203.259 239.248V223.248H154.747V239.248V255.248H203.259V239.248ZM154.747 239.248H138.747V259.088H154.747H170.747V239.248H154.747ZM154.747 259.088V275.088H199.291V259.088V243.088H154.747V259.088ZM199.291 259.088H183.291V274.832H199.291H215.291V259.088H199.291ZM199.291 274.832V258.832H154.747V274.832V290.832H199.291V274.832ZM154.747 274.832H138.747V297.232H154.747H170.747V274.832H154.747ZM154.747 297.232V313.232H204.155V297.232V281.232H154.747V297.232ZM204.155 297.232H188.155V314H204.155H220.155V297.232H204.155ZM204.155 314V298H134.907V314V330H204.155V314ZM134.907 314H150.907V222.864H134.907H118.907V314H134.907ZM134.907 222.864V238.864H203.259V222.864V206.864H134.907V222.864ZM200.243 252.304L184.273 251.332C184.004 255.736 185.567 260.055 188.591 263.269C191.614 266.482 195.831 268.304 200.243 268.304V252.304ZM209.331 229.264L197.93 218.038H197.93L209.331 229.264ZM254.515 228.24L243.966 240.27C244.001 240.301 244.036 240.331 244.072 240.362L254.515 228.24ZM258.995 259.984L245.975 250.684C245.926 250.753 245.877 250.823 245.829 250.893L258.995 259.984ZM248.371 270.096L257.384 283.316C257.395 283.309 257.405 283.302 257.415 283.295L248.371 270.096ZM241.075 277.008L255.004 284.881C255.051 284.797 255.098 284.713 255.144 284.629L241.075 277.008ZM239.411 286.608V302.608C248.248 302.608 255.411 295.445 255.411 286.608H239.411ZM222.387 286.608H206.387C206.387 295.445 213.55 302.608 222.387 302.608V286.608ZM223.795 272.912L208.538 268.094C208.511 268.18 208.484 268.266 208.458 268.352L223.795 272.912ZM231.219 263.056L220.976 250.764C220.941 250.793 220.907 250.823 220.872 250.852L231.219 263.056ZM234.419 260.496L244.333 273.054H244.333L234.419 260.496ZM237.875 257.552L249.189 268.866L249.189 268.866L237.875 257.552ZM240.435 254.736L252.583 265.149V265.149L240.435 254.736ZM242.611 251.024L257.79 256.084V256.084L242.611 251.024ZM240.179 239.376L229.119 250.938C229.201 251.017 229.284 251.094 229.367 251.17L240.179 239.376ZM218.931 252.304V268.304C227.565 268.304 234.642 261.454 234.923 252.824L218.931 252.304ZM240.691 294.416H256.691C256.691 285.579 249.528 278.416 240.691 278.416V294.416ZM240.691 314V330C249.528 330 256.691 322.837 256.691 314H240.691ZM220.851 314H204.851C204.851 322.837 212.014 330 220.851 330V314ZM220.851 294.416V278.416C212.014 278.416 204.851 285.579 204.851 294.416H220.851ZM200.243 252.304L216.213 253.276C216.64 246.274 218.637 242.617 220.732 240.49L209.331 229.264L197.93 218.038C189.102 227.004 185.041 238.708 184.273 251.332L200.243 252.304ZM209.331 229.264L220.732 240.49C222.398 238.798 225.53 236.944 232.499 236.944V220.944V204.944C219.5 204.944 207.187 208.637 197.93 218.038L209.331 229.264ZM232.499 220.944V236.944C238.707 236.944 241.986 238.533 243.966 240.27L254.515 228.24L265.064 216.21C255.951 208.219 244.552 204.944 232.499 204.944V220.944ZM254.515 228.24L244.072 240.362C245.811 241.86 246.835 243.608 246.835 247.184H262.835H278.835C278.835 235.059 274.312 224.177 264.958 216.118L254.515 228.24ZM262.835 247.184H246.835C246.835 249.229 246.361 250.144 245.975 250.684L258.995 259.984L272.015 269.284C276.749 262.656 278.835 255.038 278.835 247.184H262.835ZM258.995 259.984L245.829 250.893C244.73 252.484 242.757 254.547 239.327 256.897L248.371 270.096L257.415 283.295C263.201 279.33 268.31 274.652 272.161 269.075L258.995 259.984ZM248.371 270.096L239.358 256.876C235.137 259.754 230.014 263.835 227.006 269.387L241.075 277.008L255.144 284.629C254.862 285.148 254.629 285.445 254.565 285.523C254.499 285.605 254.535 285.549 254.735 285.359C255.157 284.959 255.982 284.272 257.384 283.316L248.371 270.096ZM241.075 277.008L227.146 269.135C223.902 274.874 223.411 281.605 223.411 286.608H239.411H255.411C255.411 284.998 255.516 284.051 255.592 283.613C255.627 283.411 255.636 283.431 255.576 283.62C255.516 283.805 255.353 284.263 255.004 284.881L241.075 277.008ZM239.411 286.608V270.608H222.387V286.608V302.608H239.411V286.608ZM222.387 286.608H238.387C238.387 281.142 238.854 278.406 239.132 277.472L223.795 272.912L208.458 268.352C206.859 273.733 206.387 280.128 206.387 286.608H222.387ZM223.795 272.912L239.052 277.73C238.916 278.16 238.833 278.129 239.199 277.643C239.572 277.148 240.292 276.34 241.566 275.26L231.219 263.056L220.872 250.852C215.744 255.199 210.823 260.857 208.538 268.094L223.795 272.912ZM231.219 263.056L241.462 275.348C241.783 275.08 242.68 274.359 244.333 273.054L234.419 260.496L224.505 247.938C222.915 249.193 221.679 250.179 220.976 250.764L231.219 263.056ZM234.419 260.496L244.333 273.054C246.023 271.72 247.801 270.253 249.189 268.866L237.875 257.552L226.561 246.238C226.64 246.16 226.535 246.27 226.124 246.62C225.742 246.945 225.211 247.38 224.505 247.938L234.419 260.496ZM237.875 257.552L249.189 268.866C250.283 267.771 251.436 266.487 252.583 265.149L240.435 254.736L228.287 244.323C227.386 245.374 226.832 245.967 226.561 246.238L237.875 257.552ZM240.435 254.736L252.583 265.149C254.733 262.64 256.609 259.625 257.79 256.084L242.611 251.024L227.432 245.964C227.759 244.983 228.185 244.443 228.287 244.323L240.435 254.736ZM242.611 251.024L257.79 256.084C258.83 252.964 259.251 249.821 259.251 246.8H243.251H227.251C227.251 246.851 227.245 246.524 227.432 245.964L242.611 251.024ZM243.251 246.8H259.251C259.251 239.771 256.715 232.828 250.991 227.582L240.179 239.376L229.367 251.17C228.735 250.59 228.114 249.761 227.699 248.758C227.299 247.791 227.251 247.057 227.251 246.8H243.251ZM240.179 239.376L251.239 227.814C245.658 222.476 238.711 220.56 232.243 220.56V236.56V252.56C232.414 252.56 232.053 252.584 231.372 252.343C230.638 252.082 229.827 251.615 229.119 250.938L240.179 239.376ZM232.243 236.56V220.56C224.506 220.56 216.274 223.097 210.297 230.165C204.805 236.661 203.169 244.74 202.939 251.784L218.931 252.304L234.923 252.824C234.974 251.234 235.169 250.381 235.265 250.063C235.352 249.777 235.279 250.18 234.733 250.827C234.463 251.146 234.124 251.467 233.726 251.754C233.329 252.04 232.943 252.242 232.612 252.376C231.958 252.641 231.727 252.56 232.243 252.56V236.56ZM218.931 252.304V236.304H200.243V252.304V268.304H218.931V252.304ZM240.691 294.416H224.691V314H240.691H256.691V294.416H240.691ZM240.691 314V298H220.851V314V330H240.691V314ZM220.851 314H236.851V294.416H220.851H204.851V314H220.851ZM220.851 294.416V310.416H240.691V294.416V278.416H220.851V294.416Z" fill="#8F8F8F" mask="url(#path-1-outside-1_3143_4584)"/>
</svg>
