<svg width="230" height="51" viewBox="0 0 230 51" fill="none" xmlns="http://www.w3.org/2000/svg">
<mask id="path-1-outside-1_3189_1758" maskUnits="userSpaceOnUse" x="0" y="-0.580078" width="230" height="51" fill="black">
<rect fill="white" y="-0.580078" width="230" height="51"/>
<path d="M43.5438 7.87368V42.4199H37.7699V15.7824L28.163 42.4199H23.2139L13.3644 15.7824V42.4199H7.639V7.87368H16.13L25.7855 34.8993L35.1013 7.87368H43.5438ZM61.6744 7.82516L75.0174 42.4199H68.5157L65.2163 33.2496H51.5337L48.1373 42.4199H41.8782L55.2212 7.82516H61.6744ZM63.6152 28.6888L58.472 14.1328L53.0863 28.6888H63.6152ZM73.4158 7.87368H86.5647C88.9584 7.87368 91.0609 8.13245 92.8723 8.65C94.6838 9.1352 96.3496 10.0571 97.8699 11.4156C101.266 14.4562 102.964 18.8392 102.964 24.5646C102.964 30.6781 101.347 35.3522 98.1125 38.5868C96.6892 40.0101 95.1366 41.0128 93.4546 41.5951C91.8049 42.145 89.6215 42.4199 86.9044 42.4199H73.4158V7.87368ZM79.4323 13.0168V37.3253H86.5647C90.3493 37.3253 93.0179 36.2255 94.5705 34.026C96.1232 31.8264 96.8995 28.7696 96.8995 24.8557C96.8995 21.1358 96.0261 18.2408 94.2794 16.1706C92.5327 14.0681 89.8318 13.0168 86.1766 13.0168H79.4323ZM128.422 7.87368V12.9683H109.548V22.1386H127.063V27.0391H109.548V37.2283H128.713V42.4199H103.531V7.87368H128.422ZM161.862 7.87368V13.0168H144.055V22.4297H159.679V27.3302H144.055V42.4199H137.942V7.87368H161.862ZM176.747 7.04884C181.631 7.04884 185.594 8.73087 188.634 12.0949C191.707 15.4266 193.244 19.7773 193.244 25.1468C193.244 30.5163 191.707 34.8831 188.634 38.2472C185.561 41.5789 181.566 43.2448 176.65 43.2448C171.701 43.2448 167.69 41.5789 164.617 38.2472C161.576 34.9155 160.056 30.5487 160.056 25.1468C160.056 19.9066 161.544 15.5884 164.52 12.192C167.528 8.76321 171.604 7.04884 176.747 7.04884ZM176.65 12.1434C173.48 12.1434 170.941 13.3241 169.032 15.6854C167.124 18.0144 166.169 21.1358 166.169 25.0498C166.169 29.0607 167.107 32.2469 168.984 34.6082C170.892 36.9695 173.48 38.1502 176.747 38.1502C179.884 38.1502 182.391 36.9695 184.267 34.6082C186.176 32.2145 187.13 29.0446 187.13 25.0983C187.13 21.152 186.176 18.0144 184.267 15.6854C182.391 13.3241 179.852 12.1434 176.65 12.1434ZM193.814 7.87368H210.166C213.594 7.87368 216.392 8.65 218.56 10.2026C220.727 11.7229 221.81 14.1489 221.81 17.4806C221.81 19.5508 221.309 21.3299 220.306 22.8178C219.304 24.2734 217.896 25.3247 216.085 25.9716C216.926 26.1657 217.654 26.4568 218.268 26.845C218.883 27.2332 219.352 27.6537 219.676 28.1065C220.031 28.5594 220.322 29.1416 220.549 29.8532C220.775 30.5649 220.921 31.1956 220.986 31.7455C221.083 32.2631 221.164 32.9585 221.228 33.8319C221.261 34.0583 221.293 34.495 221.325 35.1419C221.39 35.7889 221.422 36.2255 221.422 36.452C221.455 36.646 221.487 37.0019 221.519 37.5194C221.584 38.0369 221.633 38.4089 221.665 38.6354C221.697 38.8294 221.746 39.1367 221.81 39.5572C221.907 39.9454 221.988 40.2527 222.053 40.4791C222.118 40.6732 222.199 40.9158 222.296 41.2069C222.393 41.4657 222.506 41.6921 222.635 41.8862C222.765 42.0803 222.91 42.2582 223.072 42.4199H216.57C216.473 42.2905 216.376 42.145 216.279 41.9832C216.214 41.7892 216.15 41.5951 216.085 41.401C216.02 41.1746 215.972 40.9805 215.94 40.8188C215.907 40.6247 215.859 40.3821 215.794 40.091C215.762 39.7675 215.729 39.5087 215.697 39.3146C215.697 39.1206 215.681 38.8294 215.648 38.4413C215.616 38.0531 215.584 37.762 215.551 37.5679C215.551 37.3738 215.535 37.0342 215.503 36.549C215.47 36.0638 215.454 35.7242 215.454 35.5301C215.293 32.7159 214.694 30.7913 213.659 29.7562C212.656 28.6888 210.732 28.155 207.885 28.155H199.831V42.4199H193.814V7.87368ZM199.831 12.8227V23.6427H207.837C209.001 23.6427 209.988 23.578 210.796 23.4486C211.605 23.3192 212.414 23.0928 213.222 22.7693C214.063 22.4135 214.694 21.8474 215.115 21.0711C215.568 20.2948 215.794 19.3082 215.794 18.1114C215.794 17.0116 215.6 16.1059 215.212 15.3943C214.824 14.6503 214.257 14.1004 213.514 13.7446C212.802 13.3888 212.058 13.1462 211.282 13.0168C210.538 12.8874 209.648 12.8227 208.613 12.8227H199.831Z"/>
</mask>
<path d="M43.5438 7.87368V42.4199H37.7699V15.7824L28.163 42.4199H23.2139L13.3644 15.7824V42.4199H7.639V7.87368H16.13L25.7855 34.8993L35.1013 7.87368H43.5438ZM61.6744 7.82516L75.0174 42.4199H68.5157L65.2163 33.2496H51.5337L48.1373 42.4199H41.8782L55.2212 7.82516H61.6744ZM63.6152 28.6888L58.472 14.1328L53.0863 28.6888H63.6152ZM73.4158 7.87368H86.5647C88.9584 7.87368 91.0609 8.13245 92.8723 8.65C94.6838 9.1352 96.3496 10.0571 97.8699 11.4156C101.266 14.4562 102.964 18.8392 102.964 24.5646C102.964 30.6781 101.347 35.3522 98.1125 38.5868C96.6892 40.0101 95.1366 41.0128 93.4546 41.5951C91.8049 42.145 89.6215 42.4199 86.9044 42.4199H73.4158V7.87368ZM79.4323 13.0168V37.3253H86.5647C90.3493 37.3253 93.0179 36.2255 94.5705 34.026C96.1232 31.8264 96.8995 28.7696 96.8995 24.8557C96.8995 21.1358 96.0261 18.2408 94.2794 16.1706C92.5327 14.0681 89.8318 13.0168 86.1766 13.0168H79.4323ZM128.422 7.87368V12.9683H109.548V22.1386H127.063V27.0391H109.548V37.2283H128.713V42.4199H103.531V7.87368H128.422ZM161.862 7.87368V13.0168H144.055V22.4297H159.679V27.3302H144.055V42.4199H137.942V7.87368H161.862ZM176.747 7.04884C181.631 7.04884 185.594 8.73087 188.634 12.0949C191.707 15.4266 193.244 19.7773 193.244 25.1468C193.244 30.5163 191.707 34.8831 188.634 38.2472C185.561 41.5789 181.566 43.2448 176.65 43.2448C171.701 43.2448 167.69 41.5789 164.617 38.2472C161.576 34.9155 160.056 30.5487 160.056 25.1468C160.056 19.9066 161.544 15.5884 164.52 12.192C167.528 8.76321 171.604 7.04884 176.747 7.04884ZM176.65 12.1434C173.48 12.1434 170.941 13.3241 169.032 15.6854C167.124 18.0144 166.169 21.1358 166.169 25.0498C166.169 29.0607 167.107 32.2469 168.984 34.6082C170.892 36.9695 173.48 38.1502 176.747 38.1502C179.884 38.1502 182.391 36.9695 184.267 34.6082C186.176 32.2145 187.13 29.0446 187.13 25.0983C187.13 21.152 186.176 18.0144 184.267 15.6854C182.391 13.3241 179.852 12.1434 176.65 12.1434ZM193.814 7.87368H210.166C213.594 7.87368 216.392 8.65 218.56 10.2026C220.727 11.7229 221.81 14.1489 221.81 17.4806C221.81 19.5508 221.309 21.3299 220.306 22.8178C219.304 24.2734 217.896 25.3247 216.085 25.9716C216.926 26.1657 217.654 26.4568 218.268 26.845C218.883 27.2332 219.352 27.6537 219.676 28.1065C220.031 28.5594 220.322 29.1416 220.549 29.8532C220.775 30.5649 220.921 31.1956 220.986 31.7455C221.083 32.2631 221.164 32.9585 221.228 33.8319C221.261 34.0583 221.293 34.495 221.325 35.1419C221.39 35.7889 221.422 36.2255 221.422 36.452C221.455 36.646 221.487 37.0019 221.519 37.5194C221.584 38.0369 221.633 38.4089 221.665 38.6354C221.697 38.8294 221.746 39.1367 221.81 39.5572C221.907 39.9454 221.988 40.2527 222.053 40.4791C222.118 40.6732 222.199 40.9158 222.296 41.2069C222.393 41.4657 222.506 41.6921 222.635 41.8862C222.765 42.0803 222.91 42.2582 223.072 42.4199H216.57C216.473 42.2905 216.376 42.145 216.279 41.9832C216.214 41.7892 216.15 41.5951 216.085 41.401C216.02 41.1746 215.972 40.9805 215.94 40.8188C215.907 40.6247 215.859 40.3821 215.794 40.091C215.762 39.7675 215.729 39.5087 215.697 39.3146C215.697 39.1206 215.681 38.8294 215.648 38.4413C215.616 38.0531 215.584 37.762 215.551 37.5679C215.551 37.3738 215.535 37.0342 215.503 36.549C215.47 36.0638 215.454 35.7242 215.454 35.5301C215.293 32.7159 214.694 30.7913 213.659 29.7562C212.656 28.6888 210.732 28.155 207.885 28.155H199.831V42.4199H193.814V7.87368ZM199.831 12.8227V23.6427H207.837C209.001 23.6427 209.988 23.578 210.796 23.4486C211.605 23.3192 212.414 23.0928 213.222 22.7693C214.063 22.4135 214.694 21.8474 215.115 21.0711C215.568 20.2948 215.794 19.3082 215.794 18.1114C215.794 17.0116 215.6 16.1059 215.212 15.3943C214.824 14.6503 214.257 14.1004 213.514 13.7446C212.802 13.3888 212.058 13.1462 211.282 13.0168C210.538 12.8874 209.648 12.8227 208.613 12.8227H199.831Z" fill="#8F8F8F"/>
<path d="M43.5438 7.87368H50.3591C50.3591 4.10968 47.3078 1.05835 43.5438 1.05835V7.87368ZM43.5438 42.4199V49.2352C47.3078 49.2352 50.3591 46.1839 50.3591 42.4199H43.5438ZM37.7699 42.4199H30.9546C30.9546 46.1839 34.0059 49.2352 37.7699 49.2352V42.4199ZM37.7699 15.7824H44.5853C44.5853 12.4712 42.2053 9.63913 38.9436 9.06893C35.6818 8.49872 32.4822 10.3554 31.3588 13.4702L37.7699 15.7824ZM28.163 42.4199V49.2352C31.0354 49.2352 33.5995 47.4342 34.5741 44.7321L28.163 42.4199ZM23.2139 42.4199L16.8216 44.7836C17.8108 47.4589 20.3615 49.2352 23.2139 49.2352V42.4199ZM13.3644 15.7824L19.7567 13.4188C18.6119 10.3228 15.413 8.49221 12.1638 9.0737C8.91451 9.65518 6.54903 12.4816 6.54903 15.7824H13.3644ZM13.3644 42.4199V49.2352C17.1284 49.2352 20.1797 46.1839 20.1797 42.4199H13.3644ZM7.639 42.4199H0.823673C0.823673 46.1839 3.875 49.2352 7.639 49.2352V42.4199ZM7.639 7.87368V1.05835C3.875 1.05835 0.823673 4.10968 0.823673 7.87368H7.639ZM16.13 7.87368L22.548 5.58071C21.5791 2.86863 19.01 1.05835 16.13 1.05835V7.87368ZM25.7855 34.8993L19.3675 37.1923C20.3411 39.9175 22.9297 41.7307 25.8236 41.7145C28.7175 41.6984 31.2857 39.8563 32.2288 37.1203L25.7855 34.8993ZM35.1013 7.87368V1.05835C32.1934 1.05835 29.6057 2.90345 28.6581 5.65266L35.1013 7.87368ZM43.5438 7.87368H36.7285V42.4199H43.5438H50.3591V7.87368H43.5438ZM43.5438 42.4199V35.6046H37.7699V42.4199V49.2352H43.5438V42.4199ZM37.7699 42.4199H44.5853V15.7824H37.7699H30.9546V42.4199H37.7699ZM37.7699 15.7824L31.3588 13.4702L21.7518 40.1077L28.163 42.4199L34.5741 44.7321L44.181 18.0946L37.7699 15.7824ZM28.163 42.4199V35.6046H23.2139V42.4199V49.2352H28.163V42.4199ZM23.2139 42.4199L29.6062 40.0563L19.7567 13.4188L13.3644 15.7824L6.97203 18.1461L16.8216 44.7836L23.2139 42.4199ZM13.3644 15.7824H6.54903V42.4199H13.3644H20.1797V15.7824H13.3644ZM13.3644 42.4199V35.6046H7.639V42.4199V49.2352H13.3644V42.4199ZM7.639 42.4199H14.4543V7.87368H7.639H0.823673V42.4199H7.639ZM7.639 7.87368V14.689H16.13V7.87368V1.05835H7.639V7.87368ZM16.13 7.87368L9.71198 10.1667L19.3675 37.1923L25.7855 34.8993L32.2035 32.6063L22.548 5.58071L16.13 7.87368ZM25.7855 34.8993L32.2288 37.1203L41.5446 10.0947L35.1013 7.87368L28.6581 5.65266L19.3422 32.6783L25.7855 34.8993ZM35.1013 7.87368V14.689H43.5438V7.87368V1.05835H35.1013V7.87368ZM61.6744 7.82516L68.0331 5.37262C67.0192 2.74373 64.492 1.00983 61.6744 1.00983V7.82516ZM75.0174 42.4199V49.2352C77.2639 49.2352 79.3661 48.1281 80.6371 46.2757C81.9081 44.4232 82.1845 42.0634 81.3761 39.9674L75.0174 42.4199ZM68.5157 42.4199L62.1028 44.7272C63.0759 47.4319 65.6413 49.2352 68.5157 49.2352V42.4199ZM65.2163 33.2496L71.6292 30.9424C70.6561 28.2377 68.0907 26.4343 65.2163 26.4343V33.2496ZM51.5337 33.2496V26.4343C48.6826 26.4343 46.1328 28.209 45.1426 30.8826L51.5337 33.2496ZM48.1373 42.4199V49.2352C50.9883 49.2352 53.5381 47.4606 54.5283 44.787L48.1373 42.4199ZM41.8782 42.4199L35.5194 39.9674C34.711 42.0634 34.9875 44.4232 36.2584 46.2757C37.5294 48.1281 39.6317 49.2352 41.8782 49.2352V42.4199ZM55.2212 7.82516V1.00983C52.4035 1.00983 49.8764 2.74373 48.8624 5.37262L55.2212 7.82516ZM63.6152 28.6888V35.5041C65.8274 35.5041 67.902 34.4303 69.1795 32.6241C70.4569 30.818 70.7782 28.5041 70.0412 26.4182L63.6152 28.6888ZM58.472 14.1328L64.898 11.8622C63.9418 9.15592 61.3925 7.33877 58.5223 7.31762C55.6521 7.29647 53.0762 9.07585 52.0802 11.7678L58.472 14.1328ZM53.0863 28.6888L46.6945 26.3238C45.9207 28.4152 46.2189 30.7529 47.4932 32.583C48.7674 34.4131 50.8563 35.5041 53.0863 35.5041V28.6888ZM61.6744 7.82516L55.3156 10.2777L68.6586 44.8725L75.0174 42.4199L81.3761 39.9674L68.0331 5.37262L61.6744 7.82516ZM75.0174 42.4199V35.6046H68.5157V42.4199V49.2352H75.0174V42.4199ZM68.5157 42.4199L74.9286 40.1126L71.6292 30.9424L65.2163 33.2496L58.8034 35.5569L62.1028 44.7272L68.5157 42.4199ZM65.2163 33.2496V26.4343H51.5337V33.2496V40.065H65.2163V33.2496ZM51.5337 33.2496L45.1426 30.8826L41.7462 40.0529L48.1373 42.4199L54.5283 44.787L57.9247 35.6167L51.5337 33.2496ZM48.1373 42.4199V35.6046H41.8782V42.4199V49.2352H48.1373V42.4199ZM41.8782 42.4199L48.2369 44.8725L61.58 10.2777L55.2212 7.82516L48.8624 5.37262L35.5194 39.9674L41.8782 42.4199ZM55.2212 7.82516V14.6405H61.6744V7.82516V1.00983H55.2212V7.82516ZM63.6152 28.6888L70.0412 26.4182L64.898 11.8622L58.472 14.1328L52.046 16.4033L57.1892 30.9593L63.6152 28.6888ZM58.472 14.1328L52.0802 11.7678L46.6945 26.3238L53.0863 28.6888L59.4782 31.0537L64.8639 16.4977L58.472 14.1328ZM53.0863 28.6888V35.5041H63.6152V28.6888V21.8734H53.0863V28.6888ZM73.4158 7.87368V1.05835C69.6518 1.05835 66.6005 4.10968 66.6005 7.87368H73.4158ZM92.8723 8.65L91 15.2031C91.0363 15.2135 91.0726 15.2235 91.109 15.2333L92.8723 8.65ZM97.8699 11.4156L102.416 6.33784L102.411 6.33375L97.8699 11.4156ZM98.1125 38.5868L102.932 43.406L98.1125 38.5868ZM93.4546 41.5951L95.6098 48.0607C95.6345 48.0524 95.6593 48.044 95.6839 48.0355L93.4546 41.5951ZM73.4158 42.4199H66.6005C66.6005 46.1839 69.6518 49.2352 73.4158 49.2352V42.4199ZM79.4323 13.0168V6.20147C75.6683 6.20147 72.617 9.2528 72.617 13.0168H79.4323ZM79.4323 37.3253H72.617C72.617 41.0893 75.6683 44.1406 79.4323 44.1406V37.3253ZM94.5705 34.026L100.138 37.9562L94.5705 34.026ZM94.2794 16.1706L89.0371 20.5257C89.0482 20.5391 89.0593 20.5524 89.0705 20.5656L94.2794 16.1706ZM73.4158 7.87368V14.689H86.5647V7.87368V1.05835H73.4158V7.87368ZM86.5647 7.87368V14.689C88.4874 14.689 89.936 14.8991 91 15.2031L92.8723 8.65L94.7447 2.0969C92.1859 1.36582 89.4294 1.05835 86.5647 1.05835V7.87368ZM92.8723 8.65L91.109 15.2333C91.8017 15.4188 92.5332 15.7867 93.3286 16.4975L97.8699 11.4156L102.411 6.33375C100.166 4.32741 97.5658 2.85159 94.6357 2.06675L92.8723 8.65ZM97.8699 11.4156L93.3241 16.4934C94.922 17.924 96.1492 20.2449 96.1492 24.5646H102.965H109.78C109.78 17.4335 107.611 10.9884 102.416 6.33784L97.8699 11.4156ZM102.965 24.5646H96.1492C96.1492 29.4983 94.8656 32.1954 93.2933 33.7677L98.1125 38.5868L102.932 43.406C107.829 38.5089 109.78 31.8579 109.78 24.5646H102.965ZM98.1125 38.5868L93.2933 33.7677C92.5036 34.5574 91.8118 34.9516 91.2252 35.1547L93.4546 41.5951L95.6839 48.0355C98.4614 47.074 100.875 45.4628 102.932 43.406L98.1125 38.5868ZM93.4546 41.5951L91.2994 35.1295C90.6214 35.3555 89.2527 35.6046 86.9044 35.6046V42.4199V49.2352C89.9903 49.2352 92.9883 48.9345 95.6098 48.0607L93.4546 41.5951ZM86.9044 42.4199V35.6046H73.4158V42.4199V49.2352H86.9044V42.4199ZM73.4158 42.4199H80.2311V7.87368H73.4158H66.6005V42.4199H73.4158ZM79.4323 13.0168H72.617V37.3253H79.4323H86.2476V13.0168H79.4323ZM79.4323 37.3253V44.1406H86.5647V37.3253V30.51H79.4323V37.3253ZM86.5647 37.3253V44.1406C91.5979 44.1406 96.8382 42.6315 100.138 37.9562L94.5705 34.026L89.0026 30.0957C88.9967 30.1041 88.9999 30.0996 88.9998 30.0997C88.9969 30.102 88.9458 30.1424 88.8078 30.1993C88.51 30.322 87.8296 30.51 86.5647 30.51V37.3253ZM94.5705 34.026L100.138 37.9562C102.795 34.1926 103.715 29.5669 103.715 24.8557H96.8995H90.0842C90.0842 27.9723 89.4512 29.4601 89.0026 30.0957L94.5705 34.026ZM96.8995 24.8557H103.715C103.715 20.1261 102.602 15.4664 99.4883 11.7756L94.2794 16.1706L89.0705 20.5656C89.4499 21.0152 90.0842 22.1455 90.0842 24.8557H96.8995ZM94.2794 16.1706L99.5217 11.8155C96.0781 7.67034 91.131 6.20147 86.1766 6.20147V13.0168V19.8321C88.5325 19.8321 88.9873 20.4658 89.0371 20.5257L94.2794 16.1706ZM86.1766 13.0168V6.20147H79.4323V13.0168V19.8321H86.1766V13.0168ZM128.422 7.87368H135.237C135.237 4.10968 132.186 1.05835 128.422 1.05835V7.87368ZM128.422 12.9683V19.7836C132.186 19.7836 135.237 16.7323 135.237 12.9683H128.422ZM109.548 12.9683V6.15295C105.784 6.15295 102.732 9.20428 102.732 12.9683H109.548ZM109.548 22.1386H102.732C102.732 25.9026 105.784 28.9539 109.548 28.9539V22.1386ZM127.063 22.1386H133.879C133.879 18.3746 130.827 15.3232 127.063 15.3232V22.1386ZM127.063 27.0391V33.8544C130.827 33.8544 133.879 30.8031 133.879 27.0391H127.063ZM109.548 27.0391V20.2238C105.784 20.2238 102.732 23.2751 102.732 27.0391H109.548ZM109.548 37.2283H102.732C102.732 40.9923 105.784 44.0436 109.548 44.0436V37.2283ZM128.713 37.2283H135.528C135.528 33.4643 132.477 30.413 128.713 30.413V37.2283ZM128.713 42.4199V49.2352C132.477 49.2352 135.528 46.1839 135.528 42.4199H128.713ZM103.531 42.4199H96.7159C96.7159 46.1839 99.7672 49.2352 103.531 49.2352V42.4199ZM103.531 7.87368V1.05835C99.7672 1.05835 96.7159 4.10968 96.7159 7.87368H103.531ZM128.422 7.87368H121.607V12.9683H128.422H135.237V7.87368H128.422ZM128.422 12.9683V6.15295H109.548V12.9683V19.7836H128.422V12.9683ZM109.548 12.9683H102.732V22.1386H109.548H116.363V12.9683H109.548ZM109.548 22.1386V28.9539H127.063V22.1386V15.3232H109.548V22.1386ZM127.063 22.1386H120.248V27.0391H127.063H133.879V22.1386H127.063ZM127.063 27.0391V20.2238H109.548V27.0391V33.8544H127.063V27.0391ZM109.548 27.0391H102.732V37.2283H109.548H116.363V27.0391H109.548ZM109.548 37.2283V44.0436H128.713V37.2283V30.413H109.548V37.2283ZM128.713 37.2283H121.898V42.4199H128.713H135.528V37.2283H128.713ZM128.713 42.4199V35.6046H103.531V42.4199V49.2352H128.713V42.4199ZM103.531 42.4199H110.347V7.87368H103.531H96.7159V42.4199H103.531ZM103.531 7.87368V14.689H128.422V7.87368V1.05835H103.531V7.87368ZM161.862 7.87368H168.677C168.677 4.10968 165.626 1.05835 161.862 1.05835V7.87368ZM161.862 13.0168V19.8321C165.626 19.8321 168.677 16.7808 168.677 13.0168H161.862ZM144.055 13.0168V6.20147C140.291 6.20147 137.24 9.2528 137.24 13.0168H144.055ZM144.055 22.4297H137.24C137.24 26.1937 140.291 29.245 144.055 29.245V22.4297ZM159.679 22.4297H166.494C166.494 18.6657 163.443 15.6144 159.679 15.6144V22.4297ZM159.679 27.3302V34.1455C163.443 34.1455 166.494 31.0942 166.494 27.3302H159.679ZM144.055 27.3302V20.5149C140.291 20.5149 137.24 23.5662 137.24 27.3302H144.055ZM144.055 42.4199V49.2352C147.819 49.2352 150.871 46.1839 150.871 42.4199H144.055ZM137.942 42.4199H131.126C131.126 46.1839 134.178 49.2352 137.942 49.2352V42.4199ZM137.942 7.87368V1.05835C134.178 1.05835 131.126 4.10968 131.126 7.87368H137.942ZM161.862 7.87368H155.047V13.0168H161.862H168.677V7.87368H161.862ZM161.862 13.0168V6.20147H144.055V13.0168V19.8321H161.862V13.0168ZM144.055 13.0168H137.24V22.4297H144.055H150.871V13.0168H144.055ZM144.055 22.4297V29.245H159.679V22.4297V15.6144H144.055V22.4297ZM159.679 22.4297H152.863V27.3302H159.679H166.494V22.4297H159.679ZM159.679 27.3302V20.5149H144.055V27.3302V34.1455H159.679V27.3302ZM144.055 27.3302H137.24V42.4199H144.055H150.871V27.3302H144.055ZM144.055 42.4199V35.6046H137.942V42.4199V49.2352H144.055V42.4199ZM137.942 42.4199H144.757V7.87368H137.942H131.126V42.4199H137.942ZM137.942 7.87368V14.689H161.862V7.87368V1.05835H137.942V7.87368ZM188.634 12.0949L183.578 16.6649C183.593 16.6819 183.609 16.6988 183.624 16.7156L188.634 12.0949ZM188.634 38.2472L193.644 42.8679C193.651 42.8598 193.659 42.8518 193.666 42.8437L188.634 38.2472ZM164.617 38.2472L159.583 42.8414C159.591 42.8503 159.599 42.8591 159.607 42.8679L164.617 38.2472ZM164.52 12.192L159.397 7.6972L159.394 7.70058L164.52 12.192ZM169.032 15.6854L174.304 20.0051C174.313 19.9932 174.323 19.9813 174.333 19.9694L169.032 15.6854ZM168.984 34.6082L163.647 38.8479C163.659 38.8627 163.671 38.8775 163.683 38.8922L168.984 34.6082ZM184.267 34.6082L178.938 30.3595L178.931 30.3686L184.267 34.6082ZM184.267 15.6854L178.931 19.925C178.953 19.9519 178.974 19.9786 178.996 20.0051L184.267 15.6854ZM176.747 7.04884V13.8642C179.871 13.8642 181.937 14.8498 183.578 16.6649L188.634 12.0949L193.69 7.52498C189.25 2.61193 183.391 0.233513 176.747 0.233513V7.04884ZM188.634 12.0949L183.624 16.7156C185.327 18.5618 186.428 21.1539 186.428 25.1468H193.244H200.059C200.059 18.4006 198.087 12.2914 193.644 7.47424L188.634 12.0949ZM193.244 25.1468H186.428C186.428 29.1377 185.328 31.7619 183.602 33.6507L188.634 38.2472L193.666 42.8437C198.087 38.0044 200.059 31.895 200.059 25.1468H193.244ZM188.634 38.2472L183.624 33.6265C181.959 35.4321 179.844 36.4294 176.65 36.4294V43.2448V50.0601C183.289 50.0601 189.163 47.7258 193.644 42.8679L188.634 38.2472ZM176.65 43.2448V36.4294C173.409 36.4294 171.283 35.4221 169.627 33.6265L164.617 38.2472L159.607 42.8679C164.097 47.7358 169.993 50.0601 176.65 50.0601V43.2448ZM164.617 38.2472L169.651 33.653C167.975 31.8165 166.871 29.2036 166.871 25.1468H160.056H153.241C153.241 31.8938 155.178 38.0145 159.583 42.8414L164.617 38.2472ZM160.056 25.1468H166.871C166.871 21.2779 167.931 18.6406 169.646 16.6833L164.52 12.192L159.394 7.70058C155.157 12.5361 153.241 18.5354 153.241 25.1468H160.056ZM164.52 12.192L169.643 16.6867C171.184 14.9303 173.287 13.8642 176.747 13.8642V7.04884V0.233513C169.92 0.233513 163.872 2.59608 159.397 7.6972L164.52 12.192ZM176.65 12.1434V5.32811C171.526 5.32811 166.998 7.35933 163.732 11.4014L169.032 15.6854L174.333 19.9694C174.883 19.2889 175.433 18.9588 176.65 18.9588V12.1434ZM169.032 15.6854L163.761 11.3657C160.588 15.2377 159.354 20.0392 159.354 25.0498H166.169H172.985C172.985 22.2324 173.66 20.791 174.304 20.0051L169.032 15.6854ZM166.169 25.0498H159.354C159.354 30.0919 160.539 34.9354 163.647 38.8479L168.984 34.6082L174.32 30.3686C173.676 29.5583 172.985 28.0296 172.985 25.0498H166.169ZM168.984 34.6082L163.683 38.8922C166.994 42.989 171.601 44.9655 176.747 44.9655V38.1502V31.3348C175.359 31.3348 174.79 30.9501 174.284 30.3242L168.984 34.6082ZM176.747 38.1502V44.9655C181.865 44.9655 186.375 42.9111 189.603 38.8478L184.267 34.6082L178.931 30.3686C178.407 31.0279 177.903 31.3348 176.747 31.3348V38.1502ZM184.267 34.6082L189.596 38.8569C192.715 34.945 193.945 30.1365 193.945 25.0983H187.13H180.315C180.315 27.9526 179.636 29.4841 178.938 30.3595L184.267 34.6082ZM187.13 25.0983H193.945C193.945 20.0711 192.719 15.247 189.539 11.3657L184.267 15.6854L178.996 20.0051C179.632 20.7817 180.315 22.2328 180.315 25.0983H187.13ZM184.267 15.6854L189.603 11.4458C186.345 7.34454 181.782 5.32811 176.65 5.32811V12.1434V18.9588C177.922 18.9588 178.438 19.3036 178.931 19.925L184.267 15.6854ZM193.814 7.87368V1.05835C190.05 1.05835 186.999 4.10968 186.999 7.87368H193.814ZM218.56 10.2026L214.59 15.7429C214.609 15.7561 214.627 15.7691 214.646 15.7821L218.56 10.2026ZM220.306 22.8178L225.919 26.6842C225.932 26.6651 225.945 26.6459 225.958 26.6266L220.306 22.8178ZM216.085 25.9716L213.793 19.5534C210.943 20.5712 209.105 23.3464 209.281 26.3675C209.457 29.3886 211.604 31.932 214.553 32.6124L216.085 25.9716ZM219.676 28.1065L214.13 32.0679C214.19 32.1524 214.252 32.2355 214.317 32.3172L219.676 28.1065ZM220.549 29.8532L214.054 31.9197L214.054 31.9197L220.549 29.8532ZM220.986 31.7455L214.217 32.5418C214.235 32.6958 214.258 32.8491 214.287 33.0015L220.986 31.7455ZM221.228 33.8319L214.432 34.3354C214.443 34.4893 214.46 34.6429 214.481 34.7957L221.228 33.8319ZM221.325 35.1419L214.518 35.4823C214.524 35.5951 214.533 35.7077 214.544 35.8201L221.325 35.1419ZM221.422 36.452H214.607C214.607 36.8274 214.638 37.2021 214.7 37.5724L221.422 36.452ZM221.519 37.5194L214.717 37.9445C214.726 38.085 214.739 38.2251 214.757 38.3647L221.519 37.5194ZM221.665 38.6354L214.918 39.5992C214.926 39.6515 214.934 39.7037 214.942 39.7558L221.665 38.6354ZM221.81 39.5572L215.074 40.5935C215.106 40.8009 215.148 41.0067 215.199 41.2102L221.81 39.5572ZM222.053 40.4791L215.5 42.3514C215.527 42.4464 215.556 42.5407 215.587 42.6343L222.053 40.4791ZM222.296 41.2069L215.83 43.3621C215.857 43.4419 215.885 43.5212 215.914 43.6L222.296 41.2069ZM222.635 41.8862L228.306 38.1057L222.635 41.8862ZM223.072 42.4199V49.2352C225.829 49.2352 228.314 47.5747 229.368 45.028C230.423 42.4813 229.84 39.5499 227.891 37.6008L223.072 42.4199ZM216.57 42.4199L211.118 46.5091C212.405 48.2253 214.425 49.2352 216.57 49.2352V42.4199ZM216.279 41.9832L209.814 44.1384C209.971 44.6102 210.179 45.0633 210.435 45.4897L216.279 41.9832ZM216.085 41.401L209.532 43.2733C209.559 43.3682 209.588 43.4625 209.619 43.5562L216.085 41.401ZM215.94 40.8188L209.217 41.9392C209.229 42.0114 209.242 42.0835 209.257 42.1553L215.94 40.8188ZM215.794 40.091L209.012 40.7691C209.039 41.0382 209.082 41.3054 209.141 41.5694L215.794 40.091ZM215.697 39.3146H208.882C208.882 39.69 208.913 40.0648 208.974 40.4351L215.697 39.3146ZM215.648 38.4413L222.44 37.8753V37.8753L215.648 38.4413ZM215.551 37.5679H208.736C208.736 37.9433 208.767 38.3181 208.829 38.6883L215.551 37.5679ZM215.454 35.5301H222.27C222.27 35.3997 222.266 35.2693 222.258 35.139L215.454 35.5301ZM213.659 29.7562L208.692 34.4225C208.74 34.4742 208.79 34.5252 208.84 34.5754L213.659 29.7562ZM199.831 28.155V21.3397C196.067 21.3397 193.016 24.391 193.016 28.155H199.831ZM199.831 42.4199V49.2352C203.595 49.2352 206.646 46.1839 206.646 42.4199H199.831ZM193.814 42.4199H186.999C186.999 46.1839 190.05 49.2352 193.814 49.2352V42.4199ZM199.831 12.8227V6.00739C196.067 6.00739 193.016 9.05872 193.016 12.8227H199.831ZM199.831 23.6427H193.016C193.016 27.4067 196.067 30.458 199.831 30.458V23.6427ZM210.796 23.4486L209.72 16.7189V16.7189L210.796 23.4486ZM213.222 22.7693L215.754 29.0972C215.795 29.0805 215.837 29.0635 215.878 29.046L213.222 22.7693ZM215.115 21.0711L209.228 17.6371C209.192 17.6992 209.156 17.7619 209.122 17.8251L215.115 21.0711ZM215.212 15.3943L209.169 18.5468C209.189 18.584 209.208 18.621 209.229 18.6578L215.212 15.3943ZM213.514 13.7446L210.466 19.8404C210.501 19.8582 210.537 19.8757 210.573 19.8929L213.514 13.7446ZM211.282 13.0168L210.114 19.7313C210.13 19.7341 210.145 19.7368 210.161 19.7394L211.282 13.0168ZM193.814 7.87368V14.689H210.166V7.87368V1.05835H193.814V7.87368ZM210.166 7.87368V14.689C212.578 14.689 213.873 15.2288 214.59 15.7429L218.56 10.2026L222.529 4.66237C218.912 2.07124 214.611 1.05835 210.166 1.05835V7.87368ZM218.56 10.2026L214.646 15.7821C214.717 15.832 214.734 15.8493 214.775 15.9419C214.84 16.0881 214.995 16.537 214.995 17.4806H221.81H228.626C228.626 12.5708 226.929 7.74883 222.474 4.62322L218.56 10.2026ZM221.81 17.4806H214.995C214.995 18.4083 214.787 18.8122 214.655 19.0091L220.306 22.8178L225.958 26.6266C227.831 23.8476 228.626 20.6934 228.626 17.4806H221.81ZM220.306 22.8178L214.694 18.9515C214.575 19.1241 214.382 19.3428 213.793 19.5534L216.085 25.9716L218.377 32.3899C221.411 31.3066 224.032 29.4228 225.919 26.6842L220.306 22.8178ZM216.085 25.9716L214.553 32.6124C214.783 32.6657 214.771 32.6969 214.629 32.6073L218.268 26.845L221.908 21.0827C220.537 20.2168 219.069 19.6658 217.618 19.3308L216.085 25.9716ZM218.268 26.845L214.629 32.6073C214.715 32.6614 214.45 32.5162 214.13 32.0679L219.676 28.1065L225.221 24.1452C224.254 22.7912 223.051 21.8049 221.908 21.0827L218.268 26.845ZM219.676 28.1065L214.317 32.3172C214.176 32.1386 214.099 31.9988 214.065 31.9307C214.031 31.8635 214.033 31.8529 214.054 31.9197L220.549 29.8532L227.043 27.7868C226.639 26.5171 226.019 25.1485 225.035 23.8959L219.676 28.1065ZM220.549 29.8532L214.054 31.9197C214.12 32.1256 214.162 32.2818 214.187 32.3925C214.213 32.5045 214.218 32.5516 214.217 32.5418L220.986 31.7455L227.754 30.9492C227.625 29.8489 227.359 28.7792 227.043 27.7868L220.549 29.8532ZM220.986 31.7455L214.287 33.0015C214.317 33.1615 214.375 33.5728 214.432 34.3354L221.228 33.8319L228.025 33.3284C227.952 32.3443 227.848 31.3646 227.684 30.4895L220.986 31.7455ZM221.228 33.8319L214.481 34.7957C214.47 34.718 214.467 34.6799 214.469 34.7029C214.471 34.7197 214.475 34.761 214.48 34.8327C214.491 34.9777 214.504 35.1901 214.518 35.4823L221.325 35.1419L228.132 34.8016C228.102 34.1935 228.058 33.452 227.975 32.8681L221.228 33.8319ZM221.325 35.1419L214.544 35.8201C214.573 36.1103 214.591 36.3186 214.601 36.4581C214.606 36.527 214.608 36.5637 214.609 36.5748C214.61 36.5928 214.607 36.544 214.607 36.452H221.422H228.238C228.238 35.8328 228.167 35.0651 228.107 34.4638L221.325 35.1419ZM221.422 36.452L214.7 37.5724C214.691 37.5227 214.686 37.4853 214.683 37.4636C214.68 37.4412 214.678 37.4275 214.678 37.4242C214.677 37.4191 214.679 37.4362 214.683 37.4814C214.692 37.5741 214.703 37.724 214.717 37.9445L221.519 37.5194L228.321 37.0943C228.291 36.601 228.242 35.9167 228.145 35.3315L221.422 36.452ZM221.519 37.5194L214.757 38.3647C214.822 38.8849 214.877 39.3085 214.918 39.5992L221.665 38.6354L228.412 37.6715C228.389 37.5094 228.346 37.189 228.282 36.6741L221.519 37.5194ZM221.665 38.6354L214.942 39.7558C214.967 39.9051 215.01 40.1767 215.074 40.5935L221.81 39.5572L228.547 38.5209C228.481 38.0968 228.427 37.7538 228.387 37.5149L221.665 38.6354ZM221.81 39.5572L215.199 41.2102C215.303 41.6288 215.405 42.0194 215.5 42.3514L222.053 40.4791L228.606 38.6068C228.572 38.486 228.512 38.262 228.422 37.9043L221.81 39.5572ZM222.053 40.4791L215.587 42.6343C215.652 42.8284 215.733 43.071 215.83 43.3621L222.296 41.2069L228.761 39.0518C228.664 38.7606 228.583 38.518 228.519 38.3239L222.053 40.4791ZM222.296 41.2069L215.914 43.6C216.162 44.2599 216.499 44.9678 216.965 45.6667L222.635 41.8862L228.306 38.1057C228.513 38.4164 228.624 38.6715 228.677 38.8139L222.296 41.2069ZM222.635 41.8862L216.965 45.6667C217.338 46.2268 217.767 46.7538 218.253 47.2391L223.072 42.4199L227.891 37.6008C228.053 37.7626 228.191 37.9338 228.306 38.1057L222.635 41.8862ZM223.072 42.4199V35.6046H216.57V42.4199V49.2352H223.072V42.4199ZM216.57 42.4199L222.023 38.3307C222.087 38.4164 222.119 38.4697 222.123 38.4768L216.279 41.9832L210.435 45.4897C210.633 45.8202 210.86 46.1647 211.118 46.5091L216.57 42.4199ZM216.279 41.9832L222.745 39.8281C222.68 39.634 222.615 39.4399 222.551 39.2458L216.085 41.401L209.619 43.5562C209.684 43.7503 209.749 43.9443 209.814 44.1384L216.279 41.9832ZM216.085 41.401L222.638 39.5287C222.623 39.4759 222.615 39.4448 222.612 39.4327C222.611 39.4271 222.611 39.4283 222.613 39.4357C222.614 39.443 222.618 39.4588 222.623 39.4822L215.94 40.8188L209.257 42.1553C209.337 42.5553 209.436 42.938 209.532 43.2733L216.085 41.401ZM215.94 40.8188L222.662 39.6983C222.602 39.3402 222.526 38.9686 222.447 38.6125L215.794 40.091L209.141 41.5694C209.191 41.7955 209.212 41.9092 209.217 41.9392L215.94 40.8188ZM215.794 40.091L222.575 39.4128C222.536 39.0231 222.487 38.5984 222.42 38.1942L215.697 39.3146L208.974 40.4351C208.971 40.4169 208.975 40.4346 208.983 40.4996C208.991 40.5618 209.001 40.6503 209.012 40.7691L215.794 40.091ZM215.697 39.3146H222.512C222.512 38.8262 222.476 38.3044 222.44 37.8753L215.648 38.4413L208.857 39.0073C208.869 39.1581 208.876 39.2627 208.88 39.3288C208.882 39.3609 208.882 39.3764 208.882 39.3779C208.882 39.3807 208.882 39.3577 208.882 39.3146H215.697ZM215.648 38.4413L222.44 37.8753C222.404 37.4438 222.354 36.9265 222.274 36.4475L215.551 37.5679L208.829 38.6883C208.822 38.6488 208.82 38.6283 208.82 38.6324C208.82 38.6353 208.823 38.6519 208.826 38.6845C208.834 38.7516 208.844 38.8566 208.857 39.0073L215.648 38.4413ZM215.551 37.5679H222.367C222.367 37.1205 222.335 36.5742 222.303 36.0957L215.503 36.549L208.703 37.0023C208.717 37.2185 208.726 37.379 208.732 37.4918C208.734 37.5475 208.736 37.5829 208.736 37.6015C208.737 37.6229 208.736 37.6083 208.736 37.5679H215.551ZM215.503 36.549L222.303 36.0957C222.289 35.8795 222.279 35.719 222.274 35.6062C222.271 35.5505 222.27 35.5151 222.27 35.4965C222.269 35.4751 222.27 35.4897 222.27 35.5301H215.454H208.639C208.639 35.9775 208.671 36.5238 208.703 37.0023L215.503 36.549ZM215.454 35.5301L222.258 35.139C222.078 32.0002 221.389 27.8478 218.478 24.937L213.659 29.7562L208.84 34.5754C208.338 34.0734 208.288 33.715 208.376 33.9995C208.46 34.2684 208.59 34.8665 208.65 35.9211L215.454 35.5301ZM213.659 29.7562L218.626 25.0899C215.553 21.818 211.036 21.3397 207.885 21.3397V28.155V34.9704C208.389 34.9704 208.786 34.9942 209.09 35.0282C209.396 35.0625 209.571 35.103 209.642 35.1228C209.823 35.173 209.302 35.072 208.692 34.4225L213.659 29.7562ZM207.885 28.155V21.3397H199.831V28.155V34.9704H207.885V28.155ZM199.831 28.155H193.016V42.4199H199.831H206.646V28.155H199.831ZM199.831 42.4199V35.6046H193.814V42.4199V49.2352H199.831V42.4199ZM193.814 42.4199H200.63V7.87368H193.814H186.999V42.4199H193.814ZM199.831 12.8227H193.016V23.6427H199.831H206.646V12.8227H199.831ZM199.831 23.6427V30.458H207.837V23.6427V16.8274H199.831V23.6427ZM207.837 23.6427V30.458C209.225 30.458 210.595 30.3829 211.873 30.1783L210.796 23.4486L209.72 16.7189C209.381 16.7731 208.778 16.8274 207.837 16.8274V23.6427ZM210.796 23.4486L211.873 30.1783C213.21 29.9644 214.506 29.5962 215.754 29.0972L213.222 22.7693L210.691 16.4414C210.321 16.5894 210 16.6741 209.72 16.7189L210.796 23.4486ZM213.222 22.7693L215.878 29.046C218.09 28.1101 219.924 26.5026 221.107 24.3171L215.115 21.0711L209.122 17.8251C209.268 17.5555 209.484 17.2659 209.774 17.0057C210.062 16.7474 210.347 16.5857 210.567 16.4926L213.222 22.7693ZM215.115 21.0711L221.002 24.5052C222.232 22.3963 222.609 20.1275 222.609 18.1114H215.794H208.979C208.979 18.489 208.903 18.1933 209.228 17.6371L215.115 21.0711ZM215.794 18.1114H222.609C222.609 16.2604 222.289 14.137 221.195 12.1308L215.212 15.3943L209.229 18.6578C209.067 18.3624 209.006 18.1342 208.984 18.0353C208.964 17.9412 208.979 17.9551 208.979 18.1114H215.794ZM215.212 15.3943L221.254 12.2417C220.196 10.2145 218.554 8.60054 216.454 7.59626L213.514 13.7446L210.573 19.8929C210.308 19.7663 210.018 19.5756 209.747 19.3124C209.477 19.0501 209.29 18.7778 209.169 18.5468L215.212 15.3943ZM213.514 13.7446L216.561 7.64879C215.249 6.99251 213.856 6.53651 212.402 6.2942L211.282 13.0168L210.161 19.7394C210.26 19.7559 210.355 19.7851 210.466 19.8404L213.514 13.7446ZM211.282 13.0168L212.449 6.30226C211.208 6.08637 209.907 6.00739 208.613 6.00739V12.8227V19.638C209.389 19.638 209.867 19.6885 210.114 19.7313L211.282 13.0168ZM208.613 12.8227V6.00739H199.831V12.8227V19.638H208.613V12.8227Z" fill="#CFF665" mask="url(#path-1-outside-1_3189_1758)"/>
</svg>
