<svg width="363" height="51" viewBox="0 0 363 51" fill="none" xmlns="http://www.w3.org/2000/svg">
<mask id="path-1-outside-1_3189_1777" maskUnits="userSpaceOnUse" x="0.1875" y="0.421875" width="362" height="50" fill="black">
<rect fill="white" x="0.1875" y="0.421875" width="362" height="50"/>
<path d="M7.56766 8.58763H13.6027L19.7803 34.3435L26.7182 8.58763H32.7533L39.4536 34.3435L45.8213 8.58763H51.8563L42.4949 42.4219H36.4598L29.6169 16.4284L22.6315 42.4219H16.5014L7.56766 8.58763ZM78.1508 8.58763V42.4219H72.2108V27.2155H56.7193V42.4219H50.7793V8.58763H56.7193V22.0358H72.2108V8.58763H78.1508ZM95.8606 8.54011L108.929 42.4219H102.561L99.3295 33.4406H85.9289L82.6025 42.4219H76.4724L89.5404 8.54011H95.8606ZM97.7614 28.9737L92.7242 14.7177L87.4495 28.9737H97.7614ZM127.281 8.58763V13.7198H116.494V42.4219H110.554V13.7198H99.7665V8.58763H127.281ZM159.171 8.58763V13.7198H148.384V42.4219H142.444V13.7198H131.657V8.58763H159.171ZM172.893 7.77979C177.677 7.77979 181.558 9.42715 184.536 12.7219C187.545 15.9849 189.05 20.2459 189.05 25.5048C189.05 30.7636 187.545 35.0404 184.536 38.3352C181.526 41.5982 177.614 43.2297 172.798 43.2297C167.951 43.2297 164.023 41.5982 161.013 38.3352C158.036 35.0721 156.547 30.7953 156.547 25.5048C156.547 20.3726 158.004 16.1433 160.918 12.8169C163.865 9.45883 167.856 7.77979 172.893 7.77979ZM172.798 12.7694C169.694 12.7694 167.207 13.9257 165.338 16.2384C163.469 18.5193 162.534 21.5764 162.534 25.4097C162.534 29.338 163.453 32.4585 165.29 34.7712C167.159 37.0838 169.694 38.2401 172.893 38.2401C175.966 38.2401 178.422 37.0838 180.259 34.7712C182.128 32.4268 183.063 29.3222 183.063 25.4572C183.063 21.5923 182.128 18.5193 180.259 16.2384C178.422 13.9257 175.935 12.7694 172.798 12.7694ZM222.461 8.58763V13.5772H203.976V22.5585H221.13V27.358H203.976V37.3372H222.746V42.4219H198.083V8.58763H222.461ZM219.462 42.4219L231.532 24.887L220.317 8.58763H227.397L235.096 20.5627L243.127 8.58763H249.779L238.565 24.887L250.587 42.4219H243.364L234.906 29.4964L226.304 42.4219H219.462ZM249.467 8.58763H264.151C267.794 8.58763 270.661 9.45883 272.752 11.2012C274.875 12.912 275.936 15.478 275.936 18.8995C275.936 22.1308 274.954 24.6969 272.99 26.5977C271.026 28.4668 268.349 29.4014 264.959 29.4014H255.407V42.4219H249.467V8.58763ZM255.407 13.5297V24.6019H263.676C267.984 24.6019 270.139 22.7486 270.139 19.042C270.139 15.3672 267.81 13.5297 263.153 13.5297H255.407ZM300.646 8.58763V13.5772H282.161V22.5585H299.316V27.358H282.161V37.3372H300.931V42.4219H276.268V8.58763H300.646ZM330.483 29.544C330.166 33.694 328.677 37.0204 326.016 39.5232C323.387 41.9942 319.965 43.2297 315.752 43.2297C310.968 43.2297 307.135 41.614 304.252 38.3827C301.369 35.1513 299.928 30.8587 299.928 25.5048C299.928 22.2734 300.546 19.343 301.781 16.7136C303.017 14.0524 304.87 11.914 307.341 10.2984C309.812 8.65099 312.711 7.82731 316.037 7.82731C319.617 7.82731 322.737 8.82523 325.399 10.8211C328.06 12.7852 329.659 15.6364 330.198 19.3747H324.306C323.894 17.3472 322.943 15.7632 321.454 14.6227C319.965 13.4505 318.128 12.8644 315.942 12.8644C313.693 12.8644 311.776 13.498 310.192 14.7652C308.64 16.0324 307.531 17.6006 306.866 19.4697C306.232 21.3072 305.915 23.3188 305.915 25.5048C305.915 27.1521 306.105 28.7044 306.486 30.1617C306.866 31.619 307.436 32.9654 308.196 34.2009C308.957 35.4048 309.986 36.371 311.285 37.0996C312.616 37.8283 314.152 38.1926 315.895 38.1926C320.932 38.1926 323.815 35.3097 324.543 29.544H330.483ZM355.321 8.58763V13.7198H344.534V42.4219H338.594V13.7198H327.807V8.58763H355.321Z"/>
</mask>
<path d="M7.56766 8.58763H13.6027L19.7803 34.3435L26.7182 8.58763H32.7533L39.4536 34.3435L45.8213 8.58763H51.8563L42.4949 42.4219H36.4598L29.6169 16.4284L22.6315 42.4219H16.5014L7.56766 8.58763ZM78.1508 8.58763V42.4219H72.2108V27.2155H56.7193V42.4219H50.7793V8.58763H56.7193V22.0358H72.2108V8.58763H78.1508ZM95.8606 8.54011L108.929 42.4219H102.561L99.3295 33.4406H85.9289L82.6025 42.4219H76.4724L89.5404 8.54011H95.8606ZM97.7614 28.9737L92.7242 14.7177L87.4495 28.9737H97.7614ZM127.281 8.58763V13.7198H116.494V42.4219H110.554V13.7198H99.7665V8.58763H127.281ZM159.171 8.58763V13.7198H148.384V42.4219H142.444V13.7198H131.657V8.58763H159.171ZM172.893 7.77979C177.677 7.77979 181.558 9.42715 184.536 12.7219C187.545 15.9849 189.05 20.2459 189.05 25.5048C189.05 30.7636 187.545 35.0404 184.536 38.3352C181.526 41.5982 177.614 43.2297 172.798 43.2297C167.951 43.2297 164.023 41.5982 161.013 38.3352C158.036 35.0721 156.547 30.7953 156.547 25.5048C156.547 20.3726 158.004 16.1433 160.918 12.8169C163.865 9.45883 167.856 7.77979 172.893 7.77979ZM172.798 12.7694C169.694 12.7694 167.207 13.9257 165.338 16.2384C163.469 18.5193 162.534 21.5764 162.534 25.4097C162.534 29.338 163.453 32.4585 165.29 34.7712C167.159 37.0838 169.694 38.2401 172.893 38.2401C175.966 38.2401 178.422 37.0838 180.259 34.7712C182.128 32.4268 183.063 29.3222 183.063 25.4572C183.063 21.5923 182.128 18.5193 180.259 16.2384C178.422 13.9257 175.935 12.7694 172.798 12.7694ZM222.461 8.58763V13.5772H203.976V22.5585H221.13V27.358H203.976V37.3372H222.746V42.4219H198.083V8.58763H222.461ZM219.462 42.4219L231.532 24.887L220.317 8.58763H227.397L235.096 20.5627L243.127 8.58763H249.779L238.565 24.887L250.587 42.4219H243.364L234.906 29.4964L226.304 42.4219H219.462ZM249.467 8.58763H264.151C267.794 8.58763 270.661 9.45883 272.752 11.2012C274.875 12.912 275.936 15.478 275.936 18.8995C275.936 22.1308 274.954 24.6969 272.99 26.5977C271.026 28.4668 268.349 29.4014 264.959 29.4014H255.407V42.4219H249.467V8.58763ZM255.407 13.5297V24.6019H263.676C267.984 24.6019 270.139 22.7486 270.139 19.042C270.139 15.3672 267.81 13.5297 263.153 13.5297H255.407ZM300.646 8.58763V13.5772H282.161V22.5585H299.316V27.358H282.161V37.3372H300.931V42.4219H276.268V8.58763H300.646ZM330.483 29.544C330.166 33.694 328.677 37.0204 326.016 39.5232C323.387 41.9942 319.965 43.2297 315.752 43.2297C310.968 43.2297 307.135 41.614 304.252 38.3827C301.369 35.1513 299.928 30.8587 299.928 25.5048C299.928 22.2734 300.546 19.343 301.781 16.7136C303.017 14.0524 304.87 11.914 307.341 10.2984C309.812 8.65099 312.711 7.82731 316.037 7.82731C319.617 7.82731 322.737 8.82523 325.399 10.8211C328.06 12.7852 329.659 15.6364 330.198 19.3747H324.306C323.894 17.3472 322.943 15.7632 321.454 14.6227C319.965 13.4505 318.128 12.8644 315.942 12.8644C313.693 12.8644 311.776 13.498 310.192 14.7652C308.64 16.0324 307.531 17.6006 306.866 19.4697C306.232 21.3072 305.915 23.3188 305.915 25.5048C305.915 27.1521 306.105 28.7044 306.486 30.1617C306.866 31.619 307.436 32.9654 308.196 34.2009C308.957 35.4048 309.986 36.371 311.285 37.0996C312.616 37.8283 314.152 38.1926 315.895 38.1926C320.932 38.1926 323.815 35.3097 324.543 29.544H330.483ZM355.321 8.58763V13.7198H344.534V42.4219H338.594V13.7198H327.807V8.58763H355.321Z" fill="#8F8F8F"/>
<path d="M7.56766 8.58763V1.77231C5.45321 1.77231 3.45852 2.75372 2.16827 4.42888C0.878019 6.10403 0.438363 8.28317 0.978171 10.3276L7.56766 8.58763ZM13.6027 8.58763L20.2301 6.99805C19.495 3.93329 16.7544 1.77231 13.6027 1.77231V8.58763ZM19.7803 34.3435L13.1529 35.9331C13.8798 38.9636 16.5697 41.115 19.6858 41.1581C22.802 41.2013 25.5505 39.1253 26.3611 36.1161L19.7803 34.3435ZM26.7182 8.58763V1.77231C23.6369 1.77231 20.9389 3.83972 20.1375 6.81496L26.7182 8.58763ZM32.7533 8.58763L39.3491 6.87176C38.5678 3.86857 35.8564 1.77231 32.7533 1.77231V8.58763ZM39.4536 34.3435L32.8578 36.0594C33.6429 39.0774 36.3764 41.1776 39.4949 41.1587C42.6134 41.1398 45.3212 39.0066 46.0697 35.9792L39.4536 34.3435ZM45.8213 8.58763V1.77231C42.6873 1.77231 39.9573 3.90956 39.2051 6.95191L45.8213 8.58763ZM51.8563 8.58763L58.4248 10.4051C58.9925 8.35357 58.569 6.1547 57.2801 4.46075C55.9912 2.76679 53.9849 1.77231 51.8563 1.77231V8.58763ZM42.4949 42.4219V49.2372C45.5589 49.2372 48.2463 47.1924 49.0634 44.2393L42.4949 42.4219ZM36.4598 42.4219L29.869 44.1569C30.6572 47.1507 33.3641 49.2372 36.4598 49.2372V42.4219ZM29.6169 16.4284L36.2077 14.6934C35.4212 11.7059 32.7237 9.62104 29.6344 9.61313C26.5451 9.60522 23.8369 11.6762 23.0351 14.6596L29.6169 16.4284ZM22.6315 42.4219V49.2372C25.7143 49.2372 28.4132 47.1678 29.2133 44.1907L22.6315 42.4219ZM16.5014 42.4219L9.91193 44.1618C10.7018 47.1532 13.4075 49.2372 16.5014 49.2372V42.4219ZM7.56766 8.58763V15.403H13.6027V8.58763V1.77231H7.56766V8.58763ZM13.6027 8.58763L6.97534 10.1772L13.1529 35.9331L19.7803 34.3435L26.4077 32.7539L20.2301 6.99805L13.6027 8.58763ZM19.7803 34.3435L26.3611 36.1161L33.299 10.3603L26.7182 8.58763L20.1375 6.81496L13.1995 32.5708L19.7803 34.3435ZM26.7182 8.58763V15.403H32.7533V8.58763V1.77231H26.7182V8.58763ZM32.7533 8.58763L26.1575 10.3035L32.8578 36.0594L39.4536 34.3435L46.0494 32.6276L39.3491 6.87176L32.7533 8.58763ZM39.4536 34.3435L46.0697 35.9792L52.4374 10.2234L45.8213 8.58763L39.2051 6.95191L32.8375 32.7078L39.4536 34.3435ZM45.8213 8.58763V15.403H51.8563V8.58763V1.77231H45.8213V8.58763ZM51.8563 8.58763L45.2878 6.77022L35.9263 40.6045L42.4949 42.4219L49.0634 44.2393L58.4248 10.4051L51.8563 8.58763ZM42.4949 42.4219V35.6065H36.4598V42.4219V49.2372H42.4949V42.4219ZM36.4598 42.4219L43.0506 40.6868L36.2077 14.6934L29.6169 16.4284L23.0262 18.1635L29.869 44.1569L36.4598 42.4219ZM29.6169 16.4284L23.0351 14.6596L16.0497 40.6531L22.6315 42.4219L29.2133 44.1907L36.1987 18.1972L29.6169 16.4284ZM22.6315 42.4219V35.6065H16.5014V42.4219V49.2372H22.6315V42.4219ZM16.5014 42.4219L23.0909 40.682L14.1571 6.84771L7.56766 8.58763L0.978171 10.3276L9.91193 44.1618L16.5014 42.4219ZM78.1508 8.58763H84.9662C84.9662 4.82363 81.9148 1.77231 78.1508 1.77231V8.58763ZM78.1508 42.4219V49.2372C81.9148 49.2372 84.9662 46.1859 84.9662 42.4219H78.1508ZM72.2108 42.4219H65.3955C65.3955 46.1859 68.4468 49.2372 72.2108 49.2372V42.4219ZM72.2108 27.2155H79.0262C79.0262 23.4515 75.9748 20.4001 72.2108 20.4001V27.2155ZM56.7193 27.2155V20.4001C52.9553 20.4001 49.904 23.4515 49.904 27.2155H56.7193ZM56.7193 42.4219V49.2372C60.4833 49.2372 63.5346 46.1859 63.5346 42.4219H56.7193ZM50.7793 42.4219H43.964C43.964 46.1859 47.0153 49.2372 50.7793 49.2372V42.4219ZM50.7793 8.58763V1.77231C47.0153 1.77231 43.964 4.82363 43.964 8.58763H50.7793ZM56.7193 8.58763H63.5346C63.5346 4.82363 60.4833 1.77231 56.7193 1.77231V8.58763ZM56.7193 22.0358H49.904C49.904 25.7998 52.9553 28.8511 56.7193 28.8511V22.0358ZM72.2108 22.0358V28.8511C75.9748 28.8511 79.0262 25.7998 79.0262 22.0358H72.2108ZM72.2108 8.58763V1.77231C68.4468 1.77231 65.3955 4.82363 65.3955 8.58763H72.2108ZM78.1508 8.58763H71.3355V42.4219H78.1508H84.9662V8.58763H78.1508ZM78.1508 42.4219V35.6065H72.2108V42.4219V49.2372H78.1508V42.4219ZM72.2108 42.4219H79.0262V27.2155H72.2108H65.3955V42.4219H72.2108ZM72.2108 27.2155V20.4001H56.7193V27.2155V34.0308H72.2108V27.2155ZM56.7193 27.2155H49.904V42.4219H56.7193H63.5346V27.2155H56.7193ZM56.7193 42.4219V35.6065H50.7793V42.4219V49.2372H56.7193V42.4219ZM50.7793 42.4219H57.5946V8.58763H50.7793H43.964V42.4219H50.7793ZM50.7793 8.58763V15.403H56.7193V8.58763V1.77231H50.7793V8.58763ZM56.7193 8.58763H49.904V22.0358H56.7193H63.5346V8.58763H56.7193ZM56.7193 22.0358V28.8511H72.2108V22.0358V15.2205H56.7193V22.0358ZM72.2108 22.0358H79.0262V8.58763H72.2108H65.3955V22.0358H72.2108ZM72.2108 8.58763V15.403H78.1508V8.58763V1.77231H72.2108V8.58763ZM95.8606 8.54011L102.219 6.08758C101.205 3.45869 98.6782 1.72478 95.8606 1.72478V8.54011ZM108.929 42.4219V49.2372C111.175 49.2372 113.277 48.1301 114.548 46.2776C115.819 44.4252 116.096 42.0654 115.287 39.9693L108.929 42.4219ZM102.561 42.4219L96.148 44.7292C97.1211 47.4338 99.6865 49.2372 102.561 49.2372V42.4219ZM99.3295 33.4406L105.742 31.1333C104.769 28.4287 102.204 26.6253 99.3295 26.6253V33.4406ZM85.9289 33.4406V26.6253C83.0778 26.6253 80.528 28.3999 79.5378 31.0735L85.9289 33.4406ZM82.6025 42.4219V49.2372C85.4536 49.2372 88.0033 47.4625 88.9935 44.7889L82.6025 42.4219ZM76.4724 42.4219L70.1136 39.9693C69.3052 42.0654 69.5817 44.4252 70.8526 46.2776C72.1236 48.1301 74.2259 49.2372 76.4724 49.2372V42.4219ZM89.5404 8.54011V1.72478C86.7228 1.72478 84.1956 3.45869 83.1816 6.08758L89.5404 8.54011ZM97.7614 28.9737V35.789C99.9736 35.789 102.048 34.7153 103.326 32.9091C104.603 31.1029 104.924 28.7891 104.187 26.7032L97.7614 28.9737ZM92.7242 14.7177L99.1502 12.4472C98.194 9.74088 95.6447 7.92372 92.7745 7.90257C89.9043 7.88142 87.3284 9.6608 86.3324 12.3527L92.7242 14.7177ZM87.4495 28.9737L81.0577 26.6087C80.2839 28.7002 80.5822 31.0379 81.8564 32.868C83.1306 34.6981 85.2195 35.789 87.4495 35.789V28.9737ZM95.8606 8.54011L89.5018 10.9926L102.57 44.8744L108.929 42.4219L115.287 39.9693L102.219 6.08758L95.8606 8.54011ZM108.929 42.4219V35.6065H102.561V42.4219V49.2372H108.929V42.4219ZM102.561 42.4219L108.974 40.1146L105.742 31.1333L99.3295 33.4406L92.9166 35.7479L96.148 44.7292L102.561 42.4219ZM99.3295 33.4406V26.6253H85.9289V33.4406V40.2559H99.3295V33.4406ZM85.9289 33.4406L79.5378 31.0735L76.2114 40.0548L82.6025 42.4219L88.9935 44.7889L92.3199 35.8077L85.9289 33.4406ZM82.6025 42.4219V35.6065H76.4724V42.4219V49.2372H82.6025V42.4219ZM76.4724 42.4219L82.8312 44.8744L95.8992 10.9926L89.5404 8.54011L83.1816 6.08758L70.1136 39.9693L76.4724 42.4219ZM89.5404 8.54011V15.3554H95.8606V8.54011V1.72478H89.5404V8.54011ZM97.7614 28.9737L104.187 26.7032L99.1502 12.4472L92.7242 14.7177L86.2982 16.9882L91.3354 31.2442L97.7614 28.9737ZM92.7242 14.7177L86.3324 12.3527L81.0577 26.6087L87.4495 28.9737L93.8414 31.3387L99.1161 17.0827L92.7242 14.7177ZM87.4495 28.9737V35.789H97.7614V28.9737V22.1584H87.4495V28.9737ZM127.281 8.58763H134.096C134.096 4.82363 131.045 1.77231 127.281 1.77231V8.58763ZM127.281 13.7198V20.5351C131.045 20.5351 134.096 17.4838 134.096 13.7198H127.281ZM116.494 13.7198V6.90447C112.73 6.90447 109.678 9.95579 109.678 13.7198H116.494ZM116.494 42.4219V49.2372C120.258 49.2372 123.309 46.1859 123.309 42.4219H116.494ZM110.554 42.4219H103.738C103.738 46.1859 106.79 49.2372 110.554 49.2372V42.4219ZM110.554 13.7198H117.369C117.369 9.95579 114.318 6.90447 110.554 6.90447V13.7198ZM99.7665 13.7198H92.9512C92.9512 17.4838 96.0025 20.5351 99.7665 20.5351V13.7198ZM99.7665 8.58763V1.77231C96.0025 1.77231 92.9512 4.82363 92.9512 8.58763H99.7665ZM127.281 8.58763H120.465V13.7198H127.281H134.096V8.58763H127.281ZM127.281 13.7198V6.90447H116.494V13.7198V20.5351H127.281V13.7198ZM116.494 13.7198H109.678V42.4219H116.494H123.309V13.7198H116.494ZM116.494 42.4219V35.6065H110.554V42.4219V49.2372H116.494V42.4219ZM110.554 42.4219H117.369V13.7198H110.554H103.738V42.4219H110.554ZM110.554 13.7198V6.90447H99.7665V13.7198V20.5351H110.554V13.7198ZM99.7665 13.7198H106.582V8.58763H99.7665H92.9512V13.7198H99.7665ZM99.7665 8.58763V15.403H127.281V8.58763V1.77231H99.7665V8.58763ZM159.171 8.58763H165.986C165.986 4.82363 162.935 1.77231 159.171 1.77231V8.58763ZM159.171 13.7198V20.5351C162.935 20.5351 165.986 17.4838 165.986 13.7198H159.171ZM148.384 13.7198V6.90447C144.62 6.90447 141.569 9.95579 141.569 13.7198H148.384ZM148.384 42.4219V49.2372C152.148 49.2372 155.199 46.1859 155.199 42.4219H148.384ZM142.444 42.4219H135.629C135.629 46.1859 138.68 49.2372 142.444 49.2372V42.4219ZM142.444 13.7198H149.259C149.259 9.95579 146.208 6.90447 142.444 6.90447V13.7198ZM131.657 13.7198H124.842C124.842 17.4838 127.893 20.5351 131.657 20.5351V13.7198ZM131.657 8.58763V1.77231C127.893 1.77231 124.842 4.82363 124.842 8.58763H131.657ZM159.171 8.58763H152.356V13.7198H159.171H165.986V8.58763H159.171ZM159.171 13.7198V6.90447H148.384V13.7198V20.5351H159.171V13.7198ZM148.384 13.7198H141.569V42.4219H148.384H155.199V13.7198H148.384ZM148.384 42.4219V35.6065H142.444V42.4219V49.2372H148.384V42.4219ZM142.444 42.4219H149.259V13.7198H142.444H135.629V42.4219H142.444ZM142.444 13.7198V6.90447H131.657V13.7198V20.5351H142.444V13.7198ZM131.657 13.7198H138.472V8.58763H131.657H124.842V13.7198H131.657ZM131.657 8.58763V15.403H159.171V8.58763V1.77231H131.657V8.58763ZM184.536 12.7219L179.48 17.2918C179.495 17.3088 179.511 17.3257 179.526 17.3426L184.536 12.7219ZM184.536 38.3352L189.546 42.9558C189.553 42.9478 189.56 42.9397 189.568 42.9317L184.536 38.3352ZM161.013 38.3352L155.979 42.9294C155.987 42.9382 155.996 42.947 156.004 42.9558L161.013 38.3352ZM160.918 12.8169L155.795 8.32215L155.792 8.32553L160.918 12.8169ZM165.338 16.2384L170.609 20.5581C170.619 20.5462 170.629 20.5343 170.638 20.5224L165.338 16.2384ZM165.29 34.7712L159.954 39.0108C159.966 39.0256 159.978 39.0404 159.99 39.0552L165.29 34.7712ZM180.259 34.7712L174.93 30.5224L174.923 30.5315L180.259 34.7712ZM180.259 16.2384L174.923 20.478C174.944 20.5049 174.966 20.5315 174.988 20.5581L180.259 16.2384ZM172.893 7.77979V14.5951C175.917 14.5951 177.902 15.5461 179.48 17.2918L184.536 12.7219L189.592 8.15193C185.214 3.30822 179.437 0.964466 172.893 0.964466V7.77979ZM184.536 12.7219L179.526 17.3426C181.166 19.1201 182.235 21.6225 182.235 25.5048H189.05H195.866C195.866 18.8692 193.925 12.8497 189.546 8.10119L184.536 12.7219ZM189.05 25.5048H182.235C182.235 29.385 181.166 31.9191 179.504 33.7386L184.536 38.3352L189.568 42.9317C193.925 38.1617 195.866 32.1423 195.866 25.5048H189.05ZM184.536 38.3352L179.526 33.7145C177.924 35.4513 175.891 36.4144 172.798 36.4144V43.2297V50.045C179.337 50.045 185.128 47.745 189.546 42.9558L184.536 38.3352ZM172.798 43.2297V36.4144C169.659 36.4144 167.616 35.4413 166.023 33.7145L161.013 38.3352L156.004 42.9558C160.43 47.7551 166.243 50.045 172.798 50.045V43.2297ZM161.013 38.3352L166.048 33.7409C164.434 31.9731 163.362 29.4502 163.362 25.5048H156.547H149.731C149.731 32.1404 151.637 38.1711 155.979 42.9294L161.013 38.3352ZM156.547 25.5048H163.362C163.362 21.7439 164.391 19.1956 166.044 17.3083L160.918 12.8169L155.792 8.32553C151.617 13.0911 149.731 19.0013 149.731 25.5048H156.547ZM160.918 12.8169L166.041 17.3117C167.52 15.626 169.54 14.5951 172.893 14.5951V7.77979V0.964466C166.173 0.964466 160.209 3.2917 155.795 8.32215L160.918 12.8169ZM172.798 12.7694V5.95407C167.74 5.95407 163.265 7.96095 160.037 11.9543L165.338 16.2384L170.638 20.5224C171.149 19.8905 171.647 19.5847 172.798 19.5847V12.7694ZM165.338 16.2384L160.066 11.9186C156.933 15.7427 155.719 20.4799 155.719 25.4097H162.534H169.349C169.349 22.673 170.005 21.296 170.609 20.5581L165.338 16.2384ZM162.534 25.4097H155.719C155.719 30.3692 156.884 35.1471 159.954 39.0108L165.29 34.7712L170.626 30.5315C170.021 29.77 169.349 28.3069 169.349 25.4097H162.534ZM165.29 34.7712L159.99 39.0552C163.261 43.1032 167.815 45.0554 172.893 45.0554V38.2401V31.4248C171.573 31.4248 171.057 31.0643 170.591 30.4871L165.29 34.7712ZM172.893 38.2401V45.0554C177.947 45.0554 182.405 43.0254 185.595 39.0108L180.259 34.7712L174.923 30.5315C174.438 31.1422 173.985 31.4248 172.893 31.4248V38.2401ZM180.259 34.7712L185.588 39.0199C188.668 35.1572 189.878 30.4142 189.878 25.4572H183.063H176.247C176.247 28.2302 175.589 29.6964 174.93 30.5224L180.259 34.7712ZM183.063 25.4572H189.878C189.878 20.5114 188.672 15.752 185.531 11.9186L180.259 16.2384L174.988 20.5581C175.585 21.2866 176.247 22.6731 176.247 25.4572H183.063ZM180.259 16.2384L185.595 11.9987C182.375 7.94616 177.865 5.95407 172.798 5.95407V12.7694V19.5847C174.005 19.5847 174.468 19.9053 174.923 20.478L180.259 16.2384ZM222.461 8.58763H229.276C229.276 4.82363 226.225 1.77231 222.461 1.77231V8.58763ZM222.461 13.5772V20.3926C226.225 20.3926 229.276 17.3412 229.276 13.5772H222.461ZM203.976 13.5772V6.76191C200.212 6.76191 197.16 9.81323 197.16 13.5772H203.976ZM203.976 22.5585H197.16C197.16 26.3225 200.212 29.3738 203.976 29.3738V22.5585ZM221.13 22.5585H227.946C227.946 18.7945 224.894 15.7432 221.13 15.7432V22.5585ZM221.13 27.358V34.1734C224.894 34.1734 227.946 31.122 227.946 27.358H221.13ZM203.976 27.358V20.5427C200.212 20.5427 197.16 23.594 197.16 27.358H203.976ZM203.976 37.3372H197.16C197.16 41.1012 200.212 44.1526 203.976 44.1526V37.3372ZM222.746 37.3372H229.561C229.561 33.5732 226.51 30.5219 222.746 30.5219V37.3372ZM222.746 42.4219V49.2372C226.51 49.2372 229.561 46.1859 229.561 42.4219H222.746ZM198.083 42.4219H191.268C191.268 46.1859 194.319 49.2372 198.083 49.2372V42.4219ZM198.083 8.58763V1.77231C194.319 1.77231 191.268 4.82363 191.268 8.58763H198.083ZM222.461 8.58763H215.646V13.5772H222.461H229.276V8.58763H222.461ZM222.461 13.5772V6.76191H203.976V13.5772V20.3926H222.461V13.5772ZM203.976 13.5772H197.16V22.5585H203.976H210.791V13.5772H203.976ZM203.976 22.5585V29.3738H221.13V22.5585V15.7432H203.976V22.5585ZM221.13 22.5585H214.315V27.358H221.13H227.946V22.5585H221.13ZM221.13 27.358V20.5427H203.976V27.358V34.1734H221.13V27.358ZM203.976 27.358H197.16V37.3372H203.976H210.791V27.358H203.976ZM203.976 37.3372V44.1526H222.746V37.3372V30.5219H203.976V37.3372ZM222.746 37.3372H215.931V42.4219H222.746H229.561V37.3372H222.746ZM222.746 42.4219V35.6065H198.083V42.4219V49.2372H222.746V42.4219ZM198.083 42.4219H204.898V8.58763H198.083H191.268V42.4219H198.083ZM198.083 8.58763V15.403H222.461V8.58763V1.77231H198.083V8.58763ZM219.462 42.4219L213.848 38.5576C212.412 40.6429 212.251 43.3521 213.429 45.593C214.607 47.8339 216.93 49.2372 219.462 49.2372V42.4219ZM231.532 24.887L237.146 28.7513C238.747 26.4245 238.747 23.3509 237.146 21.0238L231.532 24.887ZM220.317 8.58763V1.77231C217.786 1.77231 215.463 3.17533 214.285 5.41589C213.107 7.65644 213.267 10.3654 214.702 12.4508L220.317 8.58763ZM227.397 8.58763L233.13 4.90219C231.876 2.95149 229.716 1.77231 227.397 1.77231V8.58763ZM235.096 20.5627L229.363 24.2481C230.604 26.1791 232.734 27.3554 235.03 27.3777C237.325 27.4 239.477 26.2652 240.756 24.3587L235.096 20.5627ZM243.127 8.58763V1.77231C240.854 1.77231 238.732 2.90459 237.466 4.79163L243.127 8.58763ZM249.779 8.58763L255.394 12.4508C256.829 10.3654 256.99 7.65644 255.812 5.41589C254.634 3.17533 252.311 1.77231 249.779 1.77231V8.58763ZM238.565 24.887L232.95 21.0238C231.351 23.3471 231.349 26.415 232.944 28.741L238.565 24.887ZM250.587 42.4219V49.2372C253.117 49.2372 255.438 47.8364 256.617 45.5986C257.796 43.3607 257.639 40.654 256.208 38.5679L250.587 42.4219ZM243.364 42.4219L237.661 46.1538C238.92 48.0778 241.065 49.2372 243.364 49.2372V42.4219ZM234.906 29.4964L240.608 25.7645C239.354 23.8483 237.222 22.69 234.932 22.6812C232.642 22.6724 230.5 23.8143 229.232 25.7208L234.906 29.4964ZM226.304 42.4219V49.2372C228.585 49.2372 230.715 48.0963 231.978 46.1975L226.304 42.4219ZM219.462 42.4219L225.075 46.2862L237.146 28.7513L231.532 24.887L225.918 21.0227L213.848 38.5576L219.462 42.4219ZM231.532 24.887L237.146 21.0238L225.932 4.72447L220.317 8.58763L214.702 12.4508L225.917 28.7502L231.532 24.887ZM220.317 8.58763V15.403H227.397V8.58763V1.77231H220.317V8.58763ZM227.397 8.58763L221.665 12.2731L229.363 24.2481L235.096 20.5627L240.829 16.8772L233.13 4.90219L227.397 8.58763ZM235.096 20.5627L240.756 24.3587L248.787 12.3836L243.127 8.58763L237.466 4.79163L229.435 16.7667L235.096 20.5627ZM243.127 8.58763V15.403H249.779V8.58763V1.77231H243.127V8.58763ZM249.779 8.58763L244.165 4.72447L232.95 21.0238L238.565 24.887L244.179 28.7502L255.394 12.4508L249.779 8.58763ZM238.565 24.887L232.944 28.741L244.966 46.2758L250.587 42.4219L256.208 38.5679L244.186 21.033L238.565 24.887ZM250.587 42.4219V35.6065H243.364V42.4219V49.2372H250.587V42.4219ZM243.364 42.4219L249.067 38.6899L240.608 25.7645L234.906 29.4964L229.203 33.2284L237.661 46.1538L243.364 42.4219ZM234.906 29.4964L229.232 25.7208L220.631 38.6462L226.304 42.4219L231.978 46.1975L240.579 33.2721L234.906 29.4964ZM226.304 42.4219V35.6065H219.462V42.4219V49.2372H226.304V42.4219ZM249.467 8.58763V1.77231C245.703 1.77231 242.652 4.82363 242.652 8.58763H249.467ZM272.752 11.2012L268.389 16.4369C268.418 16.4607 268.447 16.4843 268.475 16.5076L272.752 11.2012ZM272.99 26.5977L277.688 31.5348C277.702 31.5217 277.716 31.5085 277.729 31.4952L272.99 26.5977ZM255.407 29.4014V22.5861C251.643 22.5861 248.592 25.6374 248.592 29.4014H255.407ZM255.407 42.4219V49.2372C259.171 49.2372 262.223 46.1859 262.223 42.4219H255.407ZM249.467 42.4219H242.652C242.652 46.1859 245.703 49.2372 249.467 49.2372V42.4219ZM255.407 13.5297V6.71439C251.643 6.71439 248.592 9.76571 248.592 13.5297H255.407ZM255.407 24.6019H248.592C248.592 28.3659 251.643 31.4172 255.407 31.4172V24.6019ZM249.467 8.58763V15.403H264.151V8.58763V1.77231H249.467V8.58763ZM264.151 8.58763V15.403C266.742 15.403 267.884 16.0156 268.389 16.4369L272.752 11.2012L277.115 5.96556C273.439 2.90205 268.846 1.77231 264.151 1.77231V8.58763ZM272.752 11.2012L268.475 16.5076C268.593 16.6023 269.121 16.9647 269.121 18.8995H275.936H282.751C282.751 13.9913 281.157 9.22157 277.029 5.89485L272.752 11.2012ZM275.936 18.8995H269.121C269.121 20.6482 268.647 21.316 268.25 21.7002L272.99 26.5977L277.729 31.4952C281.261 28.0779 282.751 23.6135 282.751 18.8995H275.936ZM272.99 26.5977L268.292 21.6606C267.892 22.041 267.058 22.5861 264.959 22.5861V29.4014V36.2167C269.639 36.2167 274.16 34.8926 277.688 31.5348L272.99 26.5977ZM264.959 29.4014V22.5861H255.407V29.4014V36.2167H264.959V29.4014ZM255.407 29.4014H248.592V42.4219H255.407H262.223V29.4014H255.407ZM255.407 42.4219V35.6065H249.467V42.4219V49.2372H255.407V42.4219ZM249.467 42.4219H256.283V8.58763H249.467H242.652V42.4219H249.467ZM255.407 13.5297H248.592V24.6019H255.407H262.223V13.5297H255.407ZM255.407 24.6019V31.4172H263.676V24.6019V17.7865H255.407V24.6019ZM263.676 24.6019V31.4172C266.651 31.4172 270.154 30.7994 272.968 28.3784C275.978 25.7887 276.954 22.2359 276.954 19.042H270.139H263.323C263.323 19.3241 263.281 19.2677 263.38 19.0121C263.495 18.7155 263.725 18.349 264.078 18.0454C264.409 17.7608 264.658 17.6935 264.625 17.7031C264.571 17.7184 264.287 17.7865 263.676 17.7865V24.6019ZM270.139 19.042H276.954C276.954 15.6678 275.804 12.0747 272.614 9.55763C269.732 7.28324 266.194 6.71439 263.153 6.71439V13.5297V20.345C263.892 20.345 264.304 20.4202 264.476 20.4654C264.635 20.5074 264.465 20.4906 264.17 20.258C264.023 20.1416 263.87 19.9911 263.731 19.808C263.592 19.6252 263.492 19.4431 263.424 19.2824C263.289 18.9641 263.323 18.8322 263.323 19.042H270.139ZM263.153 13.5297V6.71439H255.407V13.5297V20.345H263.153V13.5297ZM300.646 8.58763H307.461C307.461 4.82363 304.41 1.77231 300.646 1.77231V8.58763ZM300.646 13.5772V20.3926C304.41 20.3926 307.461 17.3412 307.461 13.5772H300.646ZM282.161 13.5772V6.76191C278.397 6.76191 275.346 9.81323 275.346 13.5772H282.161ZM282.161 22.5585H275.346C275.346 26.3225 278.397 29.3738 282.161 29.3738V22.5585ZM299.316 22.5585H306.131C306.131 18.7945 303.08 15.7432 299.316 15.7432V22.5585ZM299.316 27.358V34.1734C303.08 34.1734 306.131 31.122 306.131 27.358H299.316ZM282.161 27.358V20.5427C278.397 20.5427 275.346 23.594 275.346 27.358H282.161ZM282.161 37.3372H275.346C275.346 41.1012 278.397 44.1526 282.161 44.1526V37.3372ZM300.931 37.3372H307.747C307.747 33.5732 304.695 30.5219 300.931 30.5219V37.3372ZM300.931 42.4219V49.2372C304.695 49.2372 307.747 46.1859 307.747 42.4219H300.931ZM276.268 42.4219H269.453C269.453 46.1859 272.504 49.2372 276.268 49.2372V42.4219ZM276.268 8.58763V1.77231C272.504 1.77231 269.453 4.82363 269.453 8.58763H276.268ZM300.646 8.58763H293.831V13.5772H300.646H307.461V8.58763H300.646ZM300.646 13.5772V6.76191H282.161V13.5772V20.3926H300.646V13.5772ZM282.161 13.5772H275.346V22.5585H282.161H288.976V13.5772H282.161ZM282.161 22.5585V29.3738H299.316V22.5585V15.7432H282.161V22.5585ZM299.316 22.5585H292.5V27.358H299.316H306.131V22.5585H299.316ZM299.316 27.358V20.5427H282.161V27.358V34.1734H299.316V27.358ZM282.161 27.358H275.346V37.3372H282.161H288.976V27.358H282.161ZM282.161 37.3372V44.1526H300.931V37.3372V30.5219H282.161V37.3372ZM300.931 37.3372H294.116V42.4219H300.931H307.747V37.3372H300.931ZM300.931 42.4219V35.6065H276.268V42.4219V49.2372H300.931V42.4219ZM276.268 42.4219H283.084V8.58763H276.268H269.453V42.4219H276.268ZM276.268 8.58763V15.403H300.646V8.58763V1.77231H276.268V8.58763ZM330.483 29.544L337.279 30.0627C337.423 28.1705 336.772 26.3038 335.482 24.9118C334.193 23.5198 332.381 22.7286 330.483 22.7286V29.544ZM326.016 39.5232L330.684 44.4896L330.685 44.4878L326.016 39.5232ZM304.252 38.3827L299.167 42.9198L304.252 38.3827ZM301.781 16.7136L307.949 19.6119C307.954 19.6025 307.958 19.593 307.963 19.5836L301.781 16.7136ZM307.341 10.2984L311.071 16.0026C311.088 15.9915 311.104 15.9803 311.121 15.969L307.341 10.2984ZM325.398 10.8211L321.309 16.2733C321.323 16.2838 321.337 16.2942 321.351 16.3045L325.398 10.8211ZM330.198 19.3747V26.19C332.175 26.19 334.055 25.3314 335.349 23.837C336.644 22.3426 337.226 20.3598 336.944 18.4028L330.198 19.3747ZM324.306 19.3747L317.627 20.7313C318.272 23.9075 321.065 26.19 324.306 26.19V19.3747ZM321.454 14.6227L317.239 19.9777C317.262 19.9964 317.286 20.0149 317.31 20.0332L321.454 14.6227ZM310.192 14.7652L305.935 9.44336C305.917 9.45737 305.9 9.47147 305.882 9.48566L310.192 14.7652ZM306.866 19.4697L300.445 17.1844C300.437 17.2055 300.43 17.2267 300.423 17.248L306.866 19.4697ZM308.196 34.2009L302.392 37.7728C302.406 37.7954 302.42 37.8179 302.434 37.8403L308.196 34.2009ZM311.285 37.0996L307.951 43.0436C307.971 43.0549 307.991 43.0662 308.012 43.0773L311.285 37.0996ZM324.543 29.544V22.7286C321.11 22.7286 318.212 25.2829 317.782 28.6895L324.543 29.544ZM330.483 29.544L323.688 29.0252C323.481 31.7333 322.596 33.3837 321.347 34.5585L326.016 39.5232L330.685 44.4878C334.759 40.6571 336.852 35.6547 337.279 30.0627L330.483 29.544ZM326.016 39.5232L321.349 34.5567C320.193 35.643 318.542 36.4144 315.752 36.4144V43.2297V50.045C321.389 50.045 326.581 48.3454 330.684 44.4896L326.016 39.5232ZM315.752 43.2297V36.4144C312.683 36.4144 310.784 35.4661 309.338 33.8455L304.252 38.3827L299.167 42.9198C303.486 47.7619 309.253 50.045 315.752 50.045V43.2297ZM304.252 38.3827L309.338 33.8455C307.816 32.1396 306.743 29.5974 306.743 25.5048H299.928H293.112C293.112 32.1199 294.923 38.163 299.167 42.9198L304.252 38.3827ZM299.928 25.5048H306.743C306.743 23.1619 307.186 21.2372 307.949 19.6119L301.781 16.7136L295.613 13.8152C293.905 17.4487 293.112 21.3848 293.112 25.5048H299.928ZM301.781 16.7136L307.963 19.5836C308.658 18.0854 309.659 16.9258 311.071 16.0026L307.341 10.2984L303.611 4.59413C300.081 6.90223 297.375 10.0195 295.6 13.8435L301.781 16.7136ZM307.341 10.2984L311.121 15.969C312.341 15.1558 313.889 14.6426 316.037 14.6426V7.82731V1.01199C311.533 1.01199 307.283 2.1462 303.56 4.62766L307.341 10.2984ZM316.037 7.82731V14.6426C318.262 14.6426 319.92 15.2313 321.309 16.2733L325.398 10.8211L329.488 5.36881C325.555 2.41918 320.972 1.01199 316.037 1.01199V7.82731ZM325.398 10.8211L321.351 16.3045C322.334 17.0296 323.134 18.1337 323.452 20.3465L330.198 19.3747L336.944 18.4028C336.185 13.1392 333.786 8.54085 329.446 5.33764L325.398 10.8211ZM330.198 19.3747V12.5593H324.306V19.3747V26.19H330.198V19.3747ZM324.306 19.3747L330.984 18.018C330.281 14.5563 328.532 11.4592 325.599 9.21213L321.454 14.6227L317.31 20.0332C317.384 20.0897 317.413 20.128 317.44 20.1725C317.472 20.2259 317.556 20.3861 317.627 20.7313L324.306 19.3747ZM321.454 14.6227L325.67 9.26761C322.8 7.00789 319.411 6.04911 315.942 6.04911V12.8644V19.6798C316.845 19.6798 317.131 19.8931 317.239 19.9777L321.454 14.6227ZM315.942 12.8644V6.04911C312.324 6.04911 308.86 7.10332 305.935 9.44336L310.192 14.7652L314.45 20.0871C314.693 19.8927 315.062 19.6798 315.942 19.6798V12.8644ZM310.192 14.7652L305.882 9.48566C303.376 11.5313 301.532 14.1309 300.445 17.1844L306.866 19.4697L313.286 21.7551C313.53 21.0703 313.903 20.5336 314.502 20.0448L310.192 14.7652ZM306.866 19.4697L300.423 17.248C299.514 19.8833 299.1 22.656 299.1 25.5048H305.915H312.731C312.731 23.9817 312.95 22.731 313.309 21.6914L306.866 19.4697ZM305.915 25.5048H299.1C299.1 27.6788 299.351 29.8132 299.891 31.8821L306.486 30.1617L313.08 28.4414C312.86 27.5956 312.731 26.6255 312.731 25.5048H305.915ZM306.486 30.1617L299.891 31.8821C300.435 33.9672 301.265 35.941 302.392 37.7728L308.196 34.2009L314.001 30.629C313.607 29.9898 313.297 29.2708 313.08 28.4414L306.486 30.1617ZM308.196 34.2009L302.434 37.8403C303.828 40.0468 305.711 41.7869 307.951 43.0436L311.285 37.0996L314.619 31.1557C314.262 30.9551 314.086 30.7627 313.959 30.5616L308.196 34.2009ZM311.285 37.0996L308.012 43.0773C310.486 44.4325 313.18 45.0079 315.895 45.0079V38.1926V31.3773C315.125 31.3773 314.745 31.2241 314.559 31.1219L311.285 37.0996ZM315.895 38.1926V45.0079C319.769 45.0079 323.647 43.8564 326.654 40.8496C329.536 37.9673 330.829 34.1605 331.305 30.3984L324.543 29.544L317.782 28.6895C317.528 30.6932 317.016 31.2107 317.015 31.2113C317.011 31.2156 317.009 31.2167 317.01 31.216C317.011 31.2152 317.012 31.2147 317.012 31.215C317.011 31.2154 317.006 31.2184 316.996 31.2235C316.985 31.2287 316.966 31.2373 316.937 31.2478C316.824 31.2889 316.51 31.3773 315.895 31.3773V38.1926ZM324.543 29.544V36.3593H330.483V29.544V22.7286H324.543V29.544ZM355.321 8.58763H362.136C362.136 4.82363 359.085 1.77231 355.321 1.77231V8.58763ZM355.321 13.7198V20.5351C359.085 20.5351 362.136 17.4838 362.136 13.7198H355.321ZM344.534 13.7198V6.90447C340.77 6.90447 337.719 9.95579 337.719 13.7198H344.534ZM344.534 42.4219V49.2372C348.298 49.2372 351.349 46.1859 351.349 42.4219H344.534ZM338.594 42.4219H331.779C331.779 46.1859 334.83 49.2372 338.594 49.2372V42.4219ZM338.594 13.7198H345.409C345.409 9.95579 342.358 6.90447 338.594 6.90447V13.7198ZM327.807 13.7198H320.991C320.991 17.4838 324.043 20.5351 327.807 20.5351V13.7198ZM327.807 8.58763V1.77231C324.043 1.77231 320.991 4.82363 320.991 8.58763H327.807ZM355.321 8.58763H348.506V13.7198H355.321H362.136V8.58763H355.321ZM355.321 13.7198V6.90447H344.534V13.7198V20.5351H355.321V13.7198ZM344.534 13.7198H337.719V42.4219H344.534H351.349V13.7198H344.534ZM344.534 42.4219V35.6065H338.594V42.4219V49.2372H344.534V42.4219ZM338.594 42.4219H345.409V13.7198H338.594H331.779V42.4219H338.594ZM338.594 13.7198V6.90447H327.807V13.7198V20.5351H338.594V13.7198ZM327.807 13.7198H334.622V8.58763H327.807H320.991V13.7198H327.807ZM327.807 8.58763V15.403H355.321V8.58763V1.77231H327.807V8.58763Z" fill="#CFF665" mask="url(#path-1-outside-1_3189_1777)"/>
</svg>
